%TF.GenerationSoftware,KiCad,Pcbnew,9.0.5*%
%TF.CreationDate,2025-11-20T11:16:20-08:00*%
%TF.ProjectId,OPAmp PCB,4f50416d-7020-4504-9342-2e6b69636164,rev?*%
%TF.SameCoordinates,Original*%
%TF.FileFunction,Soldermask,Bot*%
%TF.FilePolarity,Negative*%
%FSLAX46Y46*%
G04 Gerber Fmt 4.6, Leading zero omitted, Abs format (unit mm)*
G04 Created by KiCad (PCBNEW 9.0.5) date 2025-11-20 11:16:20*
%MOMM*%
%LPD*%
G01*
G04 APERTURE LIST*
G04 Aperture macros list*
%AMRoundRect*
0 Rectangle with rounded corners*
0 $1 Rounding radius*
0 $2 $3 $4 $5 $6 $7 $8 $9 X,Y pos of 4 corners*
0 Add a 4 corners polygon primitive as box body*
4,1,4,$2,$3,$4,$5,$6,$7,$8,$9,$2,$3,0*
0 Add four circle primitives for the rounded corners*
1,1,$1+$1,$2,$3*
1,1,$1+$1,$4,$5*
1,1,$1+$1,$6,$7*
1,1,$1+$1,$8,$9*
0 Add four rect primitives between the rounded corners*
20,1,$1+$1,$2,$3,$4,$5,0*
20,1,$1+$1,$4,$5,$6,$7,0*
20,1,$1+$1,$6,$7,$8,$9,0*
20,1,$1+$1,$8,$9,$2,$3,0*%
G04 Aperture macros list end*
%ADD10RoundRect,0.250001X1.149999X-1.149999X1.149999X1.149999X-1.149999X1.149999X-1.149999X-1.149999X0*%
%ADD11C,2.800000*%
%ADD12C,1.440000*%
%ADD13RoundRect,0.250000X-0.750000X0.750000X-0.750000X-0.750000X0.750000X-0.750000X0.750000X0.750000X0*%
%ADD14C,2.000000*%
%ADD15RoundRect,0.250001X-1.149999X1.149999X-1.149999X-1.149999X1.149999X-1.149999X1.149999X1.149999X0*%
%ADD16C,1.600000*%
%ADD17RoundRect,0.250000X0.550000X0.550000X-0.550000X0.550000X-0.550000X-0.550000X0.550000X-0.550000X0*%
%ADD18RoundRect,0.250000X-0.550000X0.950000X-0.550000X-0.950000X0.550000X-0.950000X0.550000X0.950000X0*%
%ADD19O,1.600000X2.400000*%
%ADD20R,1.500000X1.500000*%
%ADD21RoundRect,0.250000X0.350000X0.350000X-0.350000X0.350000X-0.350000X-0.350000X0.350000X-0.350000X0*%
%ADD22C,1.200000*%
%ADD23RoundRect,0.250000X0.750000X0.750000X-0.750000X0.750000X-0.750000X-0.750000X0.750000X-0.750000X0*%
%ADD24R,1.800000X1.800000*%
%ADD25C,1.800000*%
G04 APERTURE END LIST*
D10*
%TO.C,J3*%
X74865000Y-43900000D03*
D11*
X74865000Y-38900000D03*
%TD*%
D12*
%TO.C,RV2*%
X94662500Y-103000000D03*
X92122500Y-100460000D03*
X89582500Y-103000000D03*
%TD*%
%TO.C,RV1*%
X79582500Y-103000000D03*
X77042500Y-100460000D03*
X74502500Y-103000000D03*
%TD*%
D13*
%TO.C,C10*%
X123632500Y-70032323D03*
D14*
X123632500Y-77532323D03*
%TD*%
D13*
%TO.C,C11*%
X123632500Y-87432323D03*
D14*
X123632500Y-94932323D03*
%TD*%
D15*
%TO.C,J4*%
X138682500Y-62250000D03*
D11*
X138682500Y-67250000D03*
%TD*%
D16*
%TO.C,C8*%
X114832500Y-104850000D03*
X114832500Y-102350000D03*
%TD*%
D17*
%TO.C,C2*%
X88287613Y-82800000D03*
D16*
X85787613Y-82800000D03*
%TD*%
D18*
%TO.C,U2*%
X108082500Y-69140000D03*
D19*
X105542500Y-69140000D03*
X103002500Y-69140000D03*
X100462500Y-69140000D03*
X100462500Y-76760000D03*
X103002500Y-76760000D03*
X105542500Y-76760000D03*
X108082500Y-76760000D03*
%TD*%
D20*
%TO.C,SW1*%
X88592500Y-38850000D03*
D16*
X86052500Y-38850000D03*
X91132500Y-38850000D03*
%TD*%
D21*
%TO.C,C5*%
X115785099Y-94900000D03*
D22*
X113785099Y-94900000D03*
%TD*%
D16*
%TO.C,R5*%
X107892500Y-99650000D03*
X100272500Y-99650000D03*
%TD*%
D23*
%TO.C,C12*%
X111750177Y-42050000D03*
D14*
X104250177Y-42050000D03*
%TD*%
D17*
%TO.C,C1*%
X88287613Y-62400000D03*
D16*
X85787613Y-62400000D03*
%TD*%
D13*
%TO.C,C9*%
X123632500Y-51782323D03*
D14*
X123632500Y-59282323D03*
%TD*%
D16*
%TO.C,R3*%
X100272500Y-64150000D03*
X107892500Y-64150000D03*
%TD*%
%TO.C,R4*%
X107892500Y-81800000D03*
X100272500Y-81800000D03*
%TD*%
D21*
%TO.C,C3*%
X115632500Y-59150000D03*
D22*
X113632500Y-59150000D03*
%TD*%
D18*
%TO.C,U1*%
X108082500Y-51440000D03*
D19*
X105542500Y-51440000D03*
X103002500Y-51440000D03*
X100462500Y-51440000D03*
X100462500Y-59060000D03*
X103002500Y-59060000D03*
X105542500Y-59060000D03*
X108082500Y-59060000D03*
%TD*%
D16*
%TO.C,R1*%
X90892500Y-70400000D03*
X83272500Y-70400000D03*
%TD*%
D15*
%TO.C,J5*%
X138682500Y-81150000D03*
D11*
X138682500Y-86150000D03*
%TD*%
D16*
%TO.C,C6*%
X114782500Y-68700000D03*
X114782500Y-66200000D03*
%TD*%
D24*
%TO.C,D1*%
X98132500Y-40960000D03*
D25*
X98132500Y-43500000D03*
%TD*%
D16*
%TO.C,R2*%
X83272500Y-90050000D03*
X90892500Y-90050000D03*
%TD*%
D18*
%TO.C,U3*%
X108082500Y-87190000D03*
D19*
X105542500Y-87190000D03*
X103002500Y-87190000D03*
X100462500Y-87190000D03*
X100462500Y-94810000D03*
X103002500Y-94810000D03*
X105542500Y-94810000D03*
X108082500Y-94810000D03*
%TD*%
D10*
%TO.C,J2*%
X74800000Y-85150000D03*
D11*
X74800000Y-80150000D03*
%TD*%
D16*
%TO.C,C7*%
X114812499Y-86600000D03*
X114812499Y-84100000D03*
%TD*%
%TO.C,R6*%
X92492500Y-44250000D03*
X84872500Y-44250000D03*
%TD*%
D21*
%TO.C,C4*%
X115785099Y-77140000D03*
D22*
X113785099Y-77140000D03*
%TD*%
D10*
%TO.C,J1*%
X74832500Y-65700000D03*
D11*
X74832500Y-60700000D03*
%TD*%
M02*
