ISO-10303-21;
HEADER;
/* Generated by software containing ST-Developer
 * from STEP Tools, Inc. (www.steptools.com) 
 */

FILE_DESCRIPTION(
/* description */ (''),
/* implementation_level */ '2;1');

FILE_NAME(
/* name */ '/Users/yuhueisheng/PROJECTS/INOLUX/part/IN-S63BT v1.step',
/* time_stamp */ '2018-10-09T15:04:10+08:00',
/* author */ ('dvampire'),
/* organization */ (''),
/* preprocessor_version */ 'ST-DEVELOPER v17.2',
/* originating_system */ 'Autodesk Translation Framework v7.6.0.251',
/* authorisation */ '');

FILE_SCHEMA (('AUTOMOTIVE_DESIGN { 1 0 10303 214 3 1 1 }'));
ENDSEC;

DATA;
#10=MECHANICAL_DESIGN_GEOMETRIC_PRESENTATION_REPRESENTATION('',(#40,#41,
#42,#43,#44,#45,#46,#47),#1415);
#11=SHAPE_REPRESENTATION_RELATIONSHIP('SRR','None',#1422,#12);
#12=ADVANCED_BREP_SHAPE_REPRESENTATION('',(#48,#49,#50,#51,#52),#1414);
#13=OPEN_SHELL('',(#747));
#14=OPEN_SHELL('',(#748));
#15=OPEN_SHELL('',(#749));
#16=SHELL_BASED_SURFACE_MODEL('Body6',(#13));
#17=SHELL_BASED_SURFACE_MODEL('Body7',(#14));
#18=SHELL_BASED_SURFACE_MODEL('Body8',(#15));
#19=ELLIPSE('',#798,0.0517939561509092,0.0499999789464651);
#20=ELLIPSE('',#799,0.0517939561179097,0.049999978883805);
#21=ELLIPSE('',#802,0.0517939562052069,0.0499999790464228);
#22=ELLIPSE('',#803,0.0517939559262404,0.0499999785226978);
#23=ELLIPSE('',#807,0.0707087188112244,0.0499978589967558);
#24=ELLIPSE('',#808,0.070708718811938,0.0499978589973757);
#25=ELLIPSE('',#810,0.0707087188122262,0.0499978589976215);
#26=ELLIPSE('',#812,0.0707087188115298,0.0499978589969641);
#27=B_SPLINE_SURFACE_WITH_KNOTS('',3,1,((#1088,#1089),(#1090,#1091),(#1092,
#1093),(#1094,#1095),(#1096,#1097),(#1098,#1099),(#1100,#1101),(#1102,#1103),
(#1104,#1105),(#1106,#1107),(#1108,#1109)),.UNSPECIFIED.,.F.,.F.,.F.,(4,
1,1,1,1,1,1,1,4),(2,2),(-4.71238898038469,-4.12334035783661,-3.53429173528852,
-2.94524311274043,-2.35619449019235,-1.76714586764426,-1.17809724509617,
-0.589048622548086,0.),(0.,0.0216),.UNSPECIFIED.);
#28=B_SPLINE_SURFACE_WITH_KNOTS('',3,1,((#1127,#1128),(#1129,#1130),(#1131,
#1132),(#1133,#1134),(#1135,#1136),(#1137,#1138),(#1139,#1140),(#1141,#1142),
(#1143,#1144),(#1145,#1146),(#1147,#1148)),.UNSPECIFIED.,.F.,.F.,.F.,(4,
1,1,1,1,1,1,1,4),(2,2),(0.,0.589048622548086,1.17809724509617,1.76714586764426,
2.35619449019235,2.94524311274043,3.53429173528852,4.12334035783661,4.71238898038469),
(0.,0.0216),.UNSPECIFIED.);
#29=B_SPLINE_SURFACE_WITH_KNOTS('',3,1,((#1196,#1197),(#1198,#1199),(#1200,
#1201),(#1202,#1203),(#1204,#1205),(#1206,#1207),(#1208,#1209),(#1210,#1211),
(#1212,#1213),(#1214,#1215),(#1216,#1217)),.UNSPECIFIED.,.F.,.F.,.F.,(4,
1,1,1,1,1,1,1,4),(2,2),(-4.71238898038469,-4.12334035783661,-3.53429173528852,
-2.94524311274043,-2.35619449019235,-1.76714586764426,-1.17809724509617,
-0.589048622548086,0.),(0.,0.0216),.UNSPECIFIED.);
#30=B_SPLINE_SURFACE_WITH_KNOTS('',3,1,((#1235,#1236),(#1237,#1238),(#1239,
#1240),(#1241,#1242),(#1243,#1244),(#1245,#1246),(#1247,#1248),(#1249,#1250),
(#1251,#1252),(#1253,#1254),(#1255,#1256)),.UNSPECIFIED.,.F.,.F.,.F.,(4,
1,1,1,1,1,1,1,4),(2,2),(0.,0.589048622548086,1.17809724509617,1.76714586764426,
2.35619449019235,2.94524311274043,3.53429173528852,4.12334035783661,4.71238898038469),
(0.,0.0216),.UNSPECIFIED.);
#31=B_SPLINE_CURVE_WITH_KNOTS('',3,(#1058,#1059,#1060,#1061,#1062,#1063,
#1064,#1065,#1066,#1067,#1068),.UNSPECIFIED.,.F.,.F.,(4,1,1,1,1,1,1,1,4),
(0.,0.589048622548086,1.17809724509617,1.76714586764426,2.35619449019235,
2.94524311274043,3.53429173528852,4.12334035783661,4.71238898038469),
 .UNSPECIFIED.);
#32=B_SPLINE_CURVE_WITH_KNOTS('',3,(#1071,#1072,#1073,#1074,#1075,#1076,
#1077,#1078,#1079,#1080,#1081),.UNSPECIFIED.,.F.,.F.,(4,1,1,1,1,1,1,1,4),
(-4.71238898038469,-4.12334035783661,-3.53429173528852,-2.94524311274043,
-2.35619449019235,-1.76714586764426,-1.17809724509617,-0.589048622548086,
0.),.UNSPECIFIED.);
#33=B_SPLINE_CURVE_WITH_KNOTS('',3,(#1111,#1112,#1113,#1114,#1115,#1116,
#1117,#1118,#1119,#1120,#1121),.UNSPECIFIED.,.F.,.F.,(4,1,1,1,1,1,1,1,4),
(0.,0.589048622548086,1.17809724509617,1.76714586764426,2.35619449019235,
2.94524311274043,3.53429173528852,4.12334035783661,4.71238898038469),
 .UNSPECIFIED.);
#34=B_SPLINE_CURVE_WITH_KNOTS('',3,(#1149,#1150,#1151,#1152,#1153,#1154,
#1155,#1156,#1157,#1158,#1159),.UNSPECIFIED.,.F.,.F.,(4,1,1,1,1,1,1,1,4),
(-4.71238898038469,-4.12334035783661,-3.53429173528852,-2.94524311274043,
-2.35619449019235,-1.76714586764426,-1.17809724509617,-0.589048622548086,
0.),.UNSPECIFIED.);
#35=B_SPLINE_CURVE_WITH_KNOTS('',3,(#1164,#1165,#1166,#1167,#1168,#1169,
#1170,#1171,#1172,#1173,#1174),.UNSPECIFIED.,.F.,.F.,(4,1,1,1,1,1,1,1,4),
(-4.71238898038469,-4.12334035783661,-3.53429173528852,-2.94524311274043,
-2.35619449019235,-1.76714586764426,-1.17809724509617,-0.589048622548086,
0.),.UNSPECIFIED.);
#36=B_SPLINE_CURVE_WITH_KNOTS('',3,(#1178,#1179,#1180,#1181,#1182,#1183,
#1184,#1185,#1186,#1187,#1188),.UNSPECIFIED.,.F.,.F.,(4,1,1,1,1,1,1,1,4),
(0.,0.589048622548086,1.17809724509617,1.76714586764426,2.35619449019235,
2.94524311274043,3.53429173528852,4.12334035783661,4.71238898038469),
 .UNSPECIFIED.);
#37=B_SPLINE_CURVE_WITH_KNOTS('',3,(#1220,#1221,#1222,#1223,#1224,#1225,
#1226,#1227,#1228,#1229,#1230),.UNSPECIFIED.,.F.,.F.,(4,1,1,1,1,1,1,1,4),
(0.,0.589048622548086,1.17809724509617,1.76714586764426,2.35619449019235,
2.94524311274043,3.53429173528852,4.12334035783661,4.71238898038469),
 .UNSPECIFIED.);
#38=B_SPLINE_CURVE_WITH_KNOTS('',3,(#1257,#1258,#1259,#1260,#1261,#1262,
#1263,#1264,#1265,#1266,#1267),.UNSPECIFIED.,.F.,.F.,(4,1,1,1,1,1,1,1,4),
(-4.71238898038469,-4.12334035783661,-3.53429173528852,-2.94524311274043,
-2.35619449019235,-1.76714586764426,-1.17809724509617,-0.589048622548086,
0.),.UNSPECIFIED.);
#39=B_SPLINE_CURVE_WITH_KNOTS('',3,(#1370,#1371,#1372,#1373,#1374,#1375,
#1376,#1377,#1378,#1379,#1380,#1381,#1382,#1383,#1384,#1385,#1386,#1387,
#1388,#1389,#1390,#1391,#1392,#1393,#1394),.UNSPECIFIED.,.F.,.F.,(4,3,3,
3,3,3,3,3,4),(-4.71238898038469,-4.12334035783661,-3.53429173528852,-2.94524311274043,
-2.35619449019235,-1.76714586764426,-1.17809724509617,-0.589048622548086,
0.),.UNSPECIFIED.);
#40=STYLED_ITEM('',(#1431),#48);
#41=STYLED_ITEM('',(#1432),#49);
#42=STYLED_ITEM('',(#1432),#50);
#43=STYLED_ITEM('',(#1433),#51);
#44=STYLED_ITEM('',(#1434),#52);
#45=STYLED_ITEM('',(#1435),#16);
#46=STYLED_ITEM('',(#1435),#17);
#47=STYLED_ITEM('',(#1435),#18);
#48=MANIFOLD_SOLID_BREP('Body1',#750);
#49=MANIFOLD_SOLID_BREP('Body2',#751);
#50=MANIFOLD_SOLID_BREP('Body3',#752);
#51=MANIFOLD_SOLID_BREP('Body4',#753);
#52=MANIFOLD_SOLID_BREP('Body5',#754);
#53=CYLINDRICAL_SURFACE('',#771,0.159999961626207);
#54=CYLINDRICAL_SURFACE('',#776,0.16);
#55=CYLINDRICAL_SURFACE('',#806,0.0500000000001061);
#56=CYLINDRICAL_SURFACE('',#809,0.0499999999999973);
#57=CYLINDRICAL_SURFACE('',#811,0.0499999999999382);
#58=CYLINDRICAL_SURFACE('',#813,0.050000000000002);
#59=FACE_OUTER_BOUND('',#100,.T.);
#60=FACE_OUTER_BOUND('',#101,.T.);
#61=FACE_OUTER_BOUND('',#102,.T.);
#62=FACE_OUTER_BOUND('',#103,.T.);
#63=FACE_OUTER_BOUND('',#104,.T.);
#64=FACE_OUTER_BOUND('',#105,.T.);
#65=FACE_OUTER_BOUND('',#106,.T.);
#66=FACE_OUTER_BOUND('',#107,.T.);
#67=FACE_OUTER_BOUND('',#108,.T.);
#68=FACE_OUTER_BOUND('',#109,.T.);
#69=FACE_OUTER_BOUND('',#110,.T.);
#70=FACE_OUTER_BOUND('',#111,.T.);
#71=FACE_OUTER_BOUND('',#112,.T.);
#72=FACE_OUTER_BOUND('',#113,.T.);
#73=FACE_OUTER_BOUND('',#114,.T.);
#74=FACE_OUTER_BOUND('',#115,.T.);
#75=FACE_OUTER_BOUND('',#116,.T.);
#76=FACE_OUTER_BOUND('',#117,.T.);
#77=FACE_OUTER_BOUND('',#118,.T.);
#78=FACE_OUTER_BOUND('',#119,.T.);
#79=FACE_OUTER_BOUND('',#120,.T.);
#80=FACE_OUTER_BOUND('',#121,.T.);
#81=FACE_OUTER_BOUND('',#122,.T.);
#82=FACE_OUTER_BOUND('',#123,.T.);
#83=FACE_OUTER_BOUND('',#124,.T.);
#84=FACE_OUTER_BOUND('',#125,.T.);
#85=FACE_OUTER_BOUND('',#126,.T.);
#86=FACE_OUTER_BOUND('',#127,.T.);
#87=FACE_OUTER_BOUND('',#128,.T.);
#88=FACE_OUTER_BOUND('',#129,.T.);
#89=FACE_OUTER_BOUND('',#130,.T.);
#90=FACE_OUTER_BOUND('',#131,.T.);
#91=FACE_OUTER_BOUND('',#132,.T.);
#92=FACE_OUTER_BOUND('',#133,.T.);
#93=FACE_OUTER_BOUND('',#134,.T.);
#94=FACE_OUTER_BOUND('',#135,.T.);
#95=FACE_OUTER_BOUND('',#136,.T.);
#96=FACE_OUTER_BOUND('',#137,.T.);
#97=FACE_OUTER_BOUND('',#138,.T.);
#98=FACE_OUTER_BOUND('',#139,.T.);
#99=FACE_OUTER_BOUND('',#140,.T.);
#100=EDGE_LOOP('',(#490,#491,#492,#493,#494,#495,#496,#497));
#101=EDGE_LOOP('',(#498,#499,#500,#501));
#102=EDGE_LOOP('',(#502,#503,#504,#505));
#103=EDGE_LOOP('',(#506,#507,#508,#509));
#104=EDGE_LOOP('',(#510,#511,#512,#513));
#105=EDGE_LOOP('',(#514,#515,#516,#517));
#106=EDGE_LOOP('',(#518,#519,#520,#521));
#107=EDGE_LOOP('',(#522,#523,#524,#525));
#108=EDGE_LOOP('',(#526,#527,#528,#529));
#109=EDGE_LOOP('',(#530,#531,#532,#533,#534,#535,#536,#537));
#110=EDGE_LOOP('',(#538,#539,#540,#541));
#111=EDGE_LOOP('',(#542,#543,#544,#545));
#112=EDGE_LOOP('',(#546,#547,#548,#549));
#113=EDGE_LOOP('',(#550,#551,#552,#553));
#114=EDGE_LOOP('',(#554,#555,#556,#557));
#115=EDGE_LOOP('',(#558,#559,#560,#561));
#116=EDGE_LOOP('',(#562,#563,#564,#565));
#117=EDGE_LOOP('',(#566,#567,#568,#569));
#118=EDGE_LOOP('',(#570,#571,#572,#573));
#119=EDGE_LOOP('',(#574,#575,#576,#577));
#120=EDGE_LOOP('',(#578,#579,#580,#581));
#121=EDGE_LOOP('',(#582,#583,#584,#585));
#122=EDGE_LOOP('',(#586,#587,#588,#589));
#123=EDGE_LOOP('',(#590,#591,#592,#593));
#124=EDGE_LOOP('',(#594,#595,#596,#597));
#125=EDGE_LOOP('',(#598,#599,#600,#601));
#126=EDGE_LOOP('',(#602,#603,#604,#605));
#127=EDGE_LOOP('',(#606,#607,#608,#609));
#128=EDGE_LOOP('',(#610,#611,#612,#613));
#129=EDGE_LOOP('',(#614,#615,#616,#617,#618,#619));
#130=EDGE_LOOP('',(#620,#621,#622,#623));
#131=EDGE_LOOP('',(#624,#625,#626,#627,#628,#629));
#132=EDGE_LOOP('',(#630,#631,#632,#633));
#133=EDGE_LOOP('',(#634,#635,#636,#637));
#134=EDGE_LOOP('',(#638,#639,#640,#641));
#135=EDGE_LOOP('',(#642,#643,#644,#645,#646,#647));
#136=EDGE_LOOP('',(#648,#649,#650,#651));
#137=EDGE_LOOP('',(#652,#653,#654,#655,#656,#657));
#138=EDGE_LOOP('',(#658,#659,#660,#661,#662,#663));
#139=EDGE_LOOP('',(#664,#665,#666,#667,#668,#669));
#140=EDGE_LOOP('',(#670,#671,#672,#673,#674,#675,#676,#677));
#141=LINE('',#1008,#223);
#142=LINE('',#1010,#224);
#143=LINE('',#1012,#225);
#144=LINE('',#1016,#226);
#145=LINE('',#1018,#227);
#146=LINE('',#1019,#228);
#147=LINE('',#1022,#229);
#148=LINE('',#1025,#230);
#149=LINE('',#1028,#231);
#150=LINE('',#1029,#232);
#151=LINE('',#1032,#233);
#152=LINE('',#1033,#234);
#153=LINE('',#1036,#235);
#154=LINE('',#1037,#236);
#155=LINE('',#1041,#237);
#156=LINE('',#1044,#238);
#157=LINE('',#1045,#239);
#158=LINE('',#1048,#240);
#159=LINE('',#1049,#241);
#160=LINE('',#1051,#242);
#161=LINE('',#1056,#243);
#162=LINE('',#1070,#244);
#163=LINE('',#1084,#245);
#164=LINE('',#1086,#246);
#165=LINE('',#1087,#247);
#166=LINE('',#1122,#248);
#167=LINE('',#1125,#249);
#168=LINE('',#1126,#250);
#169=LINE('',#1176,#251);
#170=LINE('',#1189,#252);
#171=LINE('',#1192,#253);
#172=LINE('',#1194,#254);
#173=LINE('',#1195,#255);
#174=LINE('',#1219,#256);
#175=LINE('',#1233,#257);
#176=LINE('',#1234,#258);
#177=LINE('',#1272,#259);
#178=LINE('',#1274,#260);
#179=LINE('',#1276,#261);
#180=LINE('',#1277,#262);
#181=LINE('',#1280,#263);
#182=LINE('',#1282,#264);
#183=LINE('',#1283,#265);
#184=LINE('',#1286,#266);
#185=LINE('',#1288,#267);
#186=LINE('',#1289,#268);
#187=LINE('',#1291,#269);
#188=LINE('',#1292,#270);
#189=LINE('',#1298,#271);
#190=LINE('',#1300,#272);
#191=LINE('',#1302,#273);
#192=LINE('',#1303,#274);
#193=LINE('',#1307,#275);
#194=LINE('',#1310,#276);
#195=LINE('',#1312,#277);
#196=LINE('',#1316,#278);
#197=LINE('',#1317,#279);
#198=LINE('',#1321,#280);
#199=LINE('',#1324,#281);
#200=LINE('',#1327,#282);
#201=LINE('',#1331,#283);
#202=LINE('',#1333,#284);
#203=LINE('',#1335,#285);
#204=LINE('',#1336,#286);
#205=LINE('',#1350,#287);
#206=LINE('',#1352,#288);
#207=LINE('',#1354,#289);
#208=LINE('',#1356,#290);
#209=LINE('',#1357,#291);
#210=LINE('',#1361,#292);
#211=LINE('',#1363,#293);
#212=LINE('',#1365,#294);
#213=LINE('',#1367,#295);
#214=LINE('',#1369,#296);
#215=LINE('',#1398,#297);
#216=LINE('',#1400,#298);
#217=LINE('',#1402,#299);
#218=LINE('',#1404,#300);
#219=LINE('',#1406,#301);
#220=LINE('',#1408,#302);
#221=LINE('',#1410,#303);
#222=LINE('',#1411,#304);
#223=VECTOR('',#824,10.);
#224=VECTOR('',#825,10.);
#225=VECTOR('',#826,10.);
#226=VECTOR('',#829,10.);
#227=VECTOR('',#830,10.);
#228=VECTOR('',#831,10.);
#229=VECTOR('',#834,10.);
#230=VECTOR('',#837,10.);
#231=VECTOR('',#840,10.);
#232=VECTOR('',#841,10.);
#233=VECTOR('',#844,10.);
#234=VECTOR('',#845,10.);
#235=VECTOR('',#848,10.);
#236=VECTOR('',#849,10.);
#237=VECTOR('',#854,10.);
#238=VECTOR('',#857,10.);
#239=VECTOR('',#858,10.);
#240=VECTOR('',#861,10.);
#241=VECTOR('',#862,10.);
#242=VECTOR('',#865,10.);
#243=VECTOR('',#870,10.);
#244=VECTOR('',#871,10.);
#245=VECTOR('',#874,10.);
#246=VECTOR('',#875,10.);
#247=VECTOR('',#876,10.);
#248=VECTOR('',#877,10.);
#249=VECTOR('',#880,10.);
#250=VECTOR('',#881,10.);
#251=VECTOR('',#886,10.);
#252=VECTOR('',#887,10.);
#253=VECTOR('',#890,10.);
#254=VECTOR('',#891,10.);
#255=VECTOR('',#892,10.);
#256=VECTOR('',#893,10.);
#257=VECTOR('',#896,10.);
#258=VECTOR('',#897,10.);
#259=VECTOR('',#902,10.);
#260=VECTOR('',#903,10.);
#261=VECTOR('',#904,10.);
#262=VECTOR('',#905,10.);
#263=VECTOR('',#908,10.);
#264=VECTOR('',#909,10.);
#265=VECTOR('',#910,10.);
#266=VECTOR('',#913,10.);
#267=VECTOR('',#914,10.);
#268=VECTOR('',#915,10.);
#269=VECTOR('',#918,10.);
#270=VECTOR('',#919,10.);
#271=VECTOR('',#926,10.);
#272=VECTOR('',#927,10.);
#273=VECTOR('',#928,10.);
#274=VECTOR('',#929,10.);
#275=VECTOR('',#932,10.);
#276=VECTOR('',#935,10.);
#277=VECTOR('',#936,10.);
#278=VECTOR('',#941,10.);
#279=VECTOR('',#942,10.);
#280=VECTOR('',#945,10.);
#281=VECTOR('',#948,10.);
#282=VECTOR('',#953,10.);
#283=VECTOR('',#956,10.);
#284=VECTOR('',#957,10.);
#285=VECTOR('',#958,10.);
#286=VECTOR('',#959,10.);
#287=VECTOR('',#980,10.);
#288=VECTOR('',#981,10.);
#289=VECTOR('',#982,10.);
#290=VECTOR('',#983,10.);
#291=VECTOR('',#984,10.);
#292=VECTOR('',#987,10.);
#293=VECTOR('',#988,10.);
#294=VECTOR('',#989,10.);
#295=VECTOR('',#990,10.);
#296=VECTOR('',#991,10.);
#297=VECTOR('',#994,10.);
#298=VECTOR('',#995,10.);
#299=VECTOR('',#996,10.);
#300=VECTOR('',#997,10.);
#301=VECTOR('',#998,10.);
#302=VECTOR('',#999,10.);
#303=VECTOR('',#1000,10.);
#304=VECTOR('',#1001,10.);
#305=CIRCLE('',#769,0.16);
#306=CIRCLE('',#770,0.16);
#307=CIRCLE('',#772,0.16);
#308=CIRCLE('',#777,0.16);
#309=CIRCLE('',#815,0.16);
#310=VERTEX_POINT('',#1004);
#311=VERTEX_POINT('',#1005);
#312=VERTEX_POINT('',#1007);
#313=VERTEX_POINT('',#1009);
#314=VERTEX_POINT('',#1011);
#315=VERTEX_POINT('',#1013);
#316=VERTEX_POINT('',#1015);
#317=VERTEX_POINT('',#1017);
#318=VERTEX_POINT('',#1021);
#319=VERTEX_POINT('',#1023);
#320=VERTEX_POINT('',#1027);
#321=VERTEX_POINT('',#1031);
#322=VERTEX_POINT('',#1035);
#323=VERTEX_POINT('',#1039);
#324=VERTEX_POINT('',#1043);
#325=VERTEX_POINT('',#1047);
#326=VERTEX_POINT('',#1054);
#327=VERTEX_POINT('',#1055);
#328=VERTEX_POINT('',#1057);
#329=VERTEX_POINT('',#1069);
#330=VERTEX_POINT('',#1083);
#331=VERTEX_POINT('',#1085);
#332=VERTEX_POINT('',#1110);
#333=VERTEX_POINT('',#1124);
#334=VERTEX_POINT('',#1162);
#335=VERTEX_POINT('',#1163);
#336=VERTEX_POINT('',#1175);
#337=VERTEX_POINT('',#1177);
#338=VERTEX_POINT('',#1191);
#339=VERTEX_POINT('',#1193);
#340=VERTEX_POINT('',#1218);
#341=VERTEX_POINT('',#1232);
#342=VERTEX_POINT('',#1270);
#343=VERTEX_POINT('',#1271);
#344=VERTEX_POINT('',#1273);
#345=VERTEX_POINT('',#1275);
#346=VERTEX_POINT('',#1279);
#347=VERTEX_POINT('',#1281);
#348=VERTEX_POINT('',#1285);
#349=VERTEX_POINT('',#1287);
#350=VERTEX_POINT('',#1296);
#351=VERTEX_POINT('',#1297);
#352=VERTEX_POINT('',#1299);
#353=VERTEX_POINT('',#1301);
#354=VERTEX_POINT('',#1305);
#355=VERTEX_POINT('',#1306);
#356=VERTEX_POINT('',#1308);
#357=VERTEX_POINT('',#1311);
#358=VERTEX_POINT('',#1315);
#359=VERTEX_POINT('',#1319);
#360=VERTEX_POINT('',#1320);
#361=VERTEX_POINT('',#1322);
#362=VERTEX_POINT('',#1329);
#363=VERTEX_POINT('',#1330);
#364=VERTEX_POINT('',#1332);
#365=VERTEX_POINT('',#1334);
#366=VERTEX_POINT('',#1346);
#367=VERTEX_POINT('',#1347);
#368=VERTEX_POINT('',#1349);
#369=VERTEX_POINT('',#1351);
#370=VERTEX_POINT('',#1353);
#371=VERTEX_POINT('',#1355);
#372=VERTEX_POINT('',#1359);
#373=VERTEX_POINT('',#1360);
#374=VERTEX_POINT('',#1362);
#375=VERTEX_POINT('',#1364);
#376=VERTEX_POINT('',#1366);
#377=VERTEX_POINT('',#1368);
#378=VERTEX_POINT('',#1396);
#379=VERTEX_POINT('',#1397);
#380=VERTEX_POINT('',#1399);
#381=VERTEX_POINT('',#1401);
#382=VERTEX_POINT('',#1403);
#383=VERTEX_POINT('',#1405);
#384=VERTEX_POINT('',#1407);
#385=VERTEX_POINT('',#1409);
#386=EDGE_CURVE('',#310,#311,#305,.T.);
#387=EDGE_CURVE('',#311,#312,#141,.T.);
#388=EDGE_CURVE('',#312,#313,#142,.T.);
#389=EDGE_CURVE('',#313,#314,#143,.T.);
#390=EDGE_CURVE('',#314,#315,#306,.T.);
#391=EDGE_CURVE('',#315,#316,#144,.T.);
#392=EDGE_CURVE('',#316,#317,#145,.T.);
#393=EDGE_CURVE('',#317,#310,#146,.T.);
#394=EDGE_CURVE('',#310,#318,#147,.T.);
#395=EDGE_CURVE('',#318,#319,#307,.T.);
#396=EDGE_CURVE('',#319,#311,#148,.T.);
#397=EDGE_CURVE('',#319,#320,#149,.T.);
#398=EDGE_CURVE('',#320,#312,#150,.T.);
#399=EDGE_CURVE('',#320,#321,#151,.T.);
#400=EDGE_CURVE('',#321,#313,#152,.T.);
#401=EDGE_CURVE('',#321,#322,#153,.T.);
#402=EDGE_CURVE('',#322,#314,#154,.T.);
#403=EDGE_CURVE('',#322,#323,#308,.T.);
#404=EDGE_CURVE('',#323,#315,#155,.T.);
#405=EDGE_CURVE('',#323,#324,#156,.T.);
#406=EDGE_CURVE('',#324,#316,#157,.T.);
#407=EDGE_CURVE('',#324,#325,#158,.T.);
#408=EDGE_CURVE('',#325,#317,#159,.T.);
#409=EDGE_CURVE('',#325,#318,#160,.T.);
#410=EDGE_CURVE('',#326,#327,#161,.T.);
#411=EDGE_CURVE('',#327,#328,#31,.T.);
#412=EDGE_CURVE('',#328,#329,#162,.T.);
#413=EDGE_CURVE('',#329,#326,#32,.T.);
#414=EDGE_CURVE('',#326,#330,#163,.T.);
#415=EDGE_CURVE('',#330,#331,#164,.T.);
#416=EDGE_CURVE('',#331,#327,#165,.T.);
#417=EDGE_CURVE('',#331,#332,#33,.T.);
#418=EDGE_CURVE('',#332,#328,#166,.T.);
#419=EDGE_CURVE('',#332,#333,#167,.T.);
#420=EDGE_CURVE('',#333,#329,#168,.T.);
#421=EDGE_CURVE('',#333,#330,#34,.T.);
#422=EDGE_CURVE('',#334,#335,#35,.T.);
#423=EDGE_CURVE('',#336,#334,#169,.T.);
#424=EDGE_CURVE('',#337,#336,#36,.T.);
#425=EDGE_CURVE('',#335,#337,#170,.T.);
#426=EDGE_CURVE('',#338,#337,#171,.T.);
#427=EDGE_CURVE('',#339,#338,#172,.T.);
#428=EDGE_CURVE('',#335,#339,#173,.T.);
#429=EDGE_CURVE('',#340,#336,#174,.T.);
#430=EDGE_CURVE('',#338,#340,#37,.T.);
#431=EDGE_CURVE('',#341,#334,#175,.T.);
#432=EDGE_CURVE('',#340,#341,#176,.T.);
#433=EDGE_CURVE('',#341,#339,#38,.T.);
#434=EDGE_CURVE('',#342,#343,#177,.T.);
#435=EDGE_CURVE('',#343,#344,#178,.T.);
#436=EDGE_CURVE('',#345,#344,#179,.T.);
#437=EDGE_CURVE('',#342,#345,#180,.T.);
#438=EDGE_CURVE('',#343,#346,#181,.T.);
#439=EDGE_CURVE('',#346,#347,#182,.T.);
#440=EDGE_CURVE('',#344,#347,#183,.T.);
#441=EDGE_CURVE('',#346,#348,#184,.T.);
#442=EDGE_CURVE('',#348,#349,#185,.T.);
#443=EDGE_CURVE('',#347,#349,#186,.T.);
#444=EDGE_CURVE('',#348,#342,#187,.T.);
#445=EDGE_CURVE('',#349,#345,#188,.T.);
#446=EDGE_CURVE('',#350,#351,#189,.T.);
#447=EDGE_CURVE('',#351,#352,#190,.T.);
#448=EDGE_CURVE('',#352,#353,#191,.T.);
#449=EDGE_CURVE('',#353,#350,#192,.T.);
#450=EDGE_CURVE('',#354,#355,#193,.T.);
#451=EDGE_CURVE('',#356,#355,#19,.T.);
#452=EDGE_CURVE('',#351,#356,#194,.T.);
#453=EDGE_CURVE('',#357,#350,#195,.T.);
#454=EDGE_CURVE('',#354,#357,#20,.T.);
#455=EDGE_CURVE('',#356,#358,#196,.T.);
#456=EDGE_CURVE('',#352,#358,#197,.T.);
#457=EDGE_CURVE('',#359,#360,#198,.T.);
#458=EDGE_CURVE('',#361,#360,#21,.T.);
#459=EDGE_CURVE('',#353,#361,#199,.T.);
#460=EDGE_CURVE('',#359,#358,#22,.T.);
#461=EDGE_CURVE('',#361,#357,#200,.T.);
#462=EDGE_CURVE('',#362,#363,#201,.T.);
#463=EDGE_CURVE('',#364,#362,#202,.T.);
#464=EDGE_CURVE('',#365,#364,#203,.T.);
#465=EDGE_CURVE('',#363,#365,#204,.T.);
#466=EDGE_CURVE('',#354,#364,#23,.T.);
#467=EDGE_CURVE('',#355,#362,#24,.T.);
#468=EDGE_CURVE('',#363,#359,#25,.T.);
#469=EDGE_CURVE('',#365,#360,#26,.T.);
#470=EDGE_CURVE('',#366,#367,#309,.T.);
#471=EDGE_CURVE('',#368,#367,#205,.T.);
#472=EDGE_CURVE('',#369,#368,#206,.T.);
#473=EDGE_CURVE('',#370,#369,#207,.T.);
#474=EDGE_CURVE('',#371,#370,#208,.T.);
#475=EDGE_CURVE('',#366,#371,#209,.T.);
#476=EDGE_CURVE('',#372,#373,#210,.T.);
#477=EDGE_CURVE('',#374,#372,#211,.T.);
#478=EDGE_CURVE('',#375,#374,#212,.T.);
#479=EDGE_CURVE('',#376,#375,#213,.T.);
#480=EDGE_CURVE('',#377,#376,#214,.T.);
#481=EDGE_CURVE('',#373,#377,#39,.T.);
#482=EDGE_CURVE('',#378,#379,#215,.T.);
#483=EDGE_CURVE('',#380,#378,#216,.T.);
#484=EDGE_CURVE('',#381,#380,#217,.T.);
#485=EDGE_CURVE('',#382,#381,#218,.T.);
#486=EDGE_CURVE('',#383,#382,#219,.T.);
#487=EDGE_CURVE('',#384,#383,#220,.T.);
#488=EDGE_CURVE('',#385,#384,#221,.T.);
#489=EDGE_CURVE('',#379,#385,#222,.T.);
#490=ORIENTED_EDGE('',*,*,#386,.T.);
#491=ORIENTED_EDGE('',*,*,#387,.T.);
#492=ORIENTED_EDGE('',*,*,#388,.T.);
#493=ORIENTED_EDGE('',*,*,#389,.T.);
#494=ORIENTED_EDGE('',*,*,#390,.T.);
#495=ORIENTED_EDGE('',*,*,#391,.T.);
#496=ORIENTED_EDGE('',*,*,#392,.T.);
#497=ORIENTED_EDGE('',*,*,#393,.T.);
#498=ORIENTED_EDGE('',*,*,#386,.F.);
#499=ORIENTED_EDGE('',*,*,#394,.T.);
#500=ORIENTED_EDGE('',*,*,#395,.T.);
#501=ORIENTED_EDGE('',*,*,#396,.T.);
#502=ORIENTED_EDGE('',*,*,#387,.F.);
#503=ORIENTED_EDGE('',*,*,#396,.F.);
#504=ORIENTED_EDGE('',*,*,#397,.T.);
#505=ORIENTED_EDGE('',*,*,#398,.T.);
#506=ORIENTED_EDGE('',*,*,#388,.F.);
#507=ORIENTED_EDGE('',*,*,#398,.F.);
#508=ORIENTED_EDGE('',*,*,#399,.T.);
#509=ORIENTED_EDGE('',*,*,#400,.T.);
#510=ORIENTED_EDGE('',*,*,#389,.F.);
#511=ORIENTED_EDGE('',*,*,#400,.F.);
#512=ORIENTED_EDGE('',*,*,#401,.T.);
#513=ORIENTED_EDGE('',*,*,#402,.T.);
#514=ORIENTED_EDGE('',*,*,#390,.F.);
#515=ORIENTED_EDGE('',*,*,#402,.F.);
#516=ORIENTED_EDGE('',*,*,#403,.T.);
#517=ORIENTED_EDGE('',*,*,#404,.T.);
#518=ORIENTED_EDGE('',*,*,#391,.F.);
#519=ORIENTED_EDGE('',*,*,#404,.F.);
#520=ORIENTED_EDGE('',*,*,#405,.T.);
#521=ORIENTED_EDGE('',*,*,#406,.T.);
#522=ORIENTED_EDGE('',*,*,#392,.F.);
#523=ORIENTED_EDGE('',*,*,#406,.F.);
#524=ORIENTED_EDGE('',*,*,#407,.T.);
#525=ORIENTED_EDGE('',*,*,#408,.T.);
#526=ORIENTED_EDGE('',*,*,#393,.F.);
#527=ORIENTED_EDGE('',*,*,#408,.F.);
#528=ORIENTED_EDGE('',*,*,#409,.T.);
#529=ORIENTED_EDGE('',*,*,#394,.F.);
#530=ORIENTED_EDGE('',*,*,#409,.F.);
#531=ORIENTED_EDGE('',*,*,#407,.F.);
#532=ORIENTED_EDGE('',*,*,#405,.F.);
#533=ORIENTED_EDGE('',*,*,#403,.F.);
#534=ORIENTED_EDGE('',*,*,#401,.F.);
#535=ORIENTED_EDGE('',*,*,#399,.F.);
#536=ORIENTED_EDGE('',*,*,#397,.F.);
#537=ORIENTED_EDGE('',*,*,#395,.F.);
#538=ORIENTED_EDGE('',*,*,#410,.T.);
#539=ORIENTED_EDGE('',*,*,#411,.T.);
#540=ORIENTED_EDGE('',*,*,#412,.T.);
#541=ORIENTED_EDGE('',*,*,#413,.T.);
#542=ORIENTED_EDGE('',*,*,#410,.F.);
#543=ORIENTED_EDGE('',*,*,#414,.T.);
#544=ORIENTED_EDGE('',*,*,#415,.T.);
#545=ORIENTED_EDGE('',*,*,#416,.T.);
#546=ORIENTED_EDGE('',*,*,#411,.F.);
#547=ORIENTED_EDGE('',*,*,#416,.F.);
#548=ORIENTED_EDGE('',*,*,#417,.T.);
#549=ORIENTED_EDGE('',*,*,#418,.T.);
#550=ORIENTED_EDGE('',*,*,#412,.F.);
#551=ORIENTED_EDGE('',*,*,#418,.F.);
#552=ORIENTED_EDGE('',*,*,#419,.T.);
#553=ORIENTED_EDGE('',*,*,#420,.T.);
#554=ORIENTED_EDGE('',*,*,#413,.F.);
#555=ORIENTED_EDGE('',*,*,#420,.F.);
#556=ORIENTED_EDGE('',*,*,#421,.T.);
#557=ORIENTED_EDGE('',*,*,#414,.F.);
#558=ORIENTED_EDGE('',*,*,#421,.F.);
#559=ORIENTED_EDGE('',*,*,#419,.F.);
#560=ORIENTED_EDGE('',*,*,#417,.F.);
#561=ORIENTED_EDGE('',*,*,#415,.F.);
#562=ORIENTED_EDGE('',*,*,#422,.F.);
#563=ORIENTED_EDGE('',*,*,#423,.F.);
#564=ORIENTED_EDGE('',*,*,#424,.F.);
#565=ORIENTED_EDGE('',*,*,#425,.F.);
#566=ORIENTED_EDGE('',*,*,#426,.F.);
#567=ORIENTED_EDGE('',*,*,#427,.F.);
#568=ORIENTED_EDGE('',*,*,#428,.F.);
#569=ORIENTED_EDGE('',*,*,#425,.T.);
#570=ORIENTED_EDGE('',*,*,#429,.F.);
#571=ORIENTED_EDGE('',*,*,#430,.F.);
#572=ORIENTED_EDGE('',*,*,#426,.T.);
#573=ORIENTED_EDGE('',*,*,#424,.T.);
#574=ORIENTED_EDGE('',*,*,#431,.F.);
#575=ORIENTED_EDGE('',*,*,#432,.F.);
#576=ORIENTED_EDGE('',*,*,#429,.T.);
#577=ORIENTED_EDGE('',*,*,#423,.T.);
#578=ORIENTED_EDGE('',*,*,#428,.T.);
#579=ORIENTED_EDGE('',*,*,#433,.F.);
#580=ORIENTED_EDGE('',*,*,#431,.T.);
#581=ORIENTED_EDGE('',*,*,#422,.T.);
#582=ORIENTED_EDGE('',*,*,#427,.T.);
#583=ORIENTED_EDGE('',*,*,#430,.T.);
#584=ORIENTED_EDGE('',*,*,#432,.T.);
#585=ORIENTED_EDGE('',*,*,#433,.T.);
#586=ORIENTED_EDGE('',*,*,#434,.T.);
#587=ORIENTED_EDGE('',*,*,#435,.T.);
#588=ORIENTED_EDGE('',*,*,#436,.F.);
#589=ORIENTED_EDGE('',*,*,#437,.F.);
#590=ORIENTED_EDGE('',*,*,#438,.T.);
#591=ORIENTED_EDGE('',*,*,#439,.T.);
#592=ORIENTED_EDGE('',*,*,#440,.F.);
#593=ORIENTED_EDGE('',*,*,#435,.F.);
#594=ORIENTED_EDGE('',*,*,#441,.T.);
#595=ORIENTED_EDGE('',*,*,#442,.T.);
#596=ORIENTED_EDGE('',*,*,#443,.F.);
#597=ORIENTED_EDGE('',*,*,#439,.F.);
#598=ORIENTED_EDGE('',*,*,#444,.T.);
#599=ORIENTED_EDGE('',*,*,#437,.T.);
#600=ORIENTED_EDGE('',*,*,#445,.F.);
#601=ORIENTED_EDGE('',*,*,#442,.F.);
#602=ORIENTED_EDGE('',*,*,#444,.F.);
#603=ORIENTED_EDGE('',*,*,#441,.F.);
#604=ORIENTED_EDGE('',*,*,#438,.F.);
#605=ORIENTED_EDGE('',*,*,#434,.F.);
#606=ORIENTED_EDGE('',*,*,#436,.T.);
#607=ORIENTED_EDGE('',*,*,#440,.T.);
#608=ORIENTED_EDGE('',*,*,#443,.T.);
#609=ORIENTED_EDGE('',*,*,#445,.T.);
#610=ORIENTED_EDGE('',*,*,#446,.T.);
#611=ORIENTED_EDGE('',*,*,#447,.T.);
#612=ORIENTED_EDGE('',*,*,#448,.T.);
#613=ORIENTED_EDGE('',*,*,#449,.T.);
#614=ORIENTED_EDGE('',*,*,#450,.T.);
#615=ORIENTED_EDGE('',*,*,#451,.F.);
#616=ORIENTED_EDGE('',*,*,#452,.F.);
#617=ORIENTED_EDGE('',*,*,#446,.F.);
#618=ORIENTED_EDGE('',*,*,#453,.F.);
#619=ORIENTED_EDGE('',*,*,#454,.F.);
#620=ORIENTED_EDGE('',*,*,#455,.T.);
#621=ORIENTED_EDGE('',*,*,#456,.F.);
#622=ORIENTED_EDGE('',*,*,#447,.F.);
#623=ORIENTED_EDGE('',*,*,#452,.T.);
#624=ORIENTED_EDGE('',*,*,#457,.T.);
#625=ORIENTED_EDGE('',*,*,#458,.F.);
#626=ORIENTED_EDGE('',*,*,#459,.F.);
#627=ORIENTED_EDGE('',*,*,#448,.F.);
#628=ORIENTED_EDGE('',*,*,#456,.T.);
#629=ORIENTED_EDGE('',*,*,#460,.F.);
#630=ORIENTED_EDGE('',*,*,#461,.T.);
#631=ORIENTED_EDGE('',*,*,#453,.T.);
#632=ORIENTED_EDGE('',*,*,#449,.F.);
#633=ORIENTED_EDGE('',*,*,#459,.T.);
#634=ORIENTED_EDGE('',*,*,#462,.F.);
#635=ORIENTED_EDGE('',*,*,#463,.F.);
#636=ORIENTED_EDGE('',*,*,#464,.F.);
#637=ORIENTED_EDGE('',*,*,#465,.F.);
#638=ORIENTED_EDGE('',*,*,#466,.T.);
#639=ORIENTED_EDGE('',*,*,#463,.T.);
#640=ORIENTED_EDGE('',*,*,#467,.F.);
#641=ORIENTED_EDGE('',*,*,#450,.F.);
#642=ORIENTED_EDGE('',*,*,#451,.T.);
#643=ORIENTED_EDGE('',*,*,#467,.T.);
#644=ORIENTED_EDGE('',*,*,#462,.T.);
#645=ORIENTED_EDGE('',*,*,#468,.T.);
#646=ORIENTED_EDGE('',*,*,#460,.T.);
#647=ORIENTED_EDGE('',*,*,#455,.F.);
#648=ORIENTED_EDGE('',*,*,#468,.F.);
#649=ORIENTED_EDGE('',*,*,#465,.T.);
#650=ORIENTED_EDGE('',*,*,#469,.T.);
#651=ORIENTED_EDGE('',*,*,#457,.F.);
#652=ORIENTED_EDGE('',*,*,#458,.T.);
#653=ORIENTED_EDGE('',*,*,#469,.F.);
#654=ORIENTED_EDGE('',*,*,#464,.T.);
#655=ORIENTED_EDGE('',*,*,#466,.F.);
#656=ORIENTED_EDGE('',*,*,#454,.T.);
#657=ORIENTED_EDGE('',*,*,#461,.F.);
#658=ORIENTED_EDGE('',*,*,#470,.T.);
#659=ORIENTED_EDGE('',*,*,#471,.F.);
#660=ORIENTED_EDGE('',*,*,#472,.F.);
#661=ORIENTED_EDGE('',*,*,#473,.F.);
#662=ORIENTED_EDGE('',*,*,#474,.F.);
#663=ORIENTED_EDGE('',*,*,#475,.F.);
#664=ORIENTED_EDGE('',*,*,#476,.F.);
#665=ORIENTED_EDGE('',*,*,#477,.F.);
#666=ORIENTED_EDGE('',*,*,#478,.F.);
#667=ORIENTED_EDGE('',*,*,#479,.F.);
#668=ORIENTED_EDGE('',*,*,#480,.F.);
#669=ORIENTED_EDGE('',*,*,#481,.F.);
#670=ORIENTED_EDGE('',*,*,#482,.F.);
#671=ORIENTED_EDGE('',*,*,#483,.F.);
#672=ORIENTED_EDGE('',*,*,#484,.F.);
#673=ORIENTED_EDGE('',*,*,#485,.F.);
#674=ORIENTED_EDGE('',*,*,#486,.F.);
#675=ORIENTED_EDGE('',*,*,#487,.F.);
#676=ORIENTED_EDGE('',*,*,#488,.F.);
#677=ORIENTED_EDGE('',*,*,#489,.F.);
#678=PLANE('',#768);
#679=PLANE('',#773);
#680=PLANE('',#774);
#681=PLANE('',#775);
#682=PLANE('',#778);
#683=PLANE('',#779);
#684=PLANE('',#780);
#685=PLANE('',#781);
#686=PLANE('',#782);
#687=PLANE('',#783);
#688=PLANE('',#784);
#689=PLANE('',#785);
#690=PLANE('',#786);
#691=PLANE('',#787);
#692=PLANE('',#788);
#693=PLANE('',#789);
#694=PLANE('',#790);
#695=PLANE('',#791);
#696=PLANE('',#792);
#697=PLANE('',#793);
#698=PLANE('',#794);
#699=PLANE('',#795);
#700=PLANE('',#796);
#701=PLANE('',#797);
#702=PLANE('',#800);
#703=PLANE('',#801);
#704=PLANE('',#804);
#705=PLANE('',#805);
#706=PLANE('',#814);
#707=PLANE('',#816);
#708=PLANE('',#817);
#709=ADVANCED_FACE('',(#59),#678,.T.);
#710=ADVANCED_FACE('',(#60),#53,.F.);
#711=ADVANCED_FACE('',(#61),#679,.T.);
#712=ADVANCED_FACE('',(#62),#680,.T.);
#713=ADVANCED_FACE('',(#63),#681,.T.);
#714=ADVANCED_FACE('',(#64),#54,.F.);
#715=ADVANCED_FACE('',(#65),#682,.T.);
#716=ADVANCED_FACE('',(#66),#683,.T.);
#717=ADVANCED_FACE('',(#67),#684,.T.);
#718=ADVANCED_FACE('',(#68),#685,.T.);
#719=ADVANCED_FACE('',(#69),#686,.T.);
#720=ADVANCED_FACE('',(#70),#687,.T.);
#721=ADVANCED_FACE('',(#71),#27,.T.);
#722=ADVANCED_FACE('',(#72),#688,.T.);
#723=ADVANCED_FACE('',(#73),#28,.T.);
#724=ADVANCED_FACE('',(#74),#689,.T.);
#725=ADVANCED_FACE('',(#75),#690,.T.);
#726=ADVANCED_FACE('',(#76),#691,.T.);
#727=ADVANCED_FACE('',(#77),#29,.F.);
#728=ADVANCED_FACE('',(#78),#692,.T.);
#729=ADVANCED_FACE('',(#79),#30,.F.);
#730=ADVANCED_FACE('',(#80),#693,.T.);
#731=ADVANCED_FACE('',(#81),#694,.T.);
#732=ADVANCED_FACE('',(#82),#695,.T.);
#733=ADVANCED_FACE('',(#83),#696,.T.);
#734=ADVANCED_FACE('',(#84),#697,.T.);
#735=ADVANCED_FACE('',(#85),#698,.T.);
#736=ADVANCED_FACE('',(#86),#699,.T.);
#737=ADVANCED_FACE('',(#87),#700,.T.);
#738=ADVANCED_FACE('',(#88),#701,.T.);
#739=ADVANCED_FACE('',(#89),#702,.T.);
#740=ADVANCED_FACE('',(#90),#703,.T.);
#741=ADVANCED_FACE('',(#91),#704,.T.);
#742=ADVANCED_FACE('',(#92),#705,.T.);
#743=ADVANCED_FACE('',(#93),#55,.T.);
#744=ADVANCED_FACE('',(#94),#56,.T.);
#745=ADVANCED_FACE('',(#95),#57,.T.);
#746=ADVANCED_FACE('',(#96),#58,.T.);
#747=ADVANCED_FACE('',(#97),#706,.T.);
#748=ADVANCED_FACE('',(#98),#707,.T.);
#749=ADVANCED_FACE('',(#99),#708,.T.);
#750=CLOSED_SHELL('',(#709,#710,#711,#712,#713,#714,#715,#716,#717,#718));
#751=CLOSED_SHELL('',(#719,#720,#721,#722,#723,#724));
#752=CLOSED_SHELL('',(#725,#726,#727,#728,#729,#730));
#753=CLOSED_SHELL('',(#731,#732,#733,#734,#735,#736));
#754=CLOSED_SHELL('',(#737,#738,#739,#740,#741,#742,#743,#744,#745,#746));
#755=DERIVED_UNIT_ELEMENT(#757,1.);
#756=DERIVED_UNIT_ELEMENT(#1417,3.);
#757=(
MASS_UNIT()
NAMED_UNIT(*)
SI_UNIT(.KILO.,.GRAM.)
);
#758=DERIVED_UNIT((#755,#756));
#759=MEASURE_REPRESENTATION_ITEM('density measure',
POSITIVE_RATIO_MEASURE(7850.),#758);
#760=PROPERTY_DEFINITION_REPRESENTATION(#765,#762);
#761=PROPERTY_DEFINITION_REPRESENTATION(#766,#763);
#762=REPRESENTATION('material name',(#764),#1414);
#763=REPRESENTATION('density',(#759),#1414);
#764=DESCRIPTIVE_REPRESENTATION_ITEM('Steel','Steel');
#765=PROPERTY_DEFINITION('material property','material name',#1424);
#766=PROPERTY_DEFINITION('material property','density of part',#1424);
#767=AXIS2_PLACEMENT_3D('placement',#1002,#818,#819);
#768=AXIS2_PLACEMENT_3D('',#1003,#820,#821);
#769=AXIS2_PLACEMENT_3D('',#1006,#822,#823);
#770=AXIS2_PLACEMENT_3D('',#1014,#827,#828);
#771=AXIS2_PLACEMENT_3D('',#1020,#832,#833);
#772=AXIS2_PLACEMENT_3D('',#1024,#835,#836);
#773=AXIS2_PLACEMENT_3D('',#1026,#838,#839);
#774=AXIS2_PLACEMENT_3D('',#1030,#842,#843);
#775=AXIS2_PLACEMENT_3D('',#1034,#846,#847);
#776=AXIS2_PLACEMENT_3D('',#1038,#850,#851);
#777=AXIS2_PLACEMENT_3D('',#1040,#852,#853);
#778=AXIS2_PLACEMENT_3D('',#1042,#855,#856);
#779=AXIS2_PLACEMENT_3D('',#1046,#859,#860);
#780=AXIS2_PLACEMENT_3D('',#1050,#863,#864);
#781=AXIS2_PLACEMENT_3D('',#1052,#866,#867);
#782=AXIS2_PLACEMENT_3D('',#1053,#868,#869);
#783=AXIS2_PLACEMENT_3D('',#1082,#872,#873);
#784=AXIS2_PLACEMENT_3D('',#1123,#878,#879);
#785=AXIS2_PLACEMENT_3D('',#1160,#882,#883);
#786=AXIS2_PLACEMENT_3D('',#1161,#884,#885);
#787=AXIS2_PLACEMENT_3D('',#1190,#888,#889);
#788=AXIS2_PLACEMENT_3D('',#1231,#894,#895);
#789=AXIS2_PLACEMENT_3D('',#1268,#898,#899);
#790=AXIS2_PLACEMENT_3D('',#1269,#900,#901);
#791=AXIS2_PLACEMENT_3D('',#1278,#906,#907);
#792=AXIS2_PLACEMENT_3D('',#1284,#911,#912);
#793=AXIS2_PLACEMENT_3D('',#1290,#916,#917);
#794=AXIS2_PLACEMENT_3D('',#1293,#920,#921);
#795=AXIS2_PLACEMENT_3D('',#1294,#922,#923);
#796=AXIS2_PLACEMENT_3D('',#1295,#924,#925);
#797=AXIS2_PLACEMENT_3D('',#1304,#930,#931);
#798=AXIS2_PLACEMENT_3D('',#1309,#933,#934);
#799=AXIS2_PLACEMENT_3D('',#1313,#937,#938);
#800=AXIS2_PLACEMENT_3D('',#1314,#939,#940);
#801=AXIS2_PLACEMENT_3D('',#1318,#943,#944);
#802=AXIS2_PLACEMENT_3D('',#1323,#946,#947);
#803=AXIS2_PLACEMENT_3D('',#1325,#949,#950);
#804=AXIS2_PLACEMENT_3D('',#1326,#951,#952);
#805=AXIS2_PLACEMENT_3D('',#1328,#954,#955);
#806=AXIS2_PLACEMENT_3D('',#1337,#960,#961);
#807=AXIS2_PLACEMENT_3D('',#1338,#962,#963);
#808=AXIS2_PLACEMENT_3D('',#1339,#964,#965);
#809=AXIS2_PLACEMENT_3D('',#1340,#966,#967);
#810=AXIS2_PLACEMENT_3D('',#1341,#968,#969);
#811=AXIS2_PLACEMENT_3D('',#1342,#970,#971);
#812=AXIS2_PLACEMENT_3D('',#1343,#972,#973);
#813=AXIS2_PLACEMENT_3D('',#1344,#974,#975);
#814=AXIS2_PLACEMENT_3D('',#1345,#976,#977);
#815=AXIS2_PLACEMENT_3D('',#1348,#978,#979);
#816=AXIS2_PLACEMENT_3D('',#1358,#985,#986);
#817=AXIS2_PLACEMENT_3D('',#1395,#992,#993);
#818=DIRECTION('axis',(0.,0.,1.));
#819=DIRECTION('refdir',(1.,0.,0.));
#820=DIRECTION('center_axis',(0.,0.,1.));
#821=DIRECTION('ref_axis',(-1.,0.,0.));
#822=DIRECTION('center_axis',(0.,0.,-1.));
#823=DIRECTION('ref_axis',(1.,-2.77555756156289E-14,0.));
#824=DIRECTION('',(1.,0.,0.));
#825=DIRECTION('',(0.,1.,0.));
#826=DIRECTION('',(-1.,0.,0.));
#827=DIRECTION('center_axis',(0.,-1.7347234759769E-15,-1.));
#828=DIRECTION('ref_axis',(-1.,-5.55111512312578E-14,0.));
#829=DIRECTION('',(-1.,0.,0.));
#830=DIRECTION('',(0.,-1.,0.));
#831=DIRECTION('',(1.,0.,0.));
#832=DIRECTION('center_axis',(0.,0.,-1.));
#833=DIRECTION('ref_axis',(-4.16333734086337E-14,1.,0.));
#834=DIRECTION('',(0.,0.,-1.));
#835=DIRECTION('center_axis',(0.,0.,-1.));
#836=DIRECTION('ref_axis',(1.,-2.77555756156289E-14,0.));
#837=DIRECTION('',(0.,0.,1.));
#838=DIRECTION('center_axis',(0.,-1.,0.));
#839=DIRECTION('ref_axis',(0.,0.,-1.));
#840=DIRECTION('',(1.,0.,0.));
#841=DIRECTION('',(0.,0.,1.));
#842=DIRECTION('center_axis',(1.,0.,0.));
#843=DIRECTION('ref_axis',(0.,0.,-1.));
#844=DIRECTION('',(0.,1.,0.));
#845=DIRECTION('',(0.,0.,1.));
#846=DIRECTION('center_axis',(0.,1.,0.));
#847=DIRECTION('ref_axis',(0.,0.,1.));
#848=DIRECTION('',(-1.,0.,0.));
#849=DIRECTION('',(0.,0.,1.));
#850=DIRECTION('center_axis',(0.,0.,-1.));
#851=DIRECTION('ref_axis',(1.38777878078144E-14,-1.,0.));
#852=DIRECTION('center_axis',(0.,0.,-1.));
#853=DIRECTION('ref_axis',(-1.,-5.55111512312578E-14,0.));
#854=DIRECTION('',(0.,0.,1.));
#855=DIRECTION('center_axis',(0.,1.,0.));
#856=DIRECTION('ref_axis',(0.,0.,1.));
#857=DIRECTION('',(-1.,0.,0.));
#858=DIRECTION('',(0.,0.,1.));
#859=DIRECTION('center_axis',(-1.,0.,0.));
#860=DIRECTION('ref_axis',(0.,0.,1.));
#861=DIRECTION('',(0.,-1.,0.));
#862=DIRECTION('',(0.,0.,1.));
#863=DIRECTION('center_axis',(0.,-1.,0.));
#864=DIRECTION('ref_axis',(0.,0.,-1.));
#865=DIRECTION('',(1.,0.,0.));
#866=DIRECTION('center_axis',(0.,0.,-1.));
#867=DIRECTION('ref_axis',(1.,0.,0.));
#868=DIRECTION('center_axis',(0.,0.,1.));
#869=DIRECTION('ref_axis',(1.,0.,0.));
#870=DIRECTION('',(1.,0.,0.));
#871=DIRECTION('',(1.,0.,0.));
#872=DIRECTION('center_axis',(-3.99680288866099E-12,-1.,0.));
#873=DIRECTION('ref_axis',(0.,0.,-1.));
#874=DIRECTION('',(0.,0.,-1.));
#875=DIRECTION('',(1.,0.,0.));
#876=DIRECTION('',(0.,0.,1.));
#877=DIRECTION('',(0.,0.,1.));
#878=DIRECTION('center_axis',(0.,-1.,0.));
#879=DIRECTION('ref_axis',(0.,0.,-1.));
#880=DIRECTION('',(1.,0.,0.));
#881=DIRECTION('',(0.,0.,1.));
#882=DIRECTION('center_axis',(0.,0.,-1.));
#883=DIRECTION('ref_axis',(-1.,0.,0.));
#884=DIRECTION('center_axis',(-7.00934133340962E-16,-5.53759831708078E-29,
1.));
#885=DIRECTION('ref_axis',(1.,0.,7.00934133340962E-16));
#886=DIRECTION('',(1.,0.,0.));
#887=DIRECTION('',(1.,0.,0.));
#888=DIRECTION('center_axis',(0.,1.,0.));
#889=DIRECTION('ref_axis',(0.,0.,1.));
#890=DIRECTION('',(0.,0.,1.));
#891=DIRECTION('',(1.,0.,0.));
#892=DIRECTION('',(0.,0.,-1.));
#893=DIRECTION('',(0.,0.,1.));
#894=DIRECTION('center_axis',(9.57567358734519E-12,1.,0.));
#895=DIRECTION('ref_axis',(0.,0.,1.));
#896=DIRECTION('',(0.,0.,1.));
#897=DIRECTION('',(1.,0.,0.));
#898=DIRECTION('center_axis',(0.,0.,-1.));
#899=DIRECTION('ref_axis',(-1.,0.,0.));
#900=DIRECTION('center_axis',(-1.,0.,0.));
#901=DIRECTION('ref_axis',(0.,1.,0.));
#902=DIRECTION('',(0.,-1.,0.));
#903=DIRECTION('',(0.,0.,1.));
#904=DIRECTION('',(0.,-1.,0.));
#905=DIRECTION('',(0.,0.,1.));
#906=DIRECTION('center_axis',(0.,-1.,0.));
#907=DIRECTION('ref_axis',(0.,0.,1.));
#908=DIRECTION('',(1.,0.,0.));
#909=DIRECTION('',(0.,0.,1.));
#910=DIRECTION('',(1.,0.,0.));
#911=DIRECTION('center_axis',(1.,0.,0.));
#912=DIRECTION('ref_axis',(0.,-1.,0.));
#913=DIRECTION('',(0.,1.,0.));
#914=DIRECTION('',(0.,0.,1.));
#915=DIRECTION('',(0.,1.,0.));
#916=DIRECTION('center_axis',(0.,1.,0.));
#917=DIRECTION('ref_axis',(0.,0.,-1.));
#918=DIRECTION('',(-1.,0.,0.));
#919=DIRECTION('',(-1.,0.,0.));
#920=DIRECTION('center_axis',(0.,0.,-1.));
#921=DIRECTION('ref_axis',(1.,0.,0.));
#922=DIRECTION('center_axis',(0.,0.,1.));
#923=DIRECTION('ref_axis',(-1.,0.,0.));
#924=DIRECTION('center_axis',(0.,0.,-1.));
#925=DIRECTION('ref_axis',(1.,0.,0.));
#926=DIRECTION('',(1.,0.,0.));
#927=DIRECTION('',(0.,-1.,0.));
#928=DIRECTION('',(-1.,0.,0.));
#929=DIRECTION('',(0.,1.,0.));
#930=DIRECTION('center_axis',(-3.62084008807528E-17,0.965363393028264,0.260909025142783));
#931=DIRECTION('ref_axis',(0.,0.260909025142783,-0.965363393028264));
#932=DIRECTION('',(1.,0.,0.));
#933=DIRECTION('center_axis',(4.79948421102391E-8,-0.965363394633969,-0.260909019201672));
#934=DIRECTION('ref_axis',(8.41166408975501E-7,0.260909019201619,-0.965363394633618));
#935=DIRECTION('',(0.,-0.260909025142765,0.965363393028269));
#936=DIRECTION('',(0.,0.260909025142765,-0.965363393028269));
#937=DIRECTION('center_axis',(-4.80022129073105E-8,-0.965363394634233,-0.260909019200693));
#938=DIRECTION('ref_axis',(-8.43452306697851E-7,0.260909019200639,-0.96536339463388));
#939=DIRECTION('center_axis',(1.,0.,0.));
#940=DIRECTION('ref_axis',(0.,0.,-1.));
#941=DIRECTION('',(0.,-1.,0.));
#942=DIRECTION('',(0.,0.260909025143052,0.965363393028191));
#943=DIRECTION('center_axis',(-3.62084008807528E-17,-0.965363393028264,
0.260909025142783));
#944=DIRECTION('ref_axis',(0.,0.260909025142783,0.965363393028264));
#945=DIRECTION('',(-1.,0.,0.));
#946=DIRECTION('center_axis',(-4.7976053804569E-8,0.965363394633003,-0.260909019205246));
#947=DIRECTION('ref_axis',(8.35764467612283E-7,0.260909019205194,0.965363394632656));
#948=DIRECTION('',(0.,0.260909025143037,0.965363393028195));
#949=DIRECTION('center_axis',(4.79897507036532E-8,0.965363394633881,-0.260909019201995));
#950=DIRECTION('ref_axis',(-8.57629677482734E-7,0.260909019201939,0.965363394633517));
#951=DIRECTION('center_axis',(-1.,0.,0.));
#952=DIRECTION('ref_axis',(0.,0.,1.));
#953=DIRECTION('',(0.,1.,-1.94581193263312E-14));
#954=DIRECTION('center_axis',(0.,0.,1.));
#955=DIRECTION('ref_axis',(-1.,0.,0.));
#956=DIRECTION('',(0.,-1.,0.));
#957=DIRECTION('',(1.,0.,0.));
#958=DIRECTION('',(0.,1.,0.));
#959=DIRECTION('',(-1.,0.,0.));
#960=DIRECTION('center_axis',(-1.,0.,0.));
#961=DIRECTION('ref_axis',(0.,0.607902531191271,0.794011657704876));
#962=DIRECTION('center_axis',(0.707105922767298,0.707107639601199,2.24244198265702E-6));
#963=DIRECTION('ref_axis',(0.707107639171941,-0.707105922441888,3.27458422684878E-5));
#964=DIRECTION('center_axis',(0.707105922767014,-0.707107639601483,-2.24244247048584E-6));
#965=DIRECTION('ref_axis',(0.707107639172226,0.707105922441604,-3.27458301336385E-5));
#966=DIRECTION('center_axis',(-6.16964276737863E-17,1.,-6.5362829538666E-17));
#967=DIRECTION('ref_axis',(0.707106781186545,0.,0.70710678118655));
#968=DIRECTION('center_axis',(0.707105922767603,0.707107639600894,-2.24244091046055E-6));
#969=DIRECTION('ref_axis',(0.707107639171637,-0.707105922442193,-3.27458239588121E-5));
#970=DIRECTION('center_axis',(1.,-1.57485822583083E-16,1.59128093637283E-16));
#971=DIRECTION('ref_axis',(0.,-0.607902531191269,0.794011657704878));
#972=DIRECTION('center_axis',(0.707105922767999,-0.707107639600499,2.24244015295592E-6));
#973=DIRECTION('ref_axis',(0.707107639171241,0.707105922442589,3.27458358398555E-5));
#974=DIRECTION('center_axis',(8.96788500956784E-17,-1.,-1.15243534470928E-16));
#975=DIRECTION('ref_axis',(-0.707106781186545,0.,0.70710678118655));
#976=DIRECTION('center_axis',(0.,0.,1.));
#977=DIRECTION('ref_axis',(-1.,0.,0.));
#978=DIRECTION('center_axis',(0.,0.,-1.));
#979=DIRECTION('ref_axis',(1.,-2.77555756156289E-14,0.));
#980=DIRECTION('',(-1.,0.,0.));
#981=DIRECTION('',(0.,-1.,0.));
#982=DIRECTION('',(1.,0.,0.));
#983=DIRECTION('',(0.,1.,0.));
#984=DIRECTION('',(-1.,0.,0.));
#985=DIRECTION('center_axis',(0.,0.,1.));
#986=DIRECTION('ref_axis',(-1.,0.,0.));
#987=DIRECTION('',(1.,0.,0.));
#988=DIRECTION('',(0.,1.,0.));
#989=DIRECTION('',(-1.,0.,0.));
#990=DIRECTION('',(0.,-1.,0.));
#991=DIRECTION('',(1.,0.,0.));
#992=DIRECTION('center_axis',(0.,0.,1.));
#993=DIRECTION('ref_axis',(-1.,0.,0.));
#994=DIRECTION('',(-1.,0.,0.));
#995=DIRECTION('',(0.,-1.,0.));
#996=DIRECTION('',(1.,0.,0.));
#997=DIRECTION('',(0.,-1.,0.));
#998=DIRECTION('',(1.,0.,0.));
#999=DIRECTION('',(0.,1.,0.));
#1000=DIRECTION('',(1.,0.,0.));
#1001=DIRECTION('',(-0.00185402865245549,0.999998281287401,0.));
#1002=CARTESIAN_POINT('',(0.,0.,0.));
#1003=CARTESIAN_POINT('Origin',(-9.78813817931481,-37.1026384670636,1.8));
#1004=CARTESIAN_POINT('',(-10.4481381788595,-38.9026384670636,1.8));
#1005=CARTESIAN_POINT('',(-10.1281381797701,-38.9026384670636,1.8));
#1006=CARTESIAN_POINT('Origin',(-10.2881381793148,-38.9026384670636,1.8));
#1007=CARTESIAN_POINT('',(-9.88813817931481,-38.9026384670636,1.8));
#1008=CARTESIAN_POINT('',(-10.1281381793148,-38.9026384670636,1.8));
#1009=CARTESIAN_POINT('',(-9.88813817931481,-37.3026384670636,1.8));
#1010=CARTESIAN_POINT('',(-9.88813817931481,-38.9026384670636,1.8));
#1011=CARTESIAN_POINT('',(-10.1281381793148,-37.3026384670636,1.8));
#1012=CARTESIAN_POINT('',(-9.88813817931481,-37.3026384670636,1.8));
#1013=CARTESIAN_POINT('',(-10.4481381793148,-37.3026384670636,1.8));
#1014=CARTESIAN_POINT('Origin',(-10.2881381793148,-37.3026384670636,1.8));
#1015=CARTESIAN_POINT('',(-10.6881381793148,-37.3026384670636,1.8));
#1016=CARTESIAN_POINT('',(-10.4481381793148,-37.3026384670636,1.8));
#1017=CARTESIAN_POINT('',(-10.6881381793148,-38.9026384670636,1.8));
#1018=CARTESIAN_POINT('',(-10.6881381793148,-37.3026384670636,1.8));
#1019=CARTESIAN_POINT('',(-10.6881381793148,-38.9026384670636,1.8));
#1020=CARTESIAN_POINT('Origin',(-10.2881381793148,-38.9026384286898,1.8));
#1021=CARTESIAN_POINT('',(-10.4481381788595,-38.9026384670636,1.62));
#1022=CARTESIAN_POINT('',(-10.4481381793148,-38.9026384670636,1.8));
#1023=CARTESIAN_POINT('',(-10.1281381797701,-38.9026384670636,1.62));
#1024=CARTESIAN_POINT('Origin',(-10.2881381793148,-38.9026384670636,1.62));
#1025=CARTESIAN_POINT('',(-10.1281381793148,-38.9026384670636,1.62));
#1026=CARTESIAN_POINT('Origin',(-10.0081381793148,-38.9026384670636,1.8));
#1027=CARTESIAN_POINT('',(-9.88813817931481,-38.9026384670636,1.62));
#1028=CARTESIAN_POINT('',(-10.1281381793148,-38.9026384670636,1.62));
#1029=CARTESIAN_POINT('',(-9.88813817931481,-38.9026384670636,1.62));
#1030=CARTESIAN_POINT('Origin',(-9.88813817931481,-38.1026384670636,1.8));
#1031=CARTESIAN_POINT('',(-9.88813817931481,-37.3026384670636,1.62));
#1032=CARTESIAN_POINT('',(-9.88813817931481,-38.9026384670636,1.62));
#1033=CARTESIAN_POINT('',(-9.88813817931481,-37.3026384670636,1.62));
#1034=CARTESIAN_POINT('Origin',(-10.0081381793148,-37.3026384670636,1.8));
#1035=CARTESIAN_POINT('',(-10.1281381793148,-37.3026384670636,1.62));
#1036=CARTESIAN_POINT('',(-9.88813817931481,-37.3026384670636,1.62));
#1037=CARTESIAN_POINT('',(-10.1281381793148,-37.3026384670636,1.62));
#1038=CARTESIAN_POINT('Origin',(-10.2881381793148,-37.3026384670636,1.8));
#1039=CARTESIAN_POINT('',(-10.4481381793148,-37.3026384670636,1.62));
#1040=CARTESIAN_POINT('Origin',(-10.2881381793148,-37.3026384670636,1.62));
#1041=CARTESIAN_POINT('',(-10.4481381793148,-37.3026384670636,1.62));
#1042=CARTESIAN_POINT('Origin',(-10.5681381793148,-37.3026384670636,1.8));
#1043=CARTESIAN_POINT('',(-10.6881381793148,-37.3026384670636,1.62));
#1044=CARTESIAN_POINT('',(-10.4481381793148,-37.3026384670636,1.62));
#1045=CARTESIAN_POINT('',(-10.6881381793148,-37.3026384670636,1.62));
#1046=CARTESIAN_POINT('Origin',(-10.6881381793148,-38.1026384670636,1.8));
#1047=CARTESIAN_POINT('',(-10.6881381793148,-38.9026384670636,1.62));
#1048=CARTESIAN_POINT('',(-10.6881381793148,-37.3026384670636,1.62));
#1049=CARTESIAN_POINT('',(-10.6881381793148,-38.9026384670636,1.62));
#1050=CARTESIAN_POINT('Origin',(-10.5681381793148,-38.9026384670636,1.8));
#1051=CARTESIAN_POINT('',(-10.6881381793148,-38.9026384670636,1.62));
#1052=CARTESIAN_POINT('Origin',(-9.78813817931481,-37.1026384670636,1.62));
#1053=CARTESIAN_POINT('Origin',(-10.1381381793148,-38.9026384670636,1.8));
#1054=CARTESIAN_POINT('',(-10.1481381793148,-38.9026384670636,1.8));
#1055=CARTESIAN_POINT('',(-10.1281381793148,-38.9026384670636,1.8));
#1056=CARTESIAN_POINT('',(-10.1481381793148,-38.9026384670636,1.8));
#1057=CARTESIAN_POINT('',(-10.4481381793148,-38.9026384670636,1.8));
#1058=CARTESIAN_POINT('Ctrl Pts',(-10.1281381793148,-38.9026384670636,1.8));
#1059=CARTESIAN_POINT('Ctrl Pts',(-10.1281069854905,-38.8838230857074,1.8));
#1060=CARTESIAN_POINT('Ctrl Pts',(-10.135017961672,-38.8430279903226,1.8));
#1061=CARTESIAN_POINT('Ctrl Pts',(-10.1715089627811,-38.7861272865118,1.8));
#1062=CARTESIAN_POINT('Ctrl Pts',(-10.2289527531534,-38.7494711560727,1.8));
#1063=CARTESIAN_POINT('Ctrl Pts',(-10.2881381793148,-38.739222122559,1.8));
#1064=CARTESIAN_POINT('Ctrl Pts',(-10.3473236054762,-38.7494711560727,1.8));
#1065=CARTESIAN_POINT('Ctrl Pts',(-10.4047673958485,-38.7861272865118,1.8));
#1066=CARTESIAN_POINT('Ctrl Pts',(-10.4412583969576,-38.8430279903226,1.8));
#1067=CARTESIAN_POINT('Ctrl Pts',(-10.4481693731392,-38.8838230857074,1.8));
#1068=CARTESIAN_POINT('Ctrl Pts',(-10.4481381793148,-38.9026384670636,1.8));
#1069=CARTESIAN_POINT('',(-10.4281381793148,-38.9026384670636,1.8));
#1070=CARTESIAN_POINT('',(-10.4481381793148,-38.9026384670636,1.8));
#1071=CARTESIAN_POINT('Ctrl Pts',(-10.4281381793148,-38.9026384670636,1.8));
#1072=CARTESIAN_POINT('Ctrl Pts',(-10.4281654739111,-38.8861750083769,1.8));
#1073=CARTESIAN_POINT('Ctrl Pts',(-10.4221183697522,-38.8504792999152,1.8));
#1074=CARTESIAN_POINT('Ctrl Pts',(-10.3901887437818,-38.8006911840807,1.8));
#1075=CARTESIAN_POINT('Ctrl Pts',(-10.3399254272061,-38.7686170699465,1.8));
#1076=CARTESIAN_POINT('Ctrl Pts',(-10.2881381793148,-38.7596491656221,1.8));
#1077=CARTESIAN_POINT('Ctrl Pts',(-10.2363509314236,-38.7686170699466,1.8));
#1078=CARTESIAN_POINT('Ctrl Pts',(-10.1860876148478,-38.8006911840807,1.8));
#1079=CARTESIAN_POINT('Ctrl Pts',(-10.1541579888774,-38.8504792999153,1.8));
#1080=CARTESIAN_POINT('Ctrl Pts',(-10.1481108847185,-38.8861750083769,1.8));
#1081=CARTESIAN_POINT('Ctrl Pts',(-10.1481381793148,-38.9026384670636,1.8));
#1082=CARTESIAN_POINT('Origin',(-10.1381381793148,-38.9026384670636,1.8));
#1083=CARTESIAN_POINT('',(-10.1481381793148,-38.9026384670636,1.62));
#1084=CARTESIAN_POINT('',(-10.1481381793148,-38.9026384670636,1.8));
#1085=CARTESIAN_POINT('',(-10.1281381793148,-38.9026384670636,1.62));
#1086=CARTESIAN_POINT('',(-10.1481381793148,-38.9026384670636,1.62));
#1087=CARTESIAN_POINT('',(-10.1281381793148,-38.9026384670636,1.62));
#1088=CARTESIAN_POINT('Ctrl Pts',(-10.4481381793148,-38.9026384670636,1.8));
#1089=CARTESIAN_POINT('Ctrl Pts',(-10.4481381793148,-38.9026384670636,1.584));
#1090=CARTESIAN_POINT('Ctrl Pts',(-10.4481693731392,-38.8838230857074,1.8));
#1091=CARTESIAN_POINT('Ctrl Pts',(-10.4481693731392,-38.8838230857074,1.584));
#1092=CARTESIAN_POINT('Ctrl Pts',(-10.4412583969576,-38.8430279903226,1.8));
#1093=CARTESIAN_POINT('Ctrl Pts',(-10.4412583969576,-38.8430279903226,1.584));
#1094=CARTESIAN_POINT('Ctrl Pts',(-10.4047673958485,-38.7861272865118,1.8));
#1095=CARTESIAN_POINT('Ctrl Pts',(-10.4047673958485,-38.7861272865118,1.584));
#1096=CARTESIAN_POINT('Ctrl Pts',(-10.3473236054762,-38.7494711560727,1.8));
#1097=CARTESIAN_POINT('Ctrl Pts',(-10.3473236054762,-38.7494711560727,1.584));
#1098=CARTESIAN_POINT('Ctrl Pts',(-10.2881381793148,-38.739222122559,1.8));
#1099=CARTESIAN_POINT('Ctrl Pts',(-10.2881381793148,-38.739222122559,1.584));
#1100=CARTESIAN_POINT('Ctrl Pts',(-10.2289527531534,-38.7494711560727,1.8));
#1101=CARTESIAN_POINT('Ctrl Pts',(-10.2289527531534,-38.7494711560727,1.584));
#1102=CARTESIAN_POINT('Ctrl Pts',(-10.1715089627811,-38.7861272865118,1.8));
#1103=CARTESIAN_POINT('Ctrl Pts',(-10.1715089627811,-38.7861272865118,1.584));
#1104=CARTESIAN_POINT('Ctrl Pts',(-10.135017961672,-38.8430279903226,1.8));
#1105=CARTESIAN_POINT('Ctrl Pts',(-10.135017961672,-38.8430279903226,1.584));
#1106=CARTESIAN_POINT('Ctrl Pts',(-10.1281069854905,-38.8838230857074,1.8));
#1107=CARTESIAN_POINT('Ctrl Pts',(-10.1281069854905,-38.8838230857074,1.584));
#1108=CARTESIAN_POINT('Ctrl Pts',(-10.1281381793148,-38.9026384670636,1.8));
#1109=CARTESIAN_POINT('Ctrl Pts',(-10.1281381793148,-38.9026384670636,1.584));
#1110=CARTESIAN_POINT('',(-10.4481381793148,-38.9026384670636,1.62));
#1111=CARTESIAN_POINT('Ctrl Pts',(-10.1281381793148,-38.9026384670636,1.62));
#1112=CARTESIAN_POINT('Ctrl Pts',(-10.1281069854905,-38.8838230857074,1.62));
#1113=CARTESIAN_POINT('Ctrl Pts',(-10.135017961672,-38.8430279903226,1.62));
#1114=CARTESIAN_POINT('Ctrl Pts',(-10.1715089627811,-38.7861272865118,1.62));
#1115=CARTESIAN_POINT('Ctrl Pts',(-10.2289527531534,-38.7494711560727,1.62));
#1116=CARTESIAN_POINT('Ctrl Pts',(-10.2881381793148,-38.739222122559,1.62));
#1117=CARTESIAN_POINT('Ctrl Pts',(-10.3473236054762,-38.7494711560727,1.62));
#1118=CARTESIAN_POINT('Ctrl Pts',(-10.4047673958485,-38.7861272865118,1.62));
#1119=CARTESIAN_POINT('Ctrl Pts',(-10.4412583969576,-38.8430279903226,1.62));
#1120=CARTESIAN_POINT('Ctrl Pts',(-10.4481693731392,-38.8838230857074,1.62));
#1121=CARTESIAN_POINT('Ctrl Pts',(-10.4481381793148,-38.9026384670636,1.62));
#1122=CARTESIAN_POINT('',(-10.4481381793148,-38.9026384670636,1.62));
#1123=CARTESIAN_POINT('Origin',(-10.4381381793148,-38.9026384670636,1.8));
#1124=CARTESIAN_POINT('',(-10.4281381793148,-38.9026384670636,1.62));
#1125=CARTESIAN_POINT('',(-10.4481381793148,-38.9026384670636,1.62));
#1126=CARTESIAN_POINT('',(-10.4281381793148,-38.9026384670636,1.62));
#1127=CARTESIAN_POINT('Ctrl Pts',(-10.1481381793148,-38.9026384670636,1.8));
#1128=CARTESIAN_POINT('Ctrl Pts',(-10.1481381793148,-38.9026384670636,1.584));
#1129=CARTESIAN_POINT('Ctrl Pts',(-10.1481108847185,-38.8861750083769,1.8));
#1130=CARTESIAN_POINT('Ctrl Pts',(-10.1481108847185,-38.8861750083769,1.584));
#1131=CARTESIAN_POINT('Ctrl Pts',(-10.1541579888774,-38.8504792999153,1.8));
#1132=CARTESIAN_POINT('Ctrl Pts',(-10.1541579888774,-38.8504792999153,1.584));
#1133=CARTESIAN_POINT('Ctrl Pts',(-10.1860876148478,-38.8006911840807,1.8));
#1134=CARTESIAN_POINT('Ctrl Pts',(-10.1860876148478,-38.8006911840807,1.584));
#1135=CARTESIAN_POINT('Ctrl Pts',(-10.2363509314236,-38.7686170699466,1.8));
#1136=CARTESIAN_POINT('Ctrl Pts',(-10.2363509314236,-38.7686170699466,1.584));
#1137=CARTESIAN_POINT('Ctrl Pts',(-10.2881381793148,-38.7596491656221,1.8));
#1138=CARTESIAN_POINT('Ctrl Pts',(-10.2881381793148,-38.7596491656221,1.584));
#1139=CARTESIAN_POINT('Ctrl Pts',(-10.3399254272061,-38.7686170699465,1.8));
#1140=CARTESIAN_POINT('Ctrl Pts',(-10.3399254272061,-38.7686170699465,1.584));
#1141=CARTESIAN_POINT('Ctrl Pts',(-10.3901887437818,-38.8006911840807,1.8));
#1142=CARTESIAN_POINT('Ctrl Pts',(-10.3901887437818,-38.8006911840807,1.584));
#1143=CARTESIAN_POINT('Ctrl Pts',(-10.4221183697522,-38.8504792999152,1.8));
#1144=CARTESIAN_POINT('Ctrl Pts',(-10.4221183697522,-38.8504792999152,1.584));
#1145=CARTESIAN_POINT('Ctrl Pts',(-10.4281654739111,-38.8861750083769,1.8));
#1146=CARTESIAN_POINT('Ctrl Pts',(-10.4281654739111,-38.8861750083769,1.584));
#1147=CARTESIAN_POINT('Ctrl Pts',(-10.4281381793148,-38.9026384670636,1.8));
#1148=CARTESIAN_POINT('Ctrl Pts',(-10.4281381793148,-38.9026384670636,1.584));
#1149=CARTESIAN_POINT('Ctrl Pts',(-10.4281381793148,-38.9026384670636,1.62));
#1150=CARTESIAN_POINT('Ctrl Pts',(-10.4281654739111,-38.8861750083769,1.62));
#1151=CARTESIAN_POINT('Ctrl Pts',(-10.4221183697522,-38.8504792999152,1.62));
#1152=CARTESIAN_POINT('Ctrl Pts',(-10.3901887437818,-38.8006911840807,1.62));
#1153=CARTESIAN_POINT('Ctrl Pts',(-10.3399254272061,-38.7686170699465,1.62));
#1154=CARTESIAN_POINT('Ctrl Pts',(-10.2881381793148,-38.7596491656221,1.62));
#1155=CARTESIAN_POINT('Ctrl Pts',(-10.2363509314236,-38.7686170699465,1.62));
#1156=CARTESIAN_POINT('Ctrl Pts',(-10.1860876148478,-38.8006911840807,1.62));
#1157=CARTESIAN_POINT('Ctrl Pts',(-10.1541579888774,-38.8504792999152,1.62));
#1158=CARTESIAN_POINT('Ctrl Pts',(-10.1481108847185,-38.8861750083769,1.62));
#1159=CARTESIAN_POINT('Ctrl Pts',(-10.1481381793148,-38.9026384670636,1.62));
#1160=CARTESIAN_POINT('Origin',(-10.2881381793148,-38.7626384670636,1.62));
#1161=CARTESIAN_POINT('Origin',(-10.2881381793148,-37.4426384670636,1.8));
#1162=CARTESIAN_POINT('',(-10.4281381793148,-37.3026384670636,1.8));
#1163=CARTESIAN_POINT('',(-10.1481381793148,-37.3026384670636,1.8));
#1164=CARTESIAN_POINT('Ctrl Pts',(-10.4281381793148,-37.3026384670636,1.8));
#1165=CARTESIAN_POINT('Ctrl Pts',(-10.4281654739111,-37.3191019257502,1.8));
#1166=CARTESIAN_POINT('Ctrl Pts',(-10.4221183697522,-37.3547976342119,1.8));
#1167=CARTESIAN_POINT('Ctrl Pts',(-10.3901887437818,-37.4045857500464,1.8));
#1168=CARTESIAN_POINT('Ctrl Pts',(-10.3399254272061,-37.4366598641806,1.8));
#1169=CARTESIAN_POINT('Ctrl Pts',(-10.2881381793148,-37.4456277685051,1.8));
#1170=CARTESIAN_POINT('Ctrl Pts',(-10.2363509314236,-37.4366598641806,1.8));
#1171=CARTESIAN_POINT('Ctrl Pts',(-10.1860876148478,-37.4045857500464,1.8));
#1172=CARTESIAN_POINT('Ctrl Pts',(-10.1541579888774,-37.3547976342119,1.8));
#1173=CARTESIAN_POINT('Ctrl Pts',(-10.1481108847185,-37.3191019257502,1.8));
#1174=CARTESIAN_POINT('Ctrl Pts',(-10.1481381793148,-37.3026384670636,1.8));
#1175=CARTESIAN_POINT('',(-10.4481381793148,-37.3026384670636,1.8));
#1176=CARTESIAN_POINT('',(-10.4481381793148,-37.3026384670636,1.8));
#1177=CARTESIAN_POINT('',(-10.1281381793148,-37.3026384670636,1.8));
#1178=CARTESIAN_POINT('Ctrl Pts',(-10.1281381793148,-37.3026384670636,1.8));
#1179=CARTESIAN_POINT('Ctrl Pts',(-10.1281069854905,-37.3214538484197,1.8));
#1180=CARTESIAN_POINT('Ctrl Pts',(-10.135017961672,-37.3622489438045,1.8));
#1181=CARTESIAN_POINT('Ctrl Pts',(-10.1715089627811,-37.4191496476154,1.8));
#1182=CARTESIAN_POINT('Ctrl Pts',(-10.2289527531534,-37.4558057780545,1.8));
#1183=CARTESIAN_POINT('Ctrl Pts',(-10.2881381793148,-37.4660548115681,1.8));
#1184=CARTESIAN_POINT('Ctrl Pts',(-10.3473236054762,-37.4558057780545,1.8));
#1185=CARTESIAN_POINT('Ctrl Pts',(-10.4047673958485,-37.4191496476154,1.8));
#1186=CARTESIAN_POINT('Ctrl Pts',(-10.4412583969576,-37.3622489438045,1.8));
#1187=CARTESIAN_POINT('Ctrl Pts',(-10.4481693731392,-37.3214538484197,1.8));
#1188=CARTESIAN_POINT('Ctrl Pts',(-10.4481381793148,-37.3026384670636,1.8));
#1189=CARTESIAN_POINT('',(-10.1481381793148,-37.3026384670636,1.8));
#1190=CARTESIAN_POINT('Origin',(-10.1281381793148,-37.3026384670636,1.71));
#1191=CARTESIAN_POINT('',(-10.1281381793148,-37.3026384670636,1.62));
#1192=CARTESIAN_POINT('',(-10.1281381793148,-37.3026384670636,1.62));
#1193=CARTESIAN_POINT('',(-10.1481381793148,-37.3026384670636,1.62));
#1194=CARTESIAN_POINT('',(-10.1481381793148,-37.3026384670636,1.62));
#1195=CARTESIAN_POINT('',(-10.1481381793148,-37.3026384670636,1.8));
#1196=CARTESIAN_POINT('Ctrl Pts',(-10.4481381793148,-37.3026384670636,1.8));
#1197=CARTESIAN_POINT('Ctrl Pts',(-10.4481381793148,-37.3026384670636,1.584));
#1198=CARTESIAN_POINT('Ctrl Pts',(-10.4481693731392,-37.3214538484197,1.8));
#1199=CARTESIAN_POINT('Ctrl Pts',(-10.4481693731392,-37.3214538484197,1.584));
#1200=CARTESIAN_POINT('Ctrl Pts',(-10.4412583969576,-37.3622489438045,1.8));
#1201=CARTESIAN_POINT('Ctrl Pts',(-10.4412583969576,-37.3622489438045,1.584));
#1202=CARTESIAN_POINT('Ctrl Pts',(-10.4047673958485,-37.4191496476154,1.8));
#1203=CARTESIAN_POINT('Ctrl Pts',(-10.4047673958485,-37.4191496476154,1.584));
#1204=CARTESIAN_POINT('Ctrl Pts',(-10.3473236054762,-37.4558057780545,1.8));
#1205=CARTESIAN_POINT('Ctrl Pts',(-10.3473236054762,-37.4558057780545,1.584));
#1206=CARTESIAN_POINT('Ctrl Pts',(-10.2881381793148,-37.4660548115681,1.8));
#1207=CARTESIAN_POINT('Ctrl Pts',(-10.2881381793148,-37.4660548115681,1.584));
#1208=CARTESIAN_POINT('Ctrl Pts',(-10.2289527531534,-37.4558057780545,1.8));
#1209=CARTESIAN_POINT('Ctrl Pts',(-10.2289527531534,-37.4558057780545,1.584));
#1210=CARTESIAN_POINT('Ctrl Pts',(-10.1715089627811,-37.4191496476154,1.8));
#1211=CARTESIAN_POINT('Ctrl Pts',(-10.1715089627811,-37.4191496476154,1.584));
#1212=CARTESIAN_POINT('Ctrl Pts',(-10.135017961672,-37.3622489438045,1.8));
#1213=CARTESIAN_POINT('Ctrl Pts',(-10.135017961672,-37.3622489438045,1.584));
#1214=CARTESIAN_POINT('Ctrl Pts',(-10.1281069854905,-37.3214538484197,1.8));
#1215=CARTESIAN_POINT('Ctrl Pts',(-10.1281069854905,-37.3214538484197,1.584));
#1216=CARTESIAN_POINT('Ctrl Pts',(-10.1281381793148,-37.3026384670636,1.8));
#1217=CARTESIAN_POINT('Ctrl Pts',(-10.1281381793148,-37.3026384670636,1.584));
#1218=CARTESIAN_POINT('',(-10.4481381793148,-37.3026384670636,1.62));
#1219=CARTESIAN_POINT('',(-10.4481381793148,-37.3026384670636,1.62));
#1220=CARTESIAN_POINT('Ctrl Pts',(-10.1281381793148,-37.3026384670636,1.62));
#1221=CARTESIAN_POINT('Ctrl Pts',(-10.1281069854905,-37.3214538484197,1.62));
#1222=CARTESIAN_POINT('Ctrl Pts',(-10.135017961672,-37.3622489438045,1.62));
#1223=CARTESIAN_POINT('Ctrl Pts',(-10.1715089627811,-37.4191496476153,1.62));
#1224=CARTESIAN_POINT('Ctrl Pts',(-10.2289527531534,-37.4558057780545,1.62));
#1225=CARTESIAN_POINT('Ctrl Pts',(-10.2881381793148,-37.4660548115681,1.62));
#1226=CARTESIAN_POINT('Ctrl Pts',(-10.3473236054762,-37.4558057780545,1.62));
#1227=CARTESIAN_POINT('Ctrl Pts',(-10.4047673958485,-37.4191496476153,1.62));
#1228=CARTESIAN_POINT('Ctrl Pts',(-10.4412583969576,-37.3622489438045,1.62));
#1229=CARTESIAN_POINT('Ctrl Pts',(-10.4481693731392,-37.3214538484197,1.62));
#1230=CARTESIAN_POINT('Ctrl Pts',(-10.4481381793148,-37.3026384670636,1.62));
#1231=CARTESIAN_POINT('Origin',(-10.4281381793148,-37.3026384670636,1.71));
#1232=CARTESIAN_POINT('',(-10.4281381793148,-37.3026384670636,1.62));
#1233=CARTESIAN_POINT('',(-10.4281381793148,-37.3026384670636,1.62));
#1234=CARTESIAN_POINT('',(-10.4481381793148,-37.3026384670636,1.62));
#1235=CARTESIAN_POINT('Ctrl Pts',(-10.1481381793148,-37.3026384670636,1.8));
#1236=CARTESIAN_POINT('Ctrl Pts',(-10.1481381793148,-37.3026384670636,1.584));
#1237=CARTESIAN_POINT('Ctrl Pts',(-10.1481108847185,-37.3191019257502,1.8));
#1238=CARTESIAN_POINT('Ctrl Pts',(-10.1481108847185,-37.3191019257502,1.584));
#1239=CARTESIAN_POINT('Ctrl Pts',(-10.1541579888774,-37.3547976342119,1.8));
#1240=CARTESIAN_POINT('Ctrl Pts',(-10.1541579888774,-37.3547976342119,1.584));
#1241=CARTESIAN_POINT('Ctrl Pts',(-10.1860876148478,-37.4045857500464,1.8));
#1242=CARTESIAN_POINT('Ctrl Pts',(-10.1860876148478,-37.4045857500464,1.584));
#1243=CARTESIAN_POINT('Ctrl Pts',(-10.2363509314236,-37.4366598641806,1.8));
#1244=CARTESIAN_POINT('Ctrl Pts',(-10.2363509314236,-37.4366598641806,1.584));
#1245=CARTESIAN_POINT('Ctrl Pts',(-10.2881381793148,-37.4456277685051,1.8));
#1246=CARTESIAN_POINT('Ctrl Pts',(-10.2881381793148,-37.4456277685051,1.584));
#1247=CARTESIAN_POINT('Ctrl Pts',(-10.3399254272061,-37.4366598641806,1.8));
#1248=CARTESIAN_POINT('Ctrl Pts',(-10.3399254272061,-37.4366598641806,1.584));
#1249=CARTESIAN_POINT('Ctrl Pts',(-10.3901887437818,-37.4045857500464,1.8));
#1250=CARTESIAN_POINT('Ctrl Pts',(-10.3901887437818,-37.4045857500464,1.584));
#1251=CARTESIAN_POINT('Ctrl Pts',(-10.4221183697522,-37.3547976342119,1.8));
#1252=CARTESIAN_POINT('Ctrl Pts',(-10.4221183697522,-37.3547976342119,1.584));
#1253=CARTESIAN_POINT('Ctrl Pts',(-10.4281654739111,-37.3191019257502,1.8));
#1254=CARTESIAN_POINT('Ctrl Pts',(-10.4281654739111,-37.3191019257502,1.584));
#1255=CARTESIAN_POINT('Ctrl Pts',(-10.4281381793148,-37.3026384670636,1.8));
#1256=CARTESIAN_POINT('Ctrl Pts',(-10.4281381793148,-37.3026384670636,1.584));
#1257=CARTESIAN_POINT('Ctrl Pts',(-10.4281381793148,-37.3026384670636,1.62));
#1258=CARTESIAN_POINT('Ctrl Pts',(-10.4281654739111,-37.3191019257502,1.62));
#1259=CARTESIAN_POINT('Ctrl Pts',(-10.4221183697522,-37.3547976342119,1.62));
#1260=CARTESIAN_POINT('Ctrl Pts',(-10.3901887437818,-37.4045857500464,1.62));
#1261=CARTESIAN_POINT('Ctrl Pts',(-10.3399254272061,-37.4366598641806,1.62));
#1262=CARTESIAN_POINT('Ctrl Pts',(-10.2881381793148,-37.445627768505,1.62));
#1263=CARTESIAN_POINT('Ctrl Pts',(-10.2363509314236,-37.4366598641806,1.62));
#1264=CARTESIAN_POINT('Ctrl Pts',(-10.1860876148478,-37.4045857500464,1.62));
#1265=CARTESIAN_POINT('Ctrl Pts',(-10.1541579888774,-37.3547976342119,1.62));
#1266=CARTESIAN_POINT('Ctrl Pts',(-10.1481108847185,-37.3191019257502,1.62));
#1267=CARTESIAN_POINT('Ctrl Pts',(-10.1481381793148,-37.3026384670636,1.62));
#1268=CARTESIAN_POINT('Origin',(-10.1381381793148,-37.3026384670636,1.62));
#1269=CARTESIAN_POINT('Origin',(-10.4381381793148,-37.9876384670636,1.8));
#1270=CARTESIAN_POINT('',(-10.4381381793148,-37.9876384670636,1.8));
#1271=CARTESIAN_POINT('',(-10.4381381793148,-38.2176384670636,1.8));
#1272=CARTESIAN_POINT('',(-10.4381381793148,-37.9876384670636,1.8));
#1273=CARTESIAN_POINT('',(-10.4381381793148,-38.2176384670636,1.93253773611621));
#1274=CARTESIAN_POINT('',(-10.4381381793148,-38.2176384670636,1.8));
#1275=CARTESIAN_POINT('',(-10.4381381793148,-37.9876384670636,1.93253773611621));
#1276=CARTESIAN_POINT('',(-10.4381381793148,-37.9876384670636,1.93253773611621));
#1277=CARTESIAN_POINT('',(-10.4381381793148,-37.9876384670636,1.8));
#1278=CARTESIAN_POINT('Origin',(-10.4381381793148,-38.2176384670636,1.8));
#1279=CARTESIAN_POINT('',(-10.1381381793148,-38.2176384670636,1.8));
#1280=CARTESIAN_POINT('',(-10.4381381793148,-38.2176384670636,1.8));
#1281=CARTESIAN_POINT('',(-10.1381381793148,-38.2176384670636,1.93253773611621));
#1282=CARTESIAN_POINT('',(-10.1381381793148,-38.2176384670636,1.8));
#1283=CARTESIAN_POINT('',(-10.4381381793148,-38.2176384670636,1.93253773611621));
#1284=CARTESIAN_POINT('Origin',(-10.1381381793148,-38.2176384670636,1.8));
#1285=CARTESIAN_POINT('',(-10.1381381793148,-37.9876384670636,1.8));
#1286=CARTESIAN_POINT('',(-10.1381381793148,-38.2176384670636,1.8));
#1287=CARTESIAN_POINT('',(-10.1381381793148,-37.9876384670636,1.93253773611621));
#1288=CARTESIAN_POINT('',(-10.1381381793148,-37.9876384670636,1.8));
#1289=CARTESIAN_POINT('',(-10.1381381793148,-38.2176384670636,1.93253773611621));
#1290=CARTESIAN_POINT('Origin',(-10.1381381793148,-37.9876384670636,1.8));
#1291=CARTESIAN_POINT('',(-10.1381381793148,-37.9876384670636,1.8));
#1292=CARTESIAN_POINT('',(-10.1381381793148,-37.9876384670636,1.93253773611621));
#1293=CARTESIAN_POINT('Origin',(-10.1381381793148,-37.9876384670636,1.8));
#1294=CARTESIAN_POINT('Origin',(-10.1381381793148,-37.9876384670636,1.93253773611621));
#1295=CARTESIAN_POINT('Origin',(-10.6881381793148,-37.5026384670636,1.8));
#1296=CARTESIAN_POINT('',(-10.6881381793148,-37.5026384670636,1.8));
#1297=CARTESIAN_POINT('',(-9.88813817931481,-37.5026384670636,1.8));
#1298=CARTESIAN_POINT('',(-10.6881381793148,-37.5026384670636,1.8));
#1299=CARTESIAN_POINT('',(-9.88813817931481,-38.7026384670636,1.8));
#1300=CARTESIAN_POINT('',(-9.88813817931481,-37.5026384670636,1.8));
#1301=CARTESIAN_POINT('',(-10.6881381793148,-38.7026384670636,1.8));
#1302=CARTESIAN_POINT('',(-9.88813817931481,-38.7026384670636,1.8));
#1303=CARTESIAN_POINT('',(-10.6881381793148,-38.7026384670636,1.8));
#1304=CARTESIAN_POINT('Origin',(-9.88733817930706,-37.6026384670636,2.17));
#1305=CARTESIAN_POINT('',(-10.6864063489662,-37.5926507511871,2.13304545125714));
#1306=CARTESIAN_POINT('',(-9.8898700096634,-37.5926507511871,2.13304545125714));
#1307=CARTESIAN_POINT('',(-10.6864063489662,-37.5926507511871,2.13304545125714));
#1308=CARTESIAN_POINT('',(-9.88813817931481,-37.5891249535502,2.12000000000042));
#1309=CARTESIAN_POINT('Origin',(-9.93813815826128,-37.5891249566695,2.12000000234407));
#1310=CARTESIAN_POINT('',(-9.88813817931481,-37.5026384670636,1.8));
#1311=CARTESIAN_POINT('',(-10.6881381793148,-37.5891249535502,2.12000000000042));
#1312=CARTESIAN_POINT('',(-10.6881381793148,-37.5891249535502,2.12000000000042));
#1313=CARTESIAN_POINT('Origin',(-10.638138200431,-37.589124956672,2.12000000235203));
#1314=CARTESIAN_POINT('Origin',(-9.88813817931481,-37.5526384670636,1.985));
#1315=CARTESIAN_POINT('',(-9.88813817931481,-38.6161519805769,2.12000000000042));
#1316=CARTESIAN_POINT('',(-9.88813817931481,-37.5891249535502,2.12000000000042));
#1317=CARTESIAN_POINT('',(-9.88813817931481,-38.7026384670636,1.8));
#1318=CARTESIAN_POINT('Origin',(-10.6889381793226,-38.6026384670636,2.17));
#1319=CARTESIAN_POINT('',(-9.8898700096634,-38.61262618294,2.13304545125714));
#1320=CARTESIAN_POINT('',(-10.6864063489662,-38.61262618294,2.13304545125714));
#1321=CARTESIAN_POINT('',(-9.8898700096634,-38.61262618294,2.13304545125714));
#1322=CARTESIAN_POINT('',(-10.6881381793148,-38.6161519805769,2.12000000000044));
#1323=CARTESIAN_POINT('Origin',(-10.6381382002684,-38.6161519774638,2.12000000232504));
#1324=CARTESIAN_POINT('',(-10.6881381793148,-38.7026384670636,1.8));
#1325=CARTESIAN_POINT('Origin',(-9.93813815783751,-38.6161519774421,2.12000000240245));
#1326=CARTESIAN_POINT('Origin',(-10.6881381793148,-38.6526384670636,1.985));
#1327=CARTESIAN_POINT('',(-10.6881381793148,-38.6161519805769,2.12000000000044));
#1328=CARTESIAN_POINT('Origin',(-9.88813817931481,-37.6026384670636,2.17));
#1329=CARTESIAN_POINT('',(-9.93813817931481,-37.6409189208385,2.17));
#1330=CARTESIAN_POINT('',(-9.93813817931481,-38.5643580132886,2.17));
#1331=CARTESIAN_POINT('',(-9.93813817931481,-37.6409189208385,2.17));
#1332=CARTESIAN_POINT('',(-10.6381381793148,-37.6409189208385,2.17));
#1333=CARTESIAN_POINT('',(-10.6381381793148,-37.6409189208385,2.17));
#1334=CARTESIAN_POINT('',(-10.6381381793148,-38.5643580132886,2.17));
#1335=CARTESIAN_POINT('',(-10.6381381793148,-38.5643580132886,2.17));
#1336=CARTESIAN_POINT('',(-9.93813817931481,-38.5643580132886,2.17));
#1337=CARTESIAN_POINT('Origin',(-11.6881381793148,-37.6409189208386,2.11999999999992));
#1338=CARTESIAN_POINT('Origin',(-10.6381393119016,-37.6409176296969,2.12000214097659));
#1339=CARTESIAN_POINT('Origin',(-9.93813704672852,-37.6409176296973,2.12000214097597));
#1340=CARTESIAN_POINT('Origin',(-9.93813817931481,-36.6026384670636,2.12));
#1341=CARTESIAN_POINT('Origin',(-9.93813704672866,-38.5643593044295,2.12000214097573));
#1342=CARTESIAN_POINT('Origin',(-8.87813817931481,-38.5643580132886,2.12000000000005));
#1343=CARTESIAN_POINT('Origin',(-10.6381393119014,-38.5643593044299,2.12000214097638));
#1344=CARTESIAN_POINT('Origin',(-10.6381381793148,-39.6126384670636,2.12));
#1345=CARTESIAN_POINT('Origin',(-9.85063817931481,-38.9401384670636,1.62));
#1346=CARTESIAN_POINT('',(-10.4481381793148,-38.9026384670636,1.62));
#1347=CARTESIAN_POINT('',(-10.1281381793148,-38.9026384670636,1.62));
#1348=CARTESIAN_POINT('Origin',(-10.2881381793148,-38.9026384670636,1.62));
#1349=CARTESIAN_POINT('',(-9.93813817931481,-38.9026384670636,1.62));
#1350=CARTESIAN_POINT('',(-9.93813817931481,-38.9026384670636,1.62));
#1351=CARTESIAN_POINT('',(-9.93813817931481,-38.6026384670636,1.62));
#1352=CARTESIAN_POINT('',(-9.93813817931481,-38.6026384670636,1.62));
#1353=CARTESIAN_POINT('',(-10.6381381793148,-38.6026384670636,1.62));
#1354=CARTESIAN_POINT('',(-10.6381381793148,-38.6026384670636,1.62));
#1355=CARTESIAN_POINT('',(-10.6381381793148,-38.9026384670636,1.62));
#1356=CARTESIAN_POINT('',(-10.6381381793148,-38.9026384670636,1.62));
#1357=CARTESIAN_POINT('',(-10.4481381793148,-38.9026384670636,1.62));
#1358=CARTESIAN_POINT('Origin',(-10.7256381793148,-37.2651384670636,1.62));
#1359=CARTESIAN_POINT('',(-10.6381381793148,-37.3026384670636,1.62));
#1360=CARTESIAN_POINT('',(-10.4481381793148,-37.3026384670636,1.62));
#1361=CARTESIAN_POINT('',(-10.6381381793148,-37.3026384670636,1.62));
#1362=CARTESIAN_POINT('',(-10.6381381793148,-37.6026384670636,1.62));
#1363=CARTESIAN_POINT('',(-10.6381381793148,-37.6026384670636,1.62));
#1364=CARTESIAN_POINT('',(-9.93813817931481,-37.6026384670636,1.62));
#1365=CARTESIAN_POINT('',(-9.93813817931481,-37.6026384670636,1.62));
#1366=CARTESIAN_POINT('',(-9.93813817931481,-37.3026384670636,1.62));
#1367=CARTESIAN_POINT('',(-9.93813817931481,-37.3026384670636,1.62));
#1368=CARTESIAN_POINT('',(-10.1281381793148,-37.3026384670636,1.62));
#1369=CARTESIAN_POINT('',(-10.1281381793148,-37.3026384670636,1.62));
#1370=CARTESIAN_POINT('Ctrl Pts',(-10.4481381793148,-37.3026384670636,1.62));
#1371=CARTESIAN_POINT('Ctrl Pts',(-10.4481693731392,-37.3214538484197,1.62));
#1372=CARTESIAN_POINT('Ctrl Pts',(-10.4447138850484,-37.3418513961121,1.62));
#1373=CARTESIAN_POINT('Ctrl Pts',(-10.4369043074848,-37.3615336205935,1.62));
#1374=CARTESIAN_POINT('Ctrl Pts',(-10.4290947299212,-37.3812158450748,1.62));
#1375=CARTESIAN_POINT('Ctrl Pts',(-10.4169310628849,-37.4001827463451,1.62));
#1376=CARTESIAN_POINT('Ctrl Pts',(-10.4012752643046,-37.4157755520534,1.62));
#1377=CARTESIAN_POINT('Ctrl Pts',(-10.3856194657244,-37.4313683577618,1.62));
#1378=CARTESIAN_POINT('Ctrl Pts',(-10.3664715356003,-37.4435870679081,1.62));
#1379=CARTESIAN_POINT('Ctrl Pts',(-10.3470333328447,-37.4514045952336,1.62));
#1380=CARTESIAN_POINT('Ctrl Pts',(-10.3275951300891,-37.459222122559,1.62));
#1381=CARTESIAN_POINT('Ctrl Pts',(-10.3078666547019,-37.4626384670636,1.62));
#1382=CARTESIAN_POINT('Ctrl Pts',(-10.2881381793148,-37.4626384670636,1.62));
#1383=CARTESIAN_POINT('Ctrl Pts',(-10.2684097039277,-37.4626384670636,1.62));
#1384=CARTESIAN_POINT('Ctrl Pts',(-10.2486812285405,-37.459222122559,1.62));
#1385=CARTESIAN_POINT('Ctrl Pts',(-10.2292430257849,-37.4514045952336,1.62));
#1386=CARTESIAN_POINT('Ctrl Pts',(-10.2098048230293,-37.4435870679081,1.62));
#1387=CARTESIAN_POINT('Ctrl Pts',(-10.1906568929052,-37.4313683577618,1.62));
#1388=CARTESIAN_POINT('Ctrl Pts',(-10.175001094325,-37.4157755520534,1.62));
#1389=CARTESIAN_POINT('Ctrl Pts',(-10.1593452957447,-37.4001827463451,1.62));
#1390=CARTESIAN_POINT('Ctrl Pts',(-10.1471816287084,-37.3812158450748,1.62));
#1391=CARTESIAN_POINT('Ctrl Pts',(-10.1393720511448,-37.3615336205935,1.62));
#1392=CARTESIAN_POINT('Ctrl Pts',(-10.1315624735813,-37.3418513961121,1.62));
#1393=CARTESIAN_POINT('Ctrl Pts',(-10.1281069854905,-37.3214538484197,1.62));
#1394=CARTESIAN_POINT('Ctrl Pts',(-10.1281381793148,-37.3026384670636,1.62));
#1395=CARTESIAN_POINT('Origin',(-9.78813817931481,-38.4963483223656,1.62));
#1396=CARTESIAN_POINT('',(-9.88813817931481,-38.4242646540969,1.62));
#1397=CARTESIAN_POINT('',(-10.6875302513537,-38.4242646540969,1.62));
#1398=CARTESIAN_POINT('',(-9.88813817931481,-38.4242646540969,1.62));
#1399=CARTESIAN_POINT('',(-9.88813817931481,-38.0963695509431,1.62));
#1400=CARTESIAN_POINT('',(-9.88813817931481,-38.0963695509431,1.62));
#1401=CARTESIAN_POINT('',(-10.1378342153342,-38.0963695509431,1.62));
#1402=CARTESIAN_POINT('',(-10.1378342153342,-38.0963695509431,1.62));
#1403=CARTESIAN_POINT('',(-10.1378342153342,-37.8475953079471,1.62));
#1404=CARTESIAN_POINT('',(-10.1378342153342,-37.8475953079471,1.62));
#1405=CARTESIAN_POINT('',(-10.4378342153342,-37.8475953079471,1.62));
#1406=CARTESIAN_POINT('',(-10.4378342153342,-37.8475953079471,1.62));
#1407=CARTESIAN_POINT('',(-10.4378342153342,-38.0963695509431,1.62));
#1408=CARTESIAN_POINT('',(-10.4378342153342,-38.0963695509431,1.62));
#1409=CARTESIAN_POINT('',(-10.6881381793148,-38.0963695509431,1.62));
#1410=CARTESIAN_POINT('',(-10.6881381793148,-38.0963695509431,1.62));
#1411=CARTESIAN_POINT('',(-10.6875302513537,-38.4242646540969,1.62));
#1412=UNCERTAINTY_MEASURE_WITH_UNIT(LENGTH_MEASURE(0.01),#1416,
'DISTANCE_ACCURACY_VALUE',
'Maximum model space distance between geometric entities at asserted c
onnectivities');
#1413=UNCERTAINTY_MEASURE_WITH_UNIT(LENGTH_MEASURE(0.01),#1416,
'DISTANCE_ACCURACY_VALUE',
'Maximum model space distance between geometric entities at asserted c
onnectivities');
#1414=(
GEOMETRIC_REPRESENTATION_CONTEXT(3)
GLOBAL_UNCERTAINTY_ASSIGNED_CONTEXT((#1412))
GLOBAL_UNIT_ASSIGNED_CONTEXT((#1416,#1418,#1419))
REPRESENTATION_CONTEXT('','3D')
);
#1415=(
GEOMETRIC_REPRESENTATION_CONTEXT(3)
GLOBAL_UNCERTAINTY_ASSIGNED_CONTEXT((#1413))
GLOBAL_UNIT_ASSIGNED_CONTEXT((#1416,#1418,#1419))
REPRESENTATION_CONTEXT('','3D')
);
#1416=(
LENGTH_UNIT()
NAMED_UNIT(*)
SI_UNIT(.MILLI.,.METRE.)
);
#1417=(
LENGTH_UNIT()
NAMED_UNIT(*)
SI_UNIT($,.METRE.)
);
#1418=(
NAMED_UNIT(*)
PLANE_ANGLE_UNIT()
SI_UNIT($,.RADIAN.)
);
#1419=(
NAMED_UNIT(*)
SI_UNIT($,.STERADIAN.)
SOLID_ANGLE_UNIT()
);
#1420=SHAPE_DEFINITION_REPRESENTATION(#1421,#1422);
#1421=PRODUCT_DEFINITION_SHAPE('',$,#1424);
#1422=SHAPE_REPRESENTATION('',(#767,#16,#17,#18),#1414);
#1423=PRODUCT_DEFINITION_CONTEXT('part definition',#1428,'design');
#1424=PRODUCT_DEFINITION('IN-S63BT','IN-S63BT v1',#1425,#1423);
#1425=PRODUCT_DEFINITION_FORMATION('',$,#1430);
#1426=PRODUCT_RELATED_PRODUCT_CATEGORY('IN-S63BT v1','IN-S63BT v1',(#1430));
#1427=APPLICATION_PROTOCOL_DEFINITION('international standard',
'automotive_design',2009,#1428);
#1428=APPLICATION_CONTEXT(
'Core Data for Automotive Mechanical Design Process');
#1429=PRODUCT_CONTEXT('part definition',#1428,'mechanical');
#1430=PRODUCT('IN-S63BT','IN-S63BT v1',$,(#1429));
#1431=PRESENTATION_STYLE_ASSIGNMENT((#1436));
#1432=PRESENTATION_STYLE_ASSIGNMENT((#1437));
#1433=PRESENTATION_STYLE_ASSIGNMENT((#1438));
#1434=PRESENTATION_STYLE_ASSIGNMENT((#1439));
#1435=PRESENTATION_STYLE_ASSIGNMENT((#1440));
#1436=SURFACE_STYLE_USAGE(.BOTH.,#1441);
#1437=SURFACE_STYLE_USAGE(.BOTH.,#1442);
#1438=SURFACE_STYLE_USAGE(.BOTH.,#1443);
#1439=SURFACE_STYLE_USAGE(.BOTH.,#1444);
#1440=SURFACE_STYLE_USAGE(.BOTH.,#1445);
#1441=SURFACE_SIDE_STYLE('',(#1446));
#1442=SURFACE_SIDE_STYLE('',(#1447));
#1443=SURFACE_SIDE_STYLE('',(#1448));
#1444=SURFACE_SIDE_STYLE('',(#1449));
#1445=SURFACE_SIDE_STYLE('',(#1450));
#1446=SURFACE_STYLE_FILL_AREA(#1451);
#1447=SURFACE_STYLE_FILL_AREA(#1452);
#1448=SURFACE_STYLE_FILL_AREA(#1453);
#1449=SURFACE_STYLE_FILL_AREA(#1454);
#1450=SURFACE_STYLE_FILL_AREA(#1455);
#1451=FILL_AREA_STYLE('Steel - Satin',(#1456));
#1452=FILL_AREA_STYLE('Opaque(0,127,0)',(#1457));
#1453=FILL_AREA_STYLE('Opaque(0,0,255)',(#1458));
#1454=FILL_AREA_STYLE('Opaque(125,38,205)',(#1459));
#1455=FILL_AREA_STYLE('Opaque(255,0,0)',(#1460));
#1456=FILL_AREA_STYLE_COLOUR('Steel - Satin',#1461);
#1457=FILL_AREA_STYLE_COLOUR('Opaque(0,127,0)',#1462);
#1458=FILL_AREA_STYLE_COLOUR('Opaque(0,0,255)',#1463);
#1459=FILL_AREA_STYLE_COLOUR('Opaque(125,38,205)',#1464);
#1460=FILL_AREA_STYLE_COLOUR('Opaque(255,0,0)',#1465);
#1461=COLOUR_RGB('Steel - Satin',0.627450980392157,0.627450980392157,0.627450980392157);
#1462=COLOUR_RGB('Opaque(0,127,0)',0.,0.498039215686275,0.);
#1463=COLOUR_RGB('Opaque(0,0,255)',0.,0.,1.);
#1464=COLOUR_RGB('Opaque(125,38,205)',0.490196078431373,0.149019607843137,
0.803921568627451);
#1465=COLOUR_RGB('Opaque(255,0,0)',1.,0.,0.);
ENDSEC;
END-ISO-10303-21;
