%TF.GenerationSoftware,KiCad,Pcbnew,9.0.6*%
%TF.CreationDate,2025-12-24T02:07:10-08:00*%
%TF.ProjectId,SpotifyDevice,53706f74-6966-4794-9465-766963652e6b,rev?*%
%TF.SameCoordinates,Original*%
%TF.FileFunction,Legend,Top*%
%TF.FilePolarity,Positive*%
%FSLAX46Y46*%
G04 Gerber Fmt 4.6, Leading zero omitted, Abs format (unit mm)*
G04 Created by KiCad (PCBNEW 9.0.6) date 2025-12-24 02:07:10*
%MOMM*%
%LPD*%
G01*
G04 APERTURE LIST*
G04 Aperture macros list*
%AMRoundRect*
0 Rectangle with rounded corners*
0 $1 Rounding radius*
0 $2 $3 $4 $5 $6 $7 $8 $9 X,Y pos of 4 corners*
0 Add a 4 corners polygon primitive as box body*
4,1,4,$2,$3,$4,$5,$6,$7,$8,$9,$2,$3,0*
0 Add four circle primitives for the rounded corners*
1,1,$1+$1,$2,$3*
1,1,$1+$1,$4,$5*
1,1,$1+$1,$6,$7*
1,1,$1+$1,$8,$9*
0 Add four rect primitives between the rounded corners*
20,1,$1+$1,$2,$3,$4,$5,0*
20,1,$1+$1,$4,$5,$6,$7,0*
20,1,$1+$1,$6,$7,$8,$9,0*
20,1,$1+$1,$8,$9,$2,$3,0*%
G04 Aperture macros list end*
%ADD10C,0.150000*%
%ADD11C,0.127000*%
%ADD12C,0.200000*%
%ADD13C,0.120000*%
%ADD14C,0.100000*%
%ADD15C,0.220000*%
%ADD16C,1.850000*%
%ADD17RoundRect,0.102000X-0.937500X-0.937500X0.937500X-0.937500X0.937500X0.937500X-0.937500X0.937500X0*%
%ADD18C,2.079000*%
%ADD19R,0.875000X0.950000*%
%ADD20C,4.000000*%
%ADD21R,1.500000X1.500000*%
%ADD22C,1.500000*%
%ADD23RoundRect,0.225000X0.250000X-0.225000X0.250000X0.225000X-0.250000X0.225000X-0.250000X-0.225000X0*%
%ADD24RoundRect,0.200000X-0.200000X-0.275000X0.200000X-0.275000X0.200000X0.275000X-0.200000X0.275000X0*%
%ADD25C,1.712000*%
%ADD26R,2.000000X1.200000*%
%ADD27O,2.000000X1.200000*%
G04 APERTURE END LIST*
D10*
X111738095Y-129407200D02*
X111880952Y-129454819D01*
X111880952Y-129454819D02*
X112119047Y-129454819D01*
X112119047Y-129454819D02*
X112214285Y-129407200D01*
X112214285Y-129407200D02*
X112261904Y-129359580D01*
X112261904Y-129359580D02*
X112309523Y-129264342D01*
X112309523Y-129264342D02*
X112309523Y-129169104D01*
X112309523Y-129169104D02*
X112261904Y-129073866D01*
X112261904Y-129073866D02*
X112214285Y-129026247D01*
X112214285Y-129026247D02*
X112119047Y-128978628D01*
X112119047Y-128978628D02*
X111928571Y-128931009D01*
X111928571Y-128931009D02*
X111833333Y-128883390D01*
X111833333Y-128883390D02*
X111785714Y-128835771D01*
X111785714Y-128835771D02*
X111738095Y-128740533D01*
X111738095Y-128740533D02*
X111738095Y-128645295D01*
X111738095Y-128645295D02*
X111785714Y-128550057D01*
X111785714Y-128550057D02*
X111833333Y-128502438D01*
X111833333Y-128502438D02*
X111928571Y-128454819D01*
X111928571Y-128454819D02*
X112166666Y-128454819D01*
X112166666Y-128454819D02*
X112309523Y-128502438D01*
X113261904Y-129454819D02*
X112690476Y-129454819D01*
X112976190Y-129454819D02*
X112976190Y-128454819D01*
X112976190Y-128454819D02*
X112880952Y-128597676D01*
X112880952Y-128597676D02*
X112785714Y-128692914D01*
X112785714Y-128692914D02*
X112690476Y-128740533D01*
X185511905Y-116454819D02*
X185511905Y-115454819D01*
X185511905Y-115454819D02*
X185750000Y-115454819D01*
X185750000Y-115454819D02*
X185892857Y-115502438D01*
X185892857Y-115502438D02*
X185988095Y-115597676D01*
X185988095Y-115597676D02*
X186035714Y-115692914D01*
X186035714Y-115692914D02*
X186083333Y-115883390D01*
X186083333Y-115883390D02*
X186083333Y-116026247D01*
X186083333Y-116026247D02*
X186035714Y-116216723D01*
X186035714Y-116216723D02*
X185988095Y-116311961D01*
X185988095Y-116311961D02*
X185892857Y-116407200D01*
X185892857Y-116407200D02*
X185750000Y-116454819D01*
X185750000Y-116454819D02*
X185511905Y-116454819D01*
X186940476Y-115454819D02*
X186750000Y-115454819D01*
X186750000Y-115454819D02*
X186654762Y-115502438D01*
X186654762Y-115502438D02*
X186607143Y-115550057D01*
X186607143Y-115550057D02*
X186511905Y-115692914D01*
X186511905Y-115692914D02*
X186464286Y-115883390D01*
X186464286Y-115883390D02*
X186464286Y-116264342D01*
X186464286Y-116264342D02*
X186511905Y-116359580D01*
X186511905Y-116359580D02*
X186559524Y-116407200D01*
X186559524Y-116407200D02*
X186654762Y-116454819D01*
X186654762Y-116454819D02*
X186845238Y-116454819D01*
X186845238Y-116454819D02*
X186940476Y-116407200D01*
X186940476Y-116407200D02*
X186988095Y-116359580D01*
X186988095Y-116359580D02*
X187035714Y-116264342D01*
X187035714Y-116264342D02*
X187035714Y-116026247D01*
X187035714Y-116026247D02*
X186988095Y-115931009D01*
X186988095Y-115931009D02*
X186940476Y-115883390D01*
X186940476Y-115883390D02*
X186845238Y-115835771D01*
X186845238Y-115835771D02*
X186654762Y-115835771D01*
X186654762Y-115835771D02*
X186559524Y-115883390D01*
X186559524Y-115883390D02*
X186511905Y-115931009D01*
X186511905Y-115931009D02*
X186464286Y-116026247D01*
X91888095Y-53379819D02*
X91888095Y-54189342D01*
X91888095Y-54189342D02*
X91935714Y-54284580D01*
X91935714Y-54284580D02*
X91983333Y-54332200D01*
X91983333Y-54332200D02*
X92078571Y-54379819D01*
X92078571Y-54379819D02*
X92269047Y-54379819D01*
X92269047Y-54379819D02*
X92364285Y-54332200D01*
X92364285Y-54332200D02*
X92411904Y-54284580D01*
X92411904Y-54284580D02*
X92459523Y-54189342D01*
X92459523Y-54189342D02*
X92459523Y-53379819D01*
X92888095Y-53475057D02*
X92935714Y-53427438D01*
X92935714Y-53427438D02*
X93030952Y-53379819D01*
X93030952Y-53379819D02*
X93269047Y-53379819D01*
X93269047Y-53379819D02*
X93364285Y-53427438D01*
X93364285Y-53427438D02*
X93411904Y-53475057D01*
X93411904Y-53475057D02*
X93459523Y-53570295D01*
X93459523Y-53570295D02*
X93459523Y-53665533D01*
X93459523Y-53665533D02*
X93411904Y-53808390D01*
X93411904Y-53808390D02*
X92840476Y-54379819D01*
X92840476Y-54379819D02*
X93459523Y-54379819D01*
X191738095Y-129407200D02*
X191880952Y-129454819D01*
X191880952Y-129454819D02*
X192119047Y-129454819D01*
X192119047Y-129454819D02*
X192214285Y-129407200D01*
X192214285Y-129407200D02*
X192261904Y-129359580D01*
X192261904Y-129359580D02*
X192309523Y-129264342D01*
X192309523Y-129264342D02*
X192309523Y-129169104D01*
X192309523Y-129169104D02*
X192261904Y-129073866D01*
X192261904Y-129073866D02*
X192214285Y-129026247D01*
X192214285Y-129026247D02*
X192119047Y-128978628D01*
X192119047Y-128978628D02*
X191928571Y-128931009D01*
X191928571Y-128931009D02*
X191833333Y-128883390D01*
X191833333Y-128883390D02*
X191785714Y-128835771D01*
X191785714Y-128835771D02*
X191738095Y-128740533D01*
X191738095Y-128740533D02*
X191738095Y-128645295D01*
X191738095Y-128645295D02*
X191785714Y-128550057D01*
X191785714Y-128550057D02*
X191833333Y-128502438D01*
X191833333Y-128502438D02*
X191928571Y-128454819D01*
X191928571Y-128454819D02*
X192166666Y-128454819D01*
X192166666Y-128454819D02*
X192309523Y-128502438D01*
X193214285Y-128454819D02*
X192738095Y-128454819D01*
X192738095Y-128454819D02*
X192690476Y-128931009D01*
X192690476Y-128931009D02*
X192738095Y-128883390D01*
X192738095Y-128883390D02*
X192833333Y-128835771D01*
X192833333Y-128835771D02*
X193071428Y-128835771D01*
X193071428Y-128835771D02*
X193166666Y-128883390D01*
X193166666Y-128883390D02*
X193214285Y-128931009D01*
X193214285Y-128931009D02*
X193261904Y-129026247D01*
X193261904Y-129026247D02*
X193261904Y-129264342D01*
X193261904Y-129264342D02*
X193214285Y-129359580D01*
X193214285Y-129359580D02*
X193166666Y-129407200D01*
X193166666Y-129407200D02*
X193071428Y-129454819D01*
X193071428Y-129454819D02*
X192833333Y-129454819D01*
X192833333Y-129454819D02*
X192738095Y-129407200D01*
X192738095Y-129407200D02*
X192690476Y-129359580D01*
X91184580Y-68366666D02*
X91232200Y-68414285D01*
X91232200Y-68414285D02*
X91279819Y-68557142D01*
X91279819Y-68557142D02*
X91279819Y-68652380D01*
X91279819Y-68652380D02*
X91232200Y-68795237D01*
X91232200Y-68795237D02*
X91136961Y-68890475D01*
X91136961Y-68890475D02*
X91041723Y-68938094D01*
X91041723Y-68938094D02*
X90851247Y-68985713D01*
X90851247Y-68985713D02*
X90708390Y-68985713D01*
X90708390Y-68985713D02*
X90517914Y-68938094D01*
X90517914Y-68938094D02*
X90422676Y-68890475D01*
X90422676Y-68890475D02*
X90327438Y-68795237D01*
X90327438Y-68795237D02*
X90279819Y-68652380D01*
X90279819Y-68652380D02*
X90279819Y-68557142D01*
X90279819Y-68557142D02*
X90327438Y-68414285D01*
X90327438Y-68414285D02*
X90375057Y-68366666D01*
X91279819Y-67414285D02*
X91279819Y-67985713D01*
X91279819Y-67699999D02*
X90279819Y-67699999D01*
X90279819Y-67699999D02*
X90422676Y-67795237D01*
X90422676Y-67795237D02*
X90517914Y-67890475D01*
X90517914Y-67890475D02*
X90565533Y-67985713D01*
X126083333Y-114704819D02*
X125750000Y-114228628D01*
X125511905Y-114704819D02*
X125511905Y-113704819D01*
X125511905Y-113704819D02*
X125892857Y-113704819D01*
X125892857Y-113704819D02*
X125988095Y-113752438D01*
X125988095Y-113752438D02*
X126035714Y-113800057D01*
X126035714Y-113800057D02*
X126083333Y-113895295D01*
X126083333Y-113895295D02*
X126083333Y-114038152D01*
X126083333Y-114038152D02*
X126035714Y-114133390D01*
X126035714Y-114133390D02*
X125988095Y-114181009D01*
X125988095Y-114181009D02*
X125892857Y-114228628D01*
X125892857Y-114228628D02*
X125511905Y-114228628D01*
X126416667Y-113704819D02*
X127035714Y-113704819D01*
X127035714Y-113704819D02*
X126702381Y-114085771D01*
X126702381Y-114085771D02*
X126845238Y-114085771D01*
X126845238Y-114085771D02*
X126940476Y-114133390D01*
X126940476Y-114133390D02*
X126988095Y-114181009D01*
X126988095Y-114181009D02*
X127035714Y-114276247D01*
X127035714Y-114276247D02*
X127035714Y-114514342D01*
X127035714Y-114514342D02*
X126988095Y-114609580D01*
X126988095Y-114609580D02*
X126940476Y-114657200D01*
X126940476Y-114657200D02*
X126845238Y-114704819D01*
X126845238Y-114704819D02*
X126559524Y-114704819D01*
X126559524Y-114704819D02*
X126464286Y-114657200D01*
X126464286Y-114657200D02*
X126416667Y-114609580D01*
X145511905Y-116454819D02*
X145511905Y-115454819D01*
X145511905Y-115454819D02*
X145750000Y-115454819D01*
X145750000Y-115454819D02*
X145892857Y-115502438D01*
X145892857Y-115502438D02*
X145988095Y-115597676D01*
X145988095Y-115597676D02*
X146035714Y-115692914D01*
X146035714Y-115692914D02*
X146083333Y-115883390D01*
X146083333Y-115883390D02*
X146083333Y-116026247D01*
X146083333Y-116026247D02*
X146035714Y-116216723D01*
X146035714Y-116216723D02*
X145988095Y-116311961D01*
X145988095Y-116311961D02*
X145892857Y-116407200D01*
X145892857Y-116407200D02*
X145750000Y-116454819D01*
X145750000Y-116454819D02*
X145511905Y-116454819D01*
X146940476Y-115788152D02*
X146940476Y-116454819D01*
X146702381Y-115407200D02*
X146464286Y-116121485D01*
X146464286Y-116121485D02*
X147083333Y-116121485D01*
X105511905Y-116454819D02*
X105511905Y-115454819D01*
X105511905Y-115454819D02*
X105750000Y-115454819D01*
X105750000Y-115454819D02*
X105892857Y-115502438D01*
X105892857Y-115502438D02*
X105988095Y-115597676D01*
X105988095Y-115597676D02*
X106035714Y-115692914D01*
X106035714Y-115692914D02*
X106083333Y-115883390D01*
X106083333Y-115883390D02*
X106083333Y-116026247D01*
X106083333Y-116026247D02*
X106035714Y-116216723D01*
X106035714Y-116216723D02*
X105988095Y-116311961D01*
X105988095Y-116311961D02*
X105892857Y-116407200D01*
X105892857Y-116407200D02*
X105750000Y-116454819D01*
X105750000Y-116454819D02*
X105511905Y-116454819D01*
X106464286Y-115550057D02*
X106511905Y-115502438D01*
X106511905Y-115502438D02*
X106607143Y-115454819D01*
X106607143Y-115454819D02*
X106845238Y-115454819D01*
X106845238Y-115454819D02*
X106940476Y-115502438D01*
X106940476Y-115502438D02*
X106988095Y-115550057D01*
X106988095Y-115550057D02*
X107035714Y-115645295D01*
X107035714Y-115645295D02*
X107035714Y-115740533D01*
X107035714Y-115740533D02*
X106988095Y-115883390D01*
X106988095Y-115883390D02*
X106416667Y-116454819D01*
X106416667Y-116454819D02*
X107035714Y-116454819D01*
X146083333Y-114704819D02*
X145750000Y-114228628D01*
X145511905Y-114704819D02*
X145511905Y-113704819D01*
X145511905Y-113704819D02*
X145892857Y-113704819D01*
X145892857Y-113704819D02*
X145988095Y-113752438D01*
X145988095Y-113752438D02*
X146035714Y-113800057D01*
X146035714Y-113800057D02*
X146083333Y-113895295D01*
X146083333Y-113895295D02*
X146083333Y-114038152D01*
X146083333Y-114038152D02*
X146035714Y-114133390D01*
X146035714Y-114133390D02*
X145988095Y-114181009D01*
X145988095Y-114181009D02*
X145892857Y-114228628D01*
X145892857Y-114228628D02*
X145511905Y-114228628D01*
X146940476Y-114038152D02*
X146940476Y-114704819D01*
X146702381Y-113657200D02*
X146464286Y-114371485D01*
X146464286Y-114371485D02*
X147083333Y-114371485D01*
X131738095Y-129407200D02*
X131880952Y-129454819D01*
X131880952Y-129454819D02*
X132119047Y-129454819D01*
X132119047Y-129454819D02*
X132214285Y-129407200D01*
X132214285Y-129407200D02*
X132261904Y-129359580D01*
X132261904Y-129359580D02*
X132309523Y-129264342D01*
X132309523Y-129264342D02*
X132309523Y-129169104D01*
X132309523Y-129169104D02*
X132261904Y-129073866D01*
X132261904Y-129073866D02*
X132214285Y-129026247D01*
X132214285Y-129026247D02*
X132119047Y-128978628D01*
X132119047Y-128978628D02*
X131928571Y-128931009D01*
X131928571Y-128931009D02*
X131833333Y-128883390D01*
X131833333Y-128883390D02*
X131785714Y-128835771D01*
X131785714Y-128835771D02*
X131738095Y-128740533D01*
X131738095Y-128740533D02*
X131738095Y-128645295D01*
X131738095Y-128645295D02*
X131785714Y-128550057D01*
X131785714Y-128550057D02*
X131833333Y-128502438D01*
X131833333Y-128502438D02*
X131928571Y-128454819D01*
X131928571Y-128454819D02*
X132166666Y-128454819D01*
X132166666Y-128454819D02*
X132309523Y-128502438D01*
X132690476Y-128550057D02*
X132738095Y-128502438D01*
X132738095Y-128502438D02*
X132833333Y-128454819D01*
X132833333Y-128454819D02*
X133071428Y-128454819D01*
X133071428Y-128454819D02*
X133166666Y-128502438D01*
X133166666Y-128502438D02*
X133214285Y-128550057D01*
X133214285Y-128550057D02*
X133261904Y-128645295D01*
X133261904Y-128645295D02*
X133261904Y-128740533D01*
X133261904Y-128740533D02*
X133214285Y-128883390D01*
X133214285Y-128883390D02*
X132642857Y-129454819D01*
X132642857Y-129454819D02*
X133261904Y-129454819D01*
X125511905Y-116454819D02*
X125511905Y-115454819D01*
X125511905Y-115454819D02*
X125750000Y-115454819D01*
X125750000Y-115454819D02*
X125892857Y-115502438D01*
X125892857Y-115502438D02*
X125988095Y-115597676D01*
X125988095Y-115597676D02*
X126035714Y-115692914D01*
X126035714Y-115692914D02*
X126083333Y-115883390D01*
X126083333Y-115883390D02*
X126083333Y-116026247D01*
X126083333Y-116026247D02*
X126035714Y-116216723D01*
X126035714Y-116216723D02*
X125988095Y-116311961D01*
X125988095Y-116311961D02*
X125892857Y-116407200D01*
X125892857Y-116407200D02*
X125750000Y-116454819D01*
X125750000Y-116454819D02*
X125511905Y-116454819D01*
X126416667Y-115454819D02*
X127035714Y-115454819D01*
X127035714Y-115454819D02*
X126702381Y-115835771D01*
X126702381Y-115835771D02*
X126845238Y-115835771D01*
X126845238Y-115835771D02*
X126940476Y-115883390D01*
X126940476Y-115883390D02*
X126988095Y-115931009D01*
X126988095Y-115931009D02*
X127035714Y-116026247D01*
X127035714Y-116026247D02*
X127035714Y-116264342D01*
X127035714Y-116264342D02*
X126988095Y-116359580D01*
X126988095Y-116359580D02*
X126940476Y-116407200D01*
X126940476Y-116407200D02*
X126845238Y-116454819D01*
X126845238Y-116454819D02*
X126559524Y-116454819D01*
X126559524Y-116454819D02*
X126464286Y-116407200D01*
X126464286Y-116407200D02*
X126416667Y-116359580D01*
X151738095Y-129407200D02*
X151880952Y-129454819D01*
X151880952Y-129454819D02*
X152119047Y-129454819D01*
X152119047Y-129454819D02*
X152214285Y-129407200D01*
X152214285Y-129407200D02*
X152261904Y-129359580D01*
X152261904Y-129359580D02*
X152309523Y-129264342D01*
X152309523Y-129264342D02*
X152309523Y-129169104D01*
X152309523Y-129169104D02*
X152261904Y-129073866D01*
X152261904Y-129073866D02*
X152214285Y-129026247D01*
X152214285Y-129026247D02*
X152119047Y-128978628D01*
X152119047Y-128978628D02*
X151928571Y-128931009D01*
X151928571Y-128931009D02*
X151833333Y-128883390D01*
X151833333Y-128883390D02*
X151785714Y-128835771D01*
X151785714Y-128835771D02*
X151738095Y-128740533D01*
X151738095Y-128740533D02*
X151738095Y-128645295D01*
X151738095Y-128645295D02*
X151785714Y-128550057D01*
X151785714Y-128550057D02*
X151833333Y-128502438D01*
X151833333Y-128502438D02*
X151928571Y-128454819D01*
X151928571Y-128454819D02*
X152166666Y-128454819D01*
X152166666Y-128454819D02*
X152309523Y-128502438D01*
X152642857Y-128454819D02*
X153261904Y-128454819D01*
X153261904Y-128454819D02*
X152928571Y-128835771D01*
X152928571Y-128835771D02*
X153071428Y-128835771D01*
X153071428Y-128835771D02*
X153166666Y-128883390D01*
X153166666Y-128883390D02*
X153214285Y-128931009D01*
X153214285Y-128931009D02*
X153261904Y-129026247D01*
X153261904Y-129026247D02*
X153261904Y-129264342D01*
X153261904Y-129264342D02*
X153214285Y-129359580D01*
X153214285Y-129359580D02*
X153166666Y-129407200D01*
X153166666Y-129407200D02*
X153071428Y-129454819D01*
X153071428Y-129454819D02*
X152785714Y-129454819D01*
X152785714Y-129454819D02*
X152690476Y-129407200D01*
X152690476Y-129407200D02*
X152642857Y-129359580D01*
X171738095Y-129407200D02*
X171880952Y-129454819D01*
X171880952Y-129454819D02*
X172119047Y-129454819D01*
X172119047Y-129454819D02*
X172214285Y-129407200D01*
X172214285Y-129407200D02*
X172261904Y-129359580D01*
X172261904Y-129359580D02*
X172309523Y-129264342D01*
X172309523Y-129264342D02*
X172309523Y-129169104D01*
X172309523Y-129169104D02*
X172261904Y-129073866D01*
X172261904Y-129073866D02*
X172214285Y-129026247D01*
X172214285Y-129026247D02*
X172119047Y-128978628D01*
X172119047Y-128978628D02*
X171928571Y-128931009D01*
X171928571Y-128931009D02*
X171833333Y-128883390D01*
X171833333Y-128883390D02*
X171785714Y-128835771D01*
X171785714Y-128835771D02*
X171738095Y-128740533D01*
X171738095Y-128740533D02*
X171738095Y-128645295D01*
X171738095Y-128645295D02*
X171785714Y-128550057D01*
X171785714Y-128550057D02*
X171833333Y-128502438D01*
X171833333Y-128502438D02*
X171928571Y-128454819D01*
X171928571Y-128454819D02*
X172166666Y-128454819D01*
X172166666Y-128454819D02*
X172309523Y-128502438D01*
X173166666Y-128788152D02*
X173166666Y-129454819D01*
X172928571Y-128407200D02*
X172690476Y-129121485D01*
X172690476Y-129121485D02*
X173309523Y-129121485D01*
X165511905Y-116454819D02*
X165511905Y-115454819D01*
X165511905Y-115454819D02*
X165750000Y-115454819D01*
X165750000Y-115454819D02*
X165892857Y-115502438D01*
X165892857Y-115502438D02*
X165988095Y-115597676D01*
X165988095Y-115597676D02*
X166035714Y-115692914D01*
X166035714Y-115692914D02*
X166083333Y-115883390D01*
X166083333Y-115883390D02*
X166083333Y-116026247D01*
X166083333Y-116026247D02*
X166035714Y-116216723D01*
X166035714Y-116216723D02*
X165988095Y-116311961D01*
X165988095Y-116311961D02*
X165892857Y-116407200D01*
X165892857Y-116407200D02*
X165750000Y-116454819D01*
X165750000Y-116454819D02*
X165511905Y-116454819D01*
X166988095Y-115454819D02*
X166511905Y-115454819D01*
X166511905Y-115454819D02*
X166464286Y-115931009D01*
X166464286Y-115931009D02*
X166511905Y-115883390D01*
X166511905Y-115883390D02*
X166607143Y-115835771D01*
X166607143Y-115835771D02*
X166845238Y-115835771D01*
X166845238Y-115835771D02*
X166940476Y-115883390D01*
X166940476Y-115883390D02*
X166988095Y-115931009D01*
X166988095Y-115931009D02*
X167035714Y-116026247D01*
X167035714Y-116026247D02*
X167035714Y-116264342D01*
X167035714Y-116264342D02*
X166988095Y-116359580D01*
X166988095Y-116359580D02*
X166940476Y-116407200D01*
X166940476Y-116407200D02*
X166845238Y-116454819D01*
X166845238Y-116454819D02*
X166607143Y-116454819D01*
X166607143Y-116454819D02*
X166511905Y-116407200D01*
X166511905Y-116407200D02*
X166464286Y-116359580D01*
X166083333Y-114704819D02*
X165750000Y-114228628D01*
X165511905Y-114704819D02*
X165511905Y-113704819D01*
X165511905Y-113704819D02*
X165892857Y-113704819D01*
X165892857Y-113704819D02*
X165988095Y-113752438D01*
X165988095Y-113752438D02*
X166035714Y-113800057D01*
X166035714Y-113800057D02*
X166083333Y-113895295D01*
X166083333Y-113895295D02*
X166083333Y-114038152D01*
X166083333Y-114038152D02*
X166035714Y-114133390D01*
X166035714Y-114133390D02*
X165988095Y-114181009D01*
X165988095Y-114181009D02*
X165892857Y-114228628D01*
X165892857Y-114228628D02*
X165511905Y-114228628D01*
X166988095Y-113704819D02*
X166511905Y-113704819D01*
X166511905Y-113704819D02*
X166464286Y-114181009D01*
X166464286Y-114181009D02*
X166511905Y-114133390D01*
X166511905Y-114133390D02*
X166607143Y-114085771D01*
X166607143Y-114085771D02*
X166845238Y-114085771D01*
X166845238Y-114085771D02*
X166940476Y-114133390D01*
X166940476Y-114133390D02*
X166988095Y-114181009D01*
X166988095Y-114181009D02*
X167035714Y-114276247D01*
X167035714Y-114276247D02*
X167035714Y-114514342D01*
X167035714Y-114514342D02*
X166988095Y-114609580D01*
X166988095Y-114609580D02*
X166940476Y-114657200D01*
X166940476Y-114657200D02*
X166845238Y-114704819D01*
X166845238Y-114704819D02*
X166607143Y-114704819D01*
X166607143Y-114704819D02*
X166511905Y-114657200D01*
X166511905Y-114657200D02*
X166464286Y-114609580D01*
X106083333Y-114704819D02*
X105750000Y-114228628D01*
X105511905Y-114704819D02*
X105511905Y-113704819D01*
X105511905Y-113704819D02*
X105892857Y-113704819D01*
X105892857Y-113704819D02*
X105988095Y-113752438D01*
X105988095Y-113752438D02*
X106035714Y-113800057D01*
X106035714Y-113800057D02*
X106083333Y-113895295D01*
X106083333Y-113895295D02*
X106083333Y-114038152D01*
X106083333Y-114038152D02*
X106035714Y-114133390D01*
X106035714Y-114133390D02*
X105988095Y-114181009D01*
X105988095Y-114181009D02*
X105892857Y-114228628D01*
X105892857Y-114228628D02*
X105511905Y-114228628D01*
X106464286Y-113800057D02*
X106511905Y-113752438D01*
X106511905Y-113752438D02*
X106607143Y-113704819D01*
X106607143Y-113704819D02*
X106845238Y-113704819D01*
X106845238Y-113704819D02*
X106940476Y-113752438D01*
X106940476Y-113752438D02*
X106988095Y-113800057D01*
X106988095Y-113800057D02*
X107035714Y-113895295D01*
X107035714Y-113895295D02*
X107035714Y-113990533D01*
X107035714Y-113990533D02*
X106988095Y-114133390D01*
X106988095Y-114133390D02*
X106416667Y-114704819D01*
X106416667Y-114704819D02*
X107035714Y-114704819D01*
X186083333Y-114704819D02*
X185750000Y-114228628D01*
X185511905Y-114704819D02*
X185511905Y-113704819D01*
X185511905Y-113704819D02*
X185892857Y-113704819D01*
X185892857Y-113704819D02*
X185988095Y-113752438D01*
X185988095Y-113752438D02*
X186035714Y-113800057D01*
X186035714Y-113800057D02*
X186083333Y-113895295D01*
X186083333Y-113895295D02*
X186083333Y-114038152D01*
X186083333Y-114038152D02*
X186035714Y-114133390D01*
X186035714Y-114133390D02*
X185988095Y-114181009D01*
X185988095Y-114181009D02*
X185892857Y-114228628D01*
X185892857Y-114228628D02*
X185511905Y-114228628D01*
X186940476Y-113704819D02*
X186750000Y-113704819D01*
X186750000Y-113704819D02*
X186654762Y-113752438D01*
X186654762Y-113752438D02*
X186607143Y-113800057D01*
X186607143Y-113800057D02*
X186511905Y-113942914D01*
X186511905Y-113942914D02*
X186464286Y-114133390D01*
X186464286Y-114133390D02*
X186464286Y-114514342D01*
X186464286Y-114514342D02*
X186511905Y-114609580D01*
X186511905Y-114609580D02*
X186559524Y-114657200D01*
X186559524Y-114657200D02*
X186654762Y-114704819D01*
X186654762Y-114704819D02*
X186845238Y-114704819D01*
X186845238Y-114704819D02*
X186940476Y-114657200D01*
X186940476Y-114657200D02*
X186988095Y-114609580D01*
X186988095Y-114609580D02*
X187035714Y-114514342D01*
X187035714Y-114514342D02*
X187035714Y-114276247D01*
X187035714Y-114276247D02*
X186988095Y-114181009D01*
X186988095Y-114181009D02*
X186940476Y-114133390D01*
X186940476Y-114133390D02*
X186845238Y-114085771D01*
X186845238Y-114085771D02*
X186654762Y-114085771D01*
X186654762Y-114085771D02*
X186559524Y-114133390D01*
X186559524Y-114133390D02*
X186511905Y-114181009D01*
X186511905Y-114181009D02*
X186464286Y-114276247D01*
X166161905Y-135129819D02*
X166161905Y-134129819D01*
X166161905Y-134129819D02*
X166400000Y-134129819D01*
X166400000Y-134129819D02*
X166542857Y-134177438D01*
X166542857Y-134177438D02*
X166638095Y-134272676D01*
X166638095Y-134272676D02*
X166685714Y-134367914D01*
X166685714Y-134367914D02*
X166733333Y-134558390D01*
X166733333Y-134558390D02*
X166733333Y-134701247D01*
X166733333Y-134701247D02*
X166685714Y-134891723D01*
X166685714Y-134891723D02*
X166638095Y-134986961D01*
X166638095Y-134986961D02*
X166542857Y-135082200D01*
X166542857Y-135082200D02*
X166400000Y-135129819D01*
X166400000Y-135129819D02*
X166161905Y-135129819D01*
X167685714Y-135129819D02*
X167114286Y-135129819D01*
X167400000Y-135129819D02*
X167400000Y-134129819D01*
X167400000Y-134129819D02*
X167304762Y-134272676D01*
X167304762Y-134272676D02*
X167209524Y-134367914D01*
X167209524Y-134367914D02*
X167114286Y-134415533D01*
X160269048Y-134648866D02*
X161030953Y-134648866D01*
X160650000Y-135029819D02*
X160650000Y-134267914D01*
D11*
%TO.C,S1*%
X97750000Y-117250000D02*
X109750000Y-117250000D01*
X97750000Y-119250000D02*
X97750000Y-117250000D01*
X97750000Y-127250000D02*
X97750000Y-129250000D01*
X97750000Y-129250000D02*
X109750000Y-129250000D01*
X109750000Y-117250000D02*
X109750000Y-119250000D01*
X109750000Y-129250000D02*
X109750000Y-127250000D01*
D12*
X96050000Y-120650000D02*
G75*
G02*
X95850000Y-120650000I-100000J0D01*
G01*
X95850000Y-120650000D02*
G75*
G02*
X96050000Y-120650000I100000J0D01*
G01*
D13*
%TO.C,D6*%
X182950000Y-116735000D02*
X185235000Y-116735000D01*
X185235000Y-115265000D02*
X182950000Y-115265000D01*
X185235000Y-116735000D02*
X185235000Y-115265000D01*
%TO.C,U2*%
X91880000Y-54880000D02*
X190120000Y-54880000D01*
X190120000Y-111120000D01*
X91880000Y-111120000D01*
X91880000Y-54880000D01*
D14*
X105000000Y-56000000D02*
X182000000Y-56000000D01*
X182000000Y-110000000D01*
X105000000Y-110000000D01*
X105000000Y-56000000D01*
D11*
%TO.C,S5*%
X177750000Y-117250000D02*
X189750000Y-117250000D01*
X177750000Y-119250000D02*
X177750000Y-117250000D01*
X177750000Y-127250000D02*
X177750000Y-129250000D01*
X177750000Y-129250000D02*
X189750000Y-129250000D01*
X189750000Y-117250000D02*
X189750000Y-119250000D01*
X189750000Y-129250000D02*
X189750000Y-127250000D01*
D12*
X176050000Y-120650000D02*
G75*
G02*
X175850000Y-120650000I-100000J0D01*
G01*
X175850000Y-120650000D02*
G75*
G02*
X176050000Y-120650000I100000J0D01*
G01*
D13*
%TO.C,C1*%
X90315000Y-65815580D02*
X90315000Y-65534420D01*
X91335000Y-65815580D02*
X91335000Y-65534420D01*
%TO.C,R3*%
X123512742Y-113727500D02*
X123987258Y-113727500D01*
X123512742Y-114772500D02*
X123987258Y-114772500D01*
%TO.C,D4*%
X142950000Y-116735000D02*
X145235000Y-116735000D01*
X145235000Y-115265000D02*
X142950000Y-115265000D01*
X145235000Y-116735000D02*
X145235000Y-115265000D01*
%TO.C,D2*%
X102950000Y-116735000D02*
X105235000Y-116735000D01*
X105235000Y-115265000D02*
X102950000Y-115265000D01*
X105235000Y-116735000D02*
X105235000Y-115265000D01*
%TO.C,R4*%
X143512742Y-113727500D02*
X143987258Y-113727500D01*
X143512742Y-114772500D02*
X143987258Y-114772500D01*
D11*
%TO.C,S2*%
X117750000Y-117250000D02*
X129750000Y-117250000D01*
X117750000Y-119250000D02*
X117750000Y-117250000D01*
X117750000Y-127250000D02*
X117750000Y-129250000D01*
X117750000Y-129250000D02*
X129750000Y-129250000D01*
X129750000Y-117250000D02*
X129750000Y-119250000D01*
X129750000Y-129250000D02*
X129750000Y-127250000D01*
D12*
X116050000Y-120650000D02*
G75*
G02*
X115850000Y-120650000I-100000J0D01*
G01*
X115850000Y-120650000D02*
G75*
G02*
X116050000Y-120650000I100000J0D01*
G01*
D13*
%TO.C,D3*%
X122950000Y-116735000D02*
X125235000Y-116735000D01*
X125235000Y-115265000D02*
X122950000Y-115265000D01*
X125235000Y-116735000D02*
X125235000Y-115265000D01*
D11*
%TO.C,S3*%
X137750000Y-117250000D02*
X149750000Y-117250000D01*
X137750000Y-119250000D02*
X137750000Y-117250000D01*
X137750000Y-127250000D02*
X137750000Y-129250000D01*
X137750000Y-129250000D02*
X149750000Y-129250000D01*
X149750000Y-117250000D02*
X149750000Y-119250000D01*
X149750000Y-129250000D02*
X149750000Y-127250000D01*
D12*
X136050000Y-120650000D02*
G75*
G02*
X135850000Y-120650000I-100000J0D01*
G01*
X135850000Y-120650000D02*
G75*
G02*
X136050000Y-120650000I100000J0D01*
G01*
D11*
%TO.C,S4*%
X157750000Y-117250000D02*
X169750000Y-117250000D01*
X157750000Y-119250000D02*
X157750000Y-117250000D01*
X157750000Y-127250000D02*
X157750000Y-129250000D01*
X157750000Y-129250000D02*
X169750000Y-129250000D01*
X169750000Y-117250000D02*
X169750000Y-119250000D01*
X169750000Y-129250000D02*
X169750000Y-127250000D01*
D12*
X156050000Y-120650000D02*
G75*
G02*
X155850000Y-120650000I-100000J0D01*
G01*
X155850000Y-120650000D02*
G75*
G02*
X156050000Y-120650000I100000J0D01*
G01*
D13*
%TO.C,D5*%
X162950000Y-116735000D02*
X165235000Y-116735000D01*
X165235000Y-115265000D02*
X162950000Y-115265000D01*
X165235000Y-116735000D02*
X165235000Y-115265000D01*
%TO.C,R5*%
X163512742Y-113727500D02*
X163987258Y-113727500D01*
X163512742Y-114772500D02*
X163987258Y-114772500D01*
%TO.C,R2*%
X103512742Y-113727500D02*
X103987258Y-113727500D01*
X103512742Y-114772500D02*
X103987258Y-114772500D01*
%TO.C,R6*%
X183512742Y-113727500D02*
X183987258Y-113727500D01*
X183512742Y-114772500D02*
X183987258Y-114772500D01*
D12*
%TO.C,D1*%
X165150000Y-133625000D02*
X165150000Y-133305000D01*
X165150000Y-135625000D02*
X165150000Y-135945000D01*
D15*
X161620000Y-133855000D02*
G75*
G02*
X165150000Y-133305001I1930711J-788565D01*
G01*
X165150000Y-135944999D02*
G75*
G02*
X161620000Y-135395000I-1599289J1338564D01*
G01*
%TD*%
%LPC*%
D16*
%TO.C,S1*%
X103750000Y-118750000D03*
X103750000Y-127750000D03*
D17*
X97500000Y-120750000D03*
D18*
X110000000Y-120750000D03*
X97500000Y-125750000D03*
X110000000Y-125750000D03*
%TD*%
D19*
%TO.C,D6*%
X184537500Y-116000000D03*
X182962500Y-116000000D03*
%TD*%
D20*
%TO.C,U2*%
X95000000Y-58000000D03*
X95000000Y-108000000D03*
X187000000Y-58000000D03*
X187000000Y-108000000D03*
D21*
X93500000Y-66490000D03*
D22*
X93500000Y-69030000D03*
X93500000Y-71570000D03*
X93500000Y-74110000D03*
X93500000Y-76650000D03*
X93500000Y-79190000D03*
X93500000Y-81730000D03*
X93500000Y-84270000D03*
X93500000Y-86810000D03*
X93500000Y-89350000D03*
X93500000Y-91890000D03*
X93500000Y-94430000D03*
X93500000Y-96970000D03*
X93500000Y-99510000D03*
X188500000Y-86800000D03*
X188500000Y-84260000D03*
X188500000Y-81720000D03*
D21*
X188500000Y-79200000D03*
%TD*%
D16*
%TO.C,S5*%
X183750000Y-118750000D03*
X183750000Y-127750000D03*
D17*
X177500000Y-120750000D03*
D18*
X190000000Y-120750000D03*
X177500000Y-125750000D03*
X190000000Y-125750000D03*
%TD*%
D23*
%TO.C,C1*%
X90825000Y-66450000D03*
X90825000Y-64900000D03*
%TD*%
D24*
%TO.C,R3*%
X122925000Y-114250000D03*
X124575000Y-114250000D03*
%TD*%
D19*
%TO.C,D4*%
X144537500Y-116000000D03*
X142962500Y-116000000D03*
%TD*%
%TO.C,D2*%
X104537500Y-116000000D03*
X102962500Y-116000000D03*
%TD*%
D24*
%TO.C,R4*%
X142925000Y-114250000D03*
X144575000Y-114250000D03*
%TD*%
D16*
%TO.C,S2*%
X123750000Y-118750000D03*
X123750000Y-127750000D03*
D17*
X117500000Y-120750000D03*
D18*
X130000000Y-120750000D03*
X117500000Y-125750000D03*
X130000000Y-125750000D03*
%TD*%
D19*
%TO.C,D3*%
X124537500Y-116000000D03*
X122962500Y-116000000D03*
%TD*%
D16*
%TO.C,S3*%
X143750000Y-118750000D03*
X143750000Y-127750000D03*
D17*
X137500000Y-120750000D03*
D18*
X150000000Y-120750000D03*
X137500000Y-125750000D03*
X150000000Y-125750000D03*
%TD*%
D16*
%TO.C,S4*%
X163750000Y-118750000D03*
X163750000Y-127750000D03*
D17*
X157500000Y-120750000D03*
D18*
X170000000Y-120750000D03*
X157500000Y-125750000D03*
X170000000Y-125750000D03*
%TD*%
D19*
%TO.C,D5*%
X164537500Y-116000000D03*
X162962500Y-116000000D03*
%TD*%
D24*
%TO.C,R5*%
X162925000Y-114250000D03*
X164575000Y-114250000D03*
%TD*%
%TO.C,R2*%
X102925000Y-114250000D03*
X104575000Y-114250000D03*
%TD*%
%TO.C,R6*%
X182925000Y-114250000D03*
X184575000Y-114250000D03*
%TD*%
D25*
%TO.C,D1*%
X162280000Y-134625000D03*
X164820000Y-134625000D03*
%TD*%
D26*
%TO.C,U1*%
X101650000Y-106837280D03*
D27*
X101650000Y-104297280D03*
X101650000Y-101757280D03*
X101650000Y-99217280D03*
X101650000Y-96677280D03*
X101650000Y-94137280D03*
X101650000Y-91597280D03*
X101650000Y-89057280D03*
X101650000Y-86517280D03*
X101650000Y-83977280D03*
X101650000Y-81437280D03*
X101650000Y-78897280D03*
X101650000Y-76357280D03*
X101650000Y-73817280D03*
X101650000Y-71277280D03*
X101650000Y-68737280D03*
X101650000Y-66197280D03*
X101650000Y-63657280D03*
X101650000Y-61117280D03*
X101646320Y-58580000D03*
X101646320Y-56040000D03*
X101646320Y-53500000D03*
X127160000Y-53497280D03*
X127160000Y-56037280D03*
X127160000Y-58577280D03*
X127160000Y-61117280D03*
X127160000Y-63657280D03*
X127160000Y-66197280D03*
X127160000Y-68737280D03*
X127160000Y-71277280D03*
X127160000Y-73817280D03*
X127160000Y-76357280D03*
X127160000Y-78897280D03*
X127160000Y-81437280D03*
X127160000Y-83977280D03*
X127160000Y-86517280D03*
X127160000Y-89057280D03*
X127160000Y-91597280D03*
X127160000Y-94137280D03*
X127160000Y-96677280D03*
X127160000Y-99217280D03*
X127160000Y-101757280D03*
X127160000Y-104297280D03*
X127160000Y-106837280D03*
%TD*%
%LPD*%
M02*
