%TF.GenerationSoftware,KiCad,Pcbnew,9.0.6*%
%TF.CreationDate,2025-12-24T02:07:14-08:00*%
%TF.ProjectId,SpotifyDevice,53706f74-6966-4794-9465-766963652e6b,rev?*%
%TF.SameCoordinates,Original*%
%TF.FileFunction,Plated,1,2,PTH,Drill*%
%TF.FilePolarity,Positive*%
%FSLAX46Y46*%
G04 Gerber Fmt 4.6, Leading zero omitted, Abs format (unit mm)*
G04 Created by KiCad (PCBNEW 9.0.6) date 2025-12-24 02:07:14*
%MOMM*%
%LPD*%
G01*
G04 APERTURE LIST*
%TA.AperFunction,ComponentDrill*%
%ADD10C,0.800000*%
%TD*%
%TA.AperFunction,ComponentDrill*%
%ADD11C,1.000000*%
%TD*%
%TA.AperFunction,ComponentDrill*%
%ADD12C,1.250000*%
%TD*%
%TA.AperFunction,ComponentDrill*%
%ADD13C,2.700000*%
%TD*%
G04 APERTURE END LIST*
D10*
%TO.C,U1*%
X101646320Y-53500000D03*
X101646320Y-56040000D03*
X101646320Y-58580000D03*
X101650000Y-61117280D03*
X101650000Y-63657280D03*
X101650000Y-66197280D03*
X101650000Y-68737280D03*
X101650000Y-71277280D03*
X101650000Y-73817280D03*
X101650000Y-76357280D03*
X101650000Y-78897280D03*
X101650000Y-81437280D03*
X101650000Y-83977280D03*
X101650000Y-86517280D03*
X101650000Y-89057280D03*
X101650000Y-91597280D03*
X101650000Y-94137280D03*
X101650000Y-96677280D03*
X101650000Y-99217280D03*
X101650000Y-101757280D03*
X101650000Y-104297280D03*
X101650000Y-106837280D03*
X127160000Y-53497280D03*
X127160000Y-56037280D03*
X127160000Y-58577280D03*
X127160000Y-61117280D03*
X127160000Y-63657280D03*
X127160000Y-66197280D03*
X127160000Y-68737280D03*
X127160000Y-71277280D03*
X127160000Y-73817280D03*
X127160000Y-76357280D03*
X127160000Y-78897280D03*
X127160000Y-81437280D03*
X127160000Y-83977280D03*
X127160000Y-86517280D03*
X127160000Y-89057280D03*
X127160000Y-91597280D03*
X127160000Y-94137280D03*
X127160000Y-96677280D03*
X127160000Y-99217280D03*
X127160000Y-101757280D03*
X127160000Y-104297280D03*
X127160000Y-106837280D03*
D11*
%TO.C,U2*%
X93500000Y-66490000D03*
X93500000Y-69030000D03*
X93500000Y-71570000D03*
X93500000Y-74110000D03*
X93500000Y-76650000D03*
X93500000Y-79190000D03*
X93500000Y-81730000D03*
X93500000Y-84270000D03*
X93500000Y-86810000D03*
X93500000Y-89350000D03*
X93500000Y-91890000D03*
X93500000Y-94430000D03*
X93500000Y-96970000D03*
X93500000Y-99510000D03*
%TO.C,D1*%
X162280000Y-134625000D03*
X164820000Y-134625000D03*
%TO.C,U2*%
X188500000Y-79200000D03*
X188500000Y-81720000D03*
X188500000Y-84260000D03*
X188500000Y-86800000D03*
D12*
%TO.C,S1*%
X97500000Y-120750000D03*
X97500000Y-125750000D03*
X110000000Y-120750000D03*
X110000000Y-125750000D03*
%TO.C,S2*%
X117500000Y-120750000D03*
X117500000Y-125750000D03*
X130000000Y-120750000D03*
X130000000Y-125750000D03*
%TO.C,S3*%
X137500000Y-120750000D03*
X137500000Y-125750000D03*
X150000000Y-120750000D03*
X150000000Y-125750000D03*
%TO.C,S4*%
X157500000Y-120750000D03*
X157500000Y-125750000D03*
X170000000Y-120750000D03*
X170000000Y-125750000D03*
%TO.C,S5*%
X177500000Y-120750000D03*
X177500000Y-125750000D03*
X190000000Y-120750000D03*
X190000000Y-125750000D03*
D13*
%TO.C,U2*%
X95000000Y-58000000D03*
X95000000Y-108000000D03*
X187000000Y-58000000D03*
X187000000Y-108000000D03*
M02*
