%TF.GenerationSoftware,KiCad,Pcbnew,9.0.3*%
%TF.CreationDate,2025-08-01T16:51:20-05:00*%
%TF.ProjectId,Lab_Sensor_V2,4c61625f-5365-46e7-936f-725f56322e6b,rev?*%
%TF.SameCoordinates,Original*%
%TF.FileFunction,Soldermask,Bot*%
%TF.FilePolarity,Negative*%
%FSLAX46Y46*%
G04 Gerber Fmt 4.6, Leading zero omitted, Abs format (unit mm)*
G04 Created by KiCad (PCBNEW 9.0.3) date 2025-08-01 16:51:20*
%MOMM*%
%LPD*%
G01*
G04 APERTURE LIST*
G04 Aperture macros list*
%AMRoundRect*
0 Rectangle with rounded corners*
0 $1 Rounding radius*
0 $2 $3 $4 $5 $6 $7 $8 $9 X,Y pos of 4 corners*
0 Add a 4 corners polygon primitive as box body*
4,1,4,$2,$3,$4,$5,$6,$7,$8,$9,$2,$3,0*
0 Add four circle primitives for the rounded corners*
1,1,$1+$1,$2,$3*
1,1,$1+$1,$4,$5*
1,1,$1+$1,$6,$7*
1,1,$1+$1,$8,$9*
0 Add four rect primitives between the rounded corners*
20,1,$1+$1,$2,$3,$4,$5,0*
20,1,$1+$1,$4,$5,$6,$7,0*
20,1,$1+$1,$6,$7,$8,$9,0*
20,1,$1+$1,$8,$9,$2,$3,0*%
G04 Aperture macros list end*
%ADD10C,1.734000*%
%ADD11C,2.019000*%
%ADD12RoundRect,0.102000X0.907500X-0.907500X0.907500X0.907500X-0.907500X0.907500X-0.907500X-0.907500X0*%
%ADD13C,1.700000*%
%ADD14C,2.200000*%
%ADD15C,1.982000*%
%ADD16C,3.000000*%
%ADD17R,1.500000X1.500000*%
%ADD18C,1.500000*%
%ADD19O,1.600000X2.000000*%
%ADD20RoundRect,0.225000X0.250000X-0.225000X0.250000X0.225000X-0.250000X0.225000X-0.250000X-0.225000X0*%
%ADD21RoundRect,0.200000X-0.275000X0.200000X-0.275000X-0.200000X0.275000X-0.200000X0.275000X0.200000X0*%
%ADD22RoundRect,0.200000X-0.200000X-0.275000X0.200000X-0.275000X0.200000X0.275000X-0.200000X0.275000X0*%
%ADD23RoundRect,0.200000X0.275000X-0.200000X0.275000X0.200000X-0.275000X0.200000X-0.275000X-0.200000X0*%
G04 APERTURE END LIST*
D10*
%TO.C,TP2*%
X77650000Y-80950000D03*
%TD*%
D11*
%TO.C,D3*%
X125000000Y-105500000D03*
D12*
X125000000Y-108040000D03*
%TD*%
D13*
%TO.C,U4*%
X135690000Y-87460000D03*
X143310000Y-87460000D03*
X135690000Y-90000000D03*
X143310000Y-90000000D03*
X135690000Y-92540000D03*
X143310000Y-92540000D03*
%TD*%
D14*
%TO.C,H3*%
X165750000Y-50250000D03*
%TD*%
%TO.C,H2*%
X147500000Y-109250000D03*
%TD*%
%TO.C,H1*%
X107000000Y-109250000D03*
%TD*%
D10*
%TO.C,TP1*%
X119650000Y-78700000D03*
%TD*%
D14*
%TO.C,U1*%
X128038000Y-50310000D03*
X78000000Y-55136000D03*
X128038000Y-73170000D03*
D15*
X122293000Y-49050000D03*
X119753000Y-49050000D03*
X117213000Y-49050000D03*
X114673000Y-49050000D03*
X112133000Y-49050000D03*
X109593000Y-49050000D03*
X107053000Y-49050000D03*
X104513000Y-49050000D03*
X101973000Y-49050000D03*
X99433000Y-49050000D03*
X122293000Y-74450000D03*
X119753000Y-74450000D03*
X117213000Y-74450000D03*
X114673000Y-74450000D03*
X112133000Y-74450000D03*
X109593000Y-74450000D03*
X107053000Y-74450000D03*
X104513000Y-74450000D03*
X101973000Y-74450000D03*
X99433000Y-74450000D03*
%TD*%
D11*
%TO.C,D1*%
X115000000Y-88500000D03*
D12*
X115000000Y-91040000D03*
%TD*%
D11*
%TO.C,D5*%
X125000000Y-97000000D03*
D12*
X125000000Y-99540000D03*
%TD*%
D16*
%TO.C,U2*%
X159500000Y-107592500D03*
D17*
X163310000Y-82292500D03*
D18*
X160770000Y-82292500D03*
X158230000Y-82292500D03*
X155690000Y-82292500D03*
%TD*%
D19*
%TO.C,U3*%
X85880000Y-86000000D03*
X88420000Y-86000000D03*
X90960000Y-86000000D03*
X93500000Y-86000000D03*
%TD*%
D11*
%TO.C,D2*%
X115000000Y-105500000D03*
D12*
X115000000Y-108040000D03*
%TD*%
D11*
%TO.C,D4*%
X115000000Y-97000000D03*
D12*
X115000000Y-99540000D03*
%TD*%
D11*
%TO.C,D6*%
X125000000Y-88460000D03*
D12*
X125000000Y-91000000D03*
%TD*%
D20*
%TO.C,C1*%
X156000000Y-78275000D03*
X156000000Y-76725000D03*
%TD*%
D21*
%TO.C,R6*%
X131500000Y-81675000D03*
X131500000Y-83325000D03*
%TD*%
D22*
%TO.C,R15*%
X161175000Y-80000000D03*
X162825000Y-80000000D03*
%TD*%
D23*
%TO.C,R7*%
X129500000Y-83325000D03*
X129500000Y-81675000D03*
%TD*%
M02*
