%TF.GenerationSoftware,KiCad,Pcbnew,9.0.3*%
%TF.CreationDate,2025-08-01T16:51:20-05:00*%
%TF.ProjectId,Lab_Sensor_V2,4c61625f-5365-46e7-936f-725f56322e6b,rev?*%
%TF.SameCoordinates,Original*%
%TF.FileFunction,Copper,L1,Top*%
%TF.FilePolarity,Positive*%
%FSLAX46Y46*%
G04 Gerber Fmt 4.6, Leading zero omitted, Abs format (unit mm)*
G04 Created by KiCad (PCBNEW 9.0.3) date 2025-08-01 16:51:20*
%MOMM*%
%LPD*%
G01*
G04 APERTURE LIST*
G04 Aperture macros list*
%AMRoundRect*
0 Rectangle with rounded corners*
0 $1 Rounding radius*
0 $2 $3 $4 $5 $6 $7 $8 $9 X,Y pos of 4 corners*
0 Add a 4 corners polygon primitive as box body*
4,1,4,$2,$3,$4,$5,$6,$7,$8,$9,$2,$3,0*
0 Add four circle primitives for the rounded corners*
1,1,$1+$1,$2,$3*
1,1,$1+$1,$4,$5*
1,1,$1+$1,$6,$7*
1,1,$1+$1,$8,$9*
0 Add four rect primitives between the rounded corners*
20,1,$1+$1,$2,$3,$4,$5,0*
20,1,$1+$1,$4,$5,$6,$7,0*
20,1,$1+$1,$6,$7,$8,$9,0*
20,1,$1+$1,$8,$9,$2,$3,0*%
G04 Aperture macros list end*
%TA.AperFunction,ComponentPad*%
%ADD10C,1.530000*%
%TD*%
%TA.AperFunction,SMDPad,CuDef*%
%ADD11RoundRect,0.200000X-0.200000X-0.275000X0.200000X-0.275000X0.200000X0.275000X-0.200000X0.275000X0*%
%TD*%
%TA.AperFunction,ComponentPad*%
%ADD12C,1.815000*%
%TD*%
%TA.AperFunction,ComponentPad*%
%ADD13R,1.815000X1.815000*%
%TD*%
%TA.AperFunction,ComponentPad*%
%ADD14C,1.700000*%
%TD*%
%TA.AperFunction,SMDPad,CuDef*%
%ADD15RoundRect,0.200000X0.200000X0.275000X-0.200000X0.275000X-0.200000X-0.275000X0.200000X-0.275000X0*%
%TD*%
%TA.AperFunction,ComponentPad*%
%ADD16C,1.778000*%
%TD*%
%TA.AperFunction,SMDPad,CuDef*%
%ADD17RoundRect,0.200000X0.275000X-0.200000X0.275000X0.200000X-0.275000X0.200000X-0.275000X-0.200000X0*%
%TD*%
%TA.AperFunction,ComponentPad*%
%ADD18R,1.500000X1.500000*%
%TD*%
%TA.AperFunction,ComponentPad*%
%ADD19C,1.500000*%
%TD*%
%TA.AperFunction,ComponentPad*%
%ADD20O,1.600000X2.000000*%
%TD*%
%TA.AperFunction,SMDPad,CuDef*%
%ADD21RoundRect,0.200000X-0.275000X0.200000X-0.275000X-0.200000X0.275000X-0.200000X0.275000X0.200000X0*%
%TD*%
%TA.AperFunction,ViaPad*%
%ADD22C,0.600000*%
%TD*%
%TA.AperFunction,Conductor*%
%ADD23C,0.800000*%
%TD*%
%TA.AperFunction,Conductor*%
%ADD24C,0.200000*%
%TD*%
G04 APERTURE END LIST*
D10*
%TO.P,TP2,TP*%
%TO.N,Net-(U1-GPIO3)*%
X77650000Y-80950000D03*
%TD*%
D11*
%TO.P,R1,1*%
%TO.N,Net-(D5-PadA)*%
X124975000Y-94050000D03*
%TO.P,R1,2*%
%TO.N,Net-(U1-GPIO0)*%
X126625000Y-94050000D03*
%TD*%
D12*
%TO.P,D3,A,A*%
%TO.N,Net-(D3-PadA)*%
X125000000Y-105500000D03*
D13*
%TO.P,D3,C,C*%
%TO.N,GND*%
X125000000Y-108040000D03*
%TD*%
D14*
%TO.P,U4,1,L/R*%
%TO.N,GND*%
X135690000Y-87460000D03*
%TO.P,U4,2,GND*%
X143310000Y-87460000D03*
%TO.P,U4,3,WS*%
%TO.N,Net-(U4-WS)*%
X135690000Y-90000000D03*
%TO.P,U4,4,VDD*%
%TO.N,+3.3V*%
X143310000Y-90000000D03*
%TO.P,U4,5,SCK*%
%TO.N,Net-(U4-SCK)*%
X135690000Y-92540000D03*
%TO.P,U4,6,SD*%
%TO.N,Net-(U4-SD)*%
X143310000Y-92540000D03*
%TD*%
D15*
%TO.P,R3,1*%
%TO.N,Net-(D3-PadA)*%
X124325000Y-102600000D03*
%TO.P,R3,2*%
%TO.N,Net-(U1-GPIO5)*%
X122675000Y-102600000D03*
%TD*%
D11*
%TO.P,R14,1*%
%TO.N,Net-(U3-SDA)*%
X89750000Y-81500000D03*
%TO.P,R14,2*%
%TO.N,+3.3V*%
X91400000Y-81500000D03*
%TD*%
D10*
%TO.P,TP1,TP*%
%TO.N,Net-(U1-GPI35)*%
X119650000Y-78700000D03*
%TD*%
D16*
%TO.P,U1,EXT1_1,+5V*%
%TO.N,unconnected-(U1-+5V-PadEXT1_1)*%
X122293000Y-49050000D03*
%TO.P,U1,EXT1_2,+3.3V*%
%TO.N,+3.3V*%
X119753000Y-49050000D03*
%TO.P,U1,EXT1_3,GND*%
%TO.N,GND*%
X117213000Y-49050000D03*
%TO.P,U1,EXT1_4,ESP_EN*%
%TO.N,unconnected-(U1-ESP_EN-PadEXT1_4)*%
X114673000Y-49050000D03*
%TO.P,U1,EXT1_5,GPIO0*%
%TO.N,Net-(U1-GPIO0)*%
X112133000Y-49050000D03*
%TO.P,U1,EXT1_6,GPIO1*%
%TO.N,Net-(U1-GPIO1)*%
X109593000Y-49050000D03*
%TO.P,U1,EXT1_7,GPIO2*%
%TO.N,Net-(U1-GPIO2)*%
X107053000Y-49050000D03*
%TO.P,U1,EXT1_8,GPIO3*%
%TO.N,Net-(U1-GPIO3)*%
X104513000Y-49050000D03*
%TO.P,U1,EXT1_9,GPIO4*%
%TO.N,Net-(U1-GPIO4)*%
X101973000Y-49050000D03*
%TO.P,U1,EXT1_10,GPIO5*%
%TO.N,Net-(U1-GPIO5)*%
X99433000Y-49050000D03*
%TO.P,U1,EXT2_1,GPI39*%
%TO.N,unconnected-(U1-GPI39-PadEXT2_1)*%
X122293000Y-74450000D03*
%TO.P,U1,EXT2_2,GPI36*%
%TO.N,Net-(U1-GPI36)*%
X119753000Y-74450000D03*
%TO.P,U1,EXT2_3,GPI35*%
%TO.N,Net-(U1-GPI35)*%
X117213000Y-74450000D03*
%TO.P,U1,EXT2_4,GPI34*%
%TO.N,unconnected-(U1-GPI34-PadEXT2_4)*%
X114673000Y-74450000D03*
%TO.P,U1,EXT2_5,GPIO33*%
%TO.N,Net-(U1-GPIO33)*%
X112133000Y-74450000D03*
%TO.P,U1,EXT2_6,GPIO32*%
%TO.N,Net-(U1-GPIO32)*%
X109593000Y-74450000D03*
%TO.P,U1,EXT2_7,GPIO16*%
%TO.N,Net-(U1-GPIO16)*%
X107053000Y-74450000D03*
%TO.P,U1,EXT2_8,GPIO15*%
%TO.N,Net-(U1-GPIO15)*%
X104513000Y-74450000D03*
%TO.P,U1,EXT2_9,GPIO14*%
%TO.N,Net-(U1-GPIO14)*%
X101973000Y-74450000D03*
%TO.P,U1,EXT2_10,GPIO13*%
%TO.N,Net-(U1-GPIO13)*%
X99433000Y-74450000D03*
%TD*%
D17*
%TO.P,R11,1*%
%TO.N,Net-(U4-SCK)*%
X127500000Y-83325000D03*
%TO.P,R11,2*%
%TO.N,Net-(U1-GPIO4)*%
X127500000Y-81675000D03*
%TD*%
D15*
%TO.P,R4,1*%
%TO.N,Net-(D2-PadA)*%
X114325000Y-102600000D03*
%TO.P,R4,2*%
%TO.N,Net-(U1-GPIO14)*%
X112675000Y-102600000D03*
%TD*%
D12*
%TO.P,D1,A,A*%
%TO.N,Net-(D1-PadA)*%
X115000000Y-88500000D03*
D13*
%TO.P,D1,C,C*%
%TO.N,GND*%
X115000000Y-91040000D03*
%TD*%
D12*
%TO.P,D5,A,A*%
%TO.N,Net-(D5-PadA)*%
X125000000Y-97000000D03*
D13*
%TO.P,D5,C,C*%
%TO.N,GND*%
X125000000Y-99540000D03*
%TD*%
D17*
%TO.P,R5,1*%
%TO.N,Net-(U3-SCL)*%
X85900000Y-79425000D03*
%TO.P,R5,2*%
%TO.N,Net-(U1-GPIO15)*%
X85900000Y-77775000D03*
%TD*%
D18*
%TO.P,U2,1,VDD*%
%TO.N,+3.3V*%
X163310000Y-82292500D03*
D19*
%TO.P,U2,2,SDA*%
%TO.N,Net-(U2-SDA)*%
X160770000Y-82292500D03*
%TO.P,U2,3,GND*%
%TO.N,GND*%
X158230000Y-82292500D03*
%TO.P,U2,4,GND*%
X155690000Y-82292500D03*
%TD*%
D15*
%TO.P,R13,1*%
%TO.N,Net-(U3-SCL)*%
X84575000Y-81500000D03*
%TO.P,R13,2*%
%TO.N,+3.3V*%
X82925000Y-81500000D03*
%TD*%
D20*
%TO.P,U3,1,SCL*%
%TO.N,Net-(U3-SCL)*%
X85880000Y-86000000D03*
%TO.P,U3,2,SDA*%
%TO.N,Net-(U3-SDA)*%
X88420000Y-86000000D03*
%TO.P,U3,3,VCC*%
%TO.N,+3.3V*%
X90960000Y-86000000D03*
%TO.P,U3,4,GND*%
%TO.N,GND*%
X93500000Y-86000000D03*
%TD*%
D15*
%TO.P,R2,1*%
%TO.N,Net-(D4-PadA)*%
X114325000Y-94100000D03*
%TO.P,R2,2*%
%TO.N,Net-(U1-GPIO1)*%
X112675000Y-94100000D03*
%TD*%
D12*
%TO.P,D2,A,A*%
%TO.N,Net-(D2-PadA)*%
X115000000Y-105500000D03*
D13*
%TO.P,D2,C,C*%
%TO.N,GND*%
X115000000Y-108040000D03*
%TD*%
D12*
%TO.P,D4,A,A*%
%TO.N,Net-(D4-PadA)*%
X115000000Y-97000000D03*
D13*
%TO.P,D4,C,C*%
%TO.N,GND*%
X115000000Y-99540000D03*
%TD*%
D11*
%TO.P,R10,1*%
%TO.N,Net-(U1-GPIO32)*%
X112675000Y-85600000D03*
%TO.P,R10,2*%
%TO.N,Net-(D1-PadA)*%
X114325000Y-85600000D03*
%TD*%
D17*
%TO.P,R8,1*%
%TO.N,Net-(U2-SDA)*%
X160500000Y-78325000D03*
%TO.P,R8,2*%
%TO.N,Net-(U1-GPIO2)*%
X160500000Y-76675000D03*
%TD*%
D21*
%TO.P,R9,1*%
%TO.N,Net-(U1-GPIO13)*%
X88400000Y-77775000D03*
%TO.P,R9,2*%
%TO.N,Net-(U3-SDA)*%
X88400000Y-79425000D03*
%TD*%
D12*
%TO.P,D6,A,A*%
%TO.N,Net-(D6-PadA)*%
X125000000Y-88460000D03*
D13*
%TO.P,D6,C,C*%
%TO.N,GND*%
X125000000Y-91000000D03*
%TD*%
D11*
%TO.P,R12,1*%
%TO.N,Net-(U1-GPIO33)*%
X122675000Y-85600000D03*
%TO.P,R12,2*%
%TO.N,Net-(D6-PadA)*%
X124325000Y-85600000D03*
%TD*%
D22*
%TO.N,GND*%
X118850000Y-62850000D03*
X114850000Y-79900000D03*
X122750000Y-79750000D03*
X110950000Y-50650000D03*
%TO.N,Net-(U1-GPIO1)*%
X108400000Y-58400000D03*
%TO.N,Net-(U1-GPIO0)*%
X125350000Y-78200000D03*
X124100000Y-64000000D03*
%TD*%
D23*
%TO.N,+3.3V*%
X85150000Y-88100000D02*
X82925000Y-85875000D01*
X90960000Y-86000000D02*
X88860000Y-88100000D01*
X88860000Y-88100000D02*
X85150000Y-88100000D01*
X91400000Y-85560000D02*
X91400000Y-81500000D01*
X90960000Y-86000000D02*
X91400000Y-85560000D01*
X82925000Y-85875000D02*
X82925000Y-81500000D01*
D24*
%TO.N,Net-(U1-GPIO2)*%
X127990456Y-69250000D02*
X153075000Y-69250000D01*
X153075000Y-69250000D02*
X160500000Y-76675000D01*
X107790456Y-49050000D02*
X127990456Y-69250000D01*
X107053000Y-49050000D02*
X107790456Y-49050000D01*
%TO.N,Net-(U1-GPIO4)*%
X123800000Y-70877000D02*
X101973000Y-49050000D01*
X123800000Y-73400000D02*
X123800000Y-70877000D01*
X127500000Y-77100000D02*
X123800000Y-73400000D01*
X127500000Y-81675000D02*
X127500000Y-77100000D01*
%TO.N,Net-(U2-SDA)*%
X160500000Y-78325000D02*
X160500000Y-82022500D01*
X160500000Y-82022500D02*
X160770000Y-82292500D01*
%TO.N,Net-(U1-GPIO13)*%
X99433000Y-74450000D02*
X91725000Y-74450000D01*
X91725000Y-74450000D02*
X88400000Y-77775000D01*
%TO.N,Net-(U3-SDA)*%
X88400000Y-81500000D02*
X88400000Y-85980000D01*
X88400000Y-85980000D02*
X88420000Y-86000000D01*
X88400000Y-81500000D02*
X89750000Y-81500000D01*
X88400000Y-79425000D02*
X88400000Y-81500000D01*
%TO.N,Net-(U3-SCL)*%
X85850000Y-81500000D02*
X85900000Y-81550000D01*
X85900000Y-79425000D02*
X85900000Y-81550000D01*
X85900000Y-81550000D02*
X85900000Y-85980000D01*
X85900000Y-85980000D02*
X85880000Y-86000000D01*
X84575000Y-81500000D02*
X85850000Y-81500000D01*
%TO.N,Net-(U1-GPIO15)*%
X90415000Y-73260000D02*
X85900000Y-77775000D01*
X104513000Y-74450000D02*
X103323000Y-73260000D01*
X103323000Y-73260000D02*
X90415000Y-73260000D01*
%TO.N,Net-(D2-PadA)*%
X114325000Y-102600000D02*
X114325000Y-104825000D01*
X114325000Y-104825000D02*
X115000000Y-105500000D01*
%TO.N,Net-(U4-SCK)*%
X127500000Y-84350000D02*
X135690000Y-92540000D01*
X127500000Y-83325000D02*
X127500000Y-84350000D01*
%TO.N,Net-(D1-PadA)*%
X114325000Y-87825000D02*
X115000000Y-88500000D01*
X114325000Y-85600000D02*
X114325000Y-87825000D01*
%TO.N,Net-(D3-PadA)*%
X124325000Y-104825000D02*
X125000000Y-105500000D01*
X124325000Y-102600000D02*
X124325000Y-104825000D01*
%TO.N,Net-(D4-PadA)*%
X114325000Y-96325000D02*
X115000000Y-97000000D01*
X114325000Y-94100000D02*
X114325000Y-96325000D01*
%TO.N,Net-(D5-PadA)*%
X124975000Y-96975000D02*
X125000000Y-97000000D01*
X124975000Y-94050000D02*
X124975000Y-96975000D01*
%TO.N,Net-(D6-PadA)*%
X124325000Y-87785000D02*
X125000000Y-88460000D01*
X124325000Y-85600000D02*
X124325000Y-87785000D01*
%TO.N,Net-(U1-GPIO1)*%
X108350000Y-89775000D02*
X112675000Y-94100000D01*
X108350000Y-58450000D02*
X108350000Y-89775000D01*
X108400000Y-58400000D02*
X108350000Y-58450000D01*
%TO.N,Net-(U1-GPIO14)*%
X101973000Y-91898000D02*
X112675000Y-102600000D01*
X101973000Y-74450000D02*
X101973000Y-91898000D01*
%TO.N,Net-(U1-GPIO5)*%
X99433000Y-49050000D02*
X105703000Y-55320000D01*
X105703000Y-55320000D02*
X105703000Y-93203000D01*
X113750000Y-101250000D02*
X121325000Y-101250000D01*
X105703000Y-93203000D02*
X113750000Y-101250000D01*
X121325000Y-101250000D02*
X122675000Y-102600000D01*
%TO.N,Net-(U1-GPIO33)*%
X112133000Y-74450000D02*
X122675000Y-84992000D01*
X122675000Y-84992000D02*
X122675000Y-85600000D01*
%TO.N,Net-(U1-GPIO32)*%
X112675000Y-85600000D02*
X112675000Y-77532000D01*
X112675000Y-77532000D02*
X109593000Y-74450000D01*
%TO.N,Net-(U1-GPIO0)*%
X125350000Y-78200000D02*
X126625000Y-79475000D01*
X112133000Y-49050000D02*
X112133000Y-52033000D01*
X112133000Y-52033000D02*
X124100000Y-64000000D01*
X126625000Y-79475000D02*
X126625000Y-94050000D01*
%TO.N,Net-(U1-GPI35)*%
X117213000Y-76263000D02*
X119650000Y-78700000D01*
X117213000Y-74450000D02*
X117213000Y-76263000D01*
%TD*%
%TA.AperFunction,Conductor*%
%TO.N,GND*%
G36*
X110917711Y-49280638D02*
G01*
X110969187Y-49327882D01*
X110980931Y-49353598D01*
X111030645Y-49506606D01*
X111030646Y-49506609D01*
X111115651Y-49673437D01*
X111225694Y-49824900D01*
X111225698Y-49824905D01*
X111358094Y-49957301D01*
X111358099Y-49957305D01*
X111479649Y-50045615D01*
X111509566Y-50067351D01*
X111664796Y-50146445D01*
X111715591Y-50194419D01*
X111732500Y-50256929D01*
X111732500Y-51980273D01*
X111732500Y-52085727D01*
X111737147Y-52103069D01*
X111735482Y-52172919D01*
X111696318Y-52230781D01*
X111632089Y-52258283D01*
X111563187Y-52246695D01*
X111529690Y-52222841D01*
X109737610Y-50430761D01*
X109704125Y-50369438D01*
X109709109Y-50299746D01*
X109750981Y-50243813D01*
X109805888Y-50220608D01*
X109871542Y-50210210D01*
X110049609Y-50152353D01*
X110216434Y-50067351D01*
X110367907Y-49957300D01*
X110500300Y-49824907D01*
X110610351Y-49673434D01*
X110695353Y-49506609D01*
X110695354Y-49506606D01*
X110745069Y-49353598D01*
X110784506Y-49295923D01*
X110848865Y-49268724D01*
X110917711Y-49280638D01*
G37*
%TD.AperFunction*%
%TA.AperFunction,Conductor*%
G36*
X168692539Y-47020185D02*
G01*
X168738294Y-47072989D01*
X168749500Y-47124500D01*
X168749500Y-111875500D01*
X168729815Y-111942539D01*
X168677011Y-111988294D01*
X168625500Y-111999500D01*
X75624500Y-111999500D01*
X75557461Y-111979815D01*
X75511706Y-111927011D01*
X75500500Y-111875500D01*
X75500500Y-109143713D01*
X105649500Y-109143713D01*
X105649500Y-109356286D01*
X105682753Y-109566239D01*
X105748444Y-109768414D01*
X105844951Y-109957820D01*
X105969890Y-110129786D01*
X106120213Y-110280109D01*
X106292179Y-110405048D01*
X106292181Y-110405049D01*
X106292184Y-110405051D01*
X106481588Y-110501557D01*
X106683757Y-110567246D01*
X106893713Y-110600500D01*
X106893714Y-110600500D01*
X107106286Y-110600500D01*
X107106287Y-110600500D01*
X107316243Y-110567246D01*
X107518412Y-110501557D01*
X107707816Y-110405051D01*
X107729789Y-110389086D01*
X107879786Y-110280109D01*
X107879788Y-110280106D01*
X107879792Y-110280104D01*
X108030104Y-110129792D01*
X108030106Y-110129788D01*
X108030109Y-110129786D01*
X108155048Y-109957820D01*
X108155047Y-109957820D01*
X108155051Y-109957816D01*
X108251557Y-109768412D01*
X108317246Y-109566243D01*
X108350500Y-109356287D01*
X108350500Y-109143713D01*
X108317246Y-108933757D01*
X108251557Y-108731588D01*
X108155051Y-108542184D01*
X108155049Y-108542181D01*
X108155048Y-108542179D01*
X108030109Y-108370213D01*
X107879786Y-108219890D01*
X107707820Y-108094951D01*
X107518414Y-107998444D01*
X107518413Y-107998443D01*
X107518412Y-107998443D01*
X107316243Y-107932754D01*
X107316241Y-107932753D01*
X107316240Y-107932753D01*
X107154957Y-107907208D01*
X107106287Y-107899500D01*
X106893713Y-107899500D01*
X106845042Y-107907208D01*
X106683760Y-107932753D01*
X106481585Y-107998444D01*
X106292179Y-108094951D01*
X106120213Y-108219890D01*
X105969890Y-108370213D01*
X105844951Y-108542179D01*
X105748444Y-108731585D01*
X105682753Y-108933760D01*
X105649500Y-109143713D01*
X75500500Y-109143713D01*
X75500500Y-85943996D01*
X82224499Y-85943996D01*
X82251418Y-86079322D01*
X82251421Y-86079332D01*
X82304222Y-86206807D01*
X82380887Y-86321545D01*
X84703454Y-88644112D01*
X84818190Y-88720776D01*
X84871540Y-88742874D01*
X84945671Y-88773580D01*
X84945672Y-88773580D01*
X84945677Y-88773582D01*
X84972545Y-88778925D01*
X84972551Y-88778926D01*
X84972591Y-88778934D01*
X85062937Y-88796905D01*
X85081006Y-88800500D01*
X85081007Y-88800500D01*
X88928996Y-88800500D01*
X89037457Y-88778925D01*
X89064328Y-88773580D01*
X89138469Y-88742870D01*
X89191807Y-88720777D01*
X89191808Y-88720776D01*
X89191811Y-88720775D01*
X89306543Y-88644114D01*
X90636004Y-87314651D01*
X90697325Y-87281168D01*
X90743079Y-87279861D01*
X90873389Y-87300500D01*
X90873390Y-87300500D01*
X91046610Y-87300500D01*
X91046611Y-87300500D01*
X91217701Y-87273402D01*
X91382445Y-87219873D01*
X91536788Y-87141232D01*
X91676928Y-87039414D01*
X91799414Y-86916928D01*
X91901232Y-86776788D01*
X91979873Y-86622445D01*
X92007186Y-86538384D01*
X92046622Y-86480711D01*
X92110981Y-86453512D01*
X92179827Y-86465427D01*
X92231303Y-86512671D01*
X92243047Y-86538385D01*
X92295244Y-86699031D01*
X92388140Y-86881349D01*
X92508417Y-87046894D01*
X92508417Y-87046895D01*
X92653104Y-87191582D01*
X92818650Y-87311859D01*
X93000968Y-87404754D01*
X93195578Y-87467988D01*
X93250000Y-87476607D01*
X93250000Y-86433012D01*
X93307007Y-86465925D01*
X93434174Y-86500000D01*
X93565826Y-86500000D01*
X93692993Y-86465925D01*
X93750000Y-86433012D01*
X93750000Y-87476606D01*
X93804421Y-87467988D01*
X93999031Y-87404754D01*
X94181349Y-87311859D01*
X94346894Y-87191582D01*
X94346895Y-87191582D01*
X94491582Y-87046895D01*
X94491582Y-87046894D01*
X94611859Y-86881349D01*
X94704755Y-86699031D01*
X94767990Y-86504417D01*
X94800000Y-86302317D01*
X94800000Y-86250000D01*
X93933012Y-86250000D01*
X93965925Y-86192993D01*
X94000000Y-86065826D01*
X94000000Y-85934174D01*
X93965925Y-85807007D01*
X93933012Y-85750000D01*
X94800000Y-85750000D01*
X94800000Y-85697682D01*
X94767990Y-85495582D01*
X94704755Y-85300968D01*
X94611859Y-85118650D01*
X94491582Y-84953105D01*
X94491582Y-84953104D01*
X94346895Y-84808417D01*
X94181349Y-84688140D01*
X93999029Y-84595244D01*
X93804413Y-84532009D01*
X93750000Y-84523390D01*
X93750000Y-85566988D01*
X93692993Y-85534075D01*
X93565826Y-85500000D01*
X93434174Y-85500000D01*
X93307007Y-85534075D01*
X93250000Y-85566988D01*
X93250000Y-84523390D01*
X93195586Y-84532009D01*
X93000970Y-84595244D01*
X92818650Y-84688140D01*
X92653105Y-84808417D01*
X92653104Y-84808417D01*
X92508417Y-84953104D01*
X92508417Y-84953105D01*
X92388140Y-85118650D01*
X92334985Y-85222974D01*
X92287011Y-85273770D01*
X92219190Y-85290565D01*
X92153055Y-85268028D01*
X92109603Y-85213313D01*
X92100500Y-85166679D01*
X92100500Y-81423412D01*
X92100499Y-81423394D01*
X92100499Y-81177129D01*
X92100498Y-81177123D01*
X92100497Y-81177116D01*
X92094091Y-81117517D01*
X92087253Y-81099184D01*
X92043797Y-80982671D01*
X92043793Y-80982664D01*
X91957547Y-80867455D01*
X91957544Y-80867452D01*
X91842335Y-80781206D01*
X91842328Y-80781202D01*
X91707486Y-80730910D01*
X91707485Y-80730909D01*
X91707483Y-80730909D01*
X91647873Y-80724500D01*
X91647863Y-80724500D01*
X91152129Y-80724500D01*
X91152123Y-80724501D01*
X91092516Y-80730908D01*
X90957671Y-80781202D01*
X90957664Y-80781206D01*
X90842455Y-80867452D01*
X90842452Y-80867455D01*
X90756206Y-80982664D01*
X90756202Y-80982671D01*
X90705908Y-81117517D01*
X90702888Y-81145613D01*
X90699501Y-81177123D01*
X90699500Y-81177135D01*
X90699500Y-84637416D01*
X90679815Y-84704455D01*
X90627011Y-84750210D01*
X90613819Y-84755347D01*
X90537550Y-84780128D01*
X90383211Y-84858768D01*
X90344237Y-84887085D01*
X90243072Y-84960586D01*
X90243070Y-84960588D01*
X90243069Y-84960588D01*
X90120588Y-85083069D01*
X90120588Y-85083070D01*
X90120586Y-85083072D01*
X90094737Y-85118650D01*
X90018768Y-85223211D01*
X89940128Y-85377552D01*
X89886597Y-85542302D01*
X89859500Y-85713389D01*
X89859500Y-86058480D01*
X89850855Y-86087920D01*
X89844332Y-86117907D01*
X89840577Y-86122922D01*
X89839815Y-86125519D01*
X89823181Y-86146161D01*
X89732181Y-86237161D01*
X89670858Y-86270646D01*
X89601166Y-86265662D01*
X89545233Y-86223790D01*
X89520816Y-86158326D01*
X89520500Y-86149480D01*
X89520500Y-85713389D01*
X89507133Y-85628994D01*
X89493402Y-85542299D01*
X89439873Y-85377555D01*
X89361232Y-85223212D01*
X89259414Y-85083072D01*
X89136928Y-84960586D01*
X88996788Y-84858768D01*
X88897968Y-84808417D01*
X88868205Y-84793252D01*
X88817409Y-84745278D01*
X88800500Y-84682767D01*
X88800500Y-82024500D01*
X88803050Y-82015814D01*
X88801762Y-82006853D01*
X88812740Y-81982812D01*
X88820185Y-81957461D01*
X88827025Y-81951533D01*
X88830787Y-81943297D01*
X88853021Y-81929007D01*
X88872989Y-81911706D01*
X88883503Y-81909418D01*
X88889565Y-81905523D01*
X88924500Y-81900500D01*
X88976533Y-81900500D01*
X89043572Y-81920185D01*
X89089327Y-81972989D01*
X89092715Y-81981166D01*
X89106203Y-82017330D01*
X89106206Y-82017335D01*
X89192452Y-82132544D01*
X89192455Y-82132547D01*
X89307664Y-82218793D01*
X89307671Y-82218797D01*
X89344529Y-82232544D01*
X89442517Y-82269091D01*
X89502127Y-82275500D01*
X89997872Y-82275499D01*
X90057483Y-82269091D01*
X90192331Y-82218796D01*
X90307546Y-82132546D01*
X90393796Y-82017331D01*
X90444091Y-81882483D01*
X90450500Y-81822873D01*
X90450499Y-81177128D01*
X90444091Y-81117517D01*
X90437253Y-81099184D01*
X90393797Y-80982671D01*
X90393793Y-80982664D01*
X90307547Y-80867455D01*
X90307544Y-80867452D01*
X90192335Y-80781206D01*
X90192328Y-80781202D01*
X90057486Y-80730910D01*
X90057485Y-80730909D01*
X90057483Y-80730909D01*
X89997873Y-80724500D01*
X89997863Y-80724500D01*
X89502129Y-80724500D01*
X89502123Y-80724501D01*
X89442516Y-80730908D01*
X89307671Y-80781202D01*
X89307664Y-80781206D01*
X89192455Y-80867452D01*
X89192452Y-80867455D01*
X89106206Y-80982664D01*
X89106203Y-80982669D01*
X89092715Y-81018834D01*
X89079444Y-81036560D01*
X89070246Y-81056703D01*
X89058914Y-81063985D01*
X89050843Y-81074767D01*
X89030097Y-81082504D01*
X89011468Y-81094477D01*
X88989549Y-81097628D01*
X88985379Y-81099184D01*
X88976533Y-81099500D01*
X88924500Y-81099500D01*
X88857461Y-81079815D01*
X88811706Y-81027011D01*
X88800500Y-80975500D01*
X88800500Y-80198466D01*
X88820185Y-80131427D01*
X88872989Y-80085672D01*
X88881156Y-80082288D01*
X88917331Y-80068796D01*
X89032546Y-79982546D01*
X89118796Y-79867331D01*
X89169091Y-79732483D01*
X89175500Y-79672873D01*
X89175499Y-79177128D01*
X89169091Y-79117517D01*
X89161985Y-79098466D01*
X89118797Y-78982671D01*
X89118793Y-78982664D01*
X89032547Y-78867455D01*
X89032544Y-78867452D01*
X88917335Y-78781206D01*
X88917328Y-78781202D01*
X88782486Y-78730910D01*
X88782485Y-78730909D01*
X88782483Y-78730909D01*
X88722873Y-78724500D01*
X88722863Y-78724500D01*
X88077129Y-78724500D01*
X88077123Y-78724501D01*
X88017516Y-78730908D01*
X87882671Y-78781202D01*
X87882664Y-78781206D01*
X87767455Y-78867452D01*
X87767452Y-78867455D01*
X87681206Y-78982664D01*
X87681202Y-78982671D01*
X87630910Y-79117513D01*
X87630909Y-79117517D01*
X87624500Y-79177127D01*
X87624500Y-79177134D01*
X87624500Y-79177135D01*
X87624500Y-79672870D01*
X87624501Y-79672876D01*
X87630908Y-79732483D01*
X87681202Y-79867328D01*
X87681206Y-79867335D01*
X87767452Y-79982544D01*
X87767455Y-79982547D01*
X87882664Y-80068793D01*
X87882669Y-80068796D01*
X87918832Y-80082284D01*
X87974766Y-80124154D01*
X87999184Y-80189618D01*
X87999500Y-80198466D01*
X87999500Y-84703148D01*
X87979815Y-84770187D01*
X87931795Y-84813633D01*
X87843211Y-84858768D01*
X87804237Y-84887085D01*
X87703072Y-84960586D01*
X87703070Y-84960588D01*
X87703069Y-84960588D01*
X87580588Y-85083069D01*
X87580588Y-85083070D01*
X87580586Y-85083072D01*
X87554737Y-85118650D01*
X87478768Y-85223211D01*
X87400128Y-85377552D01*
X87346597Y-85542302D01*
X87334107Y-85621162D01*
X87319500Y-85713389D01*
X87319500Y-86286611D01*
X87323666Y-86312913D01*
X87345934Y-86453512D01*
X87346598Y-86457701D01*
X87400127Y-86622445D01*
X87478768Y-86776788D01*
X87580586Y-86916928D01*
X87703072Y-87039414D01*
X87843212Y-87141232D01*
X87882774Y-87161390D01*
X87889889Y-87165015D01*
X87940685Y-87212990D01*
X87957480Y-87280811D01*
X87934943Y-87346945D01*
X87880228Y-87390397D01*
X87833594Y-87399500D01*
X86466406Y-87399500D01*
X86399367Y-87379815D01*
X86353612Y-87327011D01*
X86343668Y-87257853D01*
X86372693Y-87194297D01*
X86410111Y-87165015D01*
X86413893Y-87163087D01*
X86456788Y-87141232D01*
X86596928Y-87039414D01*
X86719414Y-86916928D01*
X86821232Y-86776788D01*
X86899873Y-86622445D01*
X86953402Y-86457701D01*
X86980500Y-86286611D01*
X86980500Y-85713389D01*
X86953402Y-85542299D01*
X86899873Y-85377555D01*
X86821232Y-85223212D01*
X86719414Y-85083072D01*
X86596928Y-84960586D01*
X86456788Y-84858768D01*
X86368205Y-84813633D01*
X86317409Y-84765659D01*
X86300500Y-84703148D01*
X86300500Y-81602730D01*
X86300501Y-81602727D01*
X86300501Y-81497273D01*
X86300500Y-81497269D01*
X86300500Y-80198466D01*
X86320185Y-80131427D01*
X86372989Y-80085672D01*
X86381156Y-80082288D01*
X86417331Y-80068796D01*
X86532546Y-79982546D01*
X86618796Y-79867331D01*
X86669091Y-79732483D01*
X86675500Y-79672873D01*
X86675499Y-79177128D01*
X86669091Y-79117517D01*
X86661985Y-79098466D01*
X86618797Y-78982671D01*
X86618793Y-78982664D01*
X86532547Y-78867455D01*
X86532544Y-78867452D01*
X86417335Y-78781206D01*
X86417328Y-78781202D01*
X86282486Y-78730910D01*
X86282485Y-78730909D01*
X86282483Y-78730909D01*
X86222873Y-78724500D01*
X86222863Y-78724500D01*
X85577129Y-78724500D01*
X85577123Y-78724501D01*
X85517516Y-78730908D01*
X85382671Y-78781202D01*
X85382664Y-78781206D01*
X85267455Y-78867452D01*
X85267452Y-78867455D01*
X85181206Y-78982664D01*
X85181202Y-78982671D01*
X85130910Y-79117513D01*
X85130909Y-79117517D01*
X85124500Y-79177127D01*
X85124500Y-79177134D01*
X85124500Y-79177135D01*
X85124500Y-79672870D01*
X85124501Y-79672876D01*
X85130908Y-79732483D01*
X85181202Y-79867328D01*
X85181206Y-79867335D01*
X85267452Y-79982544D01*
X85267455Y-79982547D01*
X85382664Y-80068793D01*
X85382669Y-80068796D01*
X85418832Y-80082284D01*
X85474766Y-80124154D01*
X85499184Y-80189618D01*
X85499500Y-80198466D01*
X85499500Y-80975500D01*
X85496949Y-80984185D01*
X85498238Y-80993147D01*
X85487259Y-81017187D01*
X85479815Y-81042539D01*
X85472974Y-81048466D01*
X85469213Y-81056703D01*
X85446978Y-81070992D01*
X85427011Y-81088294D01*
X85416496Y-81090581D01*
X85410435Y-81094477D01*
X85375500Y-81099500D01*
X85348467Y-81099500D01*
X85281428Y-81079815D01*
X85235673Y-81027011D01*
X85232285Y-81018834D01*
X85218796Y-80982669D01*
X85218793Y-80982664D01*
X85132547Y-80867455D01*
X85132544Y-80867452D01*
X85017335Y-80781206D01*
X85017328Y-80781202D01*
X84882486Y-80730910D01*
X84882485Y-80730909D01*
X84882483Y-80730909D01*
X84822873Y-80724500D01*
X84822863Y-80724500D01*
X84327129Y-80724500D01*
X84327123Y-80724501D01*
X84267516Y-80730908D01*
X84132671Y-80781202D01*
X84132664Y-80781206D01*
X84017455Y-80867452D01*
X84017452Y-80867455D01*
X83931206Y-80982664D01*
X83931202Y-80982671D01*
X83880933Y-81117452D01*
X83880909Y-81117517D01*
X83874500Y-81177127D01*
X83874500Y-81177134D01*
X83874500Y-81177135D01*
X83874500Y-81822870D01*
X83874501Y-81822876D01*
X83880908Y-81882483D01*
X83931202Y-82017328D01*
X83931206Y-82017335D01*
X84017452Y-82132544D01*
X84017455Y-82132547D01*
X84132664Y-82218793D01*
X84132671Y-82218797D01*
X84169529Y-82232544D01*
X84267517Y-82269091D01*
X84327127Y-82275500D01*
X84822872Y-82275499D01*
X84882483Y-82269091D01*
X85017331Y-82218796D01*
X85132546Y-82132546D01*
X85218796Y-82017331D01*
X85231671Y-81982812D01*
X85232285Y-81981166D01*
X85245555Y-81963439D01*
X85254754Y-81943297D01*
X85266085Y-81936014D01*
X85274157Y-81925233D01*
X85294902Y-81917495D01*
X85313532Y-81905523D01*
X85335450Y-81902371D01*
X85339621Y-81900816D01*
X85348467Y-81900500D01*
X85375500Y-81900500D01*
X85442539Y-81920185D01*
X85488294Y-81972989D01*
X85499500Y-82024500D01*
X85499500Y-84682767D01*
X85479815Y-84749806D01*
X85431795Y-84793252D01*
X85303211Y-84858768D01*
X85264237Y-84887085D01*
X85163072Y-84960586D01*
X85163070Y-84960588D01*
X85163069Y-84960588D01*
X85040588Y-85083069D01*
X85040588Y-85083070D01*
X85040586Y-85083072D01*
X85014737Y-85118650D01*
X84938768Y-85223211D01*
X84860128Y-85377552D01*
X84806597Y-85542302D01*
X84779500Y-85713389D01*
X84779500Y-86286611D01*
X84779499Y-86286611D01*
X84804905Y-86447016D01*
X84795950Y-86516309D01*
X84750954Y-86569761D01*
X84684202Y-86590400D01*
X84616889Y-86571675D01*
X84594751Y-86554094D01*
X83661819Y-85621162D01*
X83628334Y-85559839D01*
X83625500Y-85533481D01*
X83625500Y-81423412D01*
X83625499Y-81423394D01*
X83625499Y-81177129D01*
X83625498Y-81177123D01*
X83625497Y-81177116D01*
X83619091Y-81117517D01*
X83612253Y-81099184D01*
X83568797Y-80982671D01*
X83568793Y-80982664D01*
X83482547Y-80867455D01*
X83482544Y-80867452D01*
X83367335Y-80781206D01*
X83367328Y-80781202D01*
X83232486Y-80730910D01*
X83232485Y-80730909D01*
X83232483Y-80730909D01*
X83172873Y-80724500D01*
X83172863Y-80724500D01*
X82677129Y-80724500D01*
X82677123Y-80724501D01*
X82617516Y-80730908D01*
X82482671Y-80781202D01*
X82482664Y-80781206D01*
X82367455Y-80867452D01*
X82367452Y-80867455D01*
X82281206Y-80982664D01*
X82281202Y-80982671D01*
X82230908Y-81117517D01*
X82227888Y-81145613D01*
X82224500Y-81177127D01*
X82224500Y-81431005D01*
X82224500Y-81431007D01*
X82224500Y-85806006D01*
X82224500Y-85943994D01*
X82224500Y-85943996D01*
X82224499Y-85943996D01*
X75500500Y-85943996D01*
X75500500Y-81054945D01*
X76584499Y-81054945D01*
X76625445Y-81260789D01*
X76625447Y-81260795D01*
X76705765Y-81454701D01*
X76822373Y-81629218D01*
X76970781Y-81777626D01*
X77145298Y-81894234D01*
X77214439Y-81922873D01*
X77339205Y-81974553D01*
X77339209Y-81974553D01*
X77339210Y-81974554D01*
X77545054Y-82015500D01*
X77545057Y-82015500D01*
X77754945Y-82015500D01*
X77902810Y-81986087D01*
X77960795Y-81974553D01*
X78135056Y-81902371D01*
X78154701Y-81894234D01*
X78154701Y-81894233D01*
X78154703Y-81894233D01*
X78329216Y-81777628D01*
X78477628Y-81629216D01*
X78594233Y-81454703D01*
X78674553Y-81260795D01*
X78681992Y-81223399D01*
X78696669Y-81149614D01*
X78715500Y-81054945D01*
X78715500Y-80845054D01*
X78674554Y-80639210D01*
X78674553Y-80639209D01*
X78674553Y-80639205D01*
X78634393Y-80542251D01*
X78594234Y-80445298D01*
X78477626Y-80270781D01*
X78329218Y-80122373D01*
X78154701Y-80005765D01*
X77960795Y-79925447D01*
X77960789Y-79925445D01*
X77754945Y-79884500D01*
X77754943Y-79884500D01*
X77545057Y-79884500D01*
X77545055Y-79884500D01*
X77339210Y-79925445D01*
X77339204Y-79925447D01*
X77145298Y-80005765D01*
X76970781Y-80122373D01*
X76822373Y-80270781D01*
X76705765Y-80445298D01*
X76625447Y-80639204D01*
X76625445Y-80639210D01*
X76584500Y-80845054D01*
X76584500Y-80845057D01*
X76584500Y-81054943D01*
X76584500Y-81054945D01*
X76584499Y-81054945D01*
X75500500Y-81054945D01*
X75500500Y-77527127D01*
X85124500Y-77527127D01*
X85124500Y-77527134D01*
X85124500Y-77527135D01*
X85124500Y-78022870D01*
X85124501Y-78022876D01*
X85130908Y-78082483D01*
X85181202Y-78217328D01*
X85181206Y-78217335D01*
X85267452Y-78332544D01*
X85267455Y-78332547D01*
X85382664Y-78418793D01*
X85382671Y-78418797D01*
X85417489Y-78431783D01*
X85517517Y-78469091D01*
X85577127Y-78475500D01*
X86222872Y-78475499D01*
X86282483Y-78469091D01*
X86417331Y-78418796D01*
X86532546Y-78332546D01*
X86618796Y-78217331D01*
X86669091Y-78082483D01*
X86675500Y-78022873D01*
X86675499Y-77617253D01*
X86695183Y-77550215D01*
X86711813Y-77529578D01*
X90544574Y-73696819D01*
X90605897Y-73663334D01*
X90632255Y-73660500D01*
X98297914Y-73660500D01*
X98300554Y-73661275D01*
X98303225Y-73660614D01*
X98333880Y-73671061D01*
X98364953Y-73680185D01*
X98366754Y-73682264D01*
X98369360Y-73683152D01*
X98389506Y-73708521D01*
X98410708Y-73732989D01*
X98411099Y-73735711D01*
X98412811Y-73737867D01*
X98416042Y-73770087D01*
X98420652Y-73802147D01*
X98419592Y-73805488D01*
X98419783Y-73807388D01*
X98408399Y-73840794D01*
X98398998Y-73859244D01*
X98336555Y-73981795D01*
X98288580Y-74032591D01*
X98226070Y-74049500D01*
X91672273Y-74049500D01*
X91570410Y-74076793D01*
X91479087Y-74129520D01*
X91479084Y-74129522D01*
X88570424Y-77038181D01*
X88509101Y-77071666D01*
X88482743Y-77074500D01*
X88077129Y-77074500D01*
X88077123Y-77074501D01*
X88017516Y-77080908D01*
X87882671Y-77131202D01*
X87882664Y-77131206D01*
X87767455Y-77217452D01*
X87767452Y-77217455D01*
X87681206Y-77332664D01*
X87681202Y-77332671D01*
X87630910Y-77467513D01*
X87630909Y-77467517D01*
X87624500Y-77527127D01*
X87624500Y-77527134D01*
X87624500Y-77527135D01*
X87624500Y-78022870D01*
X87624501Y-78022876D01*
X87630908Y-78082483D01*
X87681202Y-78217328D01*
X87681206Y-78217335D01*
X87767452Y-78332544D01*
X87767455Y-78332547D01*
X87882664Y-78418793D01*
X87882671Y-78418797D01*
X87917489Y-78431783D01*
X88017517Y-78469091D01*
X88077127Y-78475500D01*
X88722872Y-78475499D01*
X88782483Y-78469091D01*
X88917331Y-78418796D01*
X89032546Y-78332546D01*
X89118796Y-78217331D01*
X89169091Y-78082483D01*
X89175500Y-78022873D01*
X89175499Y-77617253D01*
X89195183Y-77550215D01*
X89211813Y-77529578D01*
X91854574Y-74886819D01*
X91915897Y-74853334D01*
X91942255Y-74850500D01*
X98226070Y-74850500D01*
X98293109Y-74870185D01*
X98336555Y-74918205D01*
X98400566Y-75043833D01*
X98415651Y-75073437D01*
X98525694Y-75224900D01*
X98525698Y-75224905D01*
X98658094Y-75357301D01*
X98658099Y-75357305D01*
X98756527Y-75428816D01*
X98809566Y-75467351D01*
X98909125Y-75518079D01*
X98976390Y-75552353D01*
X98976393Y-75552354D01*
X99065424Y-75581281D01*
X99154458Y-75610210D01*
X99339384Y-75639500D01*
X99339385Y-75639500D01*
X99526615Y-75639500D01*
X99526616Y-75639500D01*
X99711542Y-75610210D01*
X99889609Y-75552353D01*
X100056434Y-75467351D01*
X100207907Y-75357300D01*
X100340300Y-75224907D01*
X100450351Y-75073434D01*
X100535353Y-74906609D01*
X100535354Y-74906606D01*
X100585069Y-74753598D01*
X100624506Y-74695923D01*
X100688865Y-74668724D01*
X100757711Y-74680638D01*
X100809187Y-74727882D01*
X100820931Y-74753598D01*
X100870645Y-74906606D01*
X100870646Y-74906609D01*
X100928416Y-75019988D01*
X100940566Y-75043833D01*
X100955651Y-75073437D01*
X101065694Y-75224900D01*
X101065698Y-75224905D01*
X101198094Y-75357301D01*
X101198099Y-75357305D01*
X101296527Y-75428816D01*
X101349566Y-75467351D01*
X101504796Y-75546445D01*
X101555591Y-75594419D01*
X101572500Y-75656929D01*
X101572500Y-91950726D01*
X101599793Y-92052589D01*
X101626156Y-92098250D01*
X101652520Y-92143913D01*
X101652521Y-92143914D01*
X101652522Y-92143915D01*
X111938181Y-102429573D01*
X111971666Y-102490896D01*
X111974500Y-102517254D01*
X111974500Y-102922870D01*
X111974501Y-102922876D01*
X111980908Y-102982483D01*
X112031202Y-103117328D01*
X112031206Y-103117335D01*
X112117452Y-103232544D01*
X112117455Y-103232547D01*
X112232664Y-103318793D01*
X112232671Y-103318797D01*
X112274497Y-103334397D01*
X112367517Y-103369091D01*
X112427127Y-103375500D01*
X112922872Y-103375499D01*
X112982483Y-103369091D01*
X113117331Y-103318796D01*
X113232546Y-103232546D01*
X113318796Y-103117331D01*
X113369091Y-102982483D01*
X113375500Y-102922873D01*
X113375499Y-102277128D01*
X113369091Y-102217517D01*
X113318796Y-102082669D01*
X113318795Y-102082668D01*
X113318793Y-102082664D01*
X113232547Y-101967455D01*
X113232544Y-101967452D01*
X113117335Y-101881206D01*
X113117328Y-101881202D01*
X112982482Y-101830908D01*
X112982483Y-101830908D01*
X112922883Y-101824501D01*
X112922881Y-101824500D01*
X112922873Y-101824500D01*
X112922865Y-101824500D01*
X112517254Y-101824500D01*
X112450215Y-101804815D01*
X112429573Y-101788181D01*
X102409819Y-91768426D01*
X102376334Y-91707103D01*
X102373500Y-91680745D01*
X102373500Y-75656929D01*
X102393185Y-75589890D01*
X102441203Y-75546445D01*
X102596434Y-75467351D01*
X102747907Y-75357300D01*
X102880300Y-75224907D01*
X102990351Y-75073434D01*
X103075353Y-74906609D01*
X103075354Y-74906606D01*
X103125069Y-74753598D01*
X103164506Y-74695923D01*
X103228865Y-74668724D01*
X103297711Y-74680638D01*
X103349187Y-74727882D01*
X103360931Y-74753598D01*
X103410645Y-74906606D01*
X103410646Y-74906609D01*
X103468416Y-75019988D01*
X103480566Y-75043833D01*
X103495651Y-75073437D01*
X103605694Y-75224900D01*
X103605698Y-75224905D01*
X103738094Y-75357301D01*
X103738099Y-75357305D01*
X103836527Y-75428816D01*
X103889566Y-75467351D01*
X103989125Y-75518079D01*
X104056390Y-75552353D01*
X104056393Y-75552354D01*
X104145424Y-75581281D01*
X104234458Y-75610210D01*
X104419384Y-75639500D01*
X104419385Y-75639500D01*
X104606615Y-75639500D01*
X104606616Y-75639500D01*
X104791542Y-75610210D01*
X104969609Y-75552353D01*
X105122205Y-75474600D01*
X105190873Y-75461704D01*
X105255614Y-75487980D01*
X105295871Y-75545086D01*
X105302500Y-75585085D01*
X105302500Y-93150273D01*
X105302500Y-93255727D01*
X105309247Y-93280908D01*
X105329793Y-93357589D01*
X105343428Y-93381204D01*
X105382520Y-93448913D01*
X105382521Y-93448914D01*
X105382522Y-93448915D01*
X113425179Y-101491571D01*
X113425189Y-101491582D01*
X113429519Y-101495912D01*
X113429520Y-101495913D01*
X113504087Y-101570480D01*
X113595413Y-101623207D01*
X113697273Y-101650501D01*
X113697275Y-101650501D01*
X113810323Y-101650501D01*
X113810339Y-101650500D01*
X113819344Y-101650500D01*
X113886383Y-101670185D01*
X113932138Y-101722989D01*
X113942082Y-101792147D01*
X113913057Y-101855703D01*
X113889106Y-101875003D01*
X113889769Y-101875888D01*
X113767455Y-101967452D01*
X113767452Y-101967455D01*
X113681206Y-102082664D01*
X113681202Y-102082671D01*
X113630910Y-102217513D01*
X113630909Y-102217517D01*
X113624500Y-102277127D01*
X113624500Y-102277134D01*
X113624500Y-102277135D01*
X113624500Y-102922870D01*
X113624501Y-102922876D01*
X113630908Y-102982483D01*
X113681202Y-103117328D01*
X113681206Y-103117335D01*
X113750358Y-103209709D01*
X113767454Y-103232546D01*
X113874811Y-103312914D01*
X113916682Y-103368847D01*
X113924500Y-103412180D01*
X113924500Y-104877732D01*
X113924860Y-104879073D01*
X113924832Y-104880249D01*
X113925561Y-104885788D01*
X113924697Y-104885901D01*
X113923199Y-104948923D01*
X113915571Y-104967462D01*
X113880506Y-105036281D01*
X113880502Y-105036291D01*
X113821744Y-105217129D01*
X113792000Y-105404928D01*
X113792000Y-105595072D01*
X113821745Y-105782874D01*
X113880503Y-105963711D01*
X113908750Y-106019150D01*
X113966828Y-106133133D01*
X114078583Y-106286952D01*
X114078587Y-106286957D01*
X114212449Y-106420819D01*
X114245934Y-106482142D01*
X114240950Y-106551834D01*
X114199078Y-106607767D01*
X114133614Y-106632184D01*
X114124768Y-106632500D01*
X114044655Y-106632500D01*
X113985127Y-106638901D01*
X113985120Y-106638903D01*
X113850413Y-106689145D01*
X113850406Y-106689149D01*
X113735312Y-106775309D01*
X113735309Y-106775312D01*
X113649149Y-106890406D01*
X113649145Y-106890413D01*
X113598903Y-107025120D01*
X113598901Y-107025127D01*
X113592500Y-107084655D01*
X113592500Y-107790000D01*
X114445743Y-107790000D01*
X114436229Y-107806479D01*
X114395000Y-107960350D01*
X114395000Y-108119650D01*
X114436229Y-108273521D01*
X114445743Y-108290000D01*
X113592500Y-108290000D01*
X113592500Y-108995344D01*
X113598901Y-109054872D01*
X113598903Y-109054879D01*
X113649145Y-109189586D01*
X113649149Y-109189593D01*
X113735309Y-109304687D01*
X113735312Y-109304690D01*
X113850406Y-109390850D01*
X113850413Y-109390854D01*
X113985120Y-109441096D01*
X113985127Y-109441098D01*
X114044655Y-109447499D01*
X114044672Y-109447500D01*
X114750000Y-109447500D01*
X114750000Y-108594256D01*
X114766479Y-108603771D01*
X114920350Y-108645000D01*
X115079650Y-108645000D01*
X115233521Y-108603771D01*
X115250000Y-108594256D01*
X115250000Y-109447500D01*
X115955328Y-109447500D01*
X115955344Y-109447499D01*
X116014872Y-109441098D01*
X116014879Y-109441096D01*
X116149586Y-109390854D01*
X116149593Y-109390850D01*
X116264687Y-109304690D01*
X116264690Y-109304687D01*
X116350850Y-109189593D01*
X116350854Y-109189586D01*
X116401096Y-109054879D01*
X116401098Y-109054872D01*
X116407499Y-108995344D01*
X116407500Y-108995327D01*
X116407500Y-108290000D01*
X115554257Y-108290000D01*
X115563771Y-108273521D01*
X115605000Y-108119650D01*
X115605000Y-107960350D01*
X115563771Y-107806479D01*
X115554257Y-107790000D01*
X116407500Y-107790000D01*
X116407500Y-107084672D01*
X116407499Y-107084655D01*
X123592500Y-107084655D01*
X123592500Y-107790000D01*
X124445743Y-107790000D01*
X124436229Y-107806479D01*
X124395000Y-107960350D01*
X124395000Y-108119650D01*
X124436229Y-108273521D01*
X124445743Y-108290000D01*
X123592500Y-108290000D01*
X123592500Y-108995344D01*
X123598901Y-109054872D01*
X123598903Y-109054879D01*
X123649145Y-109189586D01*
X123649149Y-109189593D01*
X123735309Y-109304687D01*
X123735312Y-109304690D01*
X123850406Y-109390850D01*
X123850413Y-109390854D01*
X123985120Y-109441096D01*
X123985127Y-109441098D01*
X124044655Y-109447499D01*
X124044672Y-109447500D01*
X124750000Y-109447500D01*
X124750000Y-108594256D01*
X124766479Y-108603771D01*
X124920350Y-108645000D01*
X125079650Y-108645000D01*
X125233521Y-108603771D01*
X125250000Y-108594256D01*
X125250000Y-109447500D01*
X125955328Y-109447500D01*
X125955344Y-109447499D01*
X126014872Y-109441098D01*
X126014879Y-109441096D01*
X126149586Y-109390854D01*
X126149593Y-109390850D01*
X126264687Y-109304690D01*
X126264690Y-109304687D01*
X126350850Y-109189593D01*
X126350854Y-109189586D01*
X126367964Y-109143713D01*
X146149500Y-109143713D01*
X146149500Y-109356286D01*
X146182753Y-109566239D01*
X146248444Y-109768414D01*
X146344951Y-109957820D01*
X146469890Y-110129786D01*
X146620213Y-110280109D01*
X146792179Y-110405048D01*
X146792181Y-110405049D01*
X146792184Y-110405051D01*
X146981588Y-110501557D01*
X147183757Y-110567246D01*
X147393713Y-110600500D01*
X147393714Y-110600500D01*
X147606286Y-110600500D01*
X147606287Y-110600500D01*
X147816243Y-110567246D01*
X148018412Y-110501557D01*
X148207816Y-110405051D01*
X148229789Y-110389086D01*
X148379786Y-110280109D01*
X148379788Y-110280106D01*
X148379792Y-110280104D01*
X148530104Y-110129792D01*
X148530106Y-110129788D01*
X148530109Y-110129786D01*
X148655048Y-109957820D01*
X148655047Y-109957820D01*
X148655051Y-109957816D01*
X148751557Y-109768412D01*
X148817246Y-109566243D01*
X148850500Y-109356287D01*
X148850500Y-109143713D01*
X148817246Y-108933757D01*
X148751557Y-108731588D01*
X148655051Y-108542184D01*
X148655049Y-108542181D01*
X148655048Y-108542179D01*
X148530109Y-108370213D01*
X148379786Y-108219890D01*
X148207820Y-108094951D01*
X148018414Y-107998444D01*
X148018413Y-107998443D01*
X148018412Y-107998443D01*
X147816243Y-107932754D01*
X147816241Y-107932753D01*
X147816240Y-107932753D01*
X147654957Y-107907208D01*
X147606287Y-107899500D01*
X147393713Y-107899500D01*
X147345042Y-107907208D01*
X147183760Y-107932753D01*
X146981585Y-107998444D01*
X146792179Y-108094951D01*
X146620213Y-108219890D01*
X146469890Y-108370213D01*
X146344951Y-108542179D01*
X146248444Y-108731585D01*
X146182753Y-108933760D01*
X146149500Y-109143713D01*
X126367964Y-109143713D01*
X126385943Y-109095508D01*
X126385943Y-109095507D01*
X126401097Y-109054876D01*
X126401098Y-109054872D01*
X126407499Y-108995344D01*
X126407500Y-108995327D01*
X126407500Y-108290000D01*
X125554257Y-108290000D01*
X125563771Y-108273521D01*
X125605000Y-108119650D01*
X125605000Y-107960350D01*
X125563771Y-107806479D01*
X125554257Y-107790000D01*
X126407500Y-107790000D01*
X126407500Y-107477758D01*
X157749500Y-107477758D01*
X157749500Y-107707241D01*
X157762566Y-107806479D01*
X157779452Y-107934738D01*
X157838842Y-108156387D01*
X157926650Y-108368376D01*
X157926657Y-108368390D01*
X158041392Y-108567117D01*
X158181081Y-108749161D01*
X158181089Y-108749170D01*
X158343330Y-108911411D01*
X158343338Y-108911418D01*
X158525382Y-109051107D01*
X158525385Y-109051108D01*
X158525388Y-109051111D01*
X158724112Y-109165844D01*
X158724117Y-109165846D01*
X158724123Y-109165849D01*
X158781430Y-109189586D01*
X158936113Y-109253658D01*
X159157762Y-109313048D01*
X159385266Y-109343000D01*
X159385273Y-109343000D01*
X159614727Y-109343000D01*
X159614734Y-109343000D01*
X159842238Y-109313048D01*
X160063887Y-109253658D01*
X160275888Y-109165844D01*
X160474612Y-109051111D01*
X160656661Y-108911419D01*
X160656665Y-108911414D01*
X160656670Y-108911411D01*
X160818911Y-108749170D01*
X160818914Y-108749165D01*
X160818919Y-108749161D01*
X160958611Y-108567112D01*
X161073344Y-108368388D01*
X161161158Y-108156387D01*
X161220548Y-107934738D01*
X161250500Y-107707234D01*
X161250500Y-107477766D01*
X161220548Y-107250262D01*
X161161158Y-107028613D01*
X161111190Y-106907980D01*
X161073349Y-106816623D01*
X161073346Y-106816617D01*
X161073344Y-106816612D01*
X160958611Y-106617888D01*
X160958608Y-106617885D01*
X160958607Y-106617882D01*
X160818918Y-106435838D01*
X160818911Y-106435830D01*
X160656670Y-106273589D01*
X160656661Y-106273581D01*
X160474617Y-106133892D01*
X160473302Y-106133133D01*
X160275888Y-106019156D01*
X160275876Y-106019150D01*
X160063887Y-105931342D01*
X159842238Y-105871952D01*
X159804215Y-105866946D01*
X159614741Y-105842000D01*
X159614734Y-105842000D01*
X159385266Y-105842000D01*
X159385258Y-105842000D01*
X159168715Y-105870509D01*
X159157762Y-105871952D01*
X159064076Y-105897054D01*
X158936112Y-105931342D01*
X158724123Y-106019150D01*
X158724109Y-106019157D01*
X158525382Y-106133892D01*
X158343338Y-106273581D01*
X158181081Y-106435838D01*
X158041392Y-106617882D01*
X157926657Y-106816609D01*
X157926650Y-106816623D01*
X157838842Y-107028612D01*
X157779453Y-107250259D01*
X157779451Y-107250270D01*
X157749500Y-107477758D01*
X126407500Y-107477758D01*
X126407500Y-107084672D01*
X126407499Y-107084655D01*
X126401098Y-107025127D01*
X126401096Y-107025120D01*
X126350854Y-106890413D01*
X126350850Y-106890406D01*
X126264690Y-106775312D01*
X126264687Y-106775309D01*
X126149593Y-106689149D01*
X126149586Y-106689145D01*
X126014879Y-106638903D01*
X126014872Y-106638901D01*
X125955344Y-106632500D01*
X125875232Y-106632500D01*
X125808193Y-106612815D01*
X125762438Y-106560011D01*
X125752494Y-106490853D01*
X125781519Y-106427297D01*
X125787551Y-106420819D01*
X125921411Y-106286959D01*
X126033174Y-106133130D01*
X126119497Y-105963711D01*
X126178255Y-105782874D01*
X126208000Y-105595072D01*
X126208000Y-105404928D01*
X126178255Y-105217126D01*
X126119497Y-105036289D01*
X126033174Y-104866870D01*
X126018895Y-104847216D01*
X125921416Y-104713047D01*
X125921412Y-104713042D01*
X125786957Y-104578587D01*
X125786952Y-104578583D01*
X125633133Y-104466828D01*
X125633132Y-104466827D01*
X125633130Y-104466826D01*
X125463711Y-104380503D01*
X125282874Y-104321745D01*
X125282872Y-104321744D01*
X125282871Y-104321744D01*
X125131098Y-104297706D01*
X125095072Y-104292000D01*
X124904928Y-104292000D01*
X124904926Y-104292000D01*
X124868896Y-104297706D01*
X124799602Y-104288750D01*
X124746151Y-104243752D01*
X124725513Y-104177000D01*
X124725500Y-104175232D01*
X124725500Y-103412180D01*
X124745185Y-103345141D01*
X124775187Y-103312914D01*
X124882546Y-103232546D01*
X124968796Y-103117331D01*
X125019091Y-102982483D01*
X125025500Y-102922873D01*
X125025499Y-102277128D01*
X125019091Y-102217517D01*
X124968796Y-102082669D01*
X124968795Y-102082668D01*
X124968793Y-102082664D01*
X124882547Y-101967455D01*
X124882544Y-101967452D01*
X124767335Y-101881206D01*
X124767328Y-101881202D01*
X124632486Y-101830910D01*
X124632485Y-101830909D01*
X124632483Y-101830909D01*
X124572873Y-101824500D01*
X124572863Y-101824500D01*
X124077129Y-101824500D01*
X124077123Y-101824501D01*
X124017516Y-101830908D01*
X123882671Y-101881202D01*
X123882664Y-101881206D01*
X123767455Y-101967452D01*
X123767452Y-101967455D01*
X123681206Y-102082664D01*
X123681202Y-102082671D01*
X123630910Y-102217513D01*
X123630909Y-102217517D01*
X123624500Y-102277127D01*
X123624500Y-102277134D01*
X123624500Y-102277135D01*
X123624500Y-102922870D01*
X123624501Y-102922876D01*
X123630908Y-102982483D01*
X123681202Y-103117328D01*
X123681206Y-103117335D01*
X123750358Y-103209709D01*
X123767454Y-103232546D01*
X123874811Y-103312914D01*
X123916682Y-103368847D01*
X123924500Y-103412180D01*
X123924500Y-104877732D01*
X123924860Y-104879073D01*
X123924832Y-104880249D01*
X123925561Y-104885788D01*
X123924697Y-104885901D01*
X123923199Y-104948923D01*
X123915571Y-104967462D01*
X123880506Y-105036281D01*
X123880502Y-105036291D01*
X123821744Y-105217129D01*
X123792000Y-105404928D01*
X123792000Y-105595072D01*
X123821745Y-105782874D01*
X123880503Y-105963711D01*
X123908750Y-106019150D01*
X123966828Y-106133133D01*
X124078583Y-106286952D01*
X124078587Y-106286957D01*
X124212449Y-106420819D01*
X124245934Y-106482142D01*
X124240950Y-106551834D01*
X124199078Y-106607767D01*
X124133614Y-106632184D01*
X124124768Y-106632500D01*
X124044655Y-106632500D01*
X123985127Y-106638901D01*
X123985120Y-106638903D01*
X123850413Y-106689145D01*
X123850406Y-106689149D01*
X123735312Y-106775309D01*
X123735309Y-106775312D01*
X123649149Y-106890406D01*
X123649145Y-106890413D01*
X123598903Y-107025120D01*
X123598901Y-107025127D01*
X123592500Y-107084655D01*
X116407499Y-107084655D01*
X116401098Y-107025127D01*
X116401096Y-107025120D01*
X116350854Y-106890413D01*
X116350850Y-106890406D01*
X116264690Y-106775312D01*
X116264687Y-106775309D01*
X116149593Y-106689149D01*
X116149586Y-106689145D01*
X116014879Y-106638903D01*
X116014872Y-106638901D01*
X115955344Y-106632500D01*
X115875232Y-106632500D01*
X115808193Y-106612815D01*
X115762438Y-106560011D01*
X115752494Y-106490853D01*
X115781519Y-106427297D01*
X115787551Y-106420819D01*
X115921411Y-106286959D01*
X116033174Y-106133130D01*
X116119497Y-105963711D01*
X116178255Y-105782874D01*
X116208000Y-105595072D01*
X116208000Y-105404928D01*
X116178255Y-105217126D01*
X116119497Y-105036289D01*
X116033174Y-104866870D01*
X116018895Y-104847216D01*
X115921416Y-104713047D01*
X115921412Y-104713042D01*
X115786957Y-104578587D01*
X115786952Y-104578583D01*
X115633133Y-104466828D01*
X115633132Y-104466827D01*
X115633130Y-104466826D01*
X115463711Y-104380503D01*
X115282874Y-104321745D01*
X115282872Y-104321744D01*
X115282871Y-104321744D01*
X115131098Y-104297706D01*
X115095072Y-104292000D01*
X114904928Y-104292000D01*
X114904926Y-104292000D01*
X114868896Y-104297706D01*
X114799602Y-104288750D01*
X114746151Y-104243752D01*
X114725513Y-104177000D01*
X114725500Y-104175232D01*
X114725500Y-103412180D01*
X114745185Y-103345141D01*
X114775187Y-103312914D01*
X114882546Y-103232546D01*
X114968796Y-103117331D01*
X115019091Y-102982483D01*
X115025500Y-102922873D01*
X115025499Y-102277128D01*
X115019091Y-102217517D01*
X114968796Y-102082669D01*
X114968795Y-102082668D01*
X114968793Y-102082664D01*
X114882547Y-101967455D01*
X114882544Y-101967452D01*
X114760231Y-101875888D01*
X114761752Y-101873855D01*
X114721823Y-101833925D01*
X114706972Y-101765652D01*
X114731390Y-101700188D01*
X114787324Y-101658318D01*
X114830656Y-101650500D01*
X121107745Y-101650500D01*
X121174784Y-101670185D01*
X121195426Y-101686819D01*
X121938181Y-102429574D01*
X121971666Y-102490897D01*
X121974500Y-102517255D01*
X121974500Y-102922870D01*
X121974501Y-102922876D01*
X121980908Y-102982483D01*
X122031202Y-103117328D01*
X122031206Y-103117335D01*
X122117452Y-103232544D01*
X122117455Y-103232547D01*
X122232664Y-103318793D01*
X122232671Y-103318797D01*
X122274497Y-103334397D01*
X122367517Y-103369091D01*
X122427127Y-103375500D01*
X122922872Y-103375499D01*
X122982483Y-103369091D01*
X123117331Y-103318796D01*
X123232546Y-103232546D01*
X123318796Y-103117331D01*
X123369091Y-102982483D01*
X123375500Y-102922873D01*
X123375499Y-102277128D01*
X123369091Y-102217517D01*
X123318796Y-102082669D01*
X123318795Y-102082668D01*
X123318793Y-102082664D01*
X123232547Y-101967455D01*
X123232544Y-101967452D01*
X123117335Y-101881206D01*
X123117328Y-101881202D01*
X122982482Y-101830908D01*
X122982483Y-101830908D01*
X122922883Y-101824501D01*
X122922881Y-101824500D01*
X122922873Y-101824500D01*
X122922865Y-101824500D01*
X122517255Y-101824500D01*
X122450216Y-101804815D01*
X122429574Y-101788181D01*
X121570915Y-100929522D01*
X121570913Y-100929520D01*
X121525250Y-100903156D01*
X121479589Y-100876793D01*
X121428657Y-100863146D01*
X121377727Y-100849500D01*
X121377726Y-100849500D01*
X116469804Y-100849500D01*
X116402765Y-100829815D01*
X116357010Y-100777011D01*
X116347066Y-100707853D01*
X116353622Y-100682167D01*
X116401096Y-100554879D01*
X116401098Y-100554872D01*
X116407499Y-100495344D01*
X116407500Y-100495327D01*
X116407500Y-99790000D01*
X115554257Y-99790000D01*
X115563771Y-99773521D01*
X115605000Y-99619650D01*
X115605000Y-99460350D01*
X115563771Y-99306479D01*
X115554257Y-99290000D01*
X116407500Y-99290000D01*
X116407500Y-98584672D01*
X116407499Y-98584655D01*
X123592500Y-98584655D01*
X123592500Y-99290000D01*
X124445743Y-99290000D01*
X124436229Y-99306479D01*
X124395000Y-99460350D01*
X124395000Y-99619650D01*
X124436229Y-99773521D01*
X124445743Y-99790000D01*
X123592500Y-99790000D01*
X123592500Y-100495344D01*
X123598901Y-100554872D01*
X123598903Y-100554879D01*
X123649145Y-100689586D01*
X123649149Y-100689593D01*
X123735309Y-100804687D01*
X123735312Y-100804690D01*
X123850406Y-100890850D01*
X123850413Y-100890854D01*
X123985120Y-100941096D01*
X123985127Y-100941098D01*
X124044655Y-100947499D01*
X124044672Y-100947500D01*
X124750000Y-100947500D01*
X124750000Y-100094256D01*
X124766479Y-100103771D01*
X124920350Y-100145000D01*
X125079650Y-100145000D01*
X125233521Y-100103771D01*
X125250000Y-100094256D01*
X125250000Y-100947500D01*
X125955328Y-100947500D01*
X125955344Y-100947499D01*
X126014872Y-100941098D01*
X126014879Y-100941096D01*
X126149586Y-100890854D01*
X126149593Y-100890850D01*
X126264687Y-100804690D01*
X126264690Y-100804687D01*
X126350850Y-100689593D01*
X126350854Y-100689586D01*
X126401096Y-100554879D01*
X126401098Y-100554872D01*
X126407499Y-100495344D01*
X126407500Y-100495327D01*
X126407500Y-99790000D01*
X125554257Y-99790000D01*
X125563771Y-99773521D01*
X125605000Y-99619650D01*
X125605000Y-99460350D01*
X125563771Y-99306479D01*
X125554257Y-99290000D01*
X126407500Y-99290000D01*
X126407500Y-98584672D01*
X126407499Y-98584655D01*
X126401098Y-98525127D01*
X126401096Y-98525120D01*
X126350854Y-98390413D01*
X126350850Y-98390406D01*
X126264690Y-98275312D01*
X126264687Y-98275309D01*
X126149593Y-98189149D01*
X126149586Y-98189145D01*
X126014879Y-98138903D01*
X126014872Y-98138901D01*
X125955344Y-98132500D01*
X125875232Y-98132500D01*
X125808193Y-98112815D01*
X125762438Y-98060011D01*
X125752494Y-97990853D01*
X125781519Y-97927297D01*
X125787551Y-97920819D01*
X125921411Y-97786959D01*
X126033174Y-97633130D01*
X126119497Y-97463711D01*
X126178255Y-97282874D01*
X126208000Y-97095072D01*
X126208000Y-96904928D01*
X126178255Y-96717126D01*
X126119497Y-96536289D01*
X126033174Y-96366870D01*
X126018895Y-96347216D01*
X125921416Y-96213047D01*
X125921412Y-96213042D01*
X125786957Y-96078587D01*
X125786952Y-96078583D01*
X125633133Y-95966828D01*
X125633132Y-95966827D01*
X125633130Y-95966826D01*
X125578852Y-95939170D01*
X125463711Y-95880502D01*
X125461173Y-95879678D01*
X125460333Y-95879104D01*
X125459218Y-95878642D01*
X125459315Y-95878407D01*
X125403500Y-95840236D01*
X125376307Y-95775876D01*
X125375500Y-95761750D01*
X125375500Y-94862180D01*
X125395185Y-94795141D01*
X125425187Y-94762914D01*
X125532546Y-94682546D01*
X125618796Y-94567331D01*
X125669091Y-94432483D01*
X125675500Y-94372873D01*
X125675499Y-93727128D01*
X125669091Y-93667517D01*
X125646225Y-93606211D01*
X125618797Y-93532671D01*
X125618793Y-93532664D01*
X125532547Y-93417455D01*
X125532544Y-93417452D01*
X125417335Y-93331206D01*
X125417328Y-93331202D01*
X125282486Y-93280910D01*
X125282485Y-93280909D01*
X125282483Y-93280909D01*
X125222873Y-93274500D01*
X125222863Y-93274500D01*
X124727129Y-93274500D01*
X124727123Y-93274501D01*
X124667516Y-93280908D01*
X124532671Y-93331202D01*
X124532664Y-93331206D01*
X124417455Y-93417452D01*
X124417452Y-93417455D01*
X124331206Y-93532664D01*
X124331202Y-93532671D01*
X124280910Y-93667513D01*
X124280909Y-93667517D01*
X124274500Y-93727127D01*
X124274500Y-93727134D01*
X124274500Y-93727135D01*
X124274500Y-94372870D01*
X124274501Y-94372876D01*
X124280908Y-94432483D01*
X124331202Y-94567328D01*
X124331206Y-94567335D01*
X124368634Y-94617331D01*
X124417454Y-94682546D01*
X124524811Y-94762914D01*
X124566682Y-94818847D01*
X124574500Y-94862180D01*
X124574500Y-95785045D01*
X124554815Y-95852084D01*
X124506795Y-95895530D01*
X124366866Y-95966828D01*
X124213047Y-96078583D01*
X124213042Y-96078587D01*
X124078587Y-96213042D01*
X124078583Y-96213047D01*
X123966828Y-96366866D01*
X123880504Y-96536286D01*
X123821744Y-96717129D01*
X123792000Y-96904928D01*
X123792000Y-97095071D01*
X123821744Y-97282870D01*
X123880504Y-97463713D01*
X123966828Y-97633133D01*
X124078583Y-97786952D01*
X124078587Y-97786957D01*
X124212449Y-97920819D01*
X124245934Y-97982142D01*
X124240950Y-98051834D01*
X124199078Y-98107767D01*
X124133614Y-98132184D01*
X124124768Y-98132500D01*
X124044655Y-98132500D01*
X123985127Y-98138901D01*
X123985120Y-98138903D01*
X123850413Y-98189145D01*
X123850406Y-98189149D01*
X123735312Y-98275309D01*
X123735309Y-98275312D01*
X123649149Y-98390406D01*
X123649145Y-98390413D01*
X123598903Y-98525120D01*
X123598901Y-98525127D01*
X123592500Y-98584655D01*
X116407499Y-98584655D01*
X116401098Y-98525127D01*
X116401096Y-98525120D01*
X116350854Y-98390413D01*
X116350850Y-98390406D01*
X116264690Y-98275312D01*
X116264687Y-98275309D01*
X116149593Y-98189149D01*
X116149586Y-98189145D01*
X116014879Y-98138903D01*
X116014872Y-98138901D01*
X115955344Y-98132500D01*
X115875232Y-98132500D01*
X115808193Y-98112815D01*
X115762438Y-98060011D01*
X115752494Y-97990853D01*
X115781519Y-97927297D01*
X115787551Y-97920819D01*
X115921411Y-97786959D01*
X116033174Y-97633130D01*
X116119497Y-97463711D01*
X116178255Y-97282874D01*
X116208000Y-97095072D01*
X116208000Y-96904928D01*
X116178255Y-96717126D01*
X116119497Y-96536289D01*
X116033174Y-96366870D01*
X116018895Y-96347216D01*
X115921416Y-96213047D01*
X115921412Y-96213042D01*
X115786957Y-96078587D01*
X115786952Y-96078583D01*
X115633133Y-95966828D01*
X115633132Y-95966827D01*
X115633130Y-95966826D01*
X115463711Y-95880503D01*
X115282874Y-95821745D01*
X115282872Y-95821744D01*
X115282871Y-95821744D01*
X115131098Y-95797706D01*
X115095072Y-95792000D01*
X114904928Y-95792000D01*
X114904926Y-95792000D01*
X114868896Y-95797706D01*
X114799602Y-95788750D01*
X114746151Y-95743752D01*
X114725513Y-95677000D01*
X114725500Y-95675232D01*
X114725500Y-94912180D01*
X114745185Y-94845141D01*
X114775187Y-94812914D01*
X114882546Y-94732546D01*
X114968796Y-94617331D01*
X115019091Y-94482483D01*
X115025500Y-94422873D01*
X115025499Y-93777128D01*
X115019091Y-93717517D01*
X115009014Y-93690500D01*
X114968797Y-93582671D01*
X114968793Y-93582664D01*
X114882547Y-93467455D01*
X114882544Y-93467452D01*
X114767335Y-93381206D01*
X114767328Y-93381202D01*
X114632486Y-93330910D01*
X114632485Y-93330909D01*
X114632483Y-93330909D01*
X114572873Y-93324500D01*
X114572863Y-93324500D01*
X114077129Y-93324500D01*
X114077123Y-93324501D01*
X114017516Y-93330908D01*
X113882671Y-93381202D01*
X113882664Y-93381206D01*
X113767455Y-93467452D01*
X113767452Y-93467455D01*
X113681206Y-93582664D01*
X113681202Y-93582671D01*
X113630910Y-93717513D01*
X113630909Y-93717517D01*
X113624500Y-93777127D01*
X113624500Y-93777134D01*
X113624500Y-93777135D01*
X113624500Y-94422870D01*
X113624501Y-94422876D01*
X113630908Y-94482483D01*
X113681202Y-94617328D01*
X113681206Y-94617335D01*
X113750358Y-94709709D01*
X113767454Y-94732546D01*
X113874811Y-94812914D01*
X113916682Y-94868847D01*
X113924500Y-94912180D01*
X113924500Y-96377732D01*
X113924860Y-96379073D01*
X113924832Y-96380249D01*
X113925561Y-96385788D01*
X113924697Y-96385901D01*
X113923199Y-96448923D01*
X113915571Y-96467462D01*
X113880506Y-96536281D01*
X113880502Y-96536291D01*
X113821744Y-96717129D01*
X113792000Y-96904928D01*
X113792000Y-97095071D01*
X113821744Y-97282870D01*
X113880504Y-97463713D01*
X113966828Y-97633133D01*
X114078583Y-97786952D01*
X114078587Y-97786957D01*
X114212449Y-97920819D01*
X114245934Y-97982142D01*
X114240950Y-98051834D01*
X114199078Y-98107767D01*
X114133614Y-98132184D01*
X114124768Y-98132500D01*
X114044655Y-98132500D01*
X113985127Y-98138901D01*
X113985120Y-98138903D01*
X113850413Y-98189145D01*
X113850406Y-98189149D01*
X113735312Y-98275309D01*
X113735309Y-98275312D01*
X113649149Y-98390406D01*
X113649145Y-98390413D01*
X113598903Y-98525120D01*
X113598901Y-98525127D01*
X113592500Y-98584655D01*
X113592500Y-99290000D01*
X114445743Y-99290000D01*
X114436229Y-99306479D01*
X114395000Y-99460350D01*
X114395000Y-99619650D01*
X114436229Y-99773521D01*
X114445743Y-99790000D01*
X113592500Y-99790000D01*
X113592500Y-100226745D01*
X113572815Y-100293784D01*
X113520011Y-100339539D01*
X113450853Y-100349483D01*
X113387297Y-100320458D01*
X113380819Y-100314426D01*
X106139819Y-93073426D01*
X106106334Y-93012103D01*
X106103500Y-92985745D01*
X106103500Y-75473814D01*
X106123185Y-75406775D01*
X106175989Y-75361020D01*
X106245147Y-75351076D01*
X106300384Y-75373495D01*
X106429566Y-75467351D01*
X106529125Y-75518079D01*
X106596390Y-75552353D01*
X106596393Y-75552354D01*
X106685424Y-75581281D01*
X106774458Y-75610210D01*
X106959384Y-75639500D01*
X106959385Y-75639500D01*
X107146615Y-75639500D01*
X107146616Y-75639500D01*
X107331542Y-75610210D01*
X107509609Y-75552353D01*
X107676434Y-75467351D01*
X107729473Y-75428816D01*
X107752615Y-75412003D01*
X107818421Y-75388523D01*
X107886475Y-75404349D01*
X107935170Y-75454454D01*
X107949500Y-75512321D01*
X107949500Y-89827726D01*
X107976793Y-89929589D01*
X108003156Y-89975250D01*
X108029520Y-90020913D01*
X108029521Y-90020914D01*
X108029522Y-90020915D01*
X111938181Y-93929573D01*
X111971666Y-93990896D01*
X111974500Y-94017254D01*
X111974500Y-94422870D01*
X111974501Y-94422876D01*
X111980908Y-94482483D01*
X112031202Y-94617328D01*
X112031206Y-94617335D01*
X112117452Y-94732544D01*
X112117455Y-94732547D01*
X112232664Y-94818793D01*
X112232671Y-94818797D01*
X112250643Y-94825500D01*
X112367517Y-94869091D01*
X112427127Y-94875500D01*
X112922872Y-94875499D01*
X112982483Y-94869091D01*
X113117331Y-94818796D01*
X113232546Y-94732546D01*
X113318796Y-94617331D01*
X113369091Y-94482483D01*
X113375500Y-94422873D01*
X113375499Y-93777128D01*
X113369091Y-93717517D01*
X113359014Y-93690500D01*
X113318797Y-93582671D01*
X113318793Y-93582664D01*
X113232547Y-93467455D01*
X113232544Y-93467452D01*
X113117335Y-93381206D01*
X113117328Y-93381202D01*
X112982482Y-93330908D01*
X112982483Y-93330908D01*
X112922883Y-93324501D01*
X112922881Y-93324500D01*
X112922873Y-93324500D01*
X112922865Y-93324500D01*
X112517255Y-93324500D01*
X112450216Y-93304815D01*
X112429574Y-93288181D01*
X109226048Y-90084655D01*
X113592500Y-90084655D01*
X113592500Y-90790000D01*
X114445743Y-90790000D01*
X114436229Y-90806479D01*
X114395000Y-90960350D01*
X114395000Y-91119650D01*
X114436229Y-91273521D01*
X114445743Y-91290000D01*
X113592500Y-91290000D01*
X113592500Y-91995344D01*
X113598901Y-92054872D01*
X113598903Y-92054879D01*
X113649145Y-92189586D01*
X113649149Y-92189593D01*
X113735309Y-92304687D01*
X113735312Y-92304690D01*
X113850406Y-92390850D01*
X113850413Y-92390854D01*
X113985120Y-92441096D01*
X113985127Y-92441098D01*
X114044655Y-92447499D01*
X114044672Y-92447500D01*
X114750000Y-92447500D01*
X114750000Y-91594256D01*
X114766479Y-91603771D01*
X114920350Y-91645000D01*
X115079650Y-91645000D01*
X115233521Y-91603771D01*
X115250000Y-91594256D01*
X115250000Y-92447500D01*
X115955328Y-92447500D01*
X115955344Y-92447499D01*
X116014872Y-92441098D01*
X116014879Y-92441096D01*
X116149586Y-92390854D01*
X116149593Y-92390850D01*
X116264687Y-92304690D01*
X116264690Y-92304687D01*
X116350850Y-92189593D01*
X116350854Y-92189586D01*
X116401096Y-92054879D01*
X116401098Y-92054872D01*
X116407499Y-91995344D01*
X116407500Y-91995327D01*
X116407500Y-91290000D01*
X115554257Y-91290000D01*
X115563771Y-91273521D01*
X115605000Y-91119650D01*
X115605000Y-90960350D01*
X115563771Y-90806479D01*
X115554257Y-90790000D01*
X116407500Y-90790000D01*
X116407500Y-90084672D01*
X116407499Y-90084655D01*
X116401098Y-90025127D01*
X116401096Y-90025120D01*
X116350854Y-89890413D01*
X116350850Y-89890406D01*
X116264690Y-89775312D01*
X116264687Y-89775309D01*
X116149593Y-89689149D01*
X116149586Y-89689145D01*
X116014879Y-89638903D01*
X116014872Y-89638901D01*
X115955344Y-89632500D01*
X115875232Y-89632500D01*
X115808193Y-89612815D01*
X115762438Y-89560011D01*
X115752494Y-89490853D01*
X115781519Y-89427297D01*
X115787551Y-89420819D01*
X115827551Y-89380819D01*
X115921411Y-89286959D01*
X116033174Y-89133130D01*
X116119497Y-88963711D01*
X116178255Y-88782874D01*
X116208000Y-88595072D01*
X116208000Y-88404928D01*
X116178255Y-88217126D01*
X116119497Y-88036289D01*
X116033174Y-87866870D01*
X115986252Y-87802287D01*
X115921416Y-87713047D01*
X115921412Y-87713042D01*
X115786957Y-87578587D01*
X115786952Y-87578583D01*
X115633133Y-87466828D01*
X115633132Y-87466827D01*
X115633130Y-87466826D01*
X115463711Y-87380503D01*
X115282874Y-87321745D01*
X115282872Y-87321744D01*
X115282871Y-87321744D01*
X115131098Y-87297706D01*
X115095072Y-87292000D01*
X114904928Y-87292000D01*
X114904926Y-87292000D01*
X114868896Y-87297706D01*
X114799602Y-87288750D01*
X114746151Y-87243752D01*
X114725513Y-87177000D01*
X114725500Y-87175232D01*
X114725500Y-86412180D01*
X114745185Y-86345141D01*
X114775187Y-86312914D01*
X114882546Y-86232546D01*
X114968796Y-86117331D01*
X115019091Y-85982483D01*
X115025500Y-85922873D01*
X115025499Y-85277128D01*
X115019091Y-85217517D01*
X114968946Y-85083072D01*
X114968797Y-85082671D01*
X114968793Y-85082664D01*
X114882547Y-84967455D01*
X114882544Y-84967452D01*
X114767335Y-84881206D01*
X114767328Y-84881202D01*
X114632486Y-84830910D01*
X114632485Y-84830909D01*
X114632483Y-84830909D01*
X114572873Y-84824500D01*
X114572863Y-84824500D01*
X114077129Y-84824500D01*
X114077123Y-84824501D01*
X114017516Y-84830908D01*
X113882671Y-84881202D01*
X113882664Y-84881206D01*
X113767455Y-84967452D01*
X113767452Y-84967455D01*
X113681206Y-85082664D01*
X113681202Y-85082671D01*
X113630910Y-85217513D01*
X113630909Y-85217517D01*
X113624500Y-85277127D01*
X113624500Y-85277134D01*
X113624500Y-85277135D01*
X113624500Y-85922870D01*
X113624501Y-85922876D01*
X113630908Y-85982483D01*
X113681202Y-86117328D01*
X113681206Y-86117335D01*
X113748186Y-86206807D01*
X113767454Y-86232546D01*
X113874811Y-86312914D01*
X113916682Y-86368847D01*
X113924500Y-86412180D01*
X113924500Y-87877732D01*
X113924860Y-87879073D01*
X113924832Y-87880249D01*
X113925561Y-87885788D01*
X113924697Y-87885901D01*
X113923199Y-87948923D01*
X113915571Y-87967462D01*
X113880506Y-88036281D01*
X113880502Y-88036291D01*
X113821744Y-88217129D01*
X113798335Y-88364928D01*
X113792000Y-88404928D01*
X113792000Y-88595072D01*
X113795097Y-88614624D01*
X113821119Y-88778925D01*
X113821745Y-88782874D01*
X113880503Y-88963711D01*
X113947843Y-89095874D01*
X113966828Y-89133133D01*
X114078583Y-89286952D01*
X114078587Y-89286957D01*
X114212449Y-89420819D01*
X114245934Y-89482142D01*
X114240950Y-89551834D01*
X114199078Y-89607767D01*
X114133614Y-89632184D01*
X114124768Y-89632500D01*
X114044655Y-89632500D01*
X113985127Y-89638901D01*
X113985120Y-89638903D01*
X113850413Y-89689145D01*
X113850406Y-89689149D01*
X113735312Y-89775309D01*
X113735309Y-89775312D01*
X113649149Y-89890406D01*
X113649145Y-89890413D01*
X113598903Y-90025120D01*
X113598901Y-90025127D01*
X113592500Y-90084655D01*
X109226048Y-90084655D01*
X108786819Y-89645426D01*
X108753334Y-89584103D01*
X108750500Y-89557745D01*
X108750500Y-75551554D01*
X108770185Y-75484515D01*
X108822989Y-75438760D01*
X108892147Y-75428816D01*
X108947384Y-75451235D01*
X108969566Y-75467351D01*
X109047556Y-75507089D01*
X109136390Y-75552353D01*
X109136393Y-75552354D01*
X109225424Y-75581281D01*
X109314458Y-75610210D01*
X109499384Y-75639500D01*
X109499385Y-75639500D01*
X109686615Y-75639500D01*
X109686616Y-75639500D01*
X109871542Y-75610210D01*
X110037233Y-75556373D01*
X110107073Y-75554379D01*
X110163231Y-75586624D01*
X112238181Y-77661574D01*
X112271666Y-77722897D01*
X112274500Y-77749255D01*
X112274500Y-84787819D01*
X112254815Y-84854858D01*
X112224812Y-84887085D01*
X112117452Y-84967455D01*
X112031206Y-85082664D01*
X112031202Y-85082671D01*
X111980910Y-85217513D01*
X111980909Y-85217517D01*
X111974500Y-85277127D01*
X111974500Y-85277134D01*
X111974500Y-85277135D01*
X111974500Y-85922870D01*
X111974501Y-85922876D01*
X111980908Y-85982483D01*
X112031202Y-86117328D01*
X112031206Y-86117335D01*
X112117452Y-86232544D01*
X112117455Y-86232547D01*
X112232664Y-86318793D01*
X112232671Y-86318797D01*
X112240034Y-86321543D01*
X112367517Y-86369091D01*
X112427127Y-86375500D01*
X112922872Y-86375499D01*
X112982483Y-86369091D01*
X113117331Y-86318796D01*
X113232546Y-86232546D01*
X113318796Y-86117331D01*
X113369091Y-85982483D01*
X113375500Y-85922873D01*
X113375499Y-85277128D01*
X113369091Y-85217517D01*
X113318946Y-85083072D01*
X113318797Y-85082671D01*
X113318793Y-85082664D01*
X113232547Y-84967455D01*
X113223371Y-84960586D01*
X113205693Y-84947352D01*
X113125188Y-84887085D01*
X113083318Y-84831151D01*
X113075500Y-84787819D01*
X113075500Y-77479275D01*
X113075500Y-77479273D01*
X113048207Y-77377413D01*
X113048207Y-77377412D01*
X112995480Y-77286087D01*
X111384591Y-75675198D01*
X111351106Y-75613875D01*
X111356090Y-75544183D01*
X111397962Y-75488250D01*
X111463426Y-75463833D01*
X111528567Y-75477033D01*
X111676380Y-75552348D01*
X111676393Y-75552354D01*
X111765424Y-75581281D01*
X111854458Y-75610210D01*
X112039384Y-75639500D01*
X112039385Y-75639500D01*
X112226615Y-75639500D01*
X112226616Y-75639500D01*
X112411542Y-75610210D01*
X112577233Y-75556373D01*
X112647073Y-75554379D01*
X112703231Y-75586624D01*
X122027181Y-84910574D01*
X122060666Y-84971897D01*
X122055682Y-85041589D01*
X122038769Y-85072563D01*
X122031203Y-85082670D01*
X122031202Y-85082671D01*
X121980910Y-85217513D01*
X121980909Y-85217517D01*
X121974500Y-85277127D01*
X121974500Y-85277134D01*
X121974500Y-85277135D01*
X121974500Y-85922870D01*
X121974501Y-85922876D01*
X121980908Y-85982483D01*
X122031202Y-86117328D01*
X122031206Y-86117335D01*
X122117452Y-86232544D01*
X122117455Y-86232547D01*
X122232664Y-86318793D01*
X122232671Y-86318797D01*
X122240034Y-86321543D01*
X122367517Y-86369091D01*
X122427127Y-86375500D01*
X122922872Y-86375499D01*
X122982483Y-86369091D01*
X123117331Y-86318796D01*
X123232546Y-86232546D01*
X123318796Y-86117331D01*
X123369091Y-85982483D01*
X123375500Y-85922873D01*
X123375499Y-85277128D01*
X123369091Y-85217517D01*
X123318946Y-85083072D01*
X123318797Y-85082671D01*
X123318793Y-85082664D01*
X123232547Y-84967455D01*
X123232544Y-84967452D01*
X123117335Y-84881206D01*
X123117330Y-84881203D01*
X123103225Y-84875943D01*
X123047290Y-84834072D01*
X123039175Y-84821769D01*
X122995480Y-84746087D01*
X122920913Y-84671520D01*
X113924591Y-75675198D01*
X113891106Y-75613875D01*
X113896090Y-75544183D01*
X113937962Y-75488250D01*
X114003426Y-75463833D01*
X114068567Y-75477033D01*
X114216380Y-75552348D01*
X114216393Y-75552354D01*
X114305424Y-75581281D01*
X114394458Y-75610210D01*
X114579384Y-75639500D01*
X114579385Y-75639500D01*
X114766615Y-75639500D01*
X114766616Y-75639500D01*
X114951542Y-75610210D01*
X115129609Y-75552353D01*
X115296434Y-75467351D01*
X115447907Y-75357300D01*
X115580300Y-75224907D01*
X115690351Y-75073434D01*
X115775353Y-74906609D01*
X115775354Y-74906606D01*
X115825069Y-74753598D01*
X115864506Y-74695923D01*
X115928865Y-74668724D01*
X115997711Y-74680638D01*
X116049187Y-74727882D01*
X116060931Y-74753598D01*
X116110645Y-74906606D01*
X116110646Y-74906609D01*
X116168416Y-75019988D01*
X116180566Y-75043833D01*
X116195651Y-75073437D01*
X116305694Y-75224900D01*
X116305698Y-75224905D01*
X116438094Y-75357301D01*
X116438099Y-75357305D01*
X116536527Y-75428816D01*
X116589566Y-75467351D01*
X116744796Y-75546445D01*
X116795591Y-75594419D01*
X116812500Y-75656929D01*
X116812500Y-76315726D01*
X116839793Y-76417589D01*
X116866156Y-76463250D01*
X116892520Y-76508913D01*
X116892522Y-76508915D01*
X118610022Y-78226415D01*
X118643507Y-78287738D01*
X118638523Y-78357430D01*
X118636903Y-78361547D01*
X118625447Y-78389204D01*
X118625445Y-78389210D01*
X118584500Y-78595054D01*
X118584500Y-78595057D01*
X118584500Y-78804943D01*
X118584500Y-78804945D01*
X118584499Y-78804945D01*
X118625445Y-79010789D01*
X118625447Y-79010795D01*
X118705765Y-79204701D01*
X118822373Y-79379218D01*
X118970781Y-79527626D01*
X119145298Y-79644234D01*
X119242251Y-79684393D01*
X119339205Y-79724553D01*
X119339209Y-79724553D01*
X119339210Y-79724554D01*
X119545054Y-79765500D01*
X119545057Y-79765500D01*
X119754945Y-79765500D01*
X119893433Y-79737952D01*
X119960795Y-79724553D01*
X120154703Y-79644233D01*
X120329216Y-79527628D01*
X120477628Y-79379216D01*
X120594233Y-79204703D01*
X120674553Y-79010795D01*
X120687952Y-78943433D01*
X120715500Y-78804945D01*
X120715500Y-78595054D01*
X120674554Y-78389210D01*
X120674553Y-78389209D01*
X120674553Y-78389205D01*
X120599952Y-78209103D01*
X120594234Y-78195298D01*
X120477626Y-78020781D01*
X120329218Y-77872373D01*
X120154701Y-77755765D01*
X119960795Y-77675447D01*
X119960789Y-77675445D01*
X119754945Y-77634500D01*
X119754943Y-77634500D01*
X119545057Y-77634500D01*
X119545055Y-77634500D01*
X119339210Y-77675445D01*
X119339204Y-77675447D01*
X119311547Y-77686903D01*
X119242077Y-77694370D01*
X119179599Y-77663094D01*
X119176415Y-77660022D01*
X117649819Y-76133426D01*
X117616334Y-76072103D01*
X117613500Y-76045745D01*
X117613500Y-75656929D01*
X117633185Y-75589890D01*
X117681203Y-75546445D01*
X117836434Y-75467351D01*
X117987907Y-75357300D01*
X118120300Y-75224907D01*
X118230351Y-75073434D01*
X118315353Y-74906609D01*
X118315354Y-74906606D01*
X118365069Y-74753598D01*
X118404506Y-74695923D01*
X118468865Y-74668724D01*
X118537711Y-74680638D01*
X118589187Y-74727882D01*
X118600931Y-74753598D01*
X118650645Y-74906606D01*
X118650646Y-74906609D01*
X118708416Y-75019988D01*
X118720566Y-75043833D01*
X118735651Y-75073437D01*
X118845694Y-75224900D01*
X118845698Y-75224905D01*
X118978094Y-75357301D01*
X118978099Y-75357305D01*
X119076527Y-75428816D01*
X119129566Y-75467351D01*
X119229125Y-75518079D01*
X119296390Y-75552353D01*
X119296393Y-75552354D01*
X119385424Y-75581281D01*
X119474458Y-75610210D01*
X119659384Y-75639500D01*
X119659385Y-75639500D01*
X119846615Y-75639500D01*
X119846616Y-75639500D01*
X120031542Y-75610210D01*
X120209609Y-75552353D01*
X120376434Y-75467351D01*
X120527907Y-75357300D01*
X120660300Y-75224907D01*
X120770351Y-75073434D01*
X120855353Y-74906609D01*
X120855354Y-74906606D01*
X120905069Y-74753598D01*
X120944506Y-74695923D01*
X121008865Y-74668724D01*
X121077711Y-74680638D01*
X121129187Y-74727882D01*
X121140931Y-74753598D01*
X121190645Y-74906606D01*
X121190646Y-74906609D01*
X121248416Y-75019988D01*
X121260566Y-75043833D01*
X121275651Y-75073437D01*
X121385694Y-75224900D01*
X121385698Y-75224905D01*
X121518094Y-75357301D01*
X121518099Y-75357305D01*
X121616527Y-75428816D01*
X121669566Y-75467351D01*
X121769125Y-75518079D01*
X121836390Y-75552353D01*
X121836393Y-75552354D01*
X121925424Y-75581281D01*
X122014458Y-75610210D01*
X122199384Y-75639500D01*
X122199385Y-75639500D01*
X122386615Y-75639500D01*
X122386616Y-75639500D01*
X122571542Y-75610210D01*
X122749609Y-75552353D01*
X122916434Y-75467351D01*
X123067907Y-75357300D01*
X123200300Y-75224907D01*
X123310351Y-75073434D01*
X123395353Y-74906609D01*
X123453210Y-74728542D01*
X123482500Y-74543616D01*
X123482500Y-74356384D01*
X123453210Y-74171458D01*
X123395353Y-73993391D01*
X123395353Y-73993390D01*
X123359572Y-73923167D01*
X123310351Y-73826566D01*
X123309963Y-73826032D01*
X123307014Y-73821972D01*
X123251361Y-73745372D01*
X123251360Y-73745372D01*
X123245907Y-73737867D01*
X123200300Y-73675093D01*
X123067907Y-73542700D01*
X123067905Y-73542698D01*
X123067900Y-73542694D01*
X122916437Y-73432651D01*
X122916436Y-73432650D01*
X122916434Y-73432649D01*
X122828174Y-73387678D01*
X122749609Y-73347646D01*
X122749606Y-73347645D01*
X122571543Y-73289790D01*
X122449285Y-73270426D01*
X122386616Y-73260500D01*
X122199384Y-73260500D01*
X122137742Y-73270263D01*
X122014456Y-73289790D01*
X121836393Y-73347645D01*
X121836390Y-73347646D01*
X121669562Y-73432651D01*
X121518099Y-73542694D01*
X121518094Y-73542698D01*
X121385698Y-73675094D01*
X121385694Y-73675099D01*
X121275651Y-73826562D01*
X121190646Y-73993390D01*
X121190645Y-73993393D01*
X121140931Y-74146401D01*
X121101494Y-74204076D01*
X121037135Y-74231275D01*
X120968289Y-74219361D01*
X120916813Y-74172116D01*
X120905069Y-74146401D01*
X120855354Y-73993393D01*
X120855353Y-73993390D01*
X120819572Y-73923167D01*
X120770351Y-73826566D01*
X120729317Y-73770087D01*
X120660305Y-73675099D01*
X120660301Y-73675094D01*
X120527905Y-73542698D01*
X120527900Y-73542694D01*
X120376437Y-73432651D01*
X120376436Y-73432650D01*
X120376434Y-73432649D01*
X120288174Y-73387678D01*
X120209609Y-73347646D01*
X120209606Y-73347645D01*
X120031543Y-73289790D01*
X119909285Y-73270426D01*
X119846616Y-73260500D01*
X119659384Y-73260500D01*
X119597742Y-73270263D01*
X119474456Y-73289790D01*
X119296393Y-73347645D01*
X119296390Y-73347646D01*
X119129562Y-73432651D01*
X118978099Y-73542694D01*
X118978094Y-73542698D01*
X118845698Y-73675094D01*
X118845694Y-73675099D01*
X118735651Y-73826562D01*
X118650646Y-73993390D01*
X118650645Y-73993393D01*
X118600931Y-74146401D01*
X118561494Y-74204076D01*
X118497135Y-74231275D01*
X118428289Y-74219361D01*
X118376813Y-74172116D01*
X118365069Y-74146401D01*
X118315354Y-73993393D01*
X118315353Y-73993390D01*
X118279572Y-73923167D01*
X118230351Y-73826566D01*
X118189317Y-73770087D01*
X118120305Y-73675099D01*
X118120301Y-73675094D01*
X117987905Y-73542698D01*
X117987900Y-73542694D01*
X117836437Y-73432651D01*
X117836436Y-73432650D01*
X117836434Y-73432649D01*
X117748174Y-73387678D01*
X117669609Y-73347646D01*
X117669606Y-73347645D01*
X117491543Y-73289790D01*
X117369285Y-73270426D01*
X117306616Y-73260500D01*
X117119384Y-73260500D01*
X117057742Y-73270263D01*
X116934456Y-73289790D01*
X116756393Y-73347645D01*
X116756390Y-73347646D01*
X116589562Y-73432651D01*
X116438099Y-73542694D01*
X116438094Y-73542698D01*
X116305698Y-73675094D01*
X116305694Y-73675099D01*
X116195651Y-73826562D01*
X116110646Y-73993390D01*
X116110645Y-73993393D01*
X116060931Y-74146401D01*
X116021494Y-74204076D01*
X115957135Y-74231275D01*
X115888289Y-74219361D01*
X115836813Y-74172116D01*
X115825069Y-74146401D01*
X115775354Y-73993393D01*
X115775353Y-73993390D01*
X115739572Y-73923167D01*
X115690351Y-73826566D01*
X115649317Y-73770087D01*
X115580305Y-73675099D01*
X115580301Y-73675094D01*
X115447905Y-73542698D01*
X115447900Y-73542694D01*
X115296437Y-73432651D01*
X115296436Y-73432650D01*
X115296434Y-73432649D01*
X115208174Y-73387678D01*
X115129609Y-73347646D01*
X115129606Y-73347645D01*
X114951543Y-73289790D01*
X114829285Y-73270426D01*
X114766616Y-73260500D01*
X114579384Y-73260500D01*
X114517742Y-73270263D01*
X114394456Y-73289790D01*
X114216393Y-73347645D01*
X114216390Y-73347646D01*
X114049562Y-73432651D01*
X113898099Y-73542694D01*
X113898094Y-73542698D01*
X113765698Y-73675094D01*
X113765694Y-73675099D01*
X113655651Y-73826562D01*
X113570646Y-73993390D01*
X113570645Y-73993393D01*
X113520931Y-74146401D01*
X113481494Y-74204076D01*
X113417135Y-74231275D01*
X113348289Y-74219361D01*
X113296813Y-74172116D01*
X113285069Y-74146401D01*
X113235354Y-73993393D01*
X113235353Y-73993390D01*
X113199572Y-73923167D01*
X113150351Y-73826566D01*
X113109317Y-73770087D01*
X113040305Y-73675099D01*
X113040301Y-73675094D01*
X112907905Y-73542698D01*
X112907900Y-73542694D01*
X112756437Y-73432651D01*
X112756436Y-73432650D01*
X112756434Y-73432649D01*
X112668174Y-73387678D01*
X112589609Y-73347646D01*
X112589606Y-73347645D01*
X112411543Y-73289790D01*
X112289285Y-73270426D01*
X112226616Y-73260500D01*
X112039384Y-73260500D01*
X111977742Y-73270263D01*
X111854456Y-73289790D01*
X111676393Y-73347645D01*
X111676390Y-73347646D01*
X111509562Y-73432651D01*
X111358099Y-73542694D01*
X111358094Y-73542698D01*
X111225698Y-73675094D01*
X111225694Y-73675099D01*
X111115651Y-73826562D01*
X111030646Y-73993390D01*
X111030645Y-73993393D01*
X110980931Y-74146401D01*
X110941494Y-74204076D01*
X110877135Y-74231275D01*
X110808289Y-74219361D01*
X110756813Y-74172116D01*
X110745069Y-74146401D01*
X110695354Y-73993393D01*
X110695353Y-73993390D01*
X110659572Y-73923167D01*
X110610351Y-73826566D01*
X110569317Y-73770087D01*
X110500305Y-73675099D01*
X110500301Y-73675094D01*
X110367905Y-73542698D01*
X110367900Y-73542694D01*
X110216437Y-73432651D01*
X110216436Y-73432650D01*
X110216434Y-73432649D01*
X110128174Y-73387678D01*
X110049609Y-73347646D01*
X110049606Y-73347645D01*
X109871543Y-73289790D01*
X109749285Y-73270426D01*
X109686616Y-73260500D01*
X109499384Y-73260500D01*
X109437742Y-73270263D01*
X109314456Y-73289790D01*
X109136393Y-73347645D01*
X109136390Y-73347646D01*
X108969562Y-73432650D01*
X108947384Y-73448764D01*
X108881577Y-73472243D01*
X108813523Y-73456416D01*
X108764829Y-73406310D01*
X108750500Y-73348445D01*
X108750500Y-58950098D01*
X108770185Y-58883059D01*
X108786819Y-58862417D01*
X108809630Y-58839606D01*
X108880520Y-58768716D01*
X108959577Y-58631784D01*
X109000500Y-58479057D01*
X109000500Y-58320943D01*
X108959577Y-58168216D01*
X108959573Y-58168209D01*
X108880524Y-58031290D01*
X108880518Y-58031282D01*
X108768717Y-57919481D01*
X108768709Y-57919475D01*
X108631790Y-57840426D01*
X108631786Y-57840424D01*
X108631784Y-57840423D01*
X108479057Y-57799500D01*
X108320943Y-57799500D01*
X108168216Y-57840423D01*
X108168209Y-57840426D01*
X108031290Y-57919475D01*
X108031282Y-57919481D01*
X107919481Y-58031282D01*
X107919475Y-58031290D01*
X107840426Y-58168209D01*
X107840423Y-58168216D01*
X107799500Y-58320943D01*
X107799500Y-58479056D01*
X107840423Y-58631783D01*
X107840426Y-58631790D01*
X107919473Y-58768706D01*
X107919477Y-58768712D01*
X107919480Y-58768716D01*
X107919481Y-58768717D01*
X107923872Y-58774438D01*
X107949069Y-58839606D01*
X107949500Y-58849930D01*
X107949500Y-73387678D01*
X107929815Y-73454717D01*
X107877011Y-73500472D01*
X107807853Y-73510416D01*
X107752615Y-73487997D01*
X107676433Y-73432648D01*
X107509609Y-73347646D01*
X107509606Y-73347645D01*
X107331543Y-73289790D01*
X107209285Y-73270426D01*
X107146616Y-73260500D01*
X106959384Y-73260500D01*
X106897742Y-73270263D01*
X106774456Y-73289790D01*
X106596393Y-73347645D01*
X106596390Y-73347646D01*
X106429562Y-73432651D01*
X106300385Y-73526503D01*
X106234579Y-73549983D01*
X106166525Y-73534157D01*
X106117830Y-73484051D01*
X106103500Y-73426185D01*
X106103500Y-55267275D01*
X106103500Y-55267273D01*
X106076207Y-55165413D01*
X106076207Y-55165412D01*
X106023480Y-55074087D01*
X101224591Y-50275198D01*
X101216879Y-50261075D01*
X101205181Y-50250027D01*
X101200479Y-50231040D01*
X101191106Y-50213875D01*
X101192253Y-50197824D01*
X101188386Y-50182206D01*
X101194694Y-50163693D01*
X101196090Y-50144183D01*
X101205733Y-50131300D01*
X101210924Y-50116071D01*
X101226240Y-50103907D01*
X101237962Y-50088250D01*
X101253037Y-50082626D01*
X101265639Y-50072620D01*
X101285099Y-50070668D01*
X101303426Y-50063833D01*
X101319923Y-50067176D01*
X101335160Y-50065648D01*
X101368567Y-50077033D01*
X101516380Y-50152348D01*
X101516393Y-50152354D01*
X101605424Y-50181281D01*
X101694458Y-50210210D01*
X101879384Y-50239500D01*
X101879385Y-50239500D01*
X102066615Y-50239500D01*
X102066616Y-50239500D01*
X102251542Y-50210210D01*
X102417233Y-50156373D01*
X102487073Y-50154379D01*
X102543231Y-50186624D01*
X123363181Y-71006574D01*
X123396666Y-71067897D01*
X123399500Y-71094255D01*
X123399500Y-73347273D01*
X123399500Y-73452727D01*
X123419268Y-73526503D01*
X123426794Y-73554591D01*
X123455817Y-73604860D01*
X123455820Y-73604865D01*
X123479520Y-73645913D01*
X123501913Y-73668306D01*
X127063181Y-77229574D01*
X127096666Y-77290897D01*
X127099500Y-77317255D01*
X127099500Y-79083745D01*
X127079815Y-79150784D01*
X127027011Y-79196539D01*
X126957853Y-79206483D01*
X126894297Y-79177458D01*
X126887819Y-79171426D01*
X125986819Y-78270426D01*
X125953334Y-78209103D01*
X125950500Y-78182745D01*
X125950500Y-78120945D01*
X125950500Y-78120943D01*
X125909577Y-77968216D01*
X125854242Y-77872372D01*
X125830524Y-77831290D01*
X125830518Y-77831282D01*
X125718717Y-77719481D01*
X125718709Y-77719475D01*
X125581790Y-77640426D01*
X125581786Y-77640424D01*
X125581784Y-77640423D01*
X125429057Y-77599500D01*
X125270943Y-77599500D01*
X125118216Y-77640423D01*
X125118209Y-77640426D01*
X124981290Y-77719475D01*
X124981282Y-77719481D01*
X124869481Y-77831282D01*
X124869475Y-77831290D01*
X124790426Y-77968209D01*
X124790423Y-77968216D01*
X124749500Y-78120943D01*
X124749500Y-78279057D01*
X124779016Y-78389210D01*
X124790423Y-78431783D01*
X124790426Y-78431790D01*
X124869475Y-78568709D01*
X124869479Y-78568714D01*
X124869480Y-78568716D01*
X124981284Y-78680520D01*
X124981286Y-78680521D01*
X124981290Y-78680524D01*
X125118209Y-78759573D01*
X125118216Y-78759577D01*
X125270943Y-78800500D01*
X125332745Y-78800500D01*
X125399784Y-78820185D01*
X125420426Y-78836819D01*
X126188181Y-79604574D01*
X126221666Y-79665897D01*
X126224500Y-79692255D01*
X126224500Y-87708574D01*
X126204815Y-87775613D01*
X126152011Y-87821368D01*
X126082853Y-87831312D01*
X126019297Y-87802287D01*
X126000182Y-87781459D01*
X125921416Y-87673047D01*
X125921412Y-87673042D01*
X125786957Y-87538587D01*
X125786952Y-87538583D01*
X125633133Y-87426828D01*
X125633132Y-87426827D01*
X125633130Y-87426826D01*
X125463711Y-87340503D01*
X125282874Y-87281745D01*
X125282872Y-87281744D01*
X125282871Y-87281744D01*
X125131098Y-87257706D01*
X125095072Y-87252000D01*
X124904928Y-87252000D01*
X124904926Y-87252000D01*
X124868896Y-87257706D01*
X124799602Y-87248750D01*
X124746151Y-87203752D01*
X124725513Y-87137000D01*
X124725500Y-87135232D01*
X124725500Y-86412180D01*
X124745185Y-86345141D01*
X124775187Y-86312914D01*
X124882546Y-86232546D01*
X124968796Y-86117331D01*
X125019091Y-85982483D01*
X125025500Y-85922873D01*
X125025499Y-85277128D01*
X125019091Y-85217517D01*
X124968946Y-85083072D01*
X124968797Y-85082671D01*
X124968793Y-85082664D01*
X124882547Y-84967455D01*
X124882544Y-84967452D01*
X124767335Y-84881206D01*
X124767328Y-84881202D01*
X124632486Y-84830910D01*
X124632485Y-84830909D01*
X124632483Y-84830909D01*
X124572873Y-84824500D01*
X124572863Y-84824500D01*
X124077129Y-84824500D01*
X124077123Y-84824501D01*
X124017516Y-84830908D01*
X123882671Y-84881202D01*
X123882664Y-84881206D01*
X123767455Y-84967452D01*
X123767452Y-84967455D01*
X123681206Y-85082664D01*
X123681202Y-85082671D01*
X123630910Y-85217513D01*
X123630909Y-85217517D01*
X123624500Y-85277127D01*
X123624500Y-85277134D01*
X123624500Y-85277135D01*
X123624500Y-85922870D01*
X123624501Y-85922876D01*
X123630908Y-85982483D01*
X123681202Y-86117328D01*
X123681206Y-86117335D01*
X123748186Y-86206807D01*
X123767454Y-86232546D01*
X123874811Y-86312914D01*
X123916682Y-86368847D01*
X123924500Y-86412180D01*
X123924500Y-87837732D01*
X123924860Y-87839073D01*
X123924832Y-87840249D01*
X123925561Y-87845788D01*
X123924697Y-87845901D01*
X123923199Y-87908923D01*
X123915571Y-87927462D01*
X123880506Y-87996281D01*
X123880502Y-87996291D01*
X123821744Y-88177129D01*
X123792000Y-88364928D01*
X123792000Y-88555071D01*
X123818680Y-88723527D01*
X123821745Y-88742874D01*
X123880503Y-88923711D01*
X123927528Y-89016004D01*
X123966828Y-89093133D01*
X124078583Y-89246952D01*
X124078587Y-89246957D01*
X124212449Y-89380819D01*
X124245934Y-89442142D01*
X124240950Y-89511834D01*
X124199078Y-89567767D01*
X124133614Y-89592184D01*
X124124768Y-89592500D01*
X124044655Y-89592500D01*
X123985127Y-89598901D01*
X123985120Y-89598903D01*
X123850413Y-89649145D01*
X123850406Y-89649149D01*
X123735312Y-89735309D01*
X123735309Y-89735312D01*
X123649149Y-89850406D01*
X123649145Y-89850413D01*
X123598903Y-89985120D01*
X123598901Y-89985127D01*
X123592500Y-90044655D01*
X123592500Y-90750000D01*
X124445743Y-90750000D01*
X124436229Y-90766479D01*
X124395000Y-90920350D01*
X124395000Y-91079650D01*
X124436229Y-91233521D01*
X124445743Y-91250000D01*
X123592500Y-91250000D01*
X123592500Y-91955344D01*
X123598901Y-92014872D01*
X123598903Y-92014879D01*
X123649145Y-92149586D01*
X123649149Y-92149593D01*
X123735309Y-92264687D01*
X123735312Y-92264690D01*
X123850406Y-92350850D01*
X123850413Y-92350854D01*
X123985120Y-92401096D01*
X123985127Y-92401098D01*
X124044655Y-92407499D01*
X124044672Y-92407500D01*
X124750000Y-92407500D01*
X124750000Y-91554256D01*
X124766479Y-91563771D01*
X124920350Y-91605000D01*
X125079650Y-91605000D01*
X125233521Y-91563771D01*
X125250000Y-91554256D01*
X125250000Y-92407500D01*
X125955328Y-92407500D01*
X125955344Y-92407499D01*
X126014872Y-92401098D01*
X126014883Y-92401095D01*
X126057166Y-92385325D01*
X126126857Y-92380340D01*
X126188181Y-92413824D01*
X126221666Y-92475147D01*
X126224500Y-92501506D01*
X126224500Y-93237819D01*
X126204815Y-93304858D01*
X126174812Y-93337085D01*
X126067452Y-93417455D01*
X125981206Y-93532664D01*
X125981202Y-93532671D01*
X125930910Y-93667513D01*
X125930909Y-93667517D01*
X125924500Y-93727127D01*
X125924500Y-93727134D01*
X125924500Y-93727135D01*
X125924500Y-94372870D01*
X125924501Y-94372876D01*
X125930908Y-94432483D01*
X125981202Y-94567328D01*
X125981206Y-94567335D01*
X126067452Y-94682544D01*
X126067455Y-94682547D01*
X126182664Y-94768793D01*
X126182671Y-94768797D01*
X126224497Y-94784397D01*
X126317517Y-94819091D01*
X126377127Y-94825500D01*
X126872872Y-94825499D01*
X126932483Y-94819091D01*
X127067331Y-94768796D01*
X127182546Y-94682546D01*
X127268796Y-94567331D01*
X127319091Y-94432483D01*
X127325500Y-94372873D01*
X127325499Y-93727128D01*
X127319091Y-93667517D01*
X127296225Y-93606211D01*
X127268797Y-93532671D01*
X127268793Y-93532664D01*
X127182547Y-93417455D01*
X127075188Y-93337085D01*
X127033318Y-93281151D01*
X127025500Y-93237819D01*
X127025500Y-84741255D01*
X127045185Y-84674216D01*
X127097989Y-84628461D01*
X127167147Y-84618517D01*
X127230703Y-84647542D01*
X127237181Y-84653574D01*
X134584325Y-92000718D01*
X134617810Y-92062041D01*
X134614575Y-92126716D01*
X134567829Y-92270587D01*
X134539500Y-92449448D01*
X134539500Y-92630551D01*
X134567829Y-92809410D01*
X134623787Y-92981636D01*
X134623788Y-92981639D01*
X134706006Y-93142997D01*
X134812441Y-93289494D01*
X134812445Y-93289499D01*
X134940500Y-93417554D01*
X134940505Y-93417558D01*
X135068287Y-93510396D01*
X135087006Y-93523996D01*
X135192484Y-93577740D01*
X135248360Y-93606211D01*
X135248363Y-93606212D01*
X135334476Y-93634191D01*
X135420591Y-93662171D01*
X135503429Y-93675291D01*
X135599449Y-93690500D01*
X135599454Y-93690500D01*
X135780551Y-93690500D01*
X135867259Y-93676765D01*
X135959409Y-93662171D01*
X136131639Y-93606211D01*
X136292994Y-93523996D01*
X136439501Y-93417553D01*
X136567553Y-93289501D01*
X136673996Y-93142994D01*
X136756211Y-92981639D01*
X136812171Y-92809409D01*
X136826765Y-92717259D01*
X136840500Y-92630551D01*
X136840500Y-92449448D01*
X136824019Y-92345397D01*
X136812171Y-92270591D01*
X136771012Y-92143915D01*
X136756212Y-92098363D01*
X136756211Y-92098360D01*
X136727740Y-92042484D01*
X136673996Y-91937006D01*
X136660396Y-91918287D01*
X136567558Y-91790505D01*
X136567554Y-91790500D01*
X136439499Y-91662445D01*
X136439494Y-91662441D01*
X136292997Y-91556006D01*
X136292996Y-91556005D01*
X136292994Y-91556004D01*
X136241300Y-91529664D01*
X136131639Y-91473788D01*
X136131636Y-91473787D01*
X135959410Y-91417829D01*
X135799321Y-91392473D01*
X135736186Y-91362544D01*
X135699255Y-91303232D01*
X135700253Y-91233370D01*
X135738863Y-91175137D01*
X135799321Y-91147527D01*
X135869425Y-91136422D01*
X135959409Y-91122171D01*
X136131639Y-91066211D01*
X136292994Y-90983996D01*
X136439501Y-90877553D01*
X136567553Y-90749501D01*
X136673996Y-90602994D01*
X136756211Y-90441639D01*
X136812171Y-90269409D01*
X136826765Y-90177259D01*
X136840500Y-90090551D01*
X136840500Y-89909448D01*
X136819254Y-89775312D01*
X136812171Y-89730591D01*
X136773904Y-89612815D01*
X136756212Y-89558363D01*
X136756211Y-89558360D01*
X136717375Y-89482142D01*
X136673996Y-89397006D01*
X136594043Y-89286959D01*
X136567558Y-89250505D01*
X136567554Y-89250500D01*
X136439499Y-89122445D01*
X136439494Y-89122441D01*
X136292995Y-89016004D01*
X136161314Y-88948908D01*
X136110519Y-88900934D01*
X136093724Y-88833113D01*
X136116262Y-88766978D01*
X136170977Y-88723527D01*
X136179295Y-88720492D01*
X136208217Y-88711095D01*
X136397554Y-88614622D01*
X136451716Y-88575270D01*
X136451717Y-88575270D01*
X135819408Y-87942962D01*
X135882993Y-87925925D01*
X135997007Y-87860099D01*
X136090099Y-87767007D01*
X136155925Y-87652993D01*
X136172962Y-87589408D01*
X136805270Y-88221717D01*
X136805270Y-88221716D01*
X136844622Y-88167554D01*
X136941095Y-87978217D01*
X137006757Y-87776130D01*
X137006757Y-87776127D01*
X137040000Y-87566246D01*
X137040000Y-87353753D01*
X141960000Y-87353753D01*
X141960000Y-87566246D01*
X141993242Y-87776127D01*
X141993242Y-87776130D01*
X142058904Y-87978217D01*
X142155375Y-88167550D01*
X142194728Y-88221716D01*
X142827037Y-87589408D01*
X142844075Y-87652993D01*
X142909901Y-87767007D01*
X143002993Y-87860099D01*
X143117007Y-87925925D01*
X143180590Y-87942962D01*
X142548282Y-88575269D01*
X142548282Y-88575270D01*
X142602449Y-88614624D01*
X142791780Y-88711094D01*
X142820705Y-88720492D01*
X142878381Y-88759929D01*
X142905580Y-88824287D01*
X142893667Y-88893134D01*
X142846424Y-88944610D01*
X142838685Y-88948908D01*
X142707004Y-89016004D01*
X142560505Y-89122441D01*
X142560500Y-89122445D01*
X142432445Y-89250500D01*
X142432441Y-89250505D01*
X142326006Y-89397002D01*
X142243788Y-89558360D01*
X142243787Y-89558363D01*
X142187829Y-89730589D01*
X142159500Y-89909448D01*
X142159500Y-90090551D01*
X142187829Y-90269410D01*
X142243787Y-90441636D01*
X142243788Y-90441639D01*
X142326006Y-90602997D01*
X142432441Y-90749494D01*
X142432445Y-90749499D01*
X142560500Y-90877554D01*
X142560505Y-90877558D01*
X142646293Y-90939886D01*
X142707006Y-90983996D01*
X142812484Y-91037740D01*
X142868360Y-91066211D01*
X142868363Y-91066212D01*
X142954476Y-91094191D01*
X143040591Y-91122171D01*
X143113639Y-91133740D01*
X143200678Y-91147527D01*
X143263813Y-91177456D01*
X143300744Y-91236768D01*
X143299746Y-91306631D01*
X143261136Y-91364863D01*
X143200678Y-91392473D01*
X143040589Y-91417829D01*
X142868363Y-91473787D01*
X142868360Y-91473788D01*
X142707002Y-91556006D01*
X142560505Y-91662441D01*
X142560500Y-91662445D01*
X142432445Y-91790500D01*
X142432441Y-91790505D01*
X142326006Y-91937002D01*
X142243788Y-92098360D01*
X142243787Y-92098363D01*
X142187829Y-92270589D01*
X142159500Y-92449448D01*
X142159500Y-92630551D01*
X142187829Y-92809410D01*
X142243787Y-92981636D01*
X142243788Y-92981639D01*
X142326006Y-93142997D01*
X142432441Y-93289494D01*
X142432445Y-93289499D01*
X142560500Y-93417554D01*
X142560505Y-93417558D01*
X142688287Y-93510396D01*
X142707006Y-93523996D01*
X142812484Y-93577740D01*
X142868360Y-93606211D01*
X142868363Y-93606212D01*
X142954476Y-93634191D01*
X143040591Y-93662171D01*
X143123429Y-93675291D01*
X143219449Y-93690500D01*
X143219454Y-93690500D01*
X143400551Y-93690500D01*
X143487259Y-93676765D01*
X143579409Y-93662171D01*
X143751639Y-93606211D01*
X143912994Y-93523996D01*
X144059501Y-93417553D01*
X144187553Y-93289501D01*
X144293996Y-93142994D01*
X144376211Y-92981639D01*
X144432171Y-92809409D01*
X144446765Y-92717259D01*
X144460500Y-92630551D01*
X144460500Y-92449448D01*
X144444019Y-92345397D01*
X144432171Y-92270591D01*
X144391012Y-92143915D01*
X144376212Y-92098363D01*
X144376211Y-92098360D01*
X144347740Y-92042484D01*
X144293996Y-91937006D01*
X144280396Y-91918287D01*
X144187558Y-91790505D01*
X144187554Y-91790500D01*
X144059499Y-91662445D01*
X144059494Y-91662441D01*
X143912997Y-91556006D01*
X143912996Y-91556005D01*
X143912994Y-91556004D01*
X143861300Y-91529664D01*
X143751639Y-91473788D01*
X143751636Y-91473787D01*
X143579410Y-91417829D01*
X143419321Y-91392473D01*
X143356186Y-91362544D01*
X143319255Y-91303232D01*
X143320253Y-91233370D01*
X143358863Y-91175137D01*
X143419321Y-91147527D01*
X143489425Y-91136422D01*
X143579409Y-91122171D01*
X143751639Y-91066211D01*
X143912994Y-90983996D01*
X144059501Y-90877553D01*
X144187553Y-90749501D01*
X144293996Y-90602994D01*
X144376211Y-90441639D01*
X144432171Y-90269409D01*
X144446765Y-90177259D01*
X144460500Y-90090551D01*
X144460500Y-89909448D01*
X144439254Y-89775312D01*
X144432171Y-89730591D01*
X144393904Y-89612815D01*
X144376212Y-89558363D01*
X144376211Y-89558360D01*
X144337375Y-89482142D01*
X144293996Y-89397006D01*
X144214043Y-89286959D01*
X144187558Y-89250505D01*
X144187554Y-89250500D01*
X144059499Y-89122445D01*
X144059494Y-89122441D01*
X143912995Y-89016004D01*
X143781314Y-88948908D01*
X143730519Y-88900934D01*
X143713724Y-88833113D01*
X143736262Y-88766978D01*
X143790977Y-88723527D01*
X143799295Y-88720492D01*
X143828217Y-88711095D01*
X144017554Y-88614622D01*
X144071716Y-88575270D01*
X144071717Y-88575270D01*
X143439408Y-87942962D01*
X143502993Y-87925925D01*
X143617007Y-87860099D01*
X143710099Y-87767007D01*
X143775925Y-87652993D01*
X143792962Y-87589409D01*
X144425270Y-88221717D01*
X144425270Y-88221716D01*
X144464622Y-88167554D01*
X144561095Y-87978217D01*
X144626757Y-87776130D01*
X144626757Y-87776127D01*
X144660000Y-87566246D01*
X144660000Y-87353753D01*
X144626757Y-87143872D01*
X144626757Y-87143869D01*
X144561095Y-86941782D01*
X144464624Y-86752449D01*
X144425270Y-86698282D01*
X144425269Y-86698282D01*
X143792962Y-87330590D01*
X143775925Y-87267007D01*
X143710099Y-87152993D01*
X143617007Y-87059901D01*
X143502993Y-86994075D01*
X143439409Y-86977037D01*
X144071716Y-86344728D01*
X144017550Y-86305375D01*
X143828217Y-86208904D01*
X143626129Y-86143242D01*
X143416246Y-86110000D01*
X143203754Y-86110000D01*
X142993872Y-86143242D01*
X142993869Y-86143242D01*
X142791782Y-86208904D01*
X142602439Y-86305380D01*
X142548282Y-86344727D01*
X142548282Y-86344728D01*
X143180591Y-86977037D01*
X143117007Y-86994075D01*
X143002993Y-87059901D01*
X142909901Y-87152993D01*
X142844075Y-87267007D01*
X142827037Y-87330591D01*
X142194728Y-86698282D01*
X142194727Y-86698282D01*
X142155380Y-86752439D01*
X142058904Y-86941782D01*
X141993242Y-87143869D01*
X141993242Y-87143872D01*
X141960000Y-87353753D01*
X137040000Y-87353753D01*
X137006757Y-87143872D01*
X137006757Y-87143869D01*
X136941095Y-86941782D01*
X136844624Y-86752449D01*
X136805270Y-86698282D01*
X136805269Y-86698282D01*
X136172962Y-87330590D01*
X136155925Y-87267007D01*
X136090099Y-87152993D01*
X135997007Y-87059901D01*
X135882993Y-86994075D01*
X135819409Y-86977037D01*
X136451716Y-86344728D01*
X136397550Y-86305375D01*
X136208217Y-86208904D01*
X136006129Y-86143242D01*
X135796246Y-86110000D01*
X135583754Y-86110000D01*
X135373872Y-86143242D01*
X135373869Y-86143242D01*
X135171782Y-86208904D01*
X134982439Y-86305380D01*
X134928282Y-86344727D01*
X134928282Y-86344728D01*
X135560591Y-86977037D01*
X135497007Y-86994075D01*
X135382993Y-87059901D01*
X135289901Y-87152993D01*
X135224075Y-87267007D01*
X135207037Y-87330591D01*
X134574728Y-86698282D01*
X134574727Y-86698282D01*
X134535380Y-86752439D01*
X134438904Y-86941782D01*
X134373242Y-87143869D01*
X134373242Y-87143872D01*
X134340000Y-87353753D01*
X134340000Y-87566246D01*
X134373242Y-87776127D01*
X134373242Y-87776130D01*
X134438904Y-87978217D01*
X134535375Y-88167550D01*
X134574728Y-88221716D01*
X135207037Y-87589408D01*
X135224075Y-87652993D01*
X135289901Y-87767007D01*
X135382993Y-87860099D01*
X135497007Y-87925925D01*
X135560590Y-87942962D01*
X134928282Y-88575269D01*
X134928282Y-88575270D01*
X134982449Y-88614624D01*
X135171780Y-88711094D01*
X135200705Y-88720492D01*
X135258381Y-88759929D01*
X135285580Y-88824287D01*
X135273667Y-88893134D01*
X135226424Y-88944610D01*
X135218685Y-88948908D01*
X135087004Y-89016004D01*
X134940505Y-89122441D01*
X134940500Y-89122445D01*
X134812445Y-89250500D01*
X134812441Y-89250505D01*
X134706006Y-89397002D01*
X134623788Y-89558360D01*
X134623787Y-89558363D01*
X134567829Y-89730589D01*
X134539500Y-89909448D01*
X134539500Y-90090551D01*
X134567829Y-90269410D01*
X134623787Y-90441636D01*
X134623788Y-90441639D01*
X134706006Y-90602997D01*
X134807097Y-90742139D01*
X134830577Y-90807946D01*
X134814751Y-90875999D01*
X134810242Y-90880380D01*
X134866129Y-90859536D01*
X134934402Y-90874388D01*
X134947860Y-90882902D01*
X135026293Y-90939886D01*
X135087006Y-90983996D01*
X135192484Y-91037740D01*
X135248360Y-91066211D01*
X135248363Y-91066212D01*
X135334476Y-91094191D01*
X135420591Y-91122171D01*
X135493639Y-91133740D01*
X135580678Y-91147527D01*
X135643813Y-91177456D01*
X135680744Y-91236768D01*
X135679746Y-91306631D01*
X135641136Y-91364863D01*
X135580678Y-91392473D01*
X135420587Y-91417829D01*
X135276716Y-91464575D01*
X135206875Y-91466570D01*
X135150718Y-91434325D01*
X134787294Y-91070901D01*
X134753809Y-91009578D01*
X134758793Y-90939886D01*
X134784907Y-90905002D01*
X134764645Y-90924694D01*
X134696167Y-90938569D01*
X134631058Y-90913220D01*
X134619098Y-90902705D01*
X127936819Y-84220426D01*
X127922115Y-84193498D01*
X127905523Y-84167680D01*
X127904631Y-84161479D01*
X127903334Y-84159103D01*
X127900500Y-84132745D01*
X127900500Y-84098466D01*
X127920185Y-84031427D01*
X127972989Y-83985672D01*
X127981156Y-83982288D01*
X128017331Y-83968796D01*
X128132546Y-83882546D01*
X128218796Y-83767331D01*
X128269091Y-83632483D01*
X128275500Y-83572873D01*
X128275499Y-83077128D01*
X128269091Y-83017517D01*
X128248442Y-82962155D01*
X128218797Y-82882671D01*
X128218793Y-82882664D01*
X128132547Y-82767455D01*
X128132544Y-82767452D01*
X128017335Y-82681206D01*
X128017328Y-82681202D01*
X127882486Y-82630910D01*
X127882485Y-82630909D01*
X127882483Y-82630909D01*
X127822873Y-82624500D01*
X127822863Y-82624500D01*
X127177129Y-82624500D01*
X127177120Y-82624501D01*
X127162752Y-82626046D01*
X127147346Y-82623266D01*
X127131853Y-82625494D01*
X127113667Y-82617189D01*
X127093993Y-82613639D01*
X127082536Y-82602971D01*
X127068297Y-82596469D01*
X127057487Y-82579649D01*
X127042857Y-82566027D01*
X127038480Y-82550073D01*
X127030523Y-82537691D01*
X127025500Y-82502756D01*
X127025500Y-82497243D01*
X127045185Y-82430204D01*
X127097989Y-82384449D01*
X127162755Y-82373954D01*
X127177127Y-82375500D01*
X127822872Y-82375499D01*
X127882483Y-82369091D01*
X128017331Y-82318796D01*
X128132546Y-82232546D01*
X128161314Y-82194117D01*
X154440000Y-82194117D01*
X154440000Y-82390882D01*
X154470778Y-82585205D01*
X154531581Y-82772335D01*
X154620905Y-82947645D01*
X154646319Y-82982625D01*
X154646320Y-82982625D01*
X155290000Y-82338945D01*
X155290000Y-82345161D01*
X155317259Y-82446894D01*
X155369920Y-82538106D01*
X155444394Y-82612580D01*
X155535606Y-82665241D01*
X155637339Y-82692500D01*
X155643553Y-82692500D01*
X154999873Y-83336177D01*
X154999873Y-83336178D01*
X155034858Y-83361596D01*
X155210164Y-83450918D01*
X155397294Y-83511721D01*
X155591618Y-83542500D01*
X155788382Y-83542500D01*
X155982705Y-83511721D01*
X156169835Y-83450918D01*
X156345143Y-83361595D01*
X156380125Y-83336178D01*
X156380126Y-83336178D01*
X155736448Y-82692500D01*
X155742661Y-82692500D01*
X155844394Y-82665241D01*
X155935606Y-82612580D01*
X156010080Y-82538106D01*
X156062741Y-82446894D01*
X156090000Y-82345161D01*
X156090000Y-82338948D01*
X156733678Y-82982626D01*
X156733678Y-82982625D01*
X156759097Y-82947641D01*
X156849515Y-82770185D01*
X156897489Y-82719388D01*
X156965310Y-82702593D01*
X157031445Y-82725130D01*
X157070485Y-82770184D01*
X157160905Y-82947645D01*
X157186319Y-82982625D01*
X157186320Y-82982625D01*
X157830000Y-82338945D01*
X157830000Y-82345161D01*
X157857259Y-82446894D01*
X157909920Y-82538106D01*
X157984394Y-82612580D01*
X158075606Y-82665241D01*
X158177339Y-82692500D01*
X158183553Y-82692500D01*
X157539873Y-83336177D01*
X157539873Y-83336178D01*
X157574858Y-83361596D01*
X157750164Y-83450918D01*
X157937294Y-83511721D01*
X158131618Y-83542500D01*
X158328382Y-83542500D01*
X158522705Y-83511721D01*
X158709835Y-83450918D01*
X158885143Y-83361595D01*
X158920125Y-83336178D01*
X158920126Y-83336178D01*
X158276448Y-82692500D01*
X158282661Y-82692500D01*
X158384394Y-82665241D01*
X158475606Y-82612580D01*
X158550080Y-82538106D01*
X158602741Y-82446894D01*
X158630000Y-82345161D01*
X158630000Y-82338948D01*
X159273678Y-82982626D01*
X159273678Y-82982625D01*
X159299095Y-82947643D01*
X159388418Y-82772335D01*
X159449221Y-82585205D01*
X159477094Y-82409228D01*
X159507023Y-82346093D01*
X159566335Y-82309162D01*
X159636197Y-82310160D01*
X159694430Y-82348770D01*
X159721184Y-82404435D01*
X159759868Y-82598912D01*
X159759870Y-82598920D01*
X159839058Y-82790096D01*
X159954024Y-82962157D01*
X160100342Y-83108475D01*
X160100345Y-83108477D01*
X160272402Y-83223441D01*
X160463580Y-83302630D01*
X160651875Y-83340084D01*
X160666530Y-83342999D01*
X160666534Y-83343000D01*
X160666535Y-83343000D01*
X160873466Y-83343000D01*
X160873467Y-83342999D01*
X161076420Y-83302630D01*
X161267598Y-83223441D01*
X161439655Y-83108477D01*
X161585977Y-82962155D01*
X161700941Y-82790098D01*
X161780130Y-82598920D01*
X161820500Y-82395965D01*
X161820500Y-82189035D01*
X161780130Y-81986080D01*
X161700941Y-81794902D01*
X161585977Y-81622845D01*
X161585975Y-81622842D01*
X161460764Y-81497631D01*
X162259500Y-81497631D01*
X162259500Y-83087356D01*
X162259502Y-83087382D01*
X162262413Y-83112487D01*
X162262415Y-83112491D01*
X162307793Y-83215264D01*
X162307794Y-83215265D01*
X162387235Y-83294706D01*
X162490009Y-83340085D01*
X162515135Y-83343000D01*
X164104864Y-83342999D01*
X164104879Y-83342997D01*
X164104882Y-83342997D01*
X164129987Y-83340086D01*
X164129988Y-83340085D01*
X164129991Y-83340085D01*
X164232765Y-83294706D01*
X164312206Y-83215265D01*
X164357585Y-83112491D01*
X164360500Y-83087365D01*
X164360499Y-81497636D01*
X164360457Y-81497273D01*
X164357586Y-81472512D01*
X164357585Y-81472510D01*
X164357585Y-81472509D01*
X164312206Y-81369735D01*
X164232765Y-81290294D01*
X164180530Y-81267230D01*
X164129992Y-81244915D01*
X164104865Y-81242000D01*
X162515143Y-81242000D01*
X162515117Y-81242002D01*
X162490012Y-81244913D01*
X162490008Y-81244915D01*
X162387235Y-81290293D01*
X162307794Y-81369734D01*
X162262415Y-81472506D01*
X162262415Y-81472508D01*
X162259500Y-81497631D01*
X161460764Y-81497631D01*
X161439657Y-81476524D01*
X161279834Y-81369735D01*
X161267598Y-81361559D01*
X161214128Y-81339411D01*
X161076420Y-81282370D01*
X161076412Y-81282368D01*
X161000309Y-81267230D01*
X160938398Y-81234845D01*
X160903824Y-81174129D01*
X160900500Y-81145613D01*
X160900500Y-79098466D01*
X160920185Y-79031427D01*
X160972989Y-78985672D01*
X160981156Y-78982288D01*
X161017331Y-78968796D01*
X161132546Y-78882546D01*
X161218796Y-78767331D01*
X161269091Y-78632483D01*
X161275500Y-78572873D01*
X161275499Y-78077128D01*
X161269091Y-78017517D01*
X161250700Y-77968209D01*
X161218797Y-77882671D01*
X161218793Y-77882664D01*
X161132547Y-77767455D01*
X161132544Y-77767452D01*
X161017335Y-77681206D01*
X161017328Y-77681202D01*
X160882486Y-77630910D01*
X160882485Y-77630909D01*
X160882483Y-77630909D01*
X160822873Y-77624500D01*
X160822863Y-77624500D01*
X160177129Y-77624500D01*
X160177123Y-77624501D01*
X160117516Y-77630908D01*
X159982671Y-77681202D01*
X159982664Y-77681206D01*
X159867455Y-77767452D01*
X159867452Y-77767455D01*
X159781206Y-77882664D01*
X159781202Y-77882671D01*
X159730910Y-78017513D01*
X159730909Y-78017517D01*
X159724500Y-78077127D01*
X159724500Y-78077134D01*
X159724500Y-78077135D01*
X159724500Y-78572870D01*
X159724501Y-78572876D01*
X159730908Y-78632483D01*
X159781202Y-78767328D01*
X159781206Y-78767335D01*
X159867452Y-78882544D01*
X159867455Y-78882547D01*
X159982664Y-78968793D01*
X159982669Y-78968796D01*
X160018832Y-78982284D01*
X160074766Y-79024154D01*
X160099184Y-79089618D01*
X160099500Y-79098466D01*
X160099500Y-81426005D01*
X160079815Y-81493044D01*
X160063181Y-81513686D01*
X159954025Y-81622841D01*
X159954024Y-81622842D01*
X159839058Y-81794903D01*
X159759870Y-81986079D01*
X159759868Y-81986087D01*
X159721184Y-82180564D01*
X159688799Y-82242475D01*
X159628083Y-82277049D01*
X159558314Y-82273310D01*
X159501642Y-82232443D01*
X159477094Y-82175771D01*
X159449221Y-81999794D01*
X159388418Y-81812664D01*
X159299096Y-81637358D01*
X159273678Y-81602373D01*
X159273677Y-81602373D01*
X158630000Y-82246051D01*
X158630000Y-82239839D01*
X158602741Y-82138106D01*
X158550080Y-82046894D01*
X158475606Y-81972420D01*
X158384394Y-81919759D01*
X158282661Y-81892500D01*
X158276447Y-81892500D01*
X158920125Y-81248820D01*
X158920125Y-81248819D01*
X158885145Y-81223405D01*
X158709835Y-81134081D01*
X158522705Y-81073278D01*
X158328382Y-81042500D01*
X158131618Y-81042500D01*
X157937294Y-81073278D01*
X157750161Y-81134082D01*
X157574863Y-81223399D01*
X157574859Y-81223402D01*
X157539873Y-81248820D01*
X157539872Y-81248820D01*
X158183554Y-81892500D01*
X158177339Y-81892500D01*
X158075606Y-81919759D01*
X157984394Y-81972420D01*
X157909920Y-82046894D01*
X157857259Y-82138106D01*
X157830000Y-82239839D01*
X157830000Y-82246052D01*
X157186320Y-81602372D01*
X157186320Y-81602373D01*
X157160902Y-81637359D01*
X157070484Y-81814815D01*
X157022509Y-81865611D01*
X156954688Y-81882406D01*
X156888553Y-81859869D01*
X156849514Y-81814814D01*
X156759097Y-81637360D01*
X156733678Y-81602373D01*
X156733677Y-81602373D01*
X156090000Y-82246051D01*
X156090000Y-82239839D01*
X156062741Y-82138106D01*
X156010080Y-82046894D01*
X155935606Y-81972420D01*
X155844394Y-81919759D01*
X155742661Y-81892500D01*
X155736447Y-81892500D01*
X156380125Y-81248820D01*
X156380125Y-81248819D01*
X156345145Y-81223405D01*
X156169835Y-81134081D01*
X155982705Y-81073278D01*
X155788382Y-81042500D01*
X155591618Y-81042500D01*
X155397294Y-81073278D01*
X155210161Y-81134082D01*
X155034863Y-81223399D01*
X155034859Y-81223402D01*
X154999873Y-81248820D01*
X154999872Y-81248820D01*
X155643554Y-81892500D01*
X155637339Y-81892500D01*
X155535606Y-81919759D01*
X155444394Y-81972420D01*
X155369920Y-82046894D01*
X155317259Y-82138106D01*
X155290000Y-82239839D01*
X155290000Y-82246052D01*
X154646320Y-81602372D01*
X154646320Y-81602373D01*
X154620902Y-81637359D01*
X154620899Y-81637363D01*
X154531582Y-81812661D01*
X154470778Y-81999794D01*
X154440000Y-82194117D01*
X128161314Y-82194117D01*
X128218796Y-82117331D01*
X128269091Y-81982483D01*
X128275500Y-81922873D01*
X128275499Y-81427128D01*
X128269091Y-81367517D01*
X128266676Y-81361044D01*
X128258609Y-81339411D01*
X128218797Y-81232671D01*
X128218793Y-81232664D01*
X128132547Y-81117455D01*
X128132544Y-81117452D01*
X128017334Y-81031205D01*
X127981164Y-81017714D01*
X127925231Y-80975841D01*
X127900816Y-80910376D01*
X127900500Y-80901533D01*
X127900500Y-77047275D01*
X127900500Y-77047273D01*
X127873207Y-76945413D01*
X127873207Y-76945412D01*
X127820480Y-76854087D01*
X126695837Y-75729444D01*
X126662352Y-75668121D01*
X126667336Y-75598429D01*
X126709208Y-75542496D01*
X126774672Y-75518079D01*
X126836532Y-75529667D01*
X127023889Y-75618281D01*
X127023903Y-75618286D01*
X127023908Y-75618288D01*
X127083192Y-75639500D01*
X127268746Y-75705892D01*
X127521011Y-75769081D01*
X127778255Y-75807240D01*
X128038000Y-75820000D01*
X128297745Y-75807240D01*
X128554989Y-75769081D01*
X128807254Y-75705892D01*
X129052111Y-75618281D01*
X129287201Y-75507091D01*
X129510261Y-75373394D01*
X129526946Y-75361020D01*
X129719134Y-75218484D01*
X129719138Y-75218481D01*
X129719138Y-75218480D01*
X129719142Y-75218478D01*
X129911833Y-75043833D01*
X130086478Y-74851142D01*
X130177404Y-74728542D01*
X130241392Y-74642264D01*
X130300520Y-74543616D01*
X130375091Y-74419201D01*
X130486281Y-74184111D01*
X130573892Y-73939254D01*
X130637081Y-73686989D01*
X130675240Y-73429745D01*
X130688000Y-73170000D01*
X130675240Y-72910255D01*
X130637081Y-72653011D01*
X130573892Y-72400746D01*
X130486281Y-72155889D01*
X130375091Y-71920799D01*
X130241394Y-71697739D01*
X130241392Y-71697735D01*
X130086484Y-71488865D01*
X130086481Y-71488861D01*
X129911833Y-71296166D01*
X129719138Y-71121518D01*
X129719134Y-71121515D01*
X129510264Y-70966607D01*
X129287204Y-70832910D01*
X129052111Y-70721719D01*
X129052091Y-70721711D01*
X128807264Y-70634111D01*
X128807258Y-70634109D01*
X128807254Y-70634108D01*
X128682113Y-70602761D01*
X128554995Y-70570920D01*
X128554990Y-70570919D01*
X128554989Y-70570919D01*
X128457920Y-70556520D01*
X128297754Y-70532761D01*
X128297750Y-70532760D01*
X128297745Y-70532760D01*
X128038000Y-70520000D01*
X127778255Y-70532760D01*
X127778249Y-70532760D01*
X127778245Y-70532761D01*
X127521004Y-70570920D01*
X127330572Y-70618621D01*
X127268746Y-70634108D01*
X127268743Y-70634108D01*
X127268735Y-70634111D01*
X127023908Y-70721711D01*
X127023888Y-70721719D01*
X126788795Y-70832910D01*
X126565735Y-70966607D01*
X126356865Y-71121515D01*
X126356861Y-71121518D01*
X126164166Y-71296166D01*
X125989518Y-71488861D01*
X125989515Y-71488865D01*
X125834607Y-71697735D01*
X125700910Y-71920795D01*
X125589719Y-72155888D01*
X125589711Y-72155908D01*
X125502111Y-72400735D01*
X125438920Y-72653004D01*
X125408289Y-72859500D01*
X125400760Y-72910255D01*
X125388000Y-73170000D01*
X125400760Y-73429745D01*
X125400760Y-73429750D01*
X125400761Y-73429754D01*
X125438920Y-73686995D01*
X125468601Y-73805488D01*
X125498078Y-73923167D01*
X125502111Y-73939264D01*
X125589711Y-74184091D01*
X125589719Y-74184111D01*
X125678331Y-74371464D01*
X125689199Y-74440483D01*
X125661028Y-74504422D01*
X125602760Y-74542980D01*
X125532897Y-74543915D01*
X125478555Y-74512162D01*
X124236819Y-73270426D01*
X124203334Y-73209103D01*
X124200500Y-73182745D01*
X124200500Y-70824275D01*
X124200500Y-70824273D01*
X124173207Y-70722413D01*
X124120480Y-70631087D01*
X124045913Y-70556520D01*
X103764591Y-50275198D01*
X103731106Y-50213875D01*
X103736090Y-50144183D01*
X103777962Y-50088250D01*
X103843426Y-50063833D01*
X103908567Y-50077033D01*
X104056380Y-50152348D01*
X104056393Y-50152354D01*
X104145424Y-50181281D01*
X104234458Y-50210210D01*
X104419384Y-50239500D01*
X104419385Y-50239500D01*
X104606615Y-50239500D01*
X104606616Y-50239500D01*
X104791542Y-50210210D01*
X104969609Y-50152353D01*
X105136434Y-50067351D01*
X105287907Y-49957300D01*
X105420300Y-49824907D01*
X105530351Y-49673434D01*
X105615353Y-49506609D01*
X105615354Y-49506606D01*
X105665069Y-49353598D01*
X105704506Y-49295923D01*
X105768865Y-49268724D01*
X105837711Y-49280638D01*
X105889187Y-49327882D01*
X105900931Y-49353598D01*
X105950645Y-49506606D01*
X105950646Y-49506609D01*
X106035651Y-49673437D01*
X106145694Y-49824900D01*
X106145698Y-49824905D01*
X106278094Y-49957301D01*
X106278099Y-49957305D01*
X106399649Y-50045615D01*
X106429566Y-50067351D01*
X106501311Y-50103907D01*
X106596390Y-50152353D01*
X106596393Y-50152354D01*
X106685424Y-50181281D01*
X106774458Y-50210210D01*
X106959384Y-50239500D01*
X106959385Y-50239500D01*
X107146615Y-50239500D01*
X107146616Y-50239500D01*
X107331542Y-50210210D01*
X107509609Y-50152353D01*
X107676434Y-50067351D01*
X107827907Y-49957300D01*
X107891954Y-49893253D01*
X107953277Y-49859768D01*
X108022969Y-49864752D01*
X108067316Y-49893253D01*
X127744543Y-69570480D01*
X127835868Y-69623207D01*
X127937729Y-69650500D01*
X128043183Y-69650500D01*
X152857745Y-69650500D01*
X152924784Y-69670185D01*
X152945426Y-69686819D01*
X159688181Y-76429573D01*
X159721666Y-76490896D01*
X159724500Y-76517254D01*
X159724500Y-76922870D01*
X159724501Y-76922876D01*
X159730908Y-76982483D01*
X159781202Y-77117328D01*
X159781206Y-77117335D01*
X159867452Y-77232544D01*
X159867455Y-77232547D01*
X159982664Y-77318793D01*
X159982671Y-77318797D01*
X160019851Y-77332664D01*
X160117517Y-77369091D01*
X160177127Y-77375500D01*
X160822872Y-77375499D01*
X160882483Y-77369091D01*
X161017331Y-77318796D01*
X161132546Y-77232546D01*
X161218796Y-77117331D01*
X161269091Y-76982483D01*
X161275500Y-76922873D01*
X161275499Y-76427128D01*
X161269091Y-76367517D01*
X161249774Y-76315726D01*
X161218797Y-76232671D01*
X161218793Y-76232664D01*
X161132547Y-76117455D01*
X161132544Y-76117452D01*
X161017335Y-76031206D01*
X161017328Y-76031202D01*
X160882482Y-75980908D01*
X160882483Y-75980908D01*
X160822883Y-75974501D01*
X160822881Y-75974500D01*
X160822873Y-75974500D01*
X160822865Y-75974500D01*
X160417254Y-75974500D01*
X160350215Y-75954815D01*
X160329573Y-75938181D01*
X153320915Y-68929522D01*
X153320914Y-68929521D01*
X153320913Y-68929520D01*
X153275250Y-68903156D01*
X153229589Y-68876793D01*
X153178657Y-68863146D01*
X153127727Y-68849500D01*
X153127726Y-68849500D01*
X128207711Y-68849500D01*
X128140672Y-68829815D01*
X128120030Y-68813181D01*
X124116635Y-64809786D01*
X124083150Y-64748463D01*
X124088134Y-64678771D01*
X124130006Y-64622838D01*
X124172223Y-64602330D01*
X124179053Y-64600500D01*
X124179057Y-64600500D01*
X124331784Y-64559577D01*
X124468716Y-64480520D01*
X124580520Y-64368716D01*
X124659577Y-64231784D01*
X124700500Y-64079057D01*
X124700500Y-63920943D01*
X124659577Y-63768216D01*
X124659573Y-63768209D01*
X124580524Y-63631290D01*
X124580518Y-63631282D01*
X124468717Y-63519481D01*
X124468709Y-63519475D01*
X124331790Y-63440426D01*
X124331786Y-63440424D01*
X124331784Y-63440423D01*
X124179057Y-63399500D01*
X124179056Y-63399500D01*
X124117254Y-63399500D01*
X124050215Y-63379815D01*
X124029573Y-63363181D01*
X112569819Y-51903426D01*
X112536334Y-51842103D01*
X112533500Y-51815745D01*
X112533500Y-50256929D01*
X112553185Y-50189890D01*
X112601203Y-50146445D01*
X112756434Y-50067351D01*
X112907907Y-49957300D01*
X113040300Y-49824907D01*
X113150351Y-49673434D01*
X113235353Y-49506609D01*
X113235354Y-49506606D01*
X113285069Y-49353598D01*
X113324506Y-49295923D01*
X113388865Y-49268724D01*
X113457711Y-49280638D01*
X113509187Y-49327882D01*
X113520931Y-49353598D01*
X113570645Y-49506606D01*
X113570646Y-49506609D01*
X113655651Y-49673437D01*
X113765694Y-49824900D01*
X113765698Y-49824905D01*
X113898094Y-49957301D01*
X113898099Y-49957305D01*
X114019649Y-50045615D01*
X114049566Y-50067351D01*
X114121311Y-50103907D01*
X114216390Y-50152353D01*
X114216393Y-50152354D01*
X114305424Y-50181281D01*
X114394458Y-50210210D01*
X114579384Y-50239500D01*
X114579385Y-50239500D01*
X114766615Y-50239500D01*
X114766616Y-50239500D01*
X114951542Y-50210210D01*
X115129609Y-50152353D01*
X115296434Y-50067351D01*
X115319979Y-50050245D01*
X115326352Y-50045615D01*
X115447901Y-49957305D01*
X115447903Y-49957302D01*
X115447907Y-49957300D01*
X115580300Y-49824907D01*
X115690351Y-49673434D01*
X115720562Y-49614139D01*
X115768536Y-49563345D01*
X115836357Y-49546549D01*
X115902492Y-49569086D01*
X115941532Y-49614140D01*
X116025020Y-49777993D01*
X116025021Y-49777995D01*
X116069806Y-49839638D01*
X116069807Y-49839638D01*
X116730037Y-49179408D01*
X116747075Y-49242993D01*
X116812901Y-49357007D01*
X116905993Y-49450099D01*
X117020007Y-49515925D01*
X117083590Y-49532962D01*
X116423360Y-50193191D01*
X116485008Y-50237980D01*
X116679808Y-50337237D01*
X116679811Y-50337238D01*
X116887740Y-50404797D01*
X117103684Y-50439000D01*
X117322316Y-50439000D01*
X117538259Y-50404797D01*
X117746188Y-50337238D01*
X117746191Y-50337237D01*
X117799646Y-50310000D01*
X125388000Y-50310000D01*
X125400760Y-50569745D01*
X125400760Y-50569750D01*
X125400761Y-50569754D01*
X125438920Y-50826995D01*
X125502111Y-51079264D01*
X125589711Y-51324091D01*
X125589719Y-51324111D01*
X125700910Y-51559204D01*
X125834607Y-51782264D01*
X125989515Y-51991134D01*
X125989518Y-51991138D01*
X126164166Y-52183833D01*
X126356861Y-52358481D01*
X126356865Y-52358484D01*
X126565735Y-52513392D01*
X126788795Y-52647089D01*
X126788798Y-52647090D01*
X126788799Y-52647091D01*
X127023889Y-52758281D01*
X127023903Y-52758286D01*
X127023908Y-52758288D01*
X127137437Y-52798909D01*
X127268746Y-52845892D01*
X127521011Y-52909081D01*
X127778255Y-52947240D01*
X128038000Y-52960000D01*
X128297745Y-52947240D01*
X128554989Y-52909081D01*
X128807254Y-52845892D01*
X129052111Y-52758281D01*
X129287201Y-52647091D01*
X129510261Y-52513394D01*
X129529992Y-52498761D01*
X129719134Y-52358484D01*
X129719138Y-52358481D01*
X129719138Y-52358480D01*
X129719142Y-52358478D01*
X129911833Y-52183833D01*
X130086478Y-51991142D01*
X130178468Y-51867107D01*
X130241392Y-51782264D01*
X130375089Y-51559204D01*
X130375091Y-51559201D01*
X130486281Y-51324111D01*
X130573892Y-51079254D01*
X130637081Y-50826989D01*
X130675240Y-50569745D01*
X130688000Y-50310000D01*
X130679831Y-50143713D01*
X164399500Y-50143713D01*
X164399500Y-50356286D01*
X164432753Y-50566239D01*
X164498444Y-50768414D01*
X164594951Y-50957820D01*
X164719890Y-51129786D01*
X164870213Y-51280109D01*
X165042179Y-51405048D01*
X165042181Y-51405049D01*
X165042184Y-51405051D01*
X165231588Y-51501557D01*
X165433757Y-51567246D01*
X165643713Y-51600500D01*
X165643714Y-51600500D01*
X165856286Y-51600500D01*
X165856287Y-51600500D01*
X166066243Y-51567246D01*
X166268412Y-51501557D01*
X166457816Y-51405051D01*
X166479789Y-51389086D01*
X166629786Y-51280109D01*
X166629788Y-51280106D01*
X166629792Y-51280104D01*
X166780104Y-51129792D01*
X166780106Y-51129788D01*
X166780109Y-51129786D01*
X166905048Y-50957820D01*
X166905047Y-50957820D01*
X166905051Y-50957816D01*
X167001557Y-50768412D01*
X167067246Y-50566243D01*
X167100500Y-50356287D01*
X167100500Y-50143713D01*
X167067246Y-49933757D01*
X167001557Y-49731588D01*
X166905051Y-49542184D01*
X166905049Y-49542181D01*
X166905048Y-49542179D01*
X166780109Y-49370213D01*
X166629786Y-49219890D01*
X166457820Y-49094951D01*
X166268414Y-48998444D01*
X166268413Y-48998443D01*
X166268412Y-48998443D01*
X166066243Y-48932754D01*
X166066241Y-48932753D01*
X166066240Y-48932753D01*
X165904957Y-48907208D01*
X165856287Y-48899500D01*
X165643713Y-48899500D01*
X165595042Y-48907208D01*
X165433760Y-48932753D01*
X165231585Y-48998444D01*
X165042179Y-49094951D01*
X164870213Y-49219890D01*
X164719890Y-49370213D01*
X164594951Y-49542179D01*
X164498444Y-49731585D01*
X164432753Y-49933760D01*
X164399500Y-50143713D01*
X130679831Y-50143713D01*
X130675240Y-50050255D01*
X130637081Y-49793011D01*
X130573892Y-49540746D01*
X130524804Y-49403553D01*
X130486288Y-49295908D01*
X130486286Y-49295903D01*
X130486281Y-49295889D01*
X130375091Y-49060799D01*
X130368619Y-49050000D01*
X130241392Y-48837735D01*
X130086484Y-48628865D01*
X130086481Y-48628861D01*
X129911833Y-48436166D01*
X129719138Y-48261518D01*
X129719134Y-48261515D01*
X129510264Y-48106607D01*
X129287204Y-47972910D01*
X129052111Y-47861719D01*
X129052091Y-47861711D01*
X128807264Y-47774111D01*
X128807258Y-47774109D01*
X128807254Y-47774108D01*
X128682113Y-47742761D01*
X128554995Y-47710920D01*
X128554990Y-47710919D01*
X128554989Y-47710919D01*
X128449035Y-47695202D01*
X128297754Y-47672761D01*
X128297750Y-47672760D01*
X128297745Y-47672760D01*
X128038000Y-47660000D01*
X127778255Y-47672760D01*
X127778249Y-47672760D01*
X127778245Y-47672761D01*
X127521004Y-47710920D01*
X127330572Y-47758621D01*
X127268746Y-47774108D01*
X127268743Y-47774108D01*
X127268735Y-47774111D01*
X127023908Y-47861711D01*
X127023888Y-47861719D01*
X126788795Y-47972910D01*
X126565735Y-48106607D01*
X126356865Y-48261515D01*
X126356861Y-48261518D01*
X126164166Y-48436166D01*
X125989518Y-48628861D01*
X125989515Y-48628865D01*
X125834607Y-48837735D01*
X125700910Y-49060795D01*
X125589719Y-49295888D01*
X125589711Y-49295908D01*
X125502111Y-49540735D01*
X125502108Y-49540743D01*
X125502108Y-49540746D01*
X125499790Y-49550000D01*
X125438920Y-49793004D01*
X125414549Y-49957301D01*
X125400760Y-50050255D01*
X125388000Y-50310000D01*
X117799646Y-50310000D01*
X117940995Y-50237978D01*
X118002638Y-50193191D01*
X118002639Y-50193191D01*
X117342409Y-49532962D01*
X117405993Y-49515925D01*
X117520007Y-49450099D01*
X117613099Y-49357007D01*
X117678925Y-49242993D01*
X117695962Y-49179410D01*
X118356191Y-49839639D01*
X118356191Y-49839638D01*
X118400978Y-49777995D01*
X118484467Y-49614140D01*
X118532441Y-49563344D01*
X118600262Y-49546549D01*
X118666397Y-49569086D01*
X118705437Y-49614140D01*
X118735651Y-49673437D01*
X118845694Y-49824900D01*
X118845698Y-49824905D01*
X118978094Y-49957301D01*
X118978099Y-49957305D01*
X119099649Y-50045615D01*
X119129566Y-50067351D01*
X119201311Y-50103907D01*
X119296390Y-50152353D01*
X119296393Y-50152354D01*
X119385424Y-50181281D01*
X119474458Y-50210210D01*
X119659384Y-50239500D01*
X119659385Y-50239500D01*
X119846615Y-50239500D01*
X119846616Y-50239500D01*
X120031542Y-50210210D01*
X120209609Y-50152353D01*
X120376434Y-50067351D01*
X120527907Y-49957300D01*
X120660300Y-49824907D01*
X120770351Y-49673434D01*
X120855353Y-49506609D01*
X120855354Y-49506606D01*
X120905069Y-49353598D01*
X120944506Y-49295923D01*
X121008865Y-49268724D01*
X121077711Y-49280638D01*
X121129187Y-49327882D01*
X121140931Y-49353598D01*
X121190645Y-49506606D01*
X121190646Y-49506609D01*
X121275651Y-49673437D01*
X121385694Y-49824900D01*
X121385698Y-49824905D01*
X121518094Y-49957301D01*
X121518099Y-49957305D01*
X121639649Y-50045615D01*
X121669566Y-50067351D01*
X121741311Y-50103907D01*
X121836390Y-50152353D01*
X121836393Y-50152354D01*
X121925424Y-50181281D01*
X122014458Y-50210210D01*
X122199384Y-50239500D01*
X122199385Y-50239500D01*
X122386615Y-50239500D01*
X122386616Y-50239500D01*
X122571542Y-50210210D01*
X122623922Y-50193191D01*
X122636744Y-50189025D01*
X122749606Y-50152354D01*
X122749609Y-50152353D01*
X122766566Y-50143713D01*
X122916434Y-50067351D01*
X123067907Y-49957300D01*
X123200300Y-49824907D01*
X123310351Y-49673434D01*
X123395353Y-49506609D01*
X123453210Y-49328542D01*
X123482500Y-49143616D01*
X123482500Y-48956384D01*
X123453210Y-48771458D01*
X123395353Y-48593391D01*
X123395353Y-48593390D01*
X123340562Y-48485859D01*
X123310351Y-48426566D01*
X123234383Y-48322004D01*
X123200305Y-48275099D01*
X123200301Y-48275094D01*
X123067905Y-48142698D01*
X123067900Y-48142694D01*
X122916437Y-48032651D01*
X122916436Y-48032650D01*
X122916434Y-48032649D01*
X122862988Y-48005416D01*
X122749609Y-47947646D01*
X122749606Y-47947645D01*
X122571543Y-47889790D01*
X122479079Y-47875145D01*
X122386616Y-47860500D01*
X122199384Y-47860500D01*
X122137742Y-47870263D01*
X122014456Y-47889790D01*
X121836393Y-47947645D01*
X121836390Y-47947646D01*
X121669562Y-48032651D01*
X121518099Y-48142694D01*
X121518094Y-48142698D01*
X121385698Y-48275094D01*
X121385694Y-48275099D01*
X121275651Y-48426562D01*
X121190646Y-48593390D01*
X121190645Y-48593393D01*
X121140931Y-48746401D01*
X121101494Y-48804076D01*
X121037135Y-48831275D01*
X120968289Y-48819361D01*
X120916813Y-48772116D01*
X120905069Y-48746401D01*
X120855354Y-48593393D01*
X120855353Y-48593390D01*
X120800562Y-48485859D01*
X120770351Y-48426566D01*
X120694383Y-48322004D01*
X120660305Y-48275099D01*
X120660301Y-48275094D01*
X120527905Y-48142698D01*
X120527900Y-48142694D01*
X120376437Y-48032651D01*
X120376436Y-48032650D01*
X120376434Y-48032649D01*
X120322988Y-48005416D01*
X120209609Y-47947646D01*
X120209606Y-47947645D01*
X120031543Y-47889790D01*
X119939079Y-47875145D01*
X119846616Y-47860500D01*
X119659384Y-47860500D01*
X119597742Y-47870263D01*
X119474456Y-47889790D01*
X119296393Y-47947645D01*
X119296390Y-47947646D01*
X119129562Y-48032651D01*
X118978099Y-48142694D01*
X118978094Y-48142698D01*
X118845698Y-48275094D01*
X118845694Y-48275099D01*
X118735649Y-48426564D01*
X118705436Y-48485860D01*
X118657461Y-48536655D01*
X118589640Y-48553450D01*
X118523505Y-48530912D01*
X118484467Y-48485859D01*
X118400980Y-48322008D01*
X118356191Y-48260360D01*
X117695962Y-48920589D01*
X117678925Y-48857007D01*
X117613099Y-48742993D01*
X117520007Y-48649901D01*
X117405993Y-48584075D01*
X117342407Y-48567037D01*
X118002638Y-47906807D01*
X118002638Y-47906806D01*
X117940995Y-47862021D01*
X117940993Y-47862020D01*
X117746191Y-47762762D01*
X117746188Y-47762761D01*
X117538259Y-47695202D01*
X117322316Y-47661000D01*
X117103684Y-47661000D01*
X116887740Y-47695202D01*
X116679811Y-47762761D01*
X116679808Y-47762762D01*
X116485001Y-47862023D01*
X116423360Y-47906806D01*
X116423360Y-47906807D01*
X117083590Y-48567037D01*
X117020007Y-48584075D01*
X116905993Y-48649901D01*
X116812901Y-48742993D01*
X116747075Y-48857007D01*
X116730037Y-48920590D01*
X116069807Y-48260360D01*
X116069806Y-48260360D01*
X116025021Y-48322004D01*
X115941531Y-48485860D01*
X115893557Y-48536655D01*
X115825735Y-48553450D01*
X115759601Y-48530912D01*
X115720562Y-48485859D01*
X115690348Y-48426561D01*
X115580305Y-48275099D01*
X115580301Y-48275094D01*
X115447905Y-48142698D01*
X115447900Y-48142694D01*
X115326351Y-48054384D01*
X115296437Y-48032651D01*
X115296436Y-48032650D01*
X115296434Y-48032649D01*
X115242988Y-48005416D01*
X115129609Y-47947646D01*
X115129606Y-47947645D01*
X114951543Y-47889790D01*
X114859079Y-47875145D01*
X114766616Y-47860500D01*
X114579384Y-47860500D01*
X114517742Y-47870263D01*
X114394456Y-47889790D01*
X114216393Y-47947645D01*
X114216390Y-47947646D01*
X114049562Y-48032651D01*
X113898099Y-48142694D01*
X113898094Y-48142698D01*
X113765698Y-48275094D01*
X113765694Y-48275099D01*
X113655651Y-48426562D01*
X113570646Y-48593390D01*
X113570645Y-48593393D01*
X113520931Y-48746401D01*
X113481494Y-48804076D01*
X113417135Y-48831275D01*
X113348289Y-48819361D01*
X113296813Y-48772116D01*
X113285069Y-48746401D01*
X113235354Y-48593393D01*
X113235353Y-48593390D01*
X113180562Y-48485859D01*
X113150351Y-48426566D01*
X113074383Y-48322004D01*
X113040305Y-48275099D01*
X113040301Y-48275094D01*
X112907905Y-48142698D01*
X112907900Y-48142694D01*
X112756437Y-48032651D01*
X112756436Y-48032650D01*
X112756434Y-48032649D01*
X112702988Y-48005416D01*
X112589609Y-47947646D01*
X112589606Y-47947645D01*
X112411543Y-47889790D01*
X112319079Y-47875145D01*
X112226616Y-47860500D01*
X112039384Y-47860500D01*
X111977742Y-47870263D01*
X111854456Y-47889790D01*
X111676393Y-47947645D01*
X111676390Y-47947646D01*
X111509562Y-48032651D01*
X111358099Y-48142694D01*
X111358094Y-48142698D01*
X111225698Y-48275094D01*
X111225694Y-48275099D01*
X111115651Y-48426562D01*
X111030646Y-48593390D01*
X111030645Y-48593393D01*
X110980931Y-48746401D01*
X110941494Y-48804076D01*
X110877135Y-48831275D01*
X110808289Y-48819361D01*
X110756813Y-48772116D01*
X110745069Y-48746401D01*
X110695354Y-48593393D01*
X110695353Y-48593390D01*
X110640562Y-48485859D01*
X110610351Y-48426566D01*
X110534383Y-48322004D01*
X110500305Y-48275099D01*
X110500301Y-48275094D01*
X110367905Y-48142698D01*
X110367900Y-48142694D01*
X110216437Y-48032651D01*
X110216436Y-48032650D01*
X110216434Y-48032649D01*
X110162988Y-48005416D01*
X110049609Y-47947646D01*
X110049606Y-47947645D01*
X109871543Y-47889790D01*
X109779079Y-47875145D01*
X109686616Y-47860500D01*
X109499384Y-47860500D01*
X109437742Y-47870263D01*
X109314456Y-47889790D01*
X109136393Y-47947645D01*
X109136390Y-47947646D01*
X108969562Y-48032651D01*
X108818099Y-48142694D01*
X108818094Y-48142698D01*
X108685698Y-48275094D01*
X108685694Y-48275099D01*
X108575651Y-48426562D01*
X108490646Y-48593390D01*
X108490645Y-48593393D01*
X108440931Y-48746401D01*
X108401494Y-48804076D01*
X108337135Y-48831275D01*
X108268289Y-48819361D01*
X108216813Y-48772116D01*
X108205069Y-48746401D01*
X108155354Y-48593393D01*
X108155353Y-48593390D01*
X108100562Y-48485859D01*
X108070351Y-48426566D01*
X107994383Y-48322004D01*
X107960305Y-48275099D01*
X107960301Y-48275094D01*
X107827905Y-48142698D01*
X107827900Y-48142694D01*
X107676437Y-48032651D01*
X107676436Y-48032650D01*
X107676434Y-48032649D01*
X107622988Y-48005416D01*
X107509609Y-47947646D01*
X107509606Y-47947645D01*
X107331543Y-47889790D01*
X107239079Y-47875145D01*
X107146616Y-47860500D01*
X106959384Y-47860500D01*
X106897742Y-47870263D01*
X106774456Y-47889790D01*
X106596393Y-47947645D01*
X106596390Y-47947646D01*
X106429562Y-48032651D01*
X106278099Y-48142694D01*
X106278094Y-48142698D01*
X106145698Y-48275094D01*
X106145694Y-48275099D01*
X106035651Y-48426562D01*
X105950646Y-48593390D01*
X105950645Y-48593393D01*
X105900931Y-48746401D01*
X105861494Y-48804076D01*
X105797135Y-48831275D01*
X105728289Y-48819361D01*
X105676813Y-48772116D01*
X105665069Y-48746401D01*
X105615354Y-48593393D01*
X105615353Y-48593390D01*
X105560562Y-48485859D01*
X105530351Y-48426566D01*
X105454383Y-48322004D01*
X105420305Y-48275099D01*
X105420301Y-48275094D01*
X105287905Y-48142698D01*
X105287900Y-48142694D01*
X105136437Y-48032651D01*
X105136436Y-48032650D01*
X105136434Y-48032649D01*
X105082988Y-48005416D01*
X104969609Y-47947646D01*
X104969606Y-47947645D01*
X104791543Y-47889790D01*
X104699079Y-47875145D01*
X104606616Y-47860500D01*
X104419384Y-47860500D01*
X104357742Y-47870263D01*
X104234456Y-47889790D01*
X104056393Y-47947645D01*
X104056390Y-47947646D01*
X103889562Y-48032651D01*
X103738099Y-48142694D01*
X103738094Y-48142698D01*
X103605698Y-48275094D01*
X103605694Y-48275099D01*
X103495651Y-48426562D01*
X103410646Y-48593390D01*
X103410645Y-48593393D01*
X103360931Y-48746401D01*
X103321494Y-48804076D01*
X103257135Y-48831275D01*
X103188289Y-48819361D01*
X103136813Y-48772116D01*
X103125069Y-48746401D01*
X103075354Y-48593393D01*
X103075353Y-48593390D01*
X103020562Y-48485859D01*
X102990351Y-48426566D01*
X102914383Y-48322004D01*
X102880305Y-48275099D01*
X102880301Y-48275094D01*
X102747905Y-48142698D01*
X102747900Y-48142694D01*
X102596437Y-48032651D01*
X102596436Y-48032650D01*
X102596434Y-48032649D01*
X102542988Y-48005416D01*
X102429609Y-47947646D01*
X102429606Y-47947645D01*
X102251543Y-47889790D01*
X102159079Y-47875145D01*
X102066616Y-47860500D01*
X101879384Y-47860500D01*
X101817742Y-47870263D01*
X101694456Y-47889790D01*
X101516393Y-47947645D01*
X101516390Y-47947646D01*
X101349562Y-48032651D01*
X101198099Y-48142694D01*
X101198094Y-48142698D01*
X101065698Y-48275094D01*
X101065694Y-48275099D01*
X100955651Y-48426562D01*
X100870646Y-48593390D01*
X100870645Y-48593393D01*
X100820931Y-48746401D01*
X100781494Y-48804076D01*
X100717135Y-48831275D01*
X100648289Y-48819361D01*
X100596813Y-48772116D01*
X100585069Y-48746401D01*
X100535354Y-48593393D01*
X100535353Y-48593390D01*
X100480562Y-48485859D01*
X100450351Y-48426566D01*
X100374383Y-48322004D01*
X100340305Y-48275099D01*
X100340301Y-48275094D01*
X100207905Y-48142698D01*
X100207900Y-48142694D01*
X100056437Y-48032651D01*
X100056436Y-48032650D01*
X100056434Y-48032649D01*
X100002988Y-48005416D01*
X99889609Y-47947646D01*
X99889606Y-47947645D01*
X99711543Y-47889790D01*
X99619079Y-47875145D01*
X99526616Y-47860500D01*
X99339384Y-47860500D01*
X99277742Y-47870263D01*
X99154456Y-47889790D01*
X98976393Y-47947645D01*
X98976390Y-47947646D01*
X98809562Y-48032651D01*
X98658099Y-48142694D01*
X98658094Y-48142698D01*
X98525698Y-48275094D01*
X98525694Y-48275099D01*
X98415651Y-48426562D01*
X98330646Y-48593390D01*
X98330645Y-48593393D01*
X98272790Y-48771456D01*
X98243500Y-48956384D01*
X98243500Y-49143615D01*
X98272790Y-49328543D01*
X98330645Y-49506606D01*
X98330646Y-49506609D01*
X98415651Y-49673437D01*
X98525694Y-49824900D01*
X98525698Y-49824905D01*
X98658094Y-49957301D01*
X98658099Y-49957305D01*
X98779649Y-50045615D01*
X98809566Y-50067351D01*
X98881311Y-50103907D01*
X98976390Y-50152353D01*
X98976393Y-50152354D01*
X99065424Y-50181281D01*
X99154458Y-50210210D01*
X99339384Y-50239500D01*
X99339385Y-50239500D01*
X99526615Y-50239500D01*
X99526616Y-50239500D01*
X99711542Y-50210210D01*
X99877233Y-50156373D01*
X99947073Y-50154379D01*
X100003231Y-50186624D01*
X105266181Y-55449574D01*
X105299666Y-55510897D01*
X105302500Y-55537255D01*
X105302500Y-73314914D01*
X105282815Y-73381953D01*
X105230011Y-73427708D01*
X105160853Y-73437652D01*
X105122205Y-73425399D01*
X104969609Y-73347646D01*
X104969606Y-73347645D01*
X104791543Y-73289790D01*
X104669285Y-73270426D01*
X104606616Y-73260500D01*
X104419384Y-73260500D01*
X104357742Y-73270263D01*
X104234456Y-73289790D01*
X104068767Y-73343625D01*
X103998925Y-73345620D01*
X103942768Y-73313375D01*
X103568915Y-72939522D01*
X103568913Y-72939520D01*
X103518208Y-72910245D01*
X103477589Y-72886793D01*
X103426657Y-72873146D01*
X103375727Y-72859500D01*
X90467727Y-72859500D01*
X90362273Y-72859500D01*
X90260410Y-72886793D01*
X90169087Y-72939520D01*
X90169084Y-72939522D01*
X86070424Y-77038181D01*
X86009101Y-77071666D01*
X85982743Y-77074500D01*
X85577129Y-77074500D01*
X85577123Y-77074501D01*
X85517516Y-77080908D01*
X85382671Y-77131202D01*
X85382664Y-77131206D01*
X85267455Y-77217452D01*
X85267452Y-77217455D01*
X85181206Y-77332664D01*
X85181202Y-77332671D01*
X85130910Y-77467513D01*
X85130909Y-77467517D01*
X85124500Y-77527127D01*
X75500500Y-77527127D01*
X75500500Y-56562316D01*
X75520185Y-56495277D01*
X75572989Y-56449522D01*
X75642147Y-56439578D01*
X75705703Y-56468603D01*
X75730858Y-56498567D01*
X75796607Y-56608264D01*
X75951515Y-56817134D01*
X75951518Y-56817138D01*
X76126166Y-57009833D01*
X76318861Y-57184481D01*
X76318865Y-57184484D01*
X76527735Y-57339392D01*
X76750795Y-57473089D01*
X76750798Y-57473090D01*
X76750799Y-57473091D01*
X76985889Y-57584281D01*
X76985903Y-57584286D01*
X76985908Y-57584288D01*
X77171661Y-57650751D01*
X77230746Y-57671892D01*
X77483011Y-57735081D01*
X77740255Y-57773240D01*
X78000000Y-57786000D01*
X78259745Y-57773240D01*
X78516989Y-57735081D01*
X78769254Y-57671892D01*
X79014111Y-57584281D01*
X79249201Y-57473091D01*
X79472261Y-57339394D01*
X79681142Y-57184478D01*
X79873833Y-57009833D01*
X80048478Y-56817142D01*
X80203394Y-56608261D01*
X80337091Y-56385201D01*
X80448281Y-56150111D01*
X80535892Y-55905254D01*
X80599081Y-55652989D01*
X80637240Y-55395745D01*
X80650000Y-55136000D01*
X80637240Y-54876255D01*
X80599081Y-54619011D01*
X80535892Y-54366746D01*
X80448281Y-54121889D01*
X80337091Y-53886799D01*
X80304793Y-53832912D01*
X80203392Y-53663735D01*
X80048484Y-53454865D01*
X80048481Y-53454861D01*
X79873833Y-53262166D01*
X79681138Y-53087518D01*
X79681134Y-53087515D01*
X79472264Y-52932607D01*
X79249204Y-52798910D01*
X79014111Y-52687719D01*
X79014091Y-52687711D01*
X78769264Y-52600111D01*
X78769258Y-52600109D01*
X78769254Y-52600108D01*
X78644113Y-52568761D01*
X78516995Y-52536920D01*
X78516990Y-52536919D01*
X78516989Y-52536919D01*
X78453424Y-52527490D01*
X78259754Y-52498761D01*
X78259750Y-52498760D01*
X78259745Y-52498760D01*
X78000000Y-52486000D01*
X77740255Y-52498760D01*
X77740249Y-52498760D01*
X77740245Y-52498761D01*
X77483004Y-52536920D01*
X77292572Y-52584621D01*
X77230746Y-52600108D01*
X77230743Y-52600108D01*
X77230735Y-52600111D01*
X76985908Y-52687711D01*
X76985888Y-52687719D01*
X76750795Y-52798910D01*
X76527735Y-52932607D01*
X76318865Y-53087515D01*
X76318861Y-53087518D01*
X76126166Y-53262166D01*
X75951518Y-53454861D01*
X75951515Y-53454865D01*
X75796607Y-53663735D01*
X75730858Y-53773432D01*
X75679509Y-53820814D01*
X75610694Y-53832912D01*
X75546263Y-53805886D01*
X75506672Y-53748316D01*
X75500500Y-53709683D01*
X75500500Y-47124500D01*
X75520185Y-47057461D01*
X75572989Y-47011706D01*
X75624500Y-47000500D01*
X168625500Y-47000500D01*
X168692539Y-47020185D01*
G37*
%TD.AperFunction*%
%TD*%
M02*
