M48
; DRILL file {KiCad 9.0.3} date 2025-08-01T16:51:28-0500
; FORMAT={-:-/ absolute / metric / decimal}
; #@! TF.CreationDate,2025-08-01T16:51:28-05:00
; #@! TF.GenerationSoftware,Kicad,Pcbnew,9.0.3
; #@! TF.FileFunction,Plated,1,2,PTH
FMAT,2
METRIC
; #@! TA.AperFunction,Plated,PTH,ViaDrill
T1C0.300
; #@! TA.AperFunction,Plated,PTH,ComponentDrill
T2C0.800
; #@! TA.AperFunction,Plated,PTH,ComponentDrill
T3C1.000
; #@! TA.AperFunction,Plated,PTH,ComponentDrill
T4C1.020
; #@! TA.AperFunction,Plated,PTH,ComponentDrill
T5C1.210
%
G90
G05
T1
X108.4Y-58.4
X110.95Y-50.65
X114.85Y-79.9
X118.85Y-62.85
X122.75Y-79.75
X124.1Y-64.0
X125.35Y-78.2
T2
X155.69Y-82.292
X158.23Y-82.292
X160.77Y-82.292
X163.31Y-82.292
T3
X85.88Y-86.0
X88.42Y-86.0
X90.96Y-86.0
X93.5Y-86.0
X99.433Y-49.05
X99.433Y-74.45
X101.973Y-49.05
X101.973Y-74.45
X104.513Y-49.05
X104.513Y-74.45
X107.053Y-49.05
X107.053Y-74.45
X109.593Y-49.05
X109.593Y-74.45
X112.133Y-49.05
X112.133Y-74.45
X114.673Y-49.05
X114.673Y-74.45
X117.213Y-49.05
X117.213Y-74.45
X119.753Y-49.05
X119.753Y-74.45
X122.293Y-49.05
X122.293Y-74.45
X135.69Y-87.46
X135.69Y-90.0
X135.69Y-92.54
X143.31Y-87.46
X143.31Y-90.0
X143.31Y-92.54
T4
X77.65Y-80.95
X119.65Y-78.7
T5
X115.0Y-88.5
X115.0Y-91.04
X115.0Y-97.0
X115.0Y-99.54
X115.0Y-105.5
X115.0Y-108.04
X125.0Y-88.46
X125.0Y-91.0
X125.0Y-97.0
X125.0Y-99.54
X125.0Y-105.5
X125.0Y-108.04
M30
