%TF.GenerationSoftware,KiCad,Pcbnew,9.0.3*%
%TF.CreationDate,2025-08-01T16:51:20-05:00*%
%TF.ProjectId,Lab_Sensor_V2,4c61625f-5365-46e7-936f-725f56322e6b,rev?*%
%TF.SameCoordinates,Original*%
%TF.FileFunction,Legend,Bot*%
%TF.FilePolarity,Positive*%
%FSLAX46Y46*%
G04 Gerber Fmt 4.6, Leading zero omitted, Abs format (unit mm)*
G04 Created by KiCad (PCBNEW 9.0.3) date 2025-08-01 16:51:20*
%MOMM*%
%LPD*%
G01*
G04 APERTURE LIST*
%ADD10C,0.150000*%
%ADD11C,0.120000*%
G04 APERTURE END LIST*
D10*
X154859580Y-77333333D02*
X154907200Y-77285714D01*
X154907200Y-77285714D02*
X154954819Y-77142857D01*
X154954819Y-77142857D02*
X154954819Y-77047619D01*
X154954819Y-77047619D02*
X154907200Y-76904762D01*
X154907200Y-76904762D02*
X154811961Y-76809524D01*
X154811961Y-76809524D02*
X154716723Y-76761905D01*
X154716723Y-76761905D02*
X154526247Y-76714286D01*
X154526247Y-76714286D02*
X154383390Y-76714286D01*
X154383390Y-76714286D02*
X154192914Y-76761905D01*
X154192914Y-76761905D02*
X154097676Y-76809524D01*
X154097676Y-76809524D02*
X154002438Y-76904762D01*
X154002438Y-76904762D02*
X153954819Y-77047619D01*
X153954819Y-77047619D02*
X153954819Y-77142857D01*
X153954819Y-77142857D02*
X154002438Y-77285714D01*
X154002438Y-77285714D02*
X154050057Y-77333333D01*
X154954819Y-78285714D02*
X154954819Y-77714286D01*
X154954819Y-78000000D02*
X153954819Y-78000000D01*
X153954819Y-78000000D02*
X154097676Y-77904762D01*
X154097676Y-77904762D02*
X154192914Y-77809524D01*
X154192914Y-77809524D02*
X154240533Y-77714286D01*
X131954819Y-79833333D02*
X131478628Y-79500000D01*
X131954819Y-79261905D02*
X130954819Y-79261905D01*
X130954819Y-79261905D02*
X130954819Y-79642857D01*
X130954819Y-79642857D02*
X131002438Y-79738095D01*
X131002438Y-79738095D02*
X131050057Y-79785714D01*
X131050057Y-79785714D02*
X131145295Y-79833333D01*
X131145295Y-79833333D02*
X131288152Y-79833333D01*
X131288152Y-79833333D02*
X131383390Y-79785714D01*
X131383390Y-79785714D02*
X131431009Y-79738095D01*
X131431009Y-79738095D02*
X131478628Y-79642857D01*
X131478628Y-79642857D02*
X131478628Y-79261905D01*
X130954819Y-80690476D02*
X130954819Y-80500000D01*
X130954819Y-80500000D02*
X131002438Y-80404762D01*
X131002438Y-80404762D02*
X131050057Y-80357143D01*
X131050057Y-80357143D02*
X131192914Y-80261905D01*
X131192914Y-80261905D02*
X131383390Y-80214286D01*
X131383390Y-80214286D02*
X131764342Y-80214286D01*
X131764342Y-80214286D02*
X131859580Y-80261905D01*
X131859580Y-80261905D02*
X131907200Y-80309524D01*
X131907200Y-80309524D02*
X131954819Y-80404762D01*
X131954819Y-80404762D02*
X131954819Y-80595238D01*
X131954819Y-80595238D02*
X131907200Y-80690476D01*
X131907200Y-80690476D02*
X131859580Y-80738095D01*
X131859580Y-80738095D02*
X131764342Y-80785714D01*
X131764342Y-80785714D02*
X131526247Y-80785714D01*
X131526247Y-80785714D02*
X131431009Y-80738095D01*
X131431009Y-80738095D02*
X131383390Y-80690476D01*
X131383390Y-80690476D02*
X131335771Y-80595238D01*
X131335771Y-80595238D02*
X131335771Y-80404762D01*
X131335771Y-80404762D02*
X131383390Y-80309524D01*
X131383390Y-80309524D02*
X131431009Y-80261905D01*
X131431009Y-80261905D02*
X131526247Y-80214286D01*
X165642857Y-80454819D02*
X165976190Y-79978628D01*
X166214285Y-80454819D02*
X166214285Y-79454819D01*
X166214285Y-79454819D02*
X165833333Y-79454819D01*
X165833333Y-79454819D02*
X165738095Y-79502438D01*
X165738095Y-79502438D02*
X165690476Y-79550057D01*
X165690476Y-79550057D02*
X165642857Y-79645295D01*
X165642857Y-79645295D02*
X165642857Y-79788152D01*
X165642857Y-79788152D02*
X165690476Y-79883390D01*
X165690476Y-79883390D02*
X165738095Y-79931009D01*
X165738095Y-79931009D02*
X165833333Y-79978628D01*
X165833333Y-79978628D02*
X166214285Y-79978628D01*
X164690476Y-80454819D02*
X165261904Y-80454819D01*
X164976190Y-80454819D02*
X164976190Y-79454819D01*
X164976190Y-79454819D02*
X165071428Y-79597676D01*
X165071428Y-79597676D02*
X165166666Y-79692914D01*
X165166666Y-79692914D02*
X165261904Y-79740533D01*
X163785714Y-79454819D02*
X164261904Y-79454819D01*
X164261904Y-79454819D02*
X164309523Y-79931009D01*
X164309523Y-79931009D02*
X164261904Y-79883390D01*
X164261904Y-79883390D02*
X164166666Y-79835771D01*
X164166666Y-79835771D02*
X163928571Y-79835771D01*
X163928571Y-79835771D02*
X163833333Y-79883390D01*
X163833333Y-79883390D02*
X163785714Y-79931009D01*
X163785714Y-79931009D02*
X163738095Y-80026247D01*
X163738095Y-80026247D02*
X163738095Y-80264342D01*
X163738095Y-80264342D02*
X163785714Y-80359580D01*
X163785714Y-80359580D02*
X163833333Y-80407200D01*
X163833333Y-80407200D02*
X163928571Y-80454819D01*
X163928571Y-80454819D02*
X164166666Y-80454819D01*
X164166666Y-80454819D02*
X164261904Y-80407200D01*
X164261904Y-80407200D02*
X164309523Y-80359580D01*
X129904819Y-79733333D02*
X129428628Y-79400000D01*
X129904819Y-79161905D02*
X128904819Y-79161905D01*
X128904819Y-79161905D02*
X128904819Y-79542857D01*
X128904819Y-79542857D02*
X128952438Y-79638095D01*
X128952438Y-79638095D02*
X129000057Y-79685714D01*
X129000057Y-79685714D02*
X129095295Y-79733333D01*
X129095295Y-79733333D02*
X129238152Y-79733333D01*
X129238152Y-79733333D02*
X129333390Y-79685714D01*
X129333390Y-79685714D02*
X129381009Y-79638095D01*
X129381009Y-79638095D02*
X129428628Y-79542857D01*
X129428628Y-79542857D02*
X129428628Y-79161905D01*
X128904819Y-80066667D02*
X128904819Y-80733333D01*
X128904819Y-80733333D02*
X129904819Y-80304762D01*
D11*
%TO.C,C1*%
X155490000Y-77640580D02*
X155490000Y-77359420D01*
X156510000Y-77640580D02*
X156510000Y-77359420D01*
%TO.C,R6*%
X130977500Y-82262742D02*
X130977500Y-82737258D01*
X132022500Y-82262742D02*
X132022500Y-82737258D01*
%TO.C,R15*%
X161762742Y-79477500D02*
X162237258Y-79477500D01*
X161762742Y-80522500D02*
X162237258Y-80522500D01*
%TO.C,R7*%
X128977500Y-82737258D02*
X128977500Y-82262742D01*
X130022500Y-82737258D02*
X130022500Y-82262742D01*
%TD*%
M02*
