%TF.GenerationSoftware,KiCad,Pcbnew,9.0.3*%
%TF.CreationDate,2025-08-01T16:51:20-05:00*%
%TF.ProjectId,Lab_Sensor_V2,4c61625f-5365-46e7-936f-725f56322e6b,rev?*%
%TF.SameCoordinates,Original*%
%TF.FileFunction,Legend,Top*%
%TF.FilePolarity,Positive*%
%FSLAX46Y46*%
G04 Gerber Fmt 4.6, Leading zero omitted, Abs format (unit mm)*
G04 Created by KiCad (PCBNEW 9.0.3) date 2025-08-01 16:51:20*
%MOMM*%
%LPD*%
G01*
G04 APERTURE LIST*
%ADD10C,0.250000*%
%ADD11C,0.150000*%
%ADD12C,0.127000*%
%ADD13C,0.120000*%
%ADD14C,0.200000*%
%ADD15C,0.100000*%
G04 APERTURE END LIST*
D10*
X105021615Y-106303428D02*
X105021615Y-104803428D01*
X105021615Y-104803428D02*
X105878758Y-106303428D01*
X105878758Y-106303428D02*
X105878758Y-104803428D01*
X106807330Y-106303428D02*
X106664473Y-106232000D01*
X106664473Y-106232000D02*
X106593044Y-106160571D01*
X106593044Y-106160571D02*
X106521616Y-106017714D01*
X106521616Y-106017714D02*
X106521616Y-105589142D01*
X106521616Y-105589142D02*
X106593044Y-105446285D01*
X106593044Y-105446285D02*
X106664473Y-105374857D01*
X106664473Y-105374857D02*
X106807330Y-105303428D01*
X106807330Y-105303428D02*
X107021616Y-105303428D01*
X107021616Y-105303428D02*
X107164473Y-105374857D01*
X107164473Y-105374857D02*
X107235902Y-105446285D01*
X107235902Y-105446285D02*
X107307330Y-105589142D01*
X107307330Y-105589142D02*
X107307330Y-106017714D01*
X107307330Y-106017714D02*
X107235902Y-106160571D01*
X107235902Y-106160571D02*
X107164473Y-106232000D01*
X107164473Y-106232000D02*
X107021616Y-106303428D01*
X107021616Y-106303428D02*
X106807330Y-106303428D01*
X107950187Y-106303428D02*
X107950187Y-105303428D01*
X107950187Y-104803428D02*
X107878759Y-104874857D01*
X107878759Y-104874857D02*
X107950187Y-104946285D01*
X107950187Y-104946285D02*
X108021616Y-104874857D01*
X108021616Y-104874857D02*
X107950187Y-104803428D01*
X107950187Y-104803428D02*
X107950187Y-104946285D01*
X108593045Y-106232000D02*
X108735902Y-106303428D01*
X108735902Y-106303428D02*
X109021616Y-106303428D01*
X109021616Y-106303428D02*
X109164473Y-106232000D01*
X109164473Y-106232000D02*
X109235902Y-106089142D01*
X109235902Y-106089142D02*
X109235902Y-106017714D01*
X109235902Y-106017714D02*
X109164473Y-105874857D01*
X109164473Y-105874857D02*
X109021616Y-105803428D01*
X109021616Y-105803428D02*
X108807331Y-105803428D01*
X108807331Y-105803428D02*
X108664473Y-105732000D01*
X108664473Y-105732000D02*
X108593045Y-105589142D01*
X108593045Y-105589142D02*
X108593045Y-105517714D01*
X108593045Y-105517714D02*
X108664473Y-105374857D01*
X108664473Y-105374857D02*
X108807331Y-105303428D01*
X108807331Y-105303428D02*
X109021616Y-105303428D01*
X109021616Y-105303428D02*
X109164473Y-105374857D01*
X110450188Y-106232000D02*
X110307331Y-106303428D01*
X110307331Y-106303428D02*
X110021617Y-106303428D01*
X110021617Y-106303428D02*
X109878759Y-106232000D01*
X109878759Y-106232000D02*
X109807331Y-106089142D01*
X109807331Y-106089142D02*
X109807331Y-105517714D01*
X109807331Y-105517714D02*
X109878759Y-105374857D01*
X109878759Y-105374857D02*
X110021617Y-105303428D01*
X110021617Y-105303428D02*
X110307331Y-105303428D01*
X110307331Y-105303428D02*
X110450188Y-105374857D01*
X110450188Y-105374857D02*
X110521617Y-105517714D01*
X110521617Y-105517714D02*
X110521617Y-105660571D01*
X110521617Y-105660571D02*
X109807331Y-105803428D01*
X104557330Y-97303428D02*
X105414473Y-97303428D01*
X104985901Y-98803428D02*
X104985901Y-97303428D01*
X106485901Y-98732000D02*
X106343044Y-98803428D01*
X106343044Y-98803428D02*
X106057330Y-98803428D01*
X106057330Y-98803428D02*
X105914472Y-98732000D01*
X105914472Y-98732000D02*
X105843044Y-98589142D01*
X105843044Y-98589142D02*
X105843044Y-98017714D01*
X105843044Y-98017714D02*
X105914472Y-97874857D01*
X105914472Y-97874857D02*
X106057330Y-97803428D01*
X106057330Y-97803428D02*
X106343044Y-97803428D01*
X106343044Y-97803428D02*
X106485901Y-97874857D01*
X106485901Y-97874857D02*
X106557330Y-98017714D01*
X106557330Y-98017714D02*
X106557330Y-98160571D01*
X106557330Y-98160571D02*
X105843044Y-98303428D01*
X107200186Y-98803428D02*
X107200186Y-97803428D01*
X107200186Y-97946285D02*
X107271615Y-97874857D01*
X107271615Y-97874857D02*
X107414472Y-97803428D01*
X107414472Y-97803428D02*
X107628758Y-97803428D01*
X107628758Y-97803428D02*
X107771615Y-97874857D01*
X107771615Y-97874857D02*
X107843044Y-98017714D01*
X107843044Y-98017714D02*
X107843044Y-98803428D01*
X107843044Y-98017714D02*
X107914472Y-97874857D01*
X107914472Y-97874857D02*
X108057329Y-97803428D01*
X108057329Y-97803428D02*
X108271615Y-97803428D01*
X108271615Y-97803428D02*
X108414472Y-97874857D01*
X108414472Y-97874857D02*
X108485901Y-98017714D01*
X108485901Y-98017714D02*
X108485901Y-98803428D01*
X109200186Y-97803428D02*
X109200186Y-99303428D01*
X109200186Y-97874857D02*
X109343044Y-97803428D01*
X109343044Y-97803428D02*
X109628758Y-97803428D01*
X109628758Y-97803428D02*
X109771615Y-97874857D01*
X109771615Y-97874857D02*
X109843044Y-97946285D01*
X109843044Y-97946285D02*
X109914472Y-98089142D01*
X109914472Y-98089142D02*
X109914472Y-98517714D01*
X109914472Y-98517714D02*
X109843044Y-98660571D01*
X109843044Y-98660571D02*
X109771615Y-98732000D01*
X109771615Y-98732000D02*
X109628758Y-98803428D01*
X109628758Y-98803428D02*
X109343044Y-98803428D01*
X109343044Y-98803428D02*
X109200186Y-98732000D01*
X104700187Y-90232000D02*
X104914473Y-90303428D01*
X104914473Y-90303428D02*
X105271615Y-90303428D01*
X105271615Y-90303428D02*
X105414473Y-90232000D01*
X105414473Y-90232000D02*
X105485901Y-90160571D01*
X105485901Y-90160571D02*
X105557330Y-90017714D01*
X105557330Y-90017714D02*
X105557330Y-89874857D01*
X105557330Y-89874857D02*
X105485901Y-89732000D01*
X105485901Y-89732000D02*
X105414473Y-89660571D01*
X105414473Y-89660571D02*
X105271615Y-89589142D01*
X105271615Y-89589142D02*
X104985901Y-89517714D01*
X104985901Y-89517714D02*
X104843044Y-89446285D01*
X104843044Y-89446285D02*
X104771615Y-89374857D01*
X104771615Y-89374857D02*
X104700187Y-89232000D01*
X104700187Y-89232000D02*
X104700187Y-89089142D01*
X104700187Y-89089142D02*
X104771615Y-88946285D01*
X104771615Y-88946285D02*
X104843044Y-88874857D01*
X104843044Y-88874857D02*
X104985901Y-88803428D01*
X104985901Y-88803428D02*
X105343044Y-88803428D01*
X105343044Y-88803428D02*
X105557330Y-88874857D01*
X105985901Y-89303428D02*
X106557329Y-89303428D01*
X106200186Y-88803428D02*
X106200186Y-90089142D01*
X106200186Y-90089142D02*
X106271615Y-90232000D01*
X106271615Y-90232000D02*
X106414472Y-90303428D01*
X106414472Y-90303428D02*
X106557329Y-90303428D01*
X107700187Y-90303428D02*
X107700187Y-89517714D01*
X107700187Y-89517714D02*
X107628758Y-89374857D01*
X107628758Y-89374857D02*
X107485901Y-89303428D01*
X107485901Y-89303428D02*
X107200187Y-89303428D01*
X107200187Y-89303428D02*
X107057329Y-89374857D01*
X107700187Y-90232000D02*
X107557329Y-90303428D01*
X107557329Y-90303428D02*
X107200187Y-90303428D01*
X107200187Y-90303428D02*
X107057329Y-90232000D01*
X107057329Y-90232000D02*
X106985901Y-90089142D01*
X106985901Y-90089142D02*
X106985901Y-89946285D01*
X106985901Y-89946285D02*
X107057329Y-89803428D01*
X107057329Y-89803428D02*
X107200187Y-89732000D01*
X107200187Y-89732000D02*
X107557329Y-89732000D01*
X107557329Y-89732000D02*
X107700187Y-89660571D01*
X108200187Y-89303428D02*
X108771615Y-89303428D01*
X108414472Y-88803428D02*
X108414472Y-90089142D01*
X108414472Y-90089142D02*
X108485901Y-90232000D01*
X108485901Y-90232000D02*
X108628758Y-90303428D01*
X108628758Y-90303428D02*
X108771615Y-90303428D01*
X109914473Y-89303428D02*
X109914473Y-90303428D01*
X109271615Y-89303428D02*
X109271615Y-90089142D01*
X109271615Y-90089142D02*
X109343044Y-90232000D01*
X109343044Y-90232000D02*
X109485901Y-90303428D01*
X109485901Y-90303428D02*
X109700187Y-90303428D01*
X109700187Y-90303428D02*
X109843044Y-90232000D01*
X109843044Y-90232000D02*
X109914473Y-90160571D01*
X110557330Y-90232000D02*
X110700187Y-90303428D01*
X110700187Y-90303428D02*
X110985901Y-90303428D01*
X110985901Y-90303428D02*
X111128758Y-90232000D01*
X111128758Y-90232000D02*
X111200187Y-90089142D01*
X111200187Y-90089142D02*
X111200187Y-90017714D01*
X111200187Y-90017714D02*
X111128758Y-89874857D01*
X111128758Y-89874857D02*
X110985901Y-89803428D01*
X110985901Y-89803428D02*
X110771616Y-89803428D01*
X110771616Y-89803428D02*
X110628758Y-89732000D01*
X110628758Y-89732000D02*
X110557330Y-89589142D01*
X110557330Y-89589142D02*
X110557330Y-89517714D01*
X110557330Y-89517714D02*
X110628758Y-89374857D01*
X110628758Y-89374857D02*
X110771616Y-89303428D01*
X110771616Y-89303428D02*
X110985901Y-89303428D01*
X110985901Y-89303428D02*
X111128758Y-89374857D01*
D11*
X79604819Y-82461904D02*
X79604819Y-81890476D01*
X80604819Y-82176190D02*
X79604819Y-82176190D01*
X80604819Y-81557142D02*
X79604819Y-81557142D01*
X79604819Y-81557142D02*
X79604819Y-81176190D01*
X79604819Y-81176190D02*
X79652438Y-81080952D01*
X79652438Y-81080952D02*
X79700057Y-81033333D01*
X79700057Y-81033333D02*
X79795295Y-80985714D01*
X79795295Y-80985714D02*
X79938152Y-80985714D01*
X79938152Y-80985714D02*
X80033390Y-81033333D01*
X80033390Y-81033333D02*
X80081009Y-81080952D01*
X80081009Y-81080952D02*
X80128628Y-81176190D01*
X80128628Y-81176190D02*
X80128628Y-81557142D01*
X79700057Y-80604761D02*
X79652438Y-80557142D01*
X79652438Y-80557142D02*
X79604819Y-80461904D01*
X79604819Y-80461904D02*
X79604819Y-80223809D01*
X79604819Y-80223809D02*
X79652438Y-80128571D01*
X79652438Y-80128571D02*
X79700057Y-80080952D01*
X79700057Y-80080952D02*
X79795295Y-80033333D01*
X79795295Y-80033333D02*
X79890533Y-80033333D01*
X79890533Y-80033333D02*
X80033390Y-80080952D01*
X80033390Y-80080952D02*
X80604819Y-80652380D01*
X80604819Y-80652380D02*
X80604819Y-80033333D01*
X128283333Y-94504819D02*
X127950000Y-94028628D01*
X127711905Y-94504819D02*
X127711905Y-93504819D01*
X127711905Y-93504819D02*
X128092857Y-93504819D01*
X128092857Y-93504819D02*
X128188095Y-93552438D01*
X128188095Y-93552438D02*
X128235714Y-93600057D01*
X128235714Y-93600057D02*
X128283333Y-93695295D01*
X128283333Y-93695295D02*
X128283333Y-93838152D01*
X128283333Y-93838152D02*
X128235714Y-93933390D01*
X128235714Y-93933390D02*
X128188095Y-93981009D01*
X128188095Y-93981009D02*
X128092857Y-94028628D01*
X128092857Y-94028628D02*
X127711905Y-94028628D01*
X129235714Y-94504819D02*
X128664286Y-94504819D01*
X128950000Y-94504819D02*
X128950000Y-93504819D01*
X128950000Y-93504819D02*
X128854762Y-93647676D01*
X128854762Y-93647676D02*
X128759524Y-93742914D01*
X128759524Y-93742914D02*
X128664286Y-93790533D01*
X121746819Y-107468094D02*
X120746819Y-107468094D01*
X120746819Y-107468094D02*
X120746819Y-107229999D01*
X120746819Y-107229999D02*
X120794438Y-107087142D01*
X120794438Y-107087142D02*
X120889676Y-106991904D01*
X120889676Y-106991904D02*
X120984914Y-106944285D01*
X120984914Y-106944285D02*
X121175390Y-106896666D01*
X121175390Y-106896666D02*
X121318247Y-106896666D01*
X121318247Y-106896666D02*
X121508723Y-106944285D01*
X121508723Y-106944285D02*
X121603961Y-106991904D01*
X121603961Y-106991904D02*
X121699200Y-107087142D01*
X121699200Y-107087142D02*
X121746819Y-107229999D01*
X121746819Y-107229999D02*
X121746819Y-107468094D01*
X120746819Y-106563332D02*
X120746819Y-105944285D01*
X120746819Y-105944285D02*
X121127771Y-106277618D01*
X121127771Y-106277618D02*
X121127771Y-106134761D01*
X121127771Y-106134761D02*
X121175390Y-106039523D01*
X121175390Y-106039523D02*
X121223009Y-105991904D01*
X121223009Y-105991904D02*
X121318247Y-105944285D01*
X121318247Y-105944285D02*
X121556342Y-105944285D01*
X121556342Y-105944285D02*
X121651580Y-105991904D01*
X121651580Y-105991904D02*
X121699200Y-106039523D01*
X121699200Y-106039523D02*
X121746819Y-106134761D01*
X121746819Y-106134761D02*
X121746819Y-106420475D01*
X121746819Y-106420475D02*
X121699200Y-106515713D01*
X121699200Y-106515713D02*
X121651580Y-106563332D01*
X138738095Y-81454819D02*
X138738095Y-82264342D01*
X138738095Y-82264342D02*
X138785714Y-82359580D01*
X138785714Y-82359580D02*
X138833333Y-82407200D01*
X138833333Y-82407200D02*
X138928571Y-82454819D01*
X138928571Y-82454819D02*
X139119047Y-82454819D01*
X139119047Y-82454819D02*
X139214285Y-82407200D01*
X139214285Y-82407200D02*
X139261904Y-82359580D01*
X139261904Y-82359580D02*
X139309523Y-82264342D01*
X139309523Y-82264342D02*
X139309523Y-81454819D01*
X140214285Y-81788152D02*
X140214285Y-82454819D01*
X139976190Y-81407200D02*
X139738095Y-82121485D01*
X139738095Y-82121485D02*
X140357142Y-82121485D01*
X120783333Y-103054819D02*
X120450000Y-102578628D01*
X120211905Y-103054819D02*
X120211905Y-102054819D01*
X120211905Y-102054819D02*
X120592857Y-102054819D01*
X120592857Y-102054819D02*
X120688095Y-102102438D01*
X120688095Y-102102438D02*
X120735714Y-102150057D01*
X120735714Y-102150057D02*
X120783333Y-102245295D01*
X120783333Y-102245295D02*
X120783333Y-102388152D01*
X120783333Y-102388152D02*
X120735714Y-102483390D01*
X120735714Y-102483390D02*
X120688095Y-102531009D01*
X120688095Y-102531009D02*
X120592857Y-102578628D01*
X120592857Y-102578628D02*
X120211905Y-102578628D01*
X121116667Y-102054819D02*
X121735714Y-102054819D01*
X121735714Y-102054819D02*
X121402381Y-102435771D01*
X121402381Y-102435771D02*
X121545238Y-102435771D01*
X121545238Y-102435771D02*
X121640476Y-102483390D01*
X121640476Y-102483390D02*
X121688095Y-102531009D01*
X121688095Y-102531009D02*
X121735714Y-102626247D01*
X121735714Y-102626247D02*
X121735714Y-102864342D01*
X121735714Y-102864342D02*
X121688095Y-102959580D01*
X121688095Y-102959580D02*
X121640476Y-103007200D01*
X121640476Y-103007200D02*
X121545238Y-103054819D01*
X121545238Y-103054819D02*
X121259524Y-103054819D01*
X121259524Y-103054819D02*
X121164286Y-103007200D01*
X121164286Y-103007200D02*
X121116667Y-102959580D01*
X89907142Y-83454819D02*
X89573809Y-82978628D01*
X89335714Y-83454819D02*
X89335714Y-82454819D01*
X89335714Y-82454819D02*
X89716666Y-82454819D01*
X89716666Y-82454819D02*
X89811904Y-82502438D01*
X89811904Y-82502438D02*
X89859523Y-82550057D01*
X89859523Y-82550057D02*
X89907142Y-82645295D01*
X89907142Y-82645295D02*
X89907142Y-82788152D01*
X89907142Y-82788152D02*
X89859523Y-82883390D01*
X89859523Y-82883390D02*
X89811904Y-82931009D01*
X89811904Y-82931009D02*
X89716666Y-82978628D01*
X89716666Y-82978628D02*
X89335714Y-82978628D01*
X90859523Y-83454819D02*
X90288095Y-83454819D01*
X90573809Y-83454819D02*
X90573809Y-82454819D01*
X90573809Y-82454819D02*
X90478571Y-82597676D01*
X90478571Y-82597676D02*
X90383333Y-82692914D01*
X90383333Y-82692914D02*
X90288095Y-82740533D01*
X91716666Y-82788152D02*
X91716666Y-83454819D01*
X91478571Y-82407200D02*
X91240476Y-83121485D01*
X91240476Y-83121485D02*
X91859523Y-83121485D01*
X118388095Y-80904819D02*
X118959523Y-80904819D01*
X118673809Y-81904819D02*
X118673809Y-80904819D01*
X119292857Y-81904819D02*
X119292857Y-80904819D01*
X119292857Y-80904819D02*
X119673809Y-80904819D01*
X119673809Y-80904819D02*
X119769047Y-80952438D01*
X119769047Y-80952438D02*
X119816666Y-81000057D01*
X119816666Y-81000057D02*
X119864285Y-81095295D01*
X119864285Y-81095295D02*
X119864285Y-81238152D01*
X119864285Y-81238152D02*
X119816666Y-81333390D01*
X119816666Y-81333390D02*
X119769047Y-81381009D01*
X119769047Y-81381009D02*
X119673809Y-81428628D01*
X119673809Y-81428628D02*
X119292857Y-81428628D01*
X120816666Y-81904819D02*
X120245238Y-81904819D01*
X120530952Y-81904819D02*
X120530952Y-80904819D01*
X120530952Y-80904819D02*
X120435714Y-81047676D01*
X120435714Y-81047676D02*
X120340476Y-81142914D01*
X120340476Y-81142914D02*
X120245238Y-81190533D01*
X155952819Y-51686904D02*
X156762342Y-51686904D01*
X156762342Y-51686904D02*
X156857580Y-51639285D01*
X156857580Y-51639285D02*
X156905200Y-51591666D01*
X156905200Y-51591666D02*
X156952819Y-51496428D01*
X156952819Y-51496428D02*
X156952819Y-51305952D01*
X156952819Y-51305952D02*
X156905200Y-51210714D01*
X156905200Y-51210714D02*
X156857580Y-51163095D01*
X156857580Y-51163095D02*
X156762342Y-51115476D01*
X156762342Y-51115476D02*
X155952819Y-51115476D01*
X156952819Y-50115476D02*
X156952819Y-50686904D01*
X156952819Y-50401190D02*
X155952819Y-50401190D01*
X155952819Y-50401190D02*
X156095676Y-50496428D01*
X156095676Y-50496428D02*
X156190914Y-50591666D01*
X156190914Y-50591666D02*
X156238533Y-50686904D01*
X127954819Y-80142857D02*
X127478628Y-80476190D01*
X127954819Y-80714285D02*
X126954819Y-80714285D01*
X126954819Y-80714285D02*
X126954819Y-80333333D01*
X126954819Y-80333333D02*
X127002438Y-80238095D01*
X127002438Y-80238095D02*
X127050057Y-80190476D01*
X127050057Y-80190476D02*
X127145295Y-80142857D01*
X127145295Y-80142857D02*
X127288152Y-80142857D01*
X127288152Y-80142857D02*
X127383390Y-80190476D01*
X127383390Y-80190476D02*
X127431009Y-80238095D01*
X127431009Y-80238095D02*
X127478628Y-80333333D01*
X127478628Y-80333333D02*
X127478628Y-80714285D01*
X127954819Y-79190476D02*
X127954819Y-79761904D01*
X127954819Y-79476190D02*
X126954819Y-79476190D01*
X126954819Y-79476190D02*
X127097676Y-79571428D01*
X127097676Y-79571428D02*
X127192914Y-79666666D01*
X127192914Y-79666666D02*
X127240533Y-79761904D01*
X127954819Y-78238095D02*
X127954819Y-78809523D01*
X127954819Y-78523809D02*
X126954819Y-78523809D01*
X126954819Y-78523809D02*
X127097676Y-78619047D01*
X127097676Y-78619047D02*
X127192914Y-78714285D01*
X127192914Y-78714285D02*
X127240533Y-78809523D01*
X110833333Y-103054819D02*
X110500000Y-102578628D01*
X110261905Y-103054819D02*
X110261905Y-102054819D01*
X110261905Y-102054819D02*
X110642857Y-102054819D01*
X110642857Y-102054819D02*
X110738095Y-102102438D01*
X110738095Y-102102438D02*
X110785714Y-102150057D01*
X110785714Y-102150057D02*
X110833333Y-102245295D01*
X110833333Y-102245295D02*
X110833333Y-102388152D01*
X110833333Y-102388152D02*
X110785714Y-102483390D01*
X110785714Y-102483390D02*
X110738095Y-102531009D01*
X110738095Y-102531009D02*
X110642857Y-102578628D01*
X110642857Y-102578628D02*
X110261905Y-102578628D01*
X111690476Y-102388152D02*
X111690476Y-103054819D01*
X111452381Y-102007200D02*
X111214286Y-102721485D01*
X111214286Y-102721485D02*
X111833333Y-102721485D01*
X119554819Y-90488094D02*
X118554819Y-90488094D01*
X118554819Y-90488094D02*
X118554819Y-90249999D01*
X118554819Y-90249999D02*
X118602438Y-90107142D01*
X118602438Y-90107142D02*
X118697676Y-90011904D01*
X118697676Y-90011904D02*
X118792914Y-89964285D01*
X118792914Y-89964285D02*
X118983390Y-89916666D01*
X118983390Y-89916666D02*
X119126247Y-89916666D01*
X119126247Y-89916666D02*
X119316723Y-89964285D01*
X119316723Y-89964285D02*
X119411961Y-90011904D01*
X119411961Y-90011904D02*
X119507200Y-90107142D01*
X119507200Y-90107142D02*
X119554819Y-90249999D01*
X119554819Y-90249999D02*
X119554819Y-90488094D01*
X119554819Y-88964285D02*
X119554819Y-89535713D01*
X119554819Y-89249999D02*
X118554819Y-89249999D01*
X118554819Y-89249999D02*
X118697676Y-89345237D01*
X118697676Y-89345237D02*
X118792914Y-89440475D01*
X118792914Y-89440475D02*
X118840533Y-89535713D01*
X121746819Y-98968094D02*
X120746819Y-98968094D01*
X120746819Y-98968094D02*
X120746819Y-98729999D01*
X120746819Y-98729999D02*
X120794438Y-98587142D01*
X120794438Y-98587142D02*
X120889676Y-98491904D01*
X120889676Y-98491904D02*
X120984914Y-98444285D01*
X120984914Y-98444285D02*
X121175390Y-98396666D01*
X121175390Y-98396666D02*
X121318247Y-98396666D01*
X121318247Y-98396666D02*
X121508723Y-98444285D01*
X121508723Y-98444285D02*
X121603961Y-98491904D01*
X121603961Y-98491904D02*
X121699200Y-98587142D01*
X121699200Y-98587142D02*
X121746819Y-98729999D01*
X121746819Y-98729999D02*
X121746819Y-98968094D01*
X120746819Y-97491904D02*
X120746819Y-97968094D01*
X120746819Y-97968094D02*
X121223009Y-98015713D01*
X121223009Y-98015713D02*
X121175390Y-97968094D01*
X121175390Y-97968094D02*
X121127771Y-97872856D01*
X121127771Y-97872856D02*
X121127771Y-97634761D01*
X121127771Y-97634761D02*
X121175390Y-97539523D01*
X121175390Y-97539523D02*
X121223009Y-97491904D01*
X121223009Y-97491904D02*
X121318247Y-97444285D01*
X121318247Y-97444285D02*
X121556342Y-97444285D01*
X121556342Y-97444285D02*
X121651580Y-97491904D01*
X121651580Y-97491904D02*
X121699200Y-97539523D01*
X121699200Y-97539523D02*
X121746819Y-97634761D01*
X121746819Y-97634761D02*
X121746819Y-97872856D01*
X121746819Y-97872856D02*
X121699200Y-97968094D01*
X121699200Y-97968094D02*
X121651580Y-98015713D01*
X84854819Y-78666666D02*
X84378628Y-78999999D01*
X84854819Y-79238094D02*
X83854819Y-79238094D01*
X83854819Y-79238094D02*
X83854819Y-78857142D01*
X83854819Y-78857142D02*
X83902438Y-78761904D01*
X83902438Y-78761904D02*
X83950057Y-78714285D01*
X83950057Y-78714285D02*
X84045295Y-78666666D01*
X84045295Y-78666666D02*
X84188152Y-78666666D01*
X84188152Y-78666666D02*
X84283390Y-78714285D01*
X84283390Y-78714285D02*
X84331009Y-78761904D01*
X84331009Y-78761904D02*
X84378628Y-78857142D01*
X84378628Y-78857142D02*
X84378628Y-79238094D01*
X83854819Y-77761904D02*
X83854819Y-78238094D01*
X83854819Y-78238094D02*
X84331009Y-78285713D01*
X84331009Y-78285713D02*
X84283390Y-78238094D01*
X84283390Y-78238094D02*
X84235771Y-78142856D01*
X84235771Y-78142856D02*
X84235771Y-77904761D01*
X84235771Y-77904761D02*
X84283390Y-77809523D01*
X84283390Y-77809523D02*
X84331009Y-77761904D01*
X84331009Y-77761904D02*
X84426247Y-77714285D01*
X84426247Y-77714285D02*
X84664342Y-77714285D01*
X84664342Y-77714285D02*
X84759580Y-77761904D01*
X84759580Y-77761904D02*
X84807200Y-77809523D01*
X84807200Y-77809523D02*
X84854819Y-77904761D01*
X84854819Y-77904761D02*
X84854819Y-78142856D01*
X84854819Y-78142856D02*
X84807200Y-78238094D01*
X84807200Y-78238094D02*
X84759580Y-78285713D01*
X167664819Y-96454404D02*
X168474342Y-96454404D01*
X168474342Y-96454404D02*
X168569580Y-96406785D01*
X168569580Y-96406785D02*
X168617200Y-96359166D01*
X168617200Y-96359166D02*
X168664819Y-96263928D01*
X168664819Y-96263928D02*
X168664819Y-96073452D01*
X168664819Y-96073452D02*
X168617200Y-95978214D01*
X168617200Y-95978214D02*
X168569580Y-95930595D01*
X168569580Y-95930595D02*
X168474342Y-95882976D01*
X168474342Y-95882976D02*
X167664819Y-95882976D01*
X167760057Y-95454404D02*
X167712438Y-95406785D01*
X167712438Y-95406785D02*
X167664819Y-95311547D01*
X167664819Y-95311547D02*
X167664819Y-95073452D01*
X167664819Y-95073452D02*
X167712438Y-94978214D01*
X167712438Y-94978214D02*
X167760057Y-94930595D01*
X167760057Y-94930595D02*
X167855295Y-94882976D01*
X167855295Y-94882976D02*
X167950533Y-94882976D01*
X167950533Y-94882976D02*
X168093390Y-94930595D01*
X168093390Y-94930595D02*
X168664819Y-95502023D01*
X168664819Y-95502023D02*
X168664819Y-94882976D01*
X83107142Y-83454819D02*
X82773809Y-82978628D01*
X82535714Y-83454819D02*
X82535714Y-82454819D01*
X82535714Y-82454819D02*
X82916666Y-82454819D01*
X82916666Y-82454819D02*
X83011904Y-82502438D01*
X83011904Y-82502438D02*
X83059523Y-82550057D01*
X83059523Y-82550057D02*
X83107142Y-82645295D01*
X83107142Y-82645295D02*
X83107142Y-82788152D01*
X83107142Y-82788152D02*
X83059523Y-82883390D01*
X83059523Y-82883390D02*
X83011904Y-82931009D01*
X83011904Y-82931009D02*
X82916666Y-82978628D01*
X82916666Y-82978628D02*
X82535714Y-82978628D01*
X84059523Y-83454819D02*
X83488095Y-83454819D01*
X83773809Y-83454819D02*
X83773809Y-82454819D01*
X83773809Y-82454819D02*
X83678571Y-82597676D01*
X83678571Y-82597676D02*
X83583333Y-82692914D01*
X83583333Y-82692914D02*
X83488095Y-82740533D01*
X84392857Y-82454819D02*
X85011904Y-82454819D01*
X85011904Y-82454819D02*
X84678571Y-82835771D01*
X84678571Y-82835771D02*
X84821428Y-82835771D01*
X84821428Y-82835771D02*
X84916666Y-82883390D01*
X84916666Y-82883390D02*
X84964285Y-82931009D01*
X84964285Y-82931009D02*
X85011904Y-83026247D01*
X85011904Y-83026247D02*
X85011904Y-83264342D01*
X85011904Y-83264342D02*
X84964285Y-83359580D01*
X84964285Y-83359580D02*
X84916666Y-83407200D01*
X84916666Y-83407200D02*
X84821428Y-83454819D01*
X84821428Y-83454819D02*
X84535714Y-83454819D01*
X84535714Y-83454819D02*
X84440476Y-83407200D01*
X84440476Y-83407200D02*
X84392857Y-83359580D01*
X76238095Y-82954819D02*
X76238095Y-83764342D01*
X76238095Y-83764342D02*
X76285714Y-83859580D01*
X76285714Y-83859580D02*
X76333333Y-83907200D01*
X76333333Y-83907200D02*
X76428571Y-83954819D01*
X76428571Y-83954819D02*
X76619047Y-83954819D01*
X76619047Y-83954819D02*
X76714285Y-83907200D01*
X76714285Y-83907200D02*
X76761904Y-83859580D01*
X76761904Y-83859580D02*
X76809523Y-83764342D01*
X76809523Y-83764342D02*
X76809523Y-82954819D01*
X77190476Y-82954819D02*
X77809523Y-82954819D01*
X77809523Y-82954819D02*
X77476190Y-83335771D01*
X77476190Y-83335771D02*
X77619047Y-83335771D01*
X77619047Y-83335771D02*
X77714285Y-83383390D01*
X77714285Y-83383390D02*
X77761904Y-83431009D01*
X77761904Y-83431009D02*
X77809523Y-83526247D01*
X77809523Y-83526247D02*
X77809523Y-83764342D01*
X77809523Y-83764342D02*
X77761904Y-83859580D01*
X77761904Y-83859580D02*
X77714285Y-83907200D01*
X77714285Y-83907200D02*
X77619047Y-83954819D01*
X77619047Y-83954819D02*
X77333333Y-83954819D01*
X77333333Y-83954819D02*
X77238095Y-83907200D01*
X77238095Y-83907200D02*
X77190476Y-83859580D01*
X110633333Y-94554819D02*
X110300000Y-94078628D01*
X110061905Y-94554819D02*
X110061905Y-93554819D01*
X110061905Y-93554819D02*
X110442857Y-93554819D01*
X110442857Y-93554819D02*
X110538095Y-93602438D01*
X110538095Y-93602438D02*
X110585714Y-93650057D01*
X110585714Y-93650057D02*
X110633333Y-93745295D01*
X110633333Y-93745295D02*
X110633333Y-93888152D01*
X110633333Y-93888152D02*
X110585714Y-93983390D01*
X110585714Y-93983390D02*
X110538095Y-94031009D01*
X110538095Y-94031009D02*
X110442857Y-94078628D01*
X110442857Y-94078628D02*
X110061905Y-94078628D01*
X111014286Y-93650057D02*
X111061905Y-93602438D01*
X111061905Y-93602438D02*
X111157143Y-93554819D01*
X111157143Y-93554819D02*
X111395238Y-93554819D01*
X111395238Y-93554819D02*
X111490476Y-93602438D01*
X111490476Y-93602438D02*
X111538095Y-93650057D01*
X111538095Y-93650057D02*
X111585714Y-93745295D01*
X111585714Y-93745295D02*
X111585714Y-93840533D01*
X111585714Y-93840533D02*
X111538095Y-93983390D01*
X111538095Y-93983390D02*
X110966667Y-94554819D01*
X110966667Y-94554819D02*
X111585714Y-94554819D01*
X119454819Y-107508094D02*
X118454819Y-107508094D01*
X118454819Y-107508094D02*
X118454819Y-107269999D01*
X118454819Y-107269999D02*
X118502438Y-107127142D01*
X118502438Y-107127142D02*
X118597676Y-107031904D01*
X118597676Y-107031904D02*
X118692914Y-106984285D01*
X118692914Y-106984285D02*
X118883390Y-106936666D01*
X118883390Y-106936666D02*
X119026247Y-106936666D01*
X119026247Y-106936666D02*
X119216723Y-106984285D01*
X119216723Y-106984285D02*
X119311961Y-107031904D01*
X119311961Y-107031904D02*
X119407200Y-107127142D01*
X119407200Y-107127142D02*
X119454819Y-107269999D01*
X119454819Y-107269999D02*
X119454819Y-107508094D01*
X118550057Y-106555713D02*
X118502438Y-106508094D01*
X118502438Y-106508094D02*
X118454819Y-106412856D01*
X118454819Y-106412856D02*
X118454819Y-106174761D01*
X118454819Y-106174761D02*
X118502438Y-106079523D01*
X118502438Y-106079523D02*
X118550057Y-106031904D01*
X118550057Y-106031904D02*
X118645295Y-105984285D01*
X118645295Y-105984285D02*
X118740533Y-105984285D01*
X118740533Y-105984285D02*
X118883390Y-106031904D01*
X118883390Y-106031904D02*
X119454819Y-106603332D01*
X119454819Y-106603332D02*
X119454819Y-105984285D01*
X119454819Y-98988094D02*
X118454819Y-98988094D01*
X118454819Y-98988094D02*
X118454819Y-98749999D01*
X118454819Y-98749999D02*
X118502438Y-98607142D01*
X118502438Y-98607142D02*
X118597676Y-98511904D01*
X118597676Y-98511904D02*
X118692914Y-98464285D01*
X118692914Y-98464285D02*
X118883390Y-98416666D01*
X118883390Y-98416666D02*
X119026247Y-98416666D01*
X119026247Y-98416666D02*
X119216723Y-98464285D01*
X119216723Y-98464285D02*
X119311961Y-98511904D01*
X119311961Y-98511904D02*
X119407200Y-98607142D01*
X119407200Y-98607142D02*
X119454819Y-98749999D01*
X119454819Y-98749999D02*
X119454819Y-98988094D01*
X118788152Y-97559523D02*
X119454819Y-97559523D01*
X118407200Y-97797618D02*
X119121485Y-98035713D01*
X119121485Y-98035713D02*
X119121485Y-97416666D01*
X109757142Y-86004819D02*
X109423809Y-85528628D01*
X109185714Y-86004819D02*
X109185714Y-85004819D01*
X109185714Y-85004819D02*
X109566666Y-85004819D01*
X109566666Y-85004819D02*
X109661904Y-85052438D01*
X109661904Y-85052438D02*
X109709523Y-85100057D01*
X109709523Y-85100057D02*
X109757142Y-85195295D01*
X109757142Y-85195295D02*
X109757142Y-85338152D01*
X109757142Y-85338152D02*
X109709523Y-85433390D01*
X109709523Y-85433390D02*
X109661904Y-85481009D01*
X109661904Y-85481009D02*
X109566666Y-85528628D01*
X109566666Y-85528628D02*
X109185714Y-85528628D01*
X110709523Y-86004819D02*
X110138095Y-86004819D01*
X110423809Y-86004819D02*
X110423809Y-85004819D01*
X110423809Y-85004819D02*
X110328571Y-85147676D01*
X110328571Y-85147676D02*
X110233333Y-85242914D01*
X110233333Y-85242914D02*
X110138095Y-85290533D01*
X111328571Y-85004819D02*
X111423809Y-85004819D01*
X111423809Y-85004819D02*
X111519047Y-85052438D01*
X111519047Y-85052438D02*
X111566666Y-85100057D01*
X111566666Y-85100057D02*
X111614285Y-85195295D01*
X111614285Y-85195295D02*
X111661904Y-85385771D01*
X111661904Y-85385771D02*
X111661904Y-85623866D01*
X111661904Y-85623866D02*
X111614285Y-85814342D01*
X111614285Y-85814342D02*
X111566666Y-85909580D01*
X111566666Y-85909580D02*
X111519047Y-85957200D01*
X111519047Y-85957200D02*
X111423809Y-86004819D01*
X111423809Y-86004819D02*
X111328571Y-86004819D01*
X111328571Y-86004819D02*
X111233333Y-85957200D01*
X111233333Y-85957200D02*
X111185714Y-85909580D01*
X111185714Y-85909580D02*
X111138095Y-85814342D01*
X111138095Y-85814342D02*
X111090476Y-85623866D01*
X111090476Y-85623866D02*
X111090476Y-85385771D01*
X111090476Y-85385771D02*
X111138095Y-85195295D01*
X111138095Y-85195295D02*
X111185714Y-85100057D01*
X111185714Y-85100057D02*
X111233333Y-85052438D01*
X111233333Y-85052438D02*
X111328571Y-85004819D01*
X162454819Y-77666666D02*
X161978628Y-77999999D01*
X162454819Y-78238094D02*
X161454819Y-78238094D01*
X161454819Y-78238094D02*
X161454819Y-77857142D01*
X161454819Y-77857142D02*
X161502438Y-77761904D01*
X161502438Y-77761904D02*
X161550057Y-77714285D01*
X161550057Y-77714285D02*
X161645295Y-77666666D01*
X161645295Y-77666666D02*
X161788152Y-77666666D01*
X161788152Y-77666666D02*
X161883390Y-77714285D01*
X161883390Y-77714285D02*
X161931009Y-77761904D01*
X161931009Y-77761904D02*
X161978628Y-77857142D01*
X161978628Y-77857142D02*
X161978628Y-78238094D01*
X161883390Y-77095237D02*
X161835771Y-77190475D01*
X161835771Y-77190475D02*
X161788152Y-77238094D01*
X161788152Y-77238094D02*
X161692914Y-77285713D01*
X161692914Y-77285713D02*
X161645295Y-77285713D01*
X161645295Y-77285713D02*
X161550057Y-77238094D01*
X161550057Y-77238094D02*
X161502438Y-77190475D01*
X161502438Y-77190475D02*
X161454819Y-77095237D01*
X161454819Y-77095237D02*
X161454819Y-76904761D01*
X161454819Y-76904761D02*
X161502438Y-76809523D01*
X161502438Y-76809523D02*
X161550057Y-76761904D01*
X161550057Y-76761904D02*
X161645295Y-76714285D01*
X161645295Y-76714285D02*
X161692914Y-76714285D01*
X161692914Y-76714285D02*
X161788152Y-76761904D01*
X161788152Y-76761904D02*
X161835771Y-76809523D01*
X161835771Y-76809523D02*
X161883390Y-76904761D01*
X161883390Y-76904761D02*
X161883390Y-77095237D01*
X161883390Y-77095237D02*
X161931009Y-77190475D01*
X161931009Y-77190475D02*
X161978628Y-77238094D01*
X161978628Y-77238094D02*
X162073866Y-77285713D01*
X162073866Y-77285713D02*
X162264342Y-77285713D01*
X162264342Y-77285713D02*
X162359580Y-77238094D01*
X162359580Y-77238094D02*
X162407200Y-77190475D01*
X162407200Y-77190475D02*
X162454819Y-77095237D01*
X162454819Y-77095237D02*
X162454819Y-76904761D01*
X162454819Y-76904761D02*
X162407200Y-76809523D01*
X162407200Y-76809523D02*
X162359580Y-76761904D01*
X162359580Y-76761904D02*
X162264342Y-76714285D01*
X162264342Y-76714285D02*
X162073866Y-76714285D01*
X162073866Y-76714285D02*
X161978628Y-76761904D01*
X161978628Y-76761904D02*
X161931009Y-76809523D01*
X161931009Y-76809523D02*
X161883390Y-76904761D01*
X90454819Y-78766666D02*
X89978628Y-79099999D01*
X90454819Y-79338094D02*
X89454819Y-79338094D01*
X89454819Y-79338094D02*
X89454819Y-78957142D01*
X89454819Y-78957142D02*
X89502438Y-78861904D01*
X89502438Y-78861904D02*
X89550057Y-78814285D01*
X89550057Y-78814285D02*
X89645295Y-78766666D01*
X89645295Y-78766666D02*
X89788152Y-78766666D01*
X89788152Y-78766666D02*
X89883390Y-78814285D01*
X89883390Y-78814285D02*
X89931009Y-78861904D01*
X89931009Y-78861904D02*
X89978628Y-78957142D01*
X89978628Y-78957142D02*
X89978628Y-79338094D01*
X90454819Y-78290475D02*
X90454819Y-78099999D01*
X90454819Y-78099999D02*
X90407200Y-78004761D01*
X90407200Y-78004761D02*
X90359580Y-77957142D01*
X90359580Y-77957142D02*
X90216723Y-77861904D01*
X90216723Y-77861904D02*
X90026247Y-77814285D01*
X90026247Y-77814285D02*
X89645295Y-77814285D01*
X89645295Y-77814285D02*
X89550057Y-77861904D01*
X89550057Y-77861904D02*
X89502438Y-77909523D01*
X89502438Y-77909523D02*
X89454819Y-78004761D01*
X89454819Y-78004761D02*
X89454819Y-78195237D01*
X89454819Y-78195237D02*
X89502438Y-78290475D01*
X89502438Y-78290475D02*
X89550057Y-78338094D01*
X89550057Y-78338094D02*
X89645295Y-78385713D01*
X89645295Y-78385713D02*
X89883390Y-78385713D01*
X89883390Y-78385713D02*
X89978628Y-78338094D01*
X89978628Y-78338094D02*
X90026247Y-78290475D01*
X90026247Y-78290475D02*
X90073866Y-78195237D01*
X90073866Y-78195237D02*
X90073866Y-78004761D01*
X90073866Y-78004761D02*
X90026247Y-77909523D01*
X90026247Y-77909523D02*
X89978628Y-77861904D01*
X89978628Y-77861904D02*
X89883390Y-77814285D01*
X121604819Y-90488094D02*
X120604819Y-90488094D01*
X120604819Y-90488094D02*
X120604819Y-90249999D01*
X120604819Y-90249999D02*
X120652438Y-90107142D01*
X120652438Y-90107142D02*
X120747676Y-90011904D01*
X120747676Y-90011904D02*
X120842914Y-89964285D01*
X120842914Y-89964285D02*
X121033390Y-89916666D01*
X121033390Y-89916666D02*
X121176247Y-89916666D01*
X121176247Y-89916666D02*
X121366723Y-89964285D01*
X121366723Y-89964285D02*
X121461961Y-90011904D01*
X121461961Y-90011904D02*
X121557200Y-90107142D01*
X121557200Y-90107142D02*
X121604819Y-90249999D01*
X121604819Y-90249999D02*
X121604819Y-90488094D01*
X120604819Y-89059523D02*
X120604819Y-89249999D01*
X120604819Y-89249999D02*
X120652438Y-89345237D01*
X120652438Y-89345237D02*
X120700057Y-89392856D01*
X120700057Y-89392856D02*
X120842914Y-89488094D01*
X120842914Y-89488094D02*
X121033390Y-89535713D01*
X121033390Y-89535713D02*
X121414342Y-89535713D01*
X121414342Y-89535713D02*
X121509580Y-89488094D01*
X121509580Y-89488094D02*
X121557200Y-89440475D01*
X121557200Y-89440475D02*
X121604819Y-89345237D01*
X121604819Y-89345237D02*
X121604819Y-89154761D01*
X121604819Y-89154761D02*
X121557200Y-89059523D01*
X121557200Y-89059523D02*
X121509580Y-89011904D01*
X121509580Y-89011904D02*
X121414342Y-88964285D01*
X121414342Y-88964285D02*
X121176247Y-88964285D01*
X121176247Y-88964285D02*
X121081009Y-89011904D01*
X121081009Y-89011904D02*
X121033390Y-89059523D01*
X121033390Y-89059523D02*
X120985771Y-89154761D01*
X120985771Y-89154761D02*
X120985771Y-89345237D01*
X120985771Y-89345237D02*
X121033390Y-89440475D01*
X121033390Y-89440475D02*
X121081009Y-89488094D01*
X121081009Y-89488094D02*
X121176247Y-89535713D01*
X119657142Y-85954819D02*
X119323809Y-85478628D01*
X119085714Y-85954819D02*
X119085714Y-84954819D01*
X119085714Y-84954819D02*
X119466666Y-84954819D01*
X119466666Y-84954819D02*
X119561904Y-85002438D01*
X119561904Y-85002438D02*
X119609523Y-85050057D01*
X119609523Y-85050057D02*
X119657142Y-85145295D01*
X119657142Y-85145295D02*
X119657142Y-85288152D01*
X119657142Y-85288152D02*
X119609523Y-85383390D01*
X119609523Y-85383390D02*
X119561904Y-85431009D01*
X119561904Y-85431009D02*
X119466666Y-85478628D01*
X119466666Y-85478628D02*
X119085714Y-85478628D01*
X120609523Y-85954819D02*
X120038095Y-85954819D01*
X120323809Y-85954819D02*
X120323809Y-84954819D01*
X120323809Y-84954819D02*
X120228571Y-85097676D01*
X120228571Y-85097676D02*
X120133333Y-85192914D01*
X120133333Y-85192914D02*
X120038095Y-85240533D01*
X120990476Y-85050057D02*
X121038095Y-85002438D01*
X121038095Y-85002438D02*
X121133333Y-84954819D01*
X121133333Y-84954819D02*
X121371428Y-84954819D01*
X121371428Y-84954819D02*
X121466666Y-85002438D01*
X121466666Y-85002438D02*
X121514285Y-85050057D01*
X121514285Y-85050057D02*
X121561904Y-85145295D01*
X121561904Y-85145295D02*
X121561904Y-85240533D01*
X121561904Y-85240533D02*
X121514285Y-85383390D01*
X121514285Y-85383390D02*
X120942857Y-85954819D01*
X120942857Y-85954819D02*
X121561904Y-85954819D01*
D12*
%TO.C,TP2*%
X78920000Y-80950000D02*
G75*
G02*
X76380000Y-80950000I-1270000J0D01*
G01*
X76380000Y-80950000D02*
G75*
G02*
X78920000Y-80950000I1270000J0D01*
G01*
D13*
%TO.C,R1*%
X125562742Y-93527500D02*
X126037258Y-93527500D01*
X125562742Y-94572500D02*
X126037258Y-94572500D01*
D12*
%TO.C,D3*%
X123434000Y-109270000D02*
X126566000Y-109270000D01*
X123434000Y-109270000D02*
G75*
G02*
X126566000Y-109270000I1566000J2506124D01*
G01*
D14*
X125100000Y-109970000D02*
G75*
G02*
X124900000Y-109970000I-100000J0D01*
G01*
X124900000Y-109970000D02*
G75*
G02*
X125100000Y-109970000I100000J0D01*
G01*
D15*
%TO.C,U4*%
X136934600Y-87460000D02*
G75*
G02*
X134445400Y-87460000I-1244600J0D01*
G01*
X134445400Y-87460000D02*
G75*
G02*
X136934600Y-87460000I1244600J0D01*
G01*
X146800000Y-90000000D02*
G75*
G02*
X132200000Y-90000000I-7300000J0D01*
G01*
X132200000Y-90000000D02*
G75*
G02*
X146800000Y-90000000I7300000J0D01*
G01*
D13*
%TO.C,R3*%
X123737258Y-102077500D02*
X123262742Y-102077500D01*
X123737258Y-103122500D02*
X123262742Y-103122500D01*
%TO.C,R14*%
X90337742Y-80977500D02*
X90812258Y-80977500D01*
X90337742Y-82022500D02*
X90812258Y-82022500D01*
D12*
%TO.C,TP1*%
X120920000Y-78700000D02*
G75*
G02*
X118380000Y-78700000I-1270000J0D01*
G01*
X118380000Y-78700000D02*
G75*
G02*
X120920000Y-78700000I1270000J0D01*
G01*
%TO.C,U1*%
X75363000Y-47750000D02*
X75363000Y-75750000D01*
X75363000Y-75750000D02*
X155363000Y-75750000D01*
X155363000Y-47750000D02*
X75363000Y-47750000D01*
X155363000Y-75750000D02*
X155363000Y-47750000D01*
D13*
%TO.C,R11*%
X126977500Y-82737258D02*
X126977500Y-82262742D01*
X128022500Y-82737258D02*
X128022500Y-82262742D01*
%TO.C,R4*%
X113737258Y-102077500D02*
X113262742Y-102077500D01*
X113737258Y-103122500D02*
X113262742Y-103122500D01*
D12*
%TO.C,D1*%
X113434000Y-92270000D02*
X116566000Y-92270000D01*
X113434000Y-92270000D02*
G75*
G02*
X116566000Y-92270000I1566000J2506124D01*
G01*
D14*
X115100000Y-92970000D02*
G75*
G02*
X114900000Y-92970000I-100000J0D01*
G01*
X114900000Y-92970000D02*
G75*
G02*
X115100000Y-92970000I100000J0D01*
G01*
D12*
%TO.C,D5*%
X123434000Y-100770000D02*
X126566000Y-100770000D01*
X123434000Y-100770000D02*
G75*
G02*
X126566000Y-100770000I1566000J2506124D01*
G01*
D14*
X125100000Y-101470000D02*
G75*
G02*
X124900000Y-101470000I-100000J0D01*
G01*
X124900000Y-101470000D02*
G75*
G02*
X125100000Y-101470000I100000J0D01*
G01*
D13*
%TO.C,R5*%
X85377500Y-78837258D02*
X85377500Y-78362742D01*
X86422500Y-78837258D02*
X86422500Y-78362742D01*
%TO.C,U2*%
X151700000Y-84942500D02*
X167300000Y-84942500D01*
X151700000Y-105142500D02*
X151700000Y-84942500D01*
X154500000Y-110442500D02*
X151700000Y-105142500D01*
X155690000Y-83302500D02*
X155690000Y-84942500D01*
X158230000Y-83302500D02*
X158230000Y-84942500D01*
X160770000Y-83302500D02*
X160770000Y-84942500D01*
X163310000Y-83302500D02*
X163310000Y-84942500D01*
X163410000Y-81192500D02*
X164410000Y-81192500D01*
X164410000Y-81192500D02*
X164410000Y-82192500D01*
X164500000Y-110442500D02*
X154500000Y-110442500D01*
X167300000Y-84942500D02*
X167300000Y-105142500D01*
X167300000Y-105142500D02*
X164500000Y-110442500D01*
%TO.C,R13*%
X83987258Y-80977500D02*
X83512742Y-80977500D01*
X83987258Y-82022500D02*
X83512742Y-82022500D01*
%TO.C,U3*%
X76100000Y-84300000D02*
X103500000Y-84300000D01*
X76100000Y-111600000D02*
X76100000Y-84300000D01*
X76522000Y-87595000D02*
X99622000Y-87595000D01*
X76522000Y-104195000D02*
X76522000Y-87595000D01*
X99622000Y-87595000D02*
X102708000Y-87595000D01*
X99622000Y-104195000D02*
X76522000Y-104195000D01*
X99622000Y-104195000D02*
X102962000Y-104220000D01*
X102962000Y-87583000D02*
X102708000Y-87595000D01*
X102962000Y-104220000D02*
X102962000Y-87583000D01*
X103500000Y-84300000D02*
X103500000Y-111600000D01*
X103500000Y-111600000D02*
X76100000Y-111600000D01*
D15*
X84750000Y-84600000D02*
X94750000Y-84600000D01*
X94750000Y-87350000D01*
X84750000Y-87350000D01*
X84750000Y-84600000D01*
D13*
%TO.C,R2*%
X113737258Y-93577500D02*
X113262742Y-93577500D01*
X113737258Y-94622500D02*
X113262742Y-94622500D01*
D12*
%TO.C,D2*%
X113434000Y-109270000D02*
X116566000Y-109270000D01*
X113434000Y-109270000D02*
G75*
G02*
X116566000Y-109270000I1566000J2506124D01*
G01*
D14*
X115100000Y-109970000D02*
G75*
G02*
X114900000Y-109970000I-100000J0D01*
G01*
X114900000Y-109970000D02*
G75*
G02*
X115100000Y-109970000I100000J0D01*
G01*
D12*
%TO.C,D4*%
X113434000Y-100770000D02*
X116566000Y-100770000D01*
X113434000Y-100770000D02*
G75*
G02*
X116566000Y-100770000I1566000J2506124D01*
G01*
D14*
X115100000Y-101470000D02*
G75*
G02*
X114900000Y-101470000I-100000J0D01*
G01*
X114900000Y-101470000D02*
G75*
G02*
X115100000Y-101470000I100000J0D01*
G01*
D13*
%TO.C,R10*%
X113262742Y-85077500D02*
X113737258Y-85077500D01*
X113262742Y-86122500D02*
X113737258Y-86122500D01*
%TO.C,R8*%
X159977500Y-77737258D02*
X159977500Y-77262742D01*
X161022500Y-77737258D02*
X161022500Y-77262742D01*
%TO.C,R9*%
X87877500Y-78362742D02*
X87877500Y-78837258D01*
X88922500Y-78362742D02*
X88922500Y-78837258D01*
D12*
%TO.C,D6*%
X123434000Y-92230000D02*
X126566000Y-92230000D01*
X123434000Y-92230000D02*
G75*
G02*
X126566000Y-92230000I1566000J2506124D01*
G01*
D14*
X125100000Y-92930000D02*
G75*
G02*
X124900000Y-92930000I-100000J0D01*
G01*
X124900000Y-92930000D02*
G75*
G02*
X125100000Y-92930000I100000J0D01*
G01*
D13*
%TO.C,R12*%
X123262742Y-85077500D02*
X123737258Y-85077500D01*
X123262742Y-86122500D02*
X123737258Y-86122500D01*
%TD*%
M02*
